<svg id="Layer_1" data-name="Layer 1" xmlns="http://www.w3.org/2000/svg" viewBox="0 0 80 80"><defs><style>.cls-1{fill:#fbfadf;}.cls-2{fill:#fbeeee;}.cls-3{fill:#eafbf1;}.cls-4{fill:#ecf6fc;}.cls-5{fill:#252f3e;}.cls-5,.cls-6{fill-rule:evenodd;}.cls-6{fill:#f90;}</style></defs><circle class="cls-1" cx="40" cy="40" r="38.52"/><circle class="cls-2" cx="40" cy="40" r="38.52"/><circle class="cls-3" cx="40" cy="40" r="38.52"/><circle class="cls-4" cx="40" cy="40" r="38.52"/><circle class="cls-3" cx="40" cy="40" r="38.52"/><g id="Layer_1-2" data-name="Layer 1-2"><g id="amazon-web-services-2.svg"><path class="cls-5" d="M31.11,36.73a5,5,0,0,0,.15,1.21,9.8,9.8,0,0,0,.44,1,.56.56,0,0,1,.09.31.52.52,0,0,1-.26.41l-.85.57a.56.56,0,0,1-.76-.07,4.86,4.86,0,0,1-.48-.64c-.14-.23-.27-.49-.42-.8a5,5,0,0,1-4,1.87,3.78,3.78,0,0,1-2.71-1,3.84,3.84,0,0,1,.23-5.39,5,5,0,0,1,3.32-1,9.73,9.73,0,0,1,1.43.1c.5.07,1,.18,1.56.3v-1a2.94,2.94,0,0,0-.64-2.16,3,3,0,0,0-2.2-.62,5.55,5.55,0,0,0-1.46.17,9.62,9.62,0,0,0-1.47.46,3.27,3.27,0,0,1-.47.18.81.81,0,0,1-.22,0c-.19,0-.28-.14-.28-.42v-.66a1,1,0,0,1,.09-.48,1,1,0,0,1,.38-.28,7.59,7.59,0,0,1,1.71-.61,7.92,7.92,0,0,1,2.11-.26A4.84,4.84,0,0,1,30,29.06a4.41,4.41,0,0,1,1.13,3.33v4.34Zm-5.49,2.06A4.26,4.26,0,0,0,27,38.54a3.09,3.09,0,0,0,1.29-.86,2.09,2.09,0,0,0,.46-.87,4.67,4.67,0,0,0,.13-1.17v-.58a7.33,7.33,0,0,0-1.24-.23,7.67,7.67,0,0,0-1.27-.08,3.06,3.06,0,0,0-2,.54,2.23,2.23,0,0,0-.16,3A1.91,1.91,0,0,0,25.62,38.79Zm10.87,1.46a.75.75,0,0,1-.52-.14,1.2,1.2,0,0,1-.28-.52L32.51,29.13a2.62,2.62,0,0,1-.12-.54c0-.22.1-.34.32-.34H34a.69.69,0,0,1,.52.13,1,1,0,0,1,.27.53l2.28,9,2.11-9a1.1,1.1,0,0,1,.26-.53.87.87,0,0,1,.54-.13H41.1a.8.8,0,0,1,.54.13.84.84,0,0,1,.26.53L44,38l2.35-9.07a1.12,1.12,0,0,1,.27-.53.81.81,0,0,1,.52-.13h1.26a.29.29,0,0,1,.34.25.14.14,0,0,1,0,.09.74.74,0,0,1,0,.21,2.46,2.46,0,0,1-.09.34L45.39,39.6a1,1,0,0,1-.29.53.9.9,0,0,1-.51.13H43.43a1,1,0,0,1-.55-.13,1.12,1.12,0,0,1-.25-.54l-2.1-8.73-2.08,8.71a1,1,0,0,1-.26.54.89.89,0,0,1-.54.14Zm17.38.36a9.16,9.16,0,0,1-2.08-.24,6.71,6.71,0,0,1-1.56-.54,1.18,1.18,0,0,1-.42-.38,1.23,1.23,0,0,1-.08-.38v-.69c0-.28.11-.42.31-.42h.25l.33.14a8.6,8.6,0,0,0,1.49.47,8.7,8.7,0,0,0,1.61.16,3.74,3.74,0,0,0,2-.44,1.46,1.46,0,0,0,.7-1.29,1.23,1.23,0,0,0-.36-.94,3.33,3.33,0,0,0-1.37-.71l-2-.61a4.22,4.22,0,0,1-2.17-1.38,3.3,3.3,0,0,1-.67-2,3.11,3.11,0,0,1,.36-1.5,3.68,3.68,0,0,1,1-1.11,4.19,4.19,0,0,1,1.4-.7,5.27,5.27,0,0,1,1.71-.23,5.37,5.37,0,0,1,.9.05,4.75,4.75,0,0,1,.88.15,4.7,4.7,0,0,1,.78.22,2.15,2.15,0,0,1,.56.24,1.12,1.12,0,0,1,.41.34.68.68,0,0,1,.12.44v.64c0,.28-.11.43-.31.43a1.59,1.59,0,0,1-.51-.16,5.94,5.94,0,0,0-2.6-.53,3.43,3.43,0,0,0-1.8.38,1.33,1.33,0,0,0-.64,1.21,1.35,1.35,0,0,0,.41,1,4.37,4.37,0,0,0,1.47.83l1.92.61A4,4,0,0,1,58,35a3,3,0,0,1,.62,1.89,3.43,3.43,0,0,1-.35,1.57,3.68,3.68,0,0,1-1,1.19,4.52,4.52,0,0,1-1.5.76,6.65,6.65,0,0,1-1.94.28Z"/><path class="cls-6" d="M56.43,47.19c-4.45,3.29-10.92,5-16.48,5a29.9,29.9,0,0,1-20.12-7.67c-.42-.38,0-.89.46-.59a40.6,40.6,0,0,0,20.13,5.34,40.25,40.25,0,0,0,15.36-3.11C56.52,45.82,57.16,46.65,56.43,47.19Z"/><path class="cls-6" d="M58.28,45.06c-.57-.73-3.76-.35-5.21-.18-.43.06-.5-.32-.11-.6,2.55-1.79,6.73-1.28,7.22-.68s-.14,4.79-2.52,6.79c-.37.31-.72.15-.55-.26C57.65,48.79,58.85,45.78,58.28,45.06Z"/></g></g></svg>