<svg id="Layer_1" data-name="Layer 1" xmlns="http://www.w3.org/2000/svg" viewBox="0 0 80 80"><defs><style>.cls-1{fill:#ecf6fc;}.cls-2{fill:#040606;}.cls-3{fill:#00aade;}.cls-4{fill:#2c566f;}.cls-5{fill:#060500;}.cls-6{fill:#fdcd00;}.cls-7{fill:#060400;}.cls-8{fill:#ef8216;}</style></defs><circle class="cls-1" cx="40" cy="40" r="38.52"/><path class="cls-2" d="M50.73,48.11c0,.44,0,.88,0,1.31s.06.4.37.39c.81,0,1.62,0,2.43,0,.37,0,.73,0,.73.5s-.36.48-.7.47H51.12c-.29,0-.41,0-.4.36,0,.89,0,1.79,0,2.68,0,.33.12.36.39.35h2.48c.35,0,.65.07.65.47s-.3.51-.66.5c-.83,0-1.66,0-2.48,0-.31,0-.37.09-.38.38a3,3,0,0,1-3.24,3.28c-.36,0-.43.12-.42.44,0,.81,0,1.63,0,2.44,0,.34-.07.64-.47.65s-.51-.31-.51-.67c0-.85,0-1.69,0-2.53,0-.26-.07-.33-.33-.33-.9,0-1.81,0-2.72,0-.29,0-.35.1-.34.37,0,.84,0,1.68,0,2.53,0,.34-.08.64-.49.63s-.49-.31-.48-.65c0-.84,0-1.68,0-2.53,0-.27-.07-.35-.35-.35q-1.34,0-2.67,0c-.28,0-.37.07-.36.35,0,.86,0,1.72,0,2.58a.55.55,0,0,1-.35.58.45.45,0,0,1-.49-.11.68.68,0,0,1-.14-.55c0-.81,0-1.62,0-2.43,0-.3-.06-.43-.4-.42q-1.34,0-2.67,0c-.25,0-.33.07-.33.33,0,.82,0,1.65,0,2.47,0,.38,0,.73-.51.73S33,62,33,61.61c0-.79,0-1.59,0-2.38,0-.38-.11-.45-.46-.45a3,3,0,0,1-3.07-2.12,2.75,2.75,0,0,1-.13-1.1c0-.33-.07-.45-.42-.44-.83,0-1.65,0-2.48,0-.35,0-.63-.09-.62-.49s.3-.49.64-.48H29c.28,0,.35-.07.35-.35q0-1.34,0-2.67c0-.31-.1-.38-.39-.37-.82,0-1.65,0-2.48,0-.33,0-.65-.05-.66-.46s.31-.51.67-.51h2.53c.25,0,.33-.06.33-.32,0-.91,0-1.81,0-2.72,0-.28-.09-.36-.36-.35-.84,0-1.69,0-2.53,0-.34,0-.64-.08-.64-.49s.31-.49.64-.49c.83,0,1.66,0,2.48,0,.32,0,.42-.08.41-.4,0-.65,0-.66-.68-.65A13.45,13.45,0,0,1,24.33,44a8.73,8.73,0,0,1,1.05-16.84c.4-.08.52-.21.52-.64A8.72,8.72,0,0,1,42.1,22c.14.23.24.35.56.29a8.69,8.69,0,0,1,9.05,4.29.59.59,0,0,0,.68.35A8.73,8.73,0,0,1,54.27,44.3a16.57,16.57,0,0,1-3.15.08c-.46,0-.4.24-.39.51s-.13.59.39.56c.84,0,1.68,0,2.52,0,.3,0,.57.08.6.43s-.21.54-.57.55c-.81,0-1.63,0-2.43,0-.46,0-.55.14-.52.54A11.42,11.42,0,0,1,50.73,48.11Zm-23.12-4.7h.82c1,0,1,0,.95-1,0-.27-.09-.36-.36-.35H26.49c-.35,0-.64-.1-.63-.5s.3-.48.64-.48c.81,0,1.62,0,2.43,0,.33,0,.44-.07.45-.42a3,3,0,0,1,3.24-3.24c.35,0,.43-.11.42-.44,0-.81,0-1.62,0-2.43,0-.34.06-.65.47-.65s.51.32.51.67c0,.83,0,1.66,0,2.48,0,.26,0,.38.35.37q1.34,0,2.67,0c.33,0,.37-.13.37-.4,0-.81,0-1.62,0-2.43,0-.34,0-.69.49-.69s.5.33.5.69c0,.82,0,1.65,0,2.47,0,.28.09.37.36.36.88,0,1.75,0,2.63,0,.34,0,.39-.13.39-.42,0-.81,0-1.62,0-2.43,0-.36.08-.68.52-.67s.47.33.47.66c0,.82,0,1.65,0,2.48,0,.29.09.39.39.38.87,0,1.75,0,2.62,0,.31,0,.38-.09.38-.38,0-.85,0-1.69,0-2.53,0-.35.13-.63.53-.61s.45.29.45.62c0,.82,0,1.65,0,2.48,0,.29,0,.42.39.42a3,3,0,0,1,3.27,3.26c0,.33.11.41.42.4.84,0,1.68,0,2.53,0,.33,0,.59.11.58.49s-.28.48-.61.48H51.11c-.14,0-.36-.09-.37.17s0,.65,0,1,.13.19.27.19a20.2,20.2,0,0,0,3.3-.11A7.75,7.75,0,0,0,52.13,28c-.7.1-.76.07-1.09-.57a7.76,7.76,0,0,0-8.43-4.08c-.8.16-.8.16-1.2-.56A7.75,7.75,0,0,0,26.89,27c.06.77,0,.87-.78,1a7.74,7.74,0,0,0-5.73,11.55A7.65,7.65,0,0,0,27.61,43.41ZM40,57.77h7.53a2.48,2.48,0,0,0,.81-.08,2,2,0,0,0,1.39-2.11c0-2,0-4.07,0-6.1,0-1.86,0-3.72,0-5.58,0-1.09,0-2.19,0-3.29a2,2,0,0,0-2.22-2.2h-15a2,2,0,0,0-2.14,1.82,10.14,10.14,0,0,0,0,1.35c-.09,1.71,0,3.42,0,5.13,0,1.19,0,2.39,0,3.59,0,1.76,0,3.52,0,5.28a2,2,0,0,0,2.2,2.19Z"/><path class="cls-3" d="M27.61,43.41a7.65,7.65,0,0,1-7.23-3.89A7.74,7.74,0,0,1,26.11,28c.76-.09.84-.19.78-1a7.75,7.75,0,0,1,14.52-4.26c.4.72.4.72,1.2.56A7.76,7.76,0,0,1,51,27.39c.33.64.39.67,1.09.57A7.75,7.75,0,0,1,54.31,43.3a20.2,20.2,0,0,1-3.3.11c-.14,0-.27,0-.27-.19s0-.65,0-1,.23-.17.37-.17h2.53c.33,0,.59-.11.61-.48s-.25-.49-.58-.49c-.85,0-1.69,0-2.53,0-.31,0-.41-.07-.42-.4a3,3,0,0,0-3.27-3.26c-.34,0-.39-.13-.39-.42,0-.83,0-1.66,0-2.48,0-.33-.07-.6-.45-.62s-.53.26-.53.61c0,.84,0,1.68,0,2.53,0,.29-.07.39-.38.38-.87,0-1.75,0-2.62,0-.3,0-.39-.09-.39-.38,0-.83,0-1.66,0-2.48,0-.33-.06-.65-.47-.66s-.52.31-.52.67c0,.81,0,1.62,0,2.43,0,.29-.05.43-.39.42-.88,0-1.75,0-2.63,0-.27,0-.36-.08-.36-.36,0-.82,0-1.65,0-2.47,0-.36-.06-.69-.5-.69s-.49.35-.49.69c0,.81,0,1.62,0,2.43,0,.27,0,.41-.37.4q-1.34,0-2.67,0c-.3,0-.35-.11-.35-.37,0-.82,0-1.65,0-2.48,0-.35-.07-.67-.51-.67s-.47.31-.47.65c0,.81,0,1.62,0,2.43,0,.33-.07.44-.42.44a3,3,0,0,0-3.24,3.24c0,.35-.12.43-.45.42-.81,0-1.62,0-2.43,0-.34,0-.64.07-.64.48s.28.5.63.5H29c.27,0,.35.08.36.35,0,1,0,1-.95,1Z"/><path class="cls-4" d="M40,57.77H32.54a2,2,0,0,1-2.2-2.19c0-1.76,0-3.52,0-5.28,0-1.2,0-2.4,0-3.59,0-1.71-.06-3.42,0-5.13a10.14,10.14,0,0,1,0-1.35,2,2,0,0,1,2.14-1.82h15a2,2,0,0,1,2.22,2.2c0,1.1,0,2.2,0,3.29,0,1.86,0,3.72,0,5.58,0,2,0,4.07,0,6.1a2,2,0,0,1-1.39,2.11,2.48,2.48,0,0,1-.81.08Zm0-17.25H33.7a1.09,1.09,0,0,0-1.24,1.25q0,6.31,0,12.63c0,.9.41,1.3,1.31,1.3H46.31c.93,0,1.33-.39,1.33-1.32q0-6.27,0-12.53c0-1-.36-1.33-1.31-1.34Z"/><path class="cls-5" d="M40.06,40.52h6.27c1,0,1.31.38,1.31,1.34q0,6.26,0,12.53c0,.93-.4,1.32-1.33,1.32H33.77c-.9,0-1.31-.4-1.31-1.3q0-6.31,0-12.63a1.09,1.09,0,0,1,1.24-1.25ZM40,54.74c2.07,0,4.15,0,6.22,0,.36,0,.47-.1.47-.46q0-6.18,0-12.35c0-.36-.1-.46-.46-.46q-6.18,0-12.35,0c-.36,0-.47.09-.46.46q0,6.16,0,12.34c0,.36.09.47.46.47C35.92,54.73,38,54.74,40,54.74Z"/><path class="cls-6" d="M40,54.74c-2,0-4.08,0-6.12,0-.37,0-.47-.11-.46-.47q0-6.16,0-12.34c0-.37.1-.46.46-.46q6.18,0,12.35,0c.36,0,.46.1.46.46q0,6.18,0,12.35c0,.36-.11.46-.47.46C44.15,54.73,42.07,54.74,40,54.74ZM37.5,49.5h1c.25,0,.34,0,.26.32-.23.93-.42,1.86-.64,2.79-.07.3-.06.55.25.7s.49,0,.67-.24l4.88-5.4c.17-.19.32-.38.21-.65s-.36-.3-.61-.31c-.58,0-1.16,0-1.75,0-.33,0-.45,0-.35-.42.23-.88.41-1.77.61-2.65.07-.28.09-.55-.21-.72s-.51,0-.71.24L39.46,45l-3.23,3.56c-.18.2-.35.4-.22.69s.4.28.66.28Z"/><path class="cls-7" d="M37.5,49.5h-.83c-.26,0-.53,0-.66-.28s0-.49.22-.69L39.46,45l1.62-1.8c.2-.22.4-.41.71-.24s.28.44.21.72c-.2.88-.38,1.77-.61,2.65-.1.38,0,.43.35.42.59,0,1.17,0,1.75,0,.25,0,.5,0,.61.31s0,.46-.21.65L39,53.07c-.18.2-.37.38-.67.24s-.32-.4-.25-.7c.22-.93.41-1.86.64-2.79.08-.28,0-.33-.26-.32Zm0-1h1.59c.67,0,.84.21.69.87s-.25,1.06-.37,1.59l.07,0,3-3.34H41.09c-.85,0-1-.17-.79-1l.33-1.47-.08,0Z"/><path class="cls-8" d="M37.55,48.53l3-3.31.08,0-.33,1.47c-.19.81-.06,1,.79,1h1.46l-3,3.34-.07,0c.12-.53.25-1.06.37-1.59s0-.87-.69-.87Z"/></svg>