<svg id="Layer_1" data-name="Layer 1" xmlns="http://www.w3.org/2000/svg" viewBox="0 0 80 80"><defs><style>.cls-1{fill:#fbfadf;}.cls-2{fill:#fbeeee;}.cls-3{fill:#eafbf1;}.cls-4{fill:#ecf6fc;}.cls-5{fill:#bfd9ef;}.cls-6{fill:#163b77;}.cls-7{fill:#58cecf;}.cls-8{fill:#57cdce;}.cls-9{fill:#55c8cc;}.cls-10{fill:#58cfd0;}.cls-11{fill:#57ccce;}.cls-12{fill:#55c8cb;}.cls-13{fill:#6be5e8;}.cls-14{fill:#6ce5e8;}</style></defs><circle class="cls-1" cx="40" cy="40" r="38.52"/><circle class="cls-2" cx="40" cy="40" r="38.52"/><circle class="cls-3" cx="40" cy="40" r="38.52"/><circle class="cls-4" cx="40" cy="40" r="38.52"/><path class="cls-5" d="M54,32.64v3.29a20.33,20.33,0,0,1-4.85,13.29,19.73,19.73,0,0,1-5.68,4.64l-2.85,1.55a1.28,1.28,0,0,1-1.32,0c-1.34-.74-2.72-1.42-4-2.25A20.93,20.93,0,0,1,32.52,51a20.48,20.48,0,0,1-3.39-4,19.94,19.94,0,0,1-2.88-7.47,22.63,22.63,0,0,1-.31-4.11c0-2.25,0-4.5,0-6.76a1.15,1.15,0,0,1,1.25-1.26,31.61,31.61,0,0,0,6.35-.79,25.41,25.41,0,0,0,5.23-1.78c.21-.1.41-.22.61-.33a1.21,1.21,0,0,1,1.18,0,24.69,24.69,0,0,0,7.14,2.37,35.46,35.46,0,0,0,3.83.48,9.08,9.08,0,0,1,1.57.09,1.08,1.08,0,0,1,.9,1.13Zm-19,17.72a5.63,5.63,0,0,0,1.13.8,8.48,8.48,0,0,0,1.08.67,5.54,5.54,0,0,0,1.07.58L39.4,53a.92.92,0,0,0,1.13,0l1.07-.58a5.93,5.93,0,0,0,1.08-.59,8.48,8.48,0,0,0,1.08-.67,4.57,4.57,0,0,0,1.08-.78A14.83,14.83,0,0,0,46.43,49a6.88,6.88,0,0,0,1.12-1.23,17.71,17.71,0,0,0,4.23-10.38c.16-2.42,0-4.84.06-7.26a.58.58,0,0,0-.62-.65l-1-.06a4.5,4.5,0,0,0-1.09-.12,29.85,29.85,0,0,1-8.54-2.39,1,1,0,0,0-1.24,0,30.25,30.25,0,0,1-8.54,2.38,4.44,4.44,0,0,0-1.09.12l-.88.06c-.58,0-.74.19-.74.77v5.53A18.87,18.87,0,0,0,28.53,40a18,18,0,0,0,3.86,7.77A7.18,7.18,0,0,0,33.51,49,20,20,0,0,0,35.05,50.36Z"/><path class="cls-6" d="M46.43,49a14.83,14.83,0,0,1-1.59,1.38c0-.13,0-.27,0-.41,0-3.22,0-6.44,0-9.66,0-2-.18-1.53,1.05-3.19a2.66,2.66,0,0,0,.55-1.61c0-.7,0-1.41,0-2.11l.23-.21a1.08,1.08,0,1,0-1.82-.75,1.25,1.25,0,0,0,.54,1c0,.33,0,.65,0,1,0,1.87.15,1.46-1,3a3,3,0,0,0-.62,1.9c0,3.44,0,6.88,0,10.32,0,.53,0,1.07,0,1.61a8.48,8.48,0,0,1-1.08.67q0-7.92,0-15.85c0-.15,0-.29,0-.44l.19-.17A1.07,1.07,0,0,0,42,33.51a1,1,0,0,0-.91.85,1.14,1.14,0,0,0,.53,1.19V52.42L40.53,53c0-.13,0-.27,0-.41V43.5a1.24,1.24,0,0,0-.05-.47.54.54,0,0,0-1,0,1.3,1.3,0,0,0-.05.44c0,1.75,0,3.51,0,5.27,0,1.42,0,2.84,0,4.26l-1.07-.59c0-1.56,0-3.13,0-4.7q0-6.09,0-12.16l.24-.21A1.07,1.07,0,0,0,38.74,34a1.1,1.1,0,0,0-1.22-.5,1.08,1.08,0,0,0-.78,1.06,1.19,1.19,0,0,0,.53.95c0,.15,0,.29,0,.44V51.83a8.48,8.48,0,0,1-1.08-.67q0-6.16,0-12.31a2.35,2.35,0,0,0-.52-1.4c-.23-.32-.47-.64-.71-1a1.72,1.72,0,0,1-.36-1.09c0-.67,0-1.35,0-2l.21-.19a1.08,1.08,0,0,0-.8-1.86,1,1,0,0,0-1,.77,1.13,1.13,0,0,0,.51,1.29c0,.68,0,1.37,0,2.05a2.63,2.63,0,0,0,.59,1.72c.21.28.41.56.62.83a1.83,1.83,0,0,1,.39,1.17c0,3.62,0,7.24,0,10.86,0,.11,0,.23-.06.33A20,20,0,0,1,33.51,49V44a1.14,1.14,0,0,0,0-.37.5.5,0,0,0-.53-.37.47.47,0,0,0-.49.38,2.09,2.09,0,0,0,0,.43c0,1.25,0,2.51,0,3.76A18,18,0,0,1,28.53,40a18.87,18.87,0,0,1-.43-4.23V30.25c0-.58.16-.75.74-.77l.88-.06c0,1.42,0,2.84,0,4.27a2.29,2.29,0,0,0,.71,1.69l1.09,1.09a1.17,1.17,0,0,1,.36.88c0,.54,0,1.07,0,1.61,0,.11-.12.14-.19.2a1.09,1.09,0,0,0-.06,1.55,1.08,1.08,0,1,0,1.49-1.55c-.07-.06-.16-.1-.19-.2,0-.56,0-1.11,0-1.67a2.11,2.11,0,0,0-.62-1.54l-1.14-1.13a1.11,1.11,0,0,1-.38-.81c0-1.5,0-3,0-4.51a30.25,30.25,0,0,0,8.54-2.38c.1.1.06.24.06.36,0,.67,0,1.34,0,2l-.2.19A1.08,1.08,0,0,0,39,30.7a1.07,1.07,0,0,0,1.13.62,1,1,0,0,0,.9-.8,1.14,1.14,0,0,0-.51-1.23c0-.67,0-1.34,0-2,0-.12,0-.25.07-.36a29.85,29.85,0,0,0,8.54,2.39c0,1.45,0,2.9,0,4.35a1.34,1.34,0,0,1-.41,1l-1.14,1.14a2,2,0,0,0-.6,1.29c0,.63,0,1.26,0,1.89,0,.12-.16.16-.24.25a1.07,1.07,0,1,0,1.53,1.5,1.08,1.08,0,0,0,0-1.53c-.08-.07-.19-.1-.22-.22,0-.54,0-1.07,0-1.61a1.13,1.13,0,0,1,.35-.88c.37-.35.71-.71,1.08-1.07a2.29,2.29,0,0,0,.72-1.75c0-1.41,0-2.82,0-4.23l1,.06a.58.58,0,0,1,.62.65c0,2.42.1,4.84-.06,7.26a17.71,17.71,0,0,1-4.23,10.38c0-.13,0-.27,0-.4V44a.7.7,0,0,0-.26-.67.52.52,0,0,0-.55,0,.62.62,0,0,0-.29.62Z"/><path class="cls-7" d="M34.57,33.39c0,.67,0,1.35,0,2a1.72,1.72,0,0,0,.36,1.09c.24.31.48.63.71,1a2.35,2.35,0,0,1,.52,1.4q0,6.15,0,12.31a5.63,5.63,0,0,1-1.13-.8c.09-.1.06-.22.06-.33,0-3.62,0-7.24,0-10.86A1.83,1.83,0,0,0,34.72,38c-.21-.27-.41-.55-.62-.83a2.63,2.63,0,0,1-.59-1.72c0-.68,0-1.37,0-2.05A1.37,1.37,0,0,0,34.57,33.39Z"/><path class="cls-7" d="M46.42,33.4c0,.7,0,1.41,0,2.11a2.66,2.66,0,0,1-.55,1.61c-1.23,1.66-1,1.15-1.05,3.19,0,3.22,0,6.44,0,9.66,0,.14,0,.28,0,.41a4.57,4.57,0,0,1-1.08.78c0-.54,0-1.08,0-1.61,0-3.44,0-6.88,0-10.32a3,3,0,0,1,.62-1.9c1.13-1.5,1-1.09,1-3,0-.33,0-.65,0-1A1.37,1.37,0,0,0,46.42,33.4Z"/><path class="cls-8" d="M38.33,35.55q0,6.08,0,12.16c0,1.57,0,3.14,0,4.7a5.54,5.54,0,0,1-1.07-.58V36c0-.15,0-.29,0-.44A1.23,1.23,0,0,0,38.33,35.55Z"/><path class="cls-8" d="M41.6,52.42V35.55a1.23,1.23,0,0,0,1.06,0c0,.15,0,.29,0,.44q0,7.92,0,15.85A5.93,5.93,0,0,1,41.6,52.42Z"/><path class="cls-9" d="M39.4,53c0-1.42,0-2.84,0-4.26,0-1.76,0-3.52,0-5.27a1.3,1.3,0,0,1,.05-.44.54.54,0,0,1,1,0,1.24,1.24,0,0,1,.05.47v9.09c0,.14,0,.28,0,.41A.92.92,0,0,1,39.4,53Z"/><path class="cls-10" d="M50.22,29.42c0,1.41,0,2.82,0,4.23a2.29,2.29,0,0,1-.72,1.75c-.37.36-.71.72-1.08,1.07a1.13,1.13,0,0,0-.35.88c0,.54,0,1.07,0,1.61a2.28,2.28,0,0,0-1,0c0-.63,0-1.26,0-1.89a2,2,0,0,1,.6-1.29l1.14-1.14a1.34,1.34,0,0,0,.41-1c0-1.45,0-2.9,0-4.35A4.5,4.5,0,0,1,50.22,29.42Z"/><path class="cls-10" d="M30.81,29.3c0,1.5,0,3,0,4.51a1.11,1.11,0,0,0,.38.81l1.14,1.13A2.11,2.11,0,0,1,33,37.29c0,.56,0,1.11,0,1.67a2.33,2.33,0,0,0-1,0c0-.54,0-1.07,0-1.61a1.17,1.17,0,0,0-.36-.88l-1.09-1.09a2.29,2.29,0,0,1-.71-1.69c0-1.43,0-2.85,0-4.27A4.44,4.44,0,0,1,30.81,29.3Z"/><path class="cls-11" d="M32.39,47.78c0-1.25,0-2.51,0-3.76a2.09,2.09,0,0,1,0-.43.47.47,0,0,1,.49-.38.5.5,0,0,1,.53.37,1.14,1.14,0,0,1,0,.37v5A7.18,7.18,0,0,1,32.39,47.78Z"/><path class="cls-11" d="M46.43,49V43.89a.62.62,0,0,1,.29-.62.52.52,0,0,1,.55,0,.7.7,0,0,1,.26.67v3.41c0,.13,0,.27,0,.4A6.88,6.88,0,0,1,46.43,49Z"/><path class="cls-12" d="M40.59,26.91c-.1.11-.06.24-.07.36,0,.68,0,1.35,0,2a1.52,1.52,0,0,0-1.07,0c0-.67,0-1.34,0-2,0-.12,0-.26-.06-.36A1,1,0,0,1,40.59,26.91Z"/><path class="cls-13" d="M31.89,39a2.33,2.33,0,0,1,1,0c0,.1.12.14.19.2a1.08,1.08,0,1,1-1.49,1.55,1.09,1.09,0,0,1,.06-1.55C31.77,39.1,31.87,39.07,31.89,39Z"/><path class="cls-13" d="M47,39a2.28,2.28,0,0,1,1,0c0,.12.14.15.22.22a1.08,1.08,0,0,1,0,1.53,1.07,1.07,0,1,1-1.53-1.5C46.84,39.12,47,39.08,47,39Z"/><path class="cls-14" d="M39.43,29.29a1.52,1.52,0,0,1,1.07,0A1.14,1.14,0,0,1,41,30.52a1,1,0,0,1-.9.8A1.07,1.07,0,0,1,39,30.7a1.08,1.08,0,0,1,.25-1.22Z"/><path class="cls-14" d="M38.33,35.55a1.23,1.23,0,0,1-1.06,0,1.19,1.19,0,0,1-.53-.95,1.08,1.08,0,0,1,.78-1.06,1.1,1.1,0,0,1,1.22.5,1.07,1.07,0,0,1-.17,1.31Z"/><path class="cls-14" d="M34.57,33.39a1.37,1.37,0,0,1-1,0A1.13,1.13,0,0,1,33,32.11a1,1,0,0,1,1-.77,1.08,1.08,0,0,1,.8,1.86Z"/><path class="cls-14" d="M46.42,33.4a1.37,1.37,0,0,1-1.05,0,1.25,1.25,0,0,1-.54-1,1.07,1.07,0,1,1,1.82.75Z"/><path class="cls-14" d="M42.66,35.54a1.23,1.23,0,0,1-1.06,0,1.14,1.14,0,0,1-.53-1.19,1,1,0,0,1,.91-.85,1.07,1.07,0,0,1,.87,1.86Z"/></svg>