<svg id="Layer_1" data-name="Layer 1" xmlns="http://www.w3.org/2000/svg" xmlns:xlink="http://www.w3.org/1999/xlink" viewBox="0 0 80 80"><defs><style>.cls-1{fill:none;}.cls-2{fill:#eafbf1;}.cls-3{clip-path:url(#clip-path);}.cls-4{fill:url(#linear-gradient);}.cls-5{clip-path:url(#clip-path-2);}.cls-6{fill:url(#linear-gradient-2);}.cls-7{fill:#030404;}.cls-8{fill:#96e2f8;}.cls-9{fill:#d6afeb;}.cls-10{fill:#d4ade9;}.cls-11{fill:#c794e2;}.cls-12{fill:#c693e1;}.cls-13{fill:#fbfbfb;}</style><clipPath id="clip-path"><path class="cls-1" d="M44.12,36.36V45.6a3.89,3.89,0,0,1-.9,2.75,3.42,3.42,0,0,1-2.61,1,3.3,3.3,0,0,1-2.57-1,3.93,3.93,0,0,1-.88-2.75V36.36L32.32,34.3V45.57a9,9,0,0,0,1.07,4.53,7,7,0,0,0,2.92,2.78,10.26,10.26,0,0,0,8.47,0,7.18,7.18,0,0,0,3-2.78A8.35,8.35,0,0,0,49,45.57V33.71Z"/></clipPath><linearGradient id="linear-gradient" x1="-33.46" y1="69.25" x2="-32.47" y2="69.25" gradientTransform="translate(825.11 -1605.11) scale(23.81)" gradientUnits="userSpaceOnUse"><stop offset="0" stop-color="#f17c21"/><stop offset="1" stop-color="#da5b26"/></linearGradient><clipPath id="clip-path-2"><path class="cls-1" d="M37.22,29.16a.24.24,0,0,1-.06-.45l1-.43,2.07-.88,2.06.88,1,.43a.23.23,0,1,1-.18.43L40.24,27.9l-2.89,1.24-.1,0h0m3.16-2.94a2.17,2.17,0,0,0-.84.16l-9.92,4-.34.22a.75.75,0,0,0-.25,1V33l-.29.29v1.48h1.18V33.29l-.3-.29V31.82l8.55,3.54.59-.3A2.86,2.86,0,0,1,40,34.77h.89a3.1,3.1,0,0,1,1.75.53l.53.35L51,31.3a.41.41,0,0,0,.19-.2.48.48,0,0,0-.24-.66l-9.73-4.05A2.13,2.13,0,0,0,40.38,26.22Z"/></clipPath><linearGradient id="linear-gradient-2" x1="-34.42" y1="64.62" x2="-33.43" y2="64.62" gradientTransform="matrix(0, -8.62, -8.62, 0, 597.31, -261.21)" gradientUnits="userSpaceOnUse"><stop offset="0" stop-color="#f17c21"/><stop offset="0.34" stop-color="#ed7722"/><stop offset="0.74" stop-color="#e36824"/><stop offset="1" stop-color="#da5b26"/></linearGradient></defs><g id="educrypt"><circle class="cls-2" cx="40" cy="40" r="38.52"/><g class="cls-3"><rect class="cls-4" x="30.28" y="35.03" width="20.72" height="17.44" transform="matrix(0.04, -1, 1, 0.04, -4.69, 82.61)"/></g><g class="cls-5"><rect class="cls-6" x="28.74" y="26.22" width="22.6" height="9.44"/></g></g><g id="devops"><circle class="cls-2" cx="40" cy="40" r="38.52"/><path class="cls-7" d="M56,33.08c.45-.11.59,0,.83.37a9.91,9.91,0,0,1-5.72,14.47c-.25.08-.3.14-.24.4A1.66,1.66,0,0,1,48,49.77c-.59-.68-1.15-1.38-1.7-2.09a1.6,1.6,0,0,1-.14-1.83c.39-.75.8-1.5,1.21-2.24a1.65,1.65,0,0,1,1.89-.84,1.67,1.67,0,0,1,1.27,1.63s0,.09,0,.17a5.76,5.76,0,0,0,2.14-1.29A6.57,6.57,0,0,0,49.23,32a6.53,6.53,0,0,0-7.55,6.53,6.41,6.41,0,0,0,3,5.47,1.68,1.68,0,1,1-1.79,2.84,9.59,9.59,0,0,1-2.73-2.58C40,44,40,44,39.8,44.2a9.73,9.73,0,0,1-9,4.09A9.91,9.91,0,0,1,22,40c0-.18,0-.38-.13-.53v-2.2a5.94,5.94,0,0,0,.27-1.18,9.83,9.83,0,0,1,6.8-7.19c.22-.07.31-.12.24-.39A1.65,1.65,0,0,1,30,26.68a1.67,1.67,0,0,1,2.05.45c.55.65,1.08,1.31,1.61,2A1.64,1.64,0,0,1,33.85,31c-.36.69-.73,1.37-1.1,2a1.7,1.7,0,0,1-3.26-.79,5.76,5.76,0,0,0-1.74,1,6.54,6.54,0,0,0-1.85,8.12c.17.34.23.64-.09.92-.44.12-.62,0-.83-.36a7.63,7.63,0,0,1,5.27-11,.57.57,0,0,1,.58.19.53.53,0,0,1,0,.6c-.07.14-.15.27-.21.41a.6.6,0,0,0,.24.85.59.59,0,0,0,.84-.28c.41-.73.8-1.47,1.19-2.21a.54.54,0,0,0,0-.63c-.57-.73-1.15-1.44-1.75-2.15a.6.6,0,0,0-.93.74,1.15,1.15,0,0,0,.19.26c.38.5.24.88-.38,1a8.85,8.85,0,1,0,6,16.41,8.75,8.75,0,0,0,4.56-7.92,7.62,7.62,0,1,1,10.74,7.15,6.88,6.88,0,0,1-1.65.52.52.52,0,0,1-.56-.2.56.56,0,0,1,0-.61l.18-.34a.63.63,0,0,0-.21-.89.6.6,0,0,0-.86.29l-1.18,2.18a.59.59,0,0,0,0,.67c.56.7,1.12,1.4,1.7,2.09a.53.53,0,0,0,.68.14.6.6,0,0,0,.37-.59.89.89,0,0,0-.25-.5c-.41-.51-.27-.91.38-1a8.86,8.86,0,0,0,6-13C55.64,33.55,55.64,33.43,56,33.08ZM41.75,44.43a7.28,7.28,0,0,0,1.81,1.51.61.61,0,0,0,.62-1,9.91,9.91,0,0,1-1.83-1.59,9,9,0,0,1-1.12-1.85c-.2.48-.39.92-.59,1.36a.28.28,0,0,0,0,.26A7.34,7.34,0,0,0,41.75,44.43Z"/><path class="cls-8" d="M56,33.08c-.33.35-.33.47,0,1a8.86,8.86,0,0,1-6,13c-.65.12-.79.52-.38,1a.89.89,0,0,1,.25.5.6.6,0,0,1-.37.59.53.53,0,0,1-.68-.14c-.58-.69-1.14-1.39-1.7-2.09a.59.59,0,0,1,0-.67l1.18-2.18a.6.6,0,0,1,.86-.29.63.63,0,0,1,.21.89l-.18.34a.56.56,0,0,0,0,.61.52.52,0,0,0,.56.2,6.88,6.88,0,0,0,1.65-.52,7.62,7.62,0,1,0-10.74-7.15,8.75,8.75,0,0,1-4.56,7.92,8.85,8.85,0,1,1-6-16.41c.62-.13.76-.51.38-1a1.15,1.15,0,0,1-.19-.26.6.6,0,0,1,.93-.74c.6.71,1.18,1.42,1.75,2.15a.54.54,0,0,1,0,.63c-.39.74-.78,1.48-1.19,2.21a.59.59,0,0,1-.84.28.6.6,0,0,1-.24-.85c.06-.14.14-.27.21-.41a.53.53,0,0,0,0-.6.57.57,0,0,0-.58-.19,7.63,7.63,0,0,0-5.27,11c.21.41.39.48.83.36a5,5,0,0,0,.87,1.07c-.23.44-.21.6.18.91A7.54,7.54,0,0,0,32.8,46a7.66,7.66,0,0,0,6.5-6.43c.11-.84.07-1.69.19-2.54a8.93,8.93,0,0,1,8.34-7.42,8.82,8.82,0,0,1,6.38,2.33c.34.3.5.32.88.09Z"/><path class="cls-7" d="M55.09,32c-.38.23-.54.21-.88-.09a8.82,8.82,0,0,0-6.38-2.33A8.93,8.93,0,0,0,39.49,37c-.12.85-.08,1.7-.19,2.54A7.66,7.66,0,0,1,32.8,46a7.54,7.54,0,0,1-5.94-1.71c-.39-.31-.41-.47-.18-.91a.62.62,0,0,1,.85.08,6.54,6.54,0,0,0,10.65-3.7,6.32,6.32,0,0,0-.89-4.82.63.63,0,0,1,0-.86l.22-.11a.64.64,0,0,1,.66.38c.19.35.39.69.6,1.07a13.63,13.63,0,0,1,.56-1.33.23.23,0,0,0,0-.26,6.87,6.87,0,0,0-1.07-1.39,7.43,7.43,0,0,0-1.78-1.48.6.6,0,0,0-.84.18.62.62,0,0,0,.15.82c.11.09.23.16.35.24.37.26.42.44.24.87a.63.63,0,0,1-.84,0,1.89,1.89,0,0,1-1-1.38A1.58,1.58,0,0,1,35.22,30a1.59,1.59,0,0,1,1.83,0,9.37,9.37,0,0,1,2.74,2.58c.18.26.25.22.42,0a9.9,9.9,0,0,1,14.73-1.49C55.27,31.45,55.3,31.58,55.09,32Z"/><path class="cls-9" d="M36.26,33.11c.32-.46-.06-.73-.32-1a2.83,2.83,0,0,1-.25-.24.73.73,0,0,1-.11-.79.66.66,0,0,1,.87-.17,6.22,6.22,0,0,1,1.78,1.48,8.89,8.89,0,0,0-.71,1.53c-.05,0-.26-.21-.4-.31A5,5,0,0,0,36.26,33.11Z"/><path class="cls-10" d="M42.35,43.31a9.91,9.91,0,0,0,1.83,1.59.61.61,0,0,1-.62,1,7.28,7.28,0,0,1-1.81-1.51A9.25,9.25,0,0,0,42.35,43.31Z"/><path class="cls-11" d="M42.35,43.31a9.25,9.25,0,0,1-.6,1.12,7.34,7.34,0,0,1-1.06-1.35.28.28,0,0,1,0-.26c.2-.44.39-.88.59-1.36A9,9,0,0,0,42.35,43.31Z"/><path class="cls-12" d="M37.52,33.94a5.76,5.76,0,0,1,.71-1.53A6.87,6.87,0,0,1,39.3,33.8a.23.23,0,0,1,0,.26,13.63,13.63,0,0,0-.56,1.33c-.21-.38-.41-.72-.6-1.07A.64.64,0,0,0,37.52,33.94Z"/><path class="cls-13" d="M46.43,53c0-.14-.14-.44.28-.41s.59.15.59.44-.2.44-.6.43S46.44,53.49,46.43,53Z"/></g></svg>