<svg id="Layer_1" data-name="Layer 1" xmlns="http://www.w3.org/2000/svg" viewBox="0 0 80 80"><defs><style>.cls-1{fill:#fbfadf;}.cls-2{fill:#fbeeee;}.cls-3{fill:#d6e4ed;}.cls-4{fill:#ea2536;}.cls-5{fill:#ea2436;}.cls-6{fill:#342c39;}.cls-7{fill:#f9c537;}.cls-8{fill:#efa22b;}.cls-9{fill:#efa22c;}.cls-10{fill:#efa128;}.cls-11{fill:#45394a;}.cls-12{fill:#ab1b28;}.cls-13{fill:#efa028;}.cls-14{fill:#fdfefe;}.cls-15{fill:#fefcfd;}</style></defs><circle class="cls-1" cx="40" cy="40" r="38.52"/><circle class="cls-2" cx="40" cy="40" r="38.52"/><path class="cls-3" d="M36.25,40c.21-.51.58-.93.82-1.42.09-.17.17-.34.25-.51a3.18,3.18,0,0,0,.45-1A4.38,4.38,0,0,0,38.26,36a23.69,23.69,0,0,0,1.07-4.05,2.25,2.25,0,0,1,.16-.81l.26.23,4.69,4.71,4.42,4.4-1.52.32A19.66,19.66,0,0,0,43.51,42c-.18.07-.4.09-.52.27a3.18,3.18,0,0,0-1,.45,10.85,10.85,0,0,0-1.54.9c-.12.08-.22.2-.39.18l-1.21-1.19C38,41.75,37.12,40.86,36.25,40Zm4.17-3.4c0-.25-.13-.44-.36-.5a.53.53,0,0,0-.65.31,23.12,23.12,0,0,1-1.47,3,.5.5,0,0,0,.16.73.53.53,0,0,0,.74-.27q.7-1.26,1.29-2.58C40.24,37.06,40.33,36.8,40.42,36.57Zm.07-1.14A.48.48,0,1,0,40,35,.48.48,0,0,0,40.49,35.43Z"/><path class="cls-4" d="M36.25,40c.87.89,1.75,1.78,2.63,2.66l1.21,1.19c0,.2-.25.25-.32.42-.39.39-.78.78-1.19,1.16a18.54,18.54,0,0,1-2.47,2.3,3.1,3.1,0,0,1-2.2.21c-.22-.07-.44-.17-.66-.26a6.62,6.62,0,0,1-.71-.69,3,3,0,0,1,.51-3.88c1-1,2-1.95,2.92-2.92C36.05,40.09,36.11,40,36.25,40Zm-2.52,5.11a.51.51,0,0,0,.35-.17l2.07-2.08a.5.5,0,0,0,0-.75.49.49,0,0,0-.75.06l-.89.89-1.18,1.18a.5.5,0,0,0,.37.87Z"/><path class="cls-5" d="M48.86,40.47l-4.42-4.4-4.69-4.71-.26-.23a1,1,0,0,1-.1-1.52,1,1,0,0,1,1.45,0l3,3c.08.07.13.19.27.18a1.13,1.13,0,0,0,.12.18l2.69,2.69a.38.38,0,0,0,.21.14c0,.14.1.19.18.27l2.77,2.78A1,1,0,0,1,50.3,40a1,1,0,0,1-1.06.57A1.71,1.71,0,0,1,48.86,40.47Z"/><path class="cls-6" d="M40.1,46c1.35,1.34,2.7,2.66,4,4a1.51,1.51,0,0,1-2.21,2.05l-4-4c.26-.25.53-.48.79-.74C39.21,46.94,39.65,46.47,40.1,46Z"/><path class="cls-7" d="M50,29.49c0-.12-.06-.19-.11-.28a2.52,2.52,0,1,1,1.21,1,.94.94,0,0,0-.32-.11C50.52,29.94,50.36,29.62,50,29.49Z"/><path class="cls-7" d="M29.3,30c-.12,0-.21.08-.31.13a2.53,2.53,0,0,1-2.72-.31A2.51,2.51,0,0,1,27.6,25.4a2.39,2.39,0,0,1,2.33,1.06,2.45,2.45,0,0,1,.2,2.54c-.05.11-.14.2-.14.32A6.52,6.52,0,0,0,29.3,30Z"/><path class="cls-7" d="M50.63,50a4.86,4.86,0,0,1,1.19-.38,2.52,2.52,0,0,1,.9,4.94A2.52,2.52,0,0,1,49.82,51l.12-.29Z"/><path class="cls-7" d="M30.09,50.82c.05.28.2.52.25.8a2.52,2.52,0,1,1-3-2,2.45,2.45,0,0,1,1.79.27.84.84,0,0,0,.33.16Z"/><path class="cls-8" d="M25,38.93a9.41,9.41,0,0,1,2.73-6.46.53.53,0,0,1,.61-.21.5.5,0,0,1,.16.86,10.1,10.1,0,0,0-1.22,1.56A8.57,8.57,0,0,0,28.32,45c.06.07.13.13.19.21a.5.5,0,1,1-.73.68,9.24,9.24,0,0,1-1.88-2.66A10,10,0,0,1,25,38.93Z"/><path class="cls-9" d="M55,39.31a9.44,9.44,0,0,1-2.73,6.53.58.58,0,0,1-.39.24.5.5,0,0,1-.39-.87,9,9,0,0,0,1.43-1.91,8.58,8.58,0,0,0-1.3-10.06l-.13-.14a.5.5,0,0,1,0-.73.5.5,0,0,1,.73,0,9.52,9.52,0,0,1,1.63,2.2A9.82,9.82,0,0,1,55,39.31Z"/><path class="cls-10" d="M29.3,30a6.52,6.52,0,0,1,.69-.7l7.53,7.51c.08.09.17.16.25.24a3.18,3.18,0,0,1-.45,1c-.45-.44-.9-.88-1.34-1.33L29.56,30.3Z"/><path class="cls-10" d="M50.63,50l-.69.71-7.61-7.62c-.11-.1-.2-.21-.31-.32a3.18,3.18,0,0,1,1-.45L44.7,44l5.68,5.68Z"/><path class="cls-9" d="M52.94,39.16a5.09,5.09,0,0,1-1.39,3.45c-.28.3-.56.34-.79.12s-.22-.5.05-.8a4,4,0,0,0,0-5.56c-.26-.28-.28-.56-.06-.78s.51-.2.8.09A5.13,5.13,0,0,1,52.94,39.16Z"/><path class="cls-9" d="M27,39.08a5,5,0,0,1,1.4-3.39c.28-.3.56-.33.79-.1a.54.54,0,0,1-.06.79,4,4,0,0,0,0,5.56c.26.3.28.58.05.79s-.51.18-.8-.12A5.12,5.12,0,0,1,27,39.08Z"/><path class="cls-11" d="M40.1,46c-.45.45-.89.92-1.35,1.37-.26.26-.53.49-.79.74a3.61,3.61,0,0,1-.8.13,1.55,1.55,0,0,1-1-.56,18.54,18.54,0,0,0,2.47-2.3c.41-.38.8-.77,1.19-1.16a1.42,1.42,0,0,1,.36,1.57A.37.37,0,0,0,40.1,46Z"/><path class="cls-12" d="M47.14,35.82a.38.38,0,0,1-.21-.14L44.24,33a1.13,1.13,0,0,1-.12-.18,2.26,2.26,0,0,1,2.59,0,3.4,3.4,0,0,1,.65.76A2.33,2.33,0,0,1,47.14,35.82Z"/><path class="cls-13" d="M47.36,33.55a3.4,3.4,0,0,0-.65-.76L50,29.49c.33.13.49.45.78.63Z"/><path class="cls-13" d="M30.09,50.82l-.65-.75L32.54,47a6.62,6.62,0,0,0,.71.69C32.21,48.73,31.15,49.78,30.09,50.82Z"/><path class="cls-14" d="M40.42,36.57c-.09.23-.18.49-.29.74q-.59,1.32-1.29,2.58a.53.53,0,0,1-.74.27.5.5,0,0,1-.16-.73,23.12,23.12,0,0,0,1.47-3,.53.53,0,0,1,.65-.31C40.29,36.13,40.38,36.32,40.42,36.57Z"/><path class="cls-14" d="M40.49,35.43A.48.48,0,0,1,40,35a.51.51,0,1,1,.52.47Z"/><path class="cls-15" d="M33.73,45.08a.5.5,0,0,1-.37-.87L34.54,43l.89-.89a.49.49,0,0,1,.75-.06.5.5,0,0,1,0,.75l-2.07,2.08A.51.51,0,0,1,33.73,45.08Z"/></svg>