<svg id="Layer_1" data-name="Layer 1" xmlns="http://www.w3.org/2000/svg" xmlns:xlink="http://www.w3.org/1999/xlink" viewBox="0 0 80 80"><defs><style>.cls-1{fill:none;}.cls-2{fill:#fbeeee;}.cls-3{fill:#030303;}.cls-4{fill:#fc4f7b;}.cls-5{fill:#fd4f7c;}.cls-6{fill:#d4daeb;}.cls-7{fill:#d13d69;}.cls-8{fill:#cf3c68;}.cls-9{fill:#d1d8e8;}.cls-10{fill:#c6cee1;}.cls-11{fill:#efbf86;}.cls-12{fill:#684a4a;}.cls-13{fill:#e3ad77;}.cls-14{fill:#674a4a;}.cls-15{fill:#594045;}.cls-16{fill:#cd986c;}.cls-17{fill:#e0ab75;}.cls-18{fill:#eafbf1;}.cls-19{clip-path:url(#clip-path);}.cls-20{fill:url(#linear-gradient);}.cls-21{clip-path:url(#clip-path-2);}.cls-22{fill:url(#linear-gradient-2);}.cls-23{fill:#ecf6fc;}.cls-24{fill:#9b65c3;}.cls-25{fill:#be63c5;}.cls-26{fill:#bf63c6;}.cls-27{fill:#3278b1;}.cls-28{fill:#3278b2;}.cls-29{fill:#45a4ec;}.cls-30{fill:#19bb7d;}.cls-31{fill:#08c7fb;}.cls-32{fill:#59f2f6;}.cls-33{fill:#da3757;}.cls-34{fill:#d33c4e;}.cls-35{fill:#ee5a24;}.cls-36{fill:#8bdf55;}.cls-37{fill:#25c16f;}.cls-38{fill:#fb0;}.cls-39{fill:#ffa800;}.cls-40{fill:#fbfadf;}.cls-41{fill:#020203;}.cls-42{fill:#87c5f9;}.cls-43{fill:#e9ecee;}.cls-44{fill:#d7ebfd;}.cls-45{fill:#a69aa6;}.cls-46{fill:#e1a56e;}.cls-47{fill:#d5e9fb;}.cls-48{fill:#c3e1fd;}.cls-49{fill:#c08656;}.cls-50{fill:#59aaec;}.cls-51{fill:#817481;}.cls-52{fill:#655b65;}.cls-53{fill:#010302;}.cls-54{fill:#68f3bf;}.cls-55{fill:#3a336c;}.cls-56{fill:#5f55af;}.cls-57{fill:#7c83e7;}.cls-58{fill:#adcffe;}.cls-59{fill:#39326c;}.cls-60{fill:#5f55ae;}.cls-61{fill:#f7f7f8;}.cls-62{fill:#dcd9ef;}.cls-63{fill:#dfdcf1;}.cls-64{fill:#655bb1;}</style><clipPath id="clip-path"><path class="cls-1" d="M44.12,36.36V45.6a3.89,3.89,0,0,1-.9,2.75,3.42,3.42,0,0,1-2.61,1,3.3,3.3,0,0,1-2.57-1,3.93,3.93,0,0,1-.88-2.75V36.36L32.32,34.3V45.57a9,9,0,0,0,1.07,4.53,7,7,0,0,0,2.92,2.78,10.26,10.26,0,0,0,8.47,0,7.18,7.18,0,0,0,3-2.78A8.35,8.35,0,0,0,49,45.57V33.71Z"/></clipPath><linearGradient id="linear-gradient" x1="-33.46" y1="69.25" x2="-32.47" y2="69.25" gradientTransform="translate(825.11 -1605.11) scale(23.81)" gradientUnits="userSpaceOnUse"><stop offset="0" stop-color="#f17c21"/><stop offset="1" stop-color="#da5b26"/></linearGradient><clipPath id="clip-path-2"><path class="cls-1" d="M37.22,29.16a.24.24,0,0,1-.06-.45l1-.43,2.07-.88,2.06.88,1,.43a.23.23,0,1,1-.18.43L40.24,27.9l-2.89,1.24-.1,0h0m3.16-2.94a2.17,2.17,0,0,0-.84.16l-9.92,4-.34.22a.75.75,0,0,0-.25,1V33l-.29.29v1.48h1.18V33.29l-.3-.29V31.82l8.55,3.54.59-.3A2.86,2.86,0,0,1,40,34.77h.89a3.1,3.1,0,0,1,1.75.53l.53.35L51,31.3a.41.41,0,0,0,.19-.2.48.48,0,0,0-.24-.66l-9.73-4.05A2.13,2.13,0,0,0,40.38,26.22Z"/></clipPath><linearGradient id="linear-gradient-2" x1="-34.42" y1="64.62" x2="-33.43" y2="64.62" gradientTransform="matrix(0, -8.62, -8.62, 0, 597.31, -261.21)" gradientUnits="userSpaceOnUse"><stop offset="0" stop-color="#f17c21"/><stop offset="0.34" stop-color="#ed7722"/><stop offset="0.74" stop-color="#e36824"/><stop offset="1" stop-color="#da5b26"/></linearGradient></defs><g id="about_us" data-name="about us"><circle class="cls-2" cx="40" cy="40" r="38.52"/><path class="cls-3" d="M59.75,54.13c-.46.56-.91.5-1.16-.15,0-1.58,0-3.16,0-4.74a1.12,1.12,0,0,0-.38-1,1,1,0,0,0-.65-.39c-.78-.24-1.57-.46-2.36-.69a.26.26,0,0,0-.3.07L53.67,48.5a.36.36,0,0,0-.1.28c0,1.7,0,3.41,0,5.12-.07.34-.23.61-.62.6s-.53-.26-.57-.6c0-1.25,0-2.51,0-3.77a3.89,3.89,0,0,0,0-1.49c-.19-.44-.68-.75-1-1.11s-.45-.46-1-.12A3.47,3.47,0,0,1,51.11,50c0,1.31,0,2.62,0,3.93,0,.34-.22.6-.58.6a.58.58,0,0,1-.6-.54c0-1.48,0-3,0-4.46a1.77,1.77,0,0,0-.54-1.31,1.57,1.57,0,0,0-.79-.52c-1.13-.42-2.26-.82-3.39-1.25-.23-.09-.33,0-.46.17-.42.66-.86,1.3-1.3,1.95a1.21,1.21,0,0,1-2,.2,6.54,6.54,0,0,0-.81-.76v5.94c-.19.52-.53.71-.9.51a.77.77,0,0,1-.31-.51c0-.11,0-.23,0-.34,0-1.76,0-3.53,0-5.29a.42.42,0,0,0-.06-.33l-.78.79a1.23,1.23,0,0,1-2.05-.21c-.44-.65-.88-1.3-1.3-2a.32.32,0,0,0-.46-.15l-3.36,1.23a1.61,1.61,0,0,0-.87.6,1.68,1.68,0,0,0-.48,1.29c0,1.47,0,2.94,0,4.41a.58.58,0,0,1-.56.54c-.35,0-.52-.22-.62-.53,0-1.42,0-2.85,0-4.27a3,3,0,0,1,.29-1.46c.2-.34.09-.47-.22-.59s-.28-.08-.4.06a6.14,6.14,0,0,1-.45.43,2.46,2.46,0,0,1-2.11.68,3.07,3.07,0,0,1-1.74-1.06.34.34,0,0,0-.49-.09c-.49.27-1,.51-1.51.76a1.18,1.18,0,0,0-.56.45,1.06,1.06,0,0,0-.3.83V54c-.16.41-.38.59-.69.51s-.48-.37-.47-.73v-4a2.44,2.44,0,0,1,1.4-2.3l1.49-.75a5.24,5.24,0,0,1-2-1.53.75.75,0,0,1-.17-.78,8.6,8.6,0,0,0,.48-2.84,17,17,0,0,1,.23-2.84,4.82,4.82,0,0,1,7.68-2.89,5.09,5.09,0,0,1,2,3.66c.12,1.19.06,2.39.24,3.58a4.34,4.34,0,0,0,.3,1.23.79.79,0,0,1-.13.89,5.23,5.23,0,0,1-2,1.5.68.68,0,0,0,.87.11c1.05-.51,2.18-.83,3.27-1.24a1.2,1.2,0,0,0,.81-.64,3.73,3.73,0,0,1,.83-.91.88.88,0,0,0,.25-.6,3,3,0,0,0-.9-2.6,6.21,6.21,0,0,1-1.57-4.43A10.54,10.54,0,0,0,32.88,34a7.82,7.82,0,0,1,.33-5.39,5.18,5.18,0,0,1,4.68-3.08c2.94-.08,5.89,0,8.83,0,.43,0,.68.21.67.63,0,2.3.08,4.6,0,6.9A3.81,3.81,0,0,1,47,34.42,3.39,3.39,0,0,0,46.78,36,7.41,7.41,0,0,1,46,39.69a6.61,6.61,0,0,1-1.5,1.94.52.52,0,0,0-.21.5.75.75,0,0,1,0,.15,2.36,2.36,0,0,0,1,2.48s.11.09.12.14c.1.48.51.55.87.68.75.26,1.5.53,2.24.82a1,1,0,0,0,.81,0,5.08,5.08,0,0,1,.52-.15c.93-.29.69-.17.73-1a.43.43,0,0,0-.19-.39,4.37,4.37,0,0,1-1.66-3.57,3.49,3.49,0,0,0-.33-1.55,3.59,3.59,0,0,1,2.95-4.94c2-.14,3.93,0,5.9-.05.4,0,.66.2.66.55A33.83,33.83,0,0,1,57.83,39a2.15,2.15,0,0,1-.26.87,2.48,2.48,0,0,0-.29,1.41A4.28,4.28,0,0,1,55.6,45c-.34.26-.14.62-.16.93s.25.26.43.31l1.92.55a2.46,2.46,0,0,1,1.91,1.95s0,0,0,0ZM42,44.42l1-.67a.27.27,0,0,0,.14-.25v-.83c-.06,0-.08,0-.1,0l-.29.12a6.79,6.79,0,0,1-3.33.56,6.49,6.49,0,0,1-2.25-.61c-.09,0-.19-.18-.3,0A1.61,1.61,0,0,0,37,43.78l1.18.79,1.61,1.11c.1.07.18.14.3,0C40.74,45.28,41.4,44.9,42,44.42ZM24,40.74c-.52-.29-.57-.67-.16-1.1a5.5,5.5,0,0,0,.76-.84.93.93,0,0,1,.65-.31,7.18,7.18,0,0,1,3.37.94,6.36,6.36,0,0,1,1.57,1.41,3.47,3.47,0,0,0,0-.92,4.21,4.21,0,0,0-1.59-3.24,3.62,3.62,0,0,0-4.29,0,3.73,3.73,0,0,0-.52.45,4.84,4.84,0,0,0-1.11,3.61c0,.14.05.23.18.25a.72.72,0,0,1,.45.4,3.09,3.09,0,0,0,1.54,2.82,2.93,2.93,0,0,0,1.49.46,3.07,3.07,0,0,0,2.91-1.81,1.11,1.11,0,0,0-.05-1.43,4.81,4.81,0,0,0-3-1.69,1.14,1.14,0,0,0-1.3.44A1,1,0,0,1,24,40.74Zm25.77-.88a9.65,9.65,0,0,1,.13,1.86,3.16,3.16,0,0,0,1.47,2.44,3,3,0,0,0,3.44,0,3.4,3.4,0,0,0,1.32-3.25,2.81,2.81,0,0,1,.17-1.08,2,2,0,0,0,.39-1,20.63,20.63,0,0,0,.08-2.61c0-.26-.15-.25-.33-.25-1.48,0-3,0-4.44,0a2.49,2.49,0,0,0-2,.81A2.33,2.33,0,0,0,49.75,39.86ZM34.44,35.53a6.16,6.16,0,0,0,.33,2.92A5.5,5.5,0,0,0,38.61,42a4.81,4.81,0,0,0,2.32.12,5.68,5.68,0,0,0,4.66-6.56,4.09,4.09,0,0,1,.21-1.2,5,5,0,0,0,.44-2.21c0-1.71,0-3.42,0-5.13,0-.28-.06-.38-.36-.38-2.61,0-5.21,0-7.82,0a3.26,3.26,0,0,0-1.16.2,4,4,0,0,0-2,1.28,4.39,4.39,0,0,0-1.1,2.79,8,8,0,0,0,.38,3.33A3,3,0,0,1,34.44,35.53ZM40.9,46.6c.43.42.84.81,1.23,1.22.2.21.3.23.47,0,.43-.68.89-1.35,1.34-2a.59.59,0,0,0-.22-.95.19.19,0,0,0-.24,0Zm-4.5-1.84a2.52,2.52,0,0,0-.53.5c-.11.12,0,.22.09.31.49.75,1,1.48,1.48,2.24.16.24.25.21.42,0,.33-.36.68-.7,1-1,.18-.18.17-.26,0-.39-.75-.5-1.49-1-2.23-1.52Zm-11.26.9A4.29,4.29,0,0,1,25,46.75a.17.17,0,0,0,.05.18c.95,1,1.75,1,2.67,0a.14.14,0,0,0,0-.17,2.15,2.15,0,0,1-.1-.87c0-.13,0-.19-.18-.16A4.46,4.46,0,0,1,25.14,45.66Zm26.57,0c0,.28-.14.51.1.73s.68.67,1,1c.13.14.21.13.34,0a9.07,9.07,0,0,1,.82-.82.74.74,0,0,0,.25-.89,4.48,4.48,0,0,1-1.21.17A4.18,4.18,0,0,1,51.71,45.64ZM22.43,43.3c0,.5-.48,1-.18,1.42a2.82,2.82,0,0,0,1.26.86l.24.11c.08,0,.18,0,.19-.06s.11-.45-.09-.61A5.66,5.66,0,0,1,22.43,43.3Zm7.91,0A4.7,4.7,0,0,1,29,45a.32.32,0,0,0-.13.18.82.82,0,0,0,0,.49c0,.08.13,0,.2,0a4.14,4.14,0,0,0,1.45-.91c.08-.08.18-.16.14-.3C30.55,44.11,30.46,43.74,30.34,43.29Z"/><path class="cls-4" d="M30.55,48.26a1.61,1.61,0,0,1,.87-.6l3.36-1.23a.32.32,0,0,1,.46.15c.42.66.86,1.31,1.3,2a1.23,1.23,0,0,0,2.05.21l.78-.79a.42.42,0,0,1,.06.33c0,1.76,0,3.53,0,5.29,0,.11,0,.23,0,.34H33.79c0-.76,0-1.51,0-2.26s-.2-.78-.79-.75A11.09,11.09,0,0,0,30.55,48.26Z"/><path class="cls-5" d="M40.62,53.92V48a6.54,6.54,0,0,1,.81.76,1.21,1.21,0,0,0,2-.2c.44-.65.88-1.29,1.3-1.95.13-.2.23-.26.46-.17,1.13.43,2.26.83,3.39,1.25a1.57,1.57,0,0,1,.79.52c-.56.57-1.11,1.15-1.68,1.72a2.91,2.91,0,0,0-.71,1c-.59,0-.77.16-.78.76,0,.75,0,1.51,0,2.26Z"/><path class="cls-6" d="M21.71,48.88a1.18,1.18,0,0,1,.56-.45c.5-.25,1-.49,1.51-.76a.34.34,0,0,1,.49.09A3.07,3.07,0,0,0,26,48.82a2.46,2.46,0,0,0,2.11-.68,6.14,6.14,0,0,0,.45-.43c.12-.14.23-.13.4-.06s.42.25.22.59a3,3,0,0,0-.29,1.46c0,1.42,0,2.85,0,4.27h-5c0-.94,0-1.88,0-2.82,0-.54-.17-.71-.7-.75a.82.82,0,0,0-.37-.59A7.59,7.59,0,0,1,21.71,48.88Z"/><path class="cls-6" d="M53.59,53.9c0-1.71,0-3.42,0-5.12a.36.36,0,0,1,.1-.28l1.23-1.23a.26.26,0,0,1,.3-.07c.79.23,1.58.45,2.36.69a1,1,0,0,1,.65.39c0,.17-.16.25-.26.36a9.06,9.06,0,0,0-1,1.06c-.58-.11-.83.1-.83.7,0,1.17,0,2.33,0,3.5Z"/><path class="cls-7" d="M47,50.9a2.91,2.91,0,0,1,.71-1c.57-.57,1.12-1.15,1.68-1.72A1.77,1.77,0,0,1,50,49.5c0,1.49,0,3,0,4.46H47.41c0-.76,0-1.53,0-2.29A.8.8,0,0,0,47,50.9Z"/><path class="cls-8" d="M30.55,48.26A11.09,11.09,0,0,1,33,50.9a.85.85,0,0,0-.37.79c0,.75,0,1.51,0,2.26H30.07c0-1.47,0-2.94,0-4.41A1.68,1.68,0,0,1,30.55,48.26Z"/><path class="cls-9" d="M51.12,53.9c0-1.31,0-2.62,0-3.93a3.47,3.47,0,0,0-.83-2.56c.6-.34.6-.34,1,.12s.85.67,1,1.11a3.89,3.89,0,0,1,0,1.49c0,1.26,0,2.52,0,3.77Z"/><path class="cls-10" d="M57,49.7a9.06,9.06,0,0,1,1-1.06c.1-.11.25-.19.26-.36a1.12,1.12,0,0,1,.38,1c0,1.58,0,3.16,0,4.74h-1.3c0-1.2,0-2.39,0-3.59A.75.75,0,0,0,57,49.7Z"/><path class="cls-10" d="M21.71,48.88a7.59,7.59,0,0,0,1.1.94.82.82,0,0,1,.37.59.7.7,0,0,0-.46.76c0,.93,0,1.87,0,2.81h-1.3V49.71A1.06,1.06,0,0,1,21.71,48.88Z"/><path class="cls-3" d="M57,49.7a.75.75,0,0,1,.33.69c0,1.2,0,2.39,0,3.59-.09.31-.26.54-.61.52s-.53-.26-.57-.6c0-1.17,0-2.33,0-3.5C56.13,49.8,56.38,49.59,57,49.7Z"/><path class="cls-3" d="M22.71,54c0-.94,0-1.88,0-2.81a.7.7,0,0,1,.46-.76c.53,0,.69.21.7.75,0,.94,0,1.88,0,2.82a.59.59,0,0,1-.57.52A.61.61,0,0,1,22.71,54Z"/><path class="cls-3" d="M47,50.9a.8.8,0,0,1,.39.77c0,.76,0,1.53,0,2.29-.09.32-.27.57-.63.54s-.5-.26-.55-.58c0-.75,0-1.51,0-2.26C46.25,51.06,46.43,50.88,47,50.9Z"/><path class="cls-3" d="M32.61,54c0-.75,0-1.51,0-2.26A.85.85,0,0,1,33,50.9c.59,0,.79.15.79.75s0,1.5,0,2.26c0,.32-.2.57-.55.59S32.7,54.28,32.61,54Z"/><path class="cls-11" d="M45.59,35.57a5.68,5.68,0,0,1-4.66,6.56A4.81,4.81,0,0,1,38.61,42c0-.16-.14-.27-.22-.4a5.66,5.66,0,0,1-.85-2.79c0-1.47,0-3,0-4.43a1.22,1.22,0,0,1,.4-.92,1.61,1.61,0,0,1,1.1-.34,12.24,12.24,0,0,1,4,.2,6.39,6.39,0,0,0,1.28.35A2.13,2.13,0,0,0,45.59,35.57Z"/><path class="cls-12" d="M45.59,35.57a2.13,2.13,0,0,1-1.28-1.89v-.22a.54.54,0,0,0,.57-.42.57.57,0,0,0-.25-.66,3.94,3.94,0,0,0-.45-.36,7.91,7.91,0,0,0-3.92-1.21,20.12,20.12,0,0,0-2.8,0c-.08-.21-.28-.29-.42-.44a2.42,2.42,0,0,1-.57-2.67c.11-.31.36-.52.44-.84a3.26,3.26,0,0,1,1.16-.2c2.61,0,5.21,0,7.82,0,.3,0,.36.1.36.38,0,1.71,0,3.42,0,5.13a5,5,0,0,1-.44,2.21A4.09,4.09,0,0,0,45.59,35.57Z"/><path class="cls-13" d="M44.31,33.46v.22A6.39,6.39,0,0,1,43,33.33a12.24,12.24,0,0,0-4-.2,1.61,1.61,0,0,0-1.1.34,1.22,1.22,0,0,0-.4.92c0,1.48,0,3,0,4.43a5.66,5.66,0,0,0,.85,2.79c.08.13.21.24.22.4a5.5,5.5,0,0,1-3.84-3.56,6.16,6.16,0,0,1-.33-2.92,2,2,0,0,0,1.18-1.44c.47-.07.62-.23.63-.7a8.81,8.81,0,0,0,0-.89c0-.27.07-.37.34-.41a16.39,16.39,0,0,1,4.64,0,4.9,4.9,0,0,1,2.67,1.17A.59.59,0,0,0,44.31,33.46Z"/><path class="cls-11" d="M56.11,40.86a3.4,3.4,0,0,1-1.32,3.25,3,3,0,0,1-3.44,0,9.33,9.33,0,0,1-.24-2.47,1.27,1.27,0,0,1,1.41-1.36,15.5,15.5,0,0,1,1.67.18C54.83,40.61,55.47,40.74,56.11,40.86Z"/><path class="cls-14" d="M50,36.75a2.49,2.49,0,0,1,2-.81c1.48,0,3,0,4.44,0,.18,0,.34,0,.33.25a20.63,20.63,0,0,1-.08,2.61,2,2,0,0,1-.39,1l-.86-.55a.68.68,0,0,0-.49-.74c-.21-.08-.42-.17-.64-.23a14.42,14.42,0,0,0-3-.39.73.73,0,0,0-.71.37c-.24,0-.36-.15-.47-.32A1.42,1.42,0,0,1,50,36.75Z"/><path class="cls-14" d="M24.26,36.69a3.62,3.62,0,0,1,4.29,0,4.21,4.21,0,0,1,1.59,3.24,3.47,3.47,0,0,1,0,.92,6.36,6.36,0,0,0-1.57-1.41,7.18,7.18,0,0,0-3.37-.94.93.93,0,0,0-.65.31A2.57,2.57,0,0,1,24.26,36.69Z"/><path class="cls-15" d="M35.62,34.09a2,2,0,0,1-1.18,1.44,3,3,0,0,0-.27-1.26,8,8,0,0,1-.38-3.33,4.39,4.39,0,0,1,1.1-2.79,4,4,0,0,1,2-1.28c-.08.32-.33.53-.44.84A2.42,2.42,0,0,0,37,30.38c.14.15.34.23.42.44l-1.3.16a1.21,1.21,0,0,0-1,.95,5.61,5.61,0,0,0,0,1.53A.62.62,0,0,0,35.62,34.09Z"/><path class="cls-11" d="M29.2,42.87a3.07,3.07,0,0,1-2.91,1.81,2.93,2.93,0,0,1-1.49-.46c0-.11-.05-.22-.08-.33-.25-.83-.36-1.63.51-2.19l0,0c.4-.83,1-.71,1.63-.34A7.53,7.53,0,0,1,29.2,42.87Z"/><path class="cls-13" d="M55.42,39.23l.86.55a2.81,2.81,0,0,0-.17,1.08c-.64-.12-1.28-.25-1.92-.35a15.5,15.5,0,0,0-1.67-.18,1.27,1.27,0,0,0-1.41,1.36,9.33,9.33,0,0,0,.24,2.47,3.16,3.16,0,0,1-1.47-2.44,9.65,9.65,0,0,0-.13-1.86l.9-1a1.84,1.84,0,0,0,.89.2,9.3,9.3,0,0,1,3,.53C55,39.74,55.17,39.64,55.42,39.23Z"/><path class="cls-13" d="M29.2,42.87a7.53,7.53,0,0,0-2.31-1.54c-.66-.37-1.23-.49-1.63.34l0,0c-.87.56-.76,1.36-.51,2.19,0,.11.06.22.08.33a3.09,3.09,0,0,1-1.54-2.82l.72-.66a1,1,0,0,0,.9-.55,1.14,1.14,0,0,1,1.3-.44,4.81,4.81,0,0,1,3,1.69A1.11,1.11,0,0,1,29.2,42.87Z"/><path class="cls-16" d="M38.22,44.57,37,43.78a1.61,1.61,0,0,1-.16-1.08c.11-.15.21,0,.3,0a6.49,6.49,0,0,0,2.25.61,6.79,6.79,0,0,0,3.33-.56l.29-.12s0,0,.1,0v.83a.27.27,0,0,1-.14.25l-1,.67-.26,0a8.07,8.07,0,0,1-2.5.15C38.9,44.54,38.56,44.35,38.22,44.57Z"/><path class="cls-8" d="M40.9,46.6l2.58-1.76a.19.19,0,0,1,.24,0,.59.59,0,0,1,.22.95c-.45.67-.91,1.34-1.34,2-.17.27-.27.25-.47,0C41.74,47.41,41.33,47,40.9,46.6Z"/><path class="cls-15" d="M24,40.74l-.72.66a.72.72,0,0,0-.45-.4c-.13,0-.18-.11-.18-.25a4.84,4.84,0,0,1,1.11-3.61,3.73,3.73,0,0,1,.52-.45,2.57,2.57,0,0,0,.32,2.11,5.5,5.5,0,0,1-.76.84C23.41,40.07,23.46,40.45,24,40.74Z"/><path class="cls-8" d="M36.4,44.76l.23.14c.74.51,1.48,1,2.23,1.52.21.13.22.21,0,.39-.36.33-.71.67-1,1-.17.18-.26.21-.42,0-.48-.76-1-1.49-1.48-2.24-.06-.09-.2-.19-.09-.31A2.52,2.52,0,0,1,36.4,44.76Z"/><path class="cls-17" d="M25.14,45.66a4.46,4.46,0,0,0,2.35,0c.15,0,.18,0,.18.16a2.15,2.15,0,0,0,.1.87.14.14,0,0,1,0,.17C26.82,48,26,48,25.07,46.93a.17.17,0,0,1-.05-.18A4.29,4.29,0,0,0,25.14,45.66Z"/><path class="cls-17" d="M51.71,45.64a4.18,4.18,0,0,0,1.31.2,4.48,4.48,0,0,0,1.21-.17.74.74,0,0,1-.25.89,9.07,9.07,0,0,0-.82.82c-.13.13-.21.14-.34,0-.33-.34-.66-.68-1-1S51.76,45.92,51.71,45.64Z"/><path class="cls-15" d="M50.65,38.86l-.9,1a2.33,2.33,0,0,1,.2-3.11,1.42,1.42,0,0,0,.16,1.17c.11.17.23.33.47.32A1.45,1.45,0,0,0,50.65,38.86Z"/><path class="cls-17" d="M38.22,44.57c.34-.22.68,0,1,0a8.07,8.07,0,0,0,2.5-.15l.26,0c-.58.48-1.24.86-1.85,1.3-.12.1-.2,0-.3,0Z"/><path class="cls-15" d="M22.43,43.3A5.66,5.66,0,0,0,23.85,45c.2.16.09.41.09.61s-.11.09-.19.06l-.24-.11a2.82,2.82,0,0,1-1.26-.86C22,44.26,22.46,43.8,22.43,43.3Z"/><path class="cls-14" d="M30.34,43.29c.12.45.21.82.31,1.18,0,.14-.06.22-.14.3a4.14,4.14,0,0,1-1.45.91c-.07,0-.17.07-.2,0a.82.82,0,0,1,0-.49A.32.32,0,0,1,29,45,4.7,4.7,0,0,0,30.34,43.29Z"/><path class="cls-3" d="M35.62,34.09a.62.62,0,0,1-.53-.63,5.61,5.61,0,0,1,0-1.53,1.21,1.21,0,0,1,1-.95l1.3-.16a20.12,20.12,0,0,1,2.8,0A7.91,7.91,0,0,1,44.18,32a3.94,3.94,0,0,1,.45.36.57.57,0,0,1,.25.66.54.54,0,0,1-.57.42.59.59,0,0,1-.41-.19,4.9,4.9,0,0,0-2.67-1.17,16.39,16.39,0,0,0-4.64,0c-.27,0-.36.14-.34.41a8.81,8.81,0,0,1,0,.89C36.24,33.86,36.09,34,35.62,34.09Z"/><path class="cls-3" d="M50.65,38.86a1.45,1.45,0,0,1-.07-.62.73.73,0,0,1,.71-.37,14.42,14.42,0,0,1,3,.39c.22.06.43.15.64.23a.68.68,0,0,1,.49.74c-.25.41-.46.51-.84.36a9.3,9.3,0,0,0-3-.53A1.84,1.84,0,0,1,50.65,38.86Z"/></g><g id="educrypt"><circle class="cls-18" cx="40" cy="40" r="38.52"/><g class="cls-19"><rect class="cls-20" x="30.28" y="35.03" width="20.72" height="17.44" transform="matrix(0.04, -1, 1, 0.04, -4.69, 82.61)"/></g><g class="cls-21"><rect class="cls-22" x="28.74" y="26.22" width="22.6" height="9.44"/></g></g><g id="Freswork"><circle class="cls-23" cx="40" cy="40" r="38.52"/><g id="Layer"><path id="Layer-2" data-name="Layer" class="cls-24" d="M24.24,42.38a15.62,15.62,0,0,0,4.49,8.89l5.43-5.43A16,16,0,0,1,42.1,32Z"/><path id="Layer-3" data-name="Layer" class="cls-24" d="M34.16,45.84a15.76,15.76,0,0,1-7.95-2.15,22.41,22.41,0,0,1-2-1.31,15.62,15.62,0,0,0,4.49,8.89Z"/><path id="Layer-4" data-name="Layer" class="cls-25" d="M34.16,45.84l-5.43,5.43a15.62,15.62,0,0,0,8.89,4.49L47.9,37.9a15.89,15.89,0,0,1-13.74,7.94Z"/><path id="Layer-5" data-name="Layer" class="cls-26" d="M36.31,53.79a15.76,15.76,0,0,1-2.15-7.95l-5.43,5.43a15.62,15.62,0,0,0,8.89,4.49,22.41,22.41,0,0,1-1.31-2Z"/><path id="Layer-6" data-name="Layer" class="cls-27" d="M54.45,24.9,42.1,32a16,16,0,0,1-15.89,0,16.15,16.15,0,0,0-2.15,8,20.3,20.3,0,0,0,.18,2.33,22.41,22.41,0,0,0,2,1.31,15.76,15.76,0,0,0,7.95,2.15L54.73,25.27a1.31,1.31,0,0,1-.28-.37Z"/><path id="Layer-7" data-name="Layer" class="cls-28" d="M26.21,43.69a15.76,15.76,0,0,0,7.95,2.15A16,16,0,0,1,42.1,32L24.24,42.29a12.59,12.59,0,0,0,2,1.4Z"/><path id="Layer-8" data-name="Layer" class="cls-29" d="M26.21,32a16.15,16.15,0,0,0-2.15,8,20.3,20.3,0,0,0,.18,2.33L42.1,32a15.6,15.6,0,0,1-15.89,0Z"/><path id="Layer-9" data-name="Layer" class="cls-30" d="M54.73,25.27a4.35,4.35,0,0,0-.75-.65,3.62,3.62,0,0,0-2-.56H40A15.89,15.89,0,0,0,26.21,32,16,16,0,0,0,42.1,32a15.88,15.88,0,0,0-7.94,13.84A16,16,0,0,0,48,37.9l7.1-12.35a1.31,1.31,0,0,1-.37-.28Z"/><path id="Layer-10" data-name="Layer" class="cls-31" d="M42.1,32l12.35-7.1c-.19-.1-.28-.28-.47-.38L26.21,32A15.6,15.6,0,0,0,42.1,32Z"/><path id="Layer-11" data-name="Layer" class="cls-32" d="M51.92,24.06H40A15.89,15.89,0,0,0,26.21,32L54,24.52A5.09,5.09,0,0,0,51.92,24.06Z"/><path id="Layer-12" data-name="Layer" class="cls-33" d="M48,37.9l7.1-12.35a1.53,1.53,0,0,1-.28-.37L34.25,45.75a15.86,15.86,0,0,0,2.15,8,22.29,22.29,0,0,0,1.31,2,17.07,17.07,0,0,0,2.24.19A15.86,15.86,0,0,0,47.9,53.7,15.67,15.67,0,0,1,48,37.9Z"/><path id="Layer-13" data-name="Layer" class="cls-34" d="M34.16,45.84a15.76,15.76,0,0,0,2.15,7.95,22.41,22.41,0,0,0,1.31,2L47.9,37.9a15.89,15.89,0,0,1-13.74,7.94Z"/><path id="Layer-14" data-name="Layer" class="cls-35" d="M48,37.9,37.71,55.76a19,19,0,0,0,2.34.18,15.81,15.81,0,0,0,8-2.15A15.6,15.6,0,0,1,48,37.9Z"/><path id="Layer-15" data-name="Layer" class="cls-36" d="M55.38,26a3.73,3.73,0,0,0-.93-1.12L42.1,32a15.88,15.88,0,0,0-7.94,13.84A16,16,0,0,0,48,37.9a16,16,0,0,0,0,15.89,15.86,15.86,0,0,0,7.94-13.65V28.08A3.94,3.94,0,0,0,55.38,26Z"/><path id="Layer-16" data-name="Layer" class="cls-37" d="M54.45,24.9,42.1,32a15.88,15.88,0,0,0-7.94,13.84L54.73,25.27c-.09-.09-.19-.28-.28-.37Z"/><path id="Layer-17" data-name="Layer" class="cls-36" d="M34.16,45.84A16,16,0,0,0,48,37.9l7.1-12.35a1.53,1.53,0,0,1-.28-.37Z"/><path id="Layer-18" data-name="Layer" class="cls-38" d="M55.1,25.55,48,37.9a16,16,0,0,0,0,15.89L55.48,26a1.74,1.74,0,0,1-.38-.47Z"/><path id="Layer-19" data-name="Layer" class="cls-39" d="M48,53.79a15.71,15.71,0,0,0,7.94-13.74v-12A3.94,3.94,0,0,0,55.38,26L48,53.79Z"/></g></g><circle class="cls-40" cx="39.96" cy="40.1" r="38.52"/><circle class="cls-2" cx="40" cy="40" r="38.52"/><path class="cls-41" d="M40,54.94H30.36c-.52,0-.67-.15-.67-.65V53a2.09,2.09,0,0,1,1.72-2,4.2,4.2,0,0,1,.87-.07c.8,0,1.6,0,2.4,0,.22,0,.3,0,.3-.28,0-.68,0-1.36,0-2,0-.21-.06-.26-.27-.26H27.93a2.72,2.72,0,0,1-2.88-2.89V30.56a2.72,2.72,0,0,1,2.89-2.89h3c.19,0,.26-.05.25-.25,0-.39,0-.78,0-1.18a1.09,1.09,0,0,1,1.2-1.19H47.57a1.09,1.09,0,0,1,1.19,1.18c0,.4,0,.8,0,1.2,0,.19.06.24.24.24h2a.33.33,0,0,0,.3-.14,1.78,1.78,0,0,1,2.31-.4,2.06,2.06,0,0,1,1.25,1.44,1.23,1.23,0,0,1,0,.33c-.11,1.38,0,2.77,0,4.15s0,2.79,0,4.19v4.18c0,1.38,0,2.75,0,4.13a2.69,2.69,0,0,1-2.81,2.82q-3.4,0-6.81,0c-.23,0-.31.05-.3.29,0,.67,0,1.35,0,2,0,.23.07.28.29.28.86,0,1.73,0,2.59,0a2.65,2.65,0,0,1,1.38.35,1.91,1.91,0,0,1,1,1.78c0,.42,0,.84,0,1.26s-.17.6-.61.6Zm6.45-14.22-.9-.54v1.08c0,.1,0,.2,0,.31l1.19-.69ZM53.68,28.3a2.24,2.24,0,0,0-.66-.4.78.78,0,0,0-1,.27c-.17.26-.31.54-.47.8s0,.18.07.24c.47.25.91.57,1.41.79.19.21.32.18.44-.09s.23-.39.34-.59A.77.77,0,0,0,53.68,28.3Zm-2.3,15.36h.36c.29,0,.38,0,.38-.36,0-2.87,0-5.75,0-8.63v-.31h-.06l-.68,1.22,0,0-2.49,4.31a.46.46,0,0,0-.08.25v3.31c0,.14,0,.19.19.19Zm1.08-12.87c-.4-.23-.82-.46-1.21-.71-.19-.12-.26-.07-.36.1-.48.85-1,1.69-1.45,2.53q-1.8,3.1-3.59,6.21c-.06.11-.21.22,0,.34.46.24.91.5,1.36.76.16.12.3.29.48,0q2.5-4.38,5-8.74c.1-.17.11-.28-.09-.36A.69.69,0,0,1,52.46,30.79Zm-8.62,17.6-7.7,0c-.19,0-.21.08-.21.24,0,.67,0,1.34,0,2,0,.26.06.34.33.34h7.58c.14,0,.21,0,.21-.16,0-.74,0-1.49,0-2.23C44.05,48.39,44,48.36,43.84,48.39ZM47.4,26H32.59c-.4,0-.4,0-.4.39q0,8.46,0,16.92c0,.27.07.34.35.34H47.4c.4,0,.4,0,.4-.37s0-.92,0-1.38c0-.15.08-.38-.06-.44s-.28.11-.4.21l-.32.17-1.66,1c-.31.17-.61.12-.72-.16s-.2-.22-.38-.22H33.72a2.17,2.17,0,0,1-.36,0A.43.43,0,0,1,33,42a.43.43,0,0,1,.37-.47,1.71,1.71,0,0,1,.39,0H44.38c.15,0,.2,0,.19-.19a6.76,6.76,0,0,1,0-.9c0-.28-.09-.32-.34-.32H33.43a.48.48,0,0,1,0-1h11c.11,0,.24,0,.32-.1l.74-1.3H33.59c-.4,0-.64-.18-.64-.48s.22-.48.63-.48H45.72c.11,0,.24.06.32-.09.25-.44.51-.88.77-1.32H33.54c-.36,0-.58-.19-.59-.47s.22-.49.59-.5H46.31c.38,0,.67.07.75.54l.35-.65a1.8,1.8,0,0,0,.4-1.19c0-2.22,0-4.43,0-6.65C47.8,26,47.8,26,47.4,26ZM54,31.16l-.06,0c-.22.39-.44.78-.67,1.16a1.14,1.14,0,0,0-.17.62v11c0,.56-.14.7-.69.7H27.59c-.53,0-.67-.14-.67-.68V30.5c0-.68.28-1,1-1h2.74c.61,0,.6,0,.61-.61,0-.25-.09-.29-.31-.29h-3A1.74,1.74,0,0,0,26,30.53v15a1.74,1.74,0,0,0,1.9,1.91H52.07A1.75,1.75,0,0,0,54,45.52V31.16ZM31.23,37.08c0-2.1,0-4.2,0-6.29,0-.24-.06-.31-.3-.3-.92,0-1.84,0-2.77,0-.21,0-.29,0-.29.27q0,6.33,0,12.67c0,.2.05.25.24.25.94,0,1.87,0,2.8,0,.26,0,.31-.06.31-.31C31.22,41.27,31.23,39.17,31.23,37.08ZM40,54h9.1c.2,0,.28,0,.26-.26a5.3,5.3,0,0,1,0-.69.94.94,0,0,0-.45-.84,1.89,1.89,0,0,0-1.09-.28H31.87a1.2,1.2,0,0,0-1.22,1.31,3.38,3.38,0,0,1,0,.45c0,.23.05.3.29.3ZM50.66,28.64H48.92c-.14,0-.18.08-.16.19s-.16.61.12.68a2.48,2.48,0,0,0,1.24,0c.24-.06.3-.46.46-.7ZM49.6,30.49c-.27,0-.47,0-.67,0s-.18,0-.17.17v1.18l.05,0Z"/><path class="cls-42" d="M47.41,34.25l-.35.65c-.08-.47-.37-.54-.75-.54H33.54c-.37,0-.6.21-.59.5s.23.46.59.47H46.81c-.26.44-.52.88-.77,1.32-.08.15-.21.09-.32.09H33.58c-.41,0-.63.17-.63.48s.24.48.64.48H45.43L44.69,39c-.08.15-.21.1-.32.1h-11a.48.48,0,0,0,0,1H44.24c.25,0,.36,0,.34.32a6.76,6.76,0,0,0,0,.9c0,.14,0,.21-.19.19H33.72a1.71,1.71,0,0,0-.39,0A.43.43,0,0,0,33,42a.43.43,0,0,0,.4.45,2.17,2.17,0,0,0,.36,0H44.26c.18,0,.3,0,.38.22s.41.33.72.16l1.66-1,.32-.17c.09.07.06.17.06.25v1.73H32.53c-.28,0-.35-.07-.35-.34q0-8.46,0-16.92c0-.39,0-.39.4-.39H47.4V29.7C47.41,31.22,47.41,32.73,47.41,34.25ZM37.33,33h3.73c.39,0,.56-.16.56-.54,0-1.67,0-3.33,0-5,0-.4-.17-.55-.58-.55h-7.4c-.43,0-.6.16-.6.6,0,1.36,0,2.71,0,4.07,0,.28,0,.55,0,.84.06.45.18.58.63.58Zm7.4-4.74H46.5c.33,0,.54-.22.53-.49a.49.49,0,0,0-.55-.47c-1.14,0-2.29,0-3.43,0-.39,0-.6.17-.6.47s.2.49.59.49C43.6,28.23,44.16,28.22,44.73,28.22Zm0,1.41H43c-.36,0-.56.18-.56.48s.2.48.56.48q1.73,0,3.45,0c.35,0,.57-.19.57-.48s-.21-.48-.56-.48Zm0,3.33h1.72c.35,0,.57-.2.56-.48s-.22-.48-.57-.49H43c-.36,0-.56.19-.56.49s.2.47.56.48Z"/><path class="cls-43" d="M54,31.16V45.52a1.75,1.75,0,0,1-1.9,1.89H27.92A1.74,1.74,0,0,1,26,45.5v-15a1.74,1.74,0,0,1,1.89-1.89h3c.22,0,.32,0,.31.29,0,.61,0,.61-.61.61H27.88c-.68,0-1,.29-1,1V44c0,.54.14.68.67.68H52.38c.55,0,.69-.14.69-.7v-11a1.14,1.14,0,0,1,.17-.62c.23-.38.45-.77.67-1.16Z"/><path class="cls-44" d="M31.23,37.08c0,2.09,0,4.19,0,6.29,0,.25-.05.31-.31.31-.93,0-1.86,0-2.8,0-.19,0-.25,0-.24-.25q0-6.33,0-12.67c0-.24.08-.27.29-.27.93,0,1.85,0,2.77,0,.24,0,.3.06.3.3C31.22,32.88,31.23,35,31.23,37.08Z"/><path class="cls-43" d="M40,54h-9c-.24,0-.31-.07-.29-.3a3.38,3.38,0,0,0,0-.45,1.2,1.2,0,0,1,1.22-1.31H47.79a1.89,1.89,0,0,1,1.09.28.94.94,0,0,1,.45.84,5.3,5.3,0,0,0,0,.69c0,.22-.06.26-.26.26Z"/><path class="cls-45" d="M43.84,50.94H36.26c-.27,0-.34-.08-.33-.34,0-.67,0-1.34,0-2,0-.16,0-.24.21-.24l7.7,0Z"/><path class="cls-46" d="M47.22,40c-.45-.26-.9-.52-1.36-.76-.22-.12-.07-.23,0-.34q1.78-3.11,3.59-6.21c.48-.84,1-1.68,1.45-2.53.1-.17.17-.22.36-.1.39.25.81.48,1.21.71a.77.77,0,0,1-.17.44l-.8,1.38-2.17,3.77Z"/><path class="cls-47" d="M51.38,43.66l-2.43,0c-.15,0-.19,0-.19-.19V40.18a.46.46,0,0,1,.08-.25l2.49-4.31,0,0c0,.1,0,.2,0,.3Z"/><path class="cls-48" d="M51.38,43.66V35.88c0-.1,0-.2,0-.3l.68-1.22h.06v.31c0,2.88,0,5.76,0,8.63,0,.32-.09.41-.38.36Z"/><path class="cls-49" d="M47.22,40l2.1-3.64,2.17-3.77.8-1.38a.77.77,0,0,0,.17-.44.69.69,0,0,0,.19.1c.2.08.19.19.09.36q-2.54,4.36-5,8.74C47.52,40.31,47.38,40.14,47.22,40Z"/><path class="cls-50" d="M47.41,34.25c0-1.52,0-3,0-4.55V26c.4,0,.4,0,.4.38,0,2.22,0,4.43,0,6.65A1.8,1.8,0,0,1,47.41,34.25Z"/><path class="cls-51" d="M53.07,30c-.5-.22-.94-.54-1.41-.79-.11-.06-.14-.13-.07-.24s.3-.54.47-.8a.78.78,0,0,1,1-.27,2.24,2.24,0,0,1,.66.4,1.83,1.83,0,0,1-.34,1.12A1.2,1.2,0,0,0,53.07,30Z"/><path class="cls-43" d="M50.66,28.64l-.08.15c-.16.24-.22.64-.46.7a2.48,2.48,0,0,1-1.24,0c-.28-.07-.07-.45-.12-.68s0-.2.16-.19h1.74Z"/><path class="cls-50" d="M47.4,43.66V41.93c0-.08,0-.18-.06-.25.12-.1.29-.26.4-.21s0,.29.06.44c0,.46,0,.92,0,1.38S47.8,43.69,47.4,43.66Z"/><path class="cls-48" d="M49.6,30.49l-.79,1.37-.05,0V30.66c0-.13,0-.17.17-.17S49.33,30.49,49.6,30.49Z"/><path class="cls-52" d="M53.07,30a1.2,1.2,0,0,1,.27-.58,1.83,1.83,0,0,0,.34-1.12.77.77,0,0,1,.17,1c-.11.2-.25.39-.34.59S53.26,30.21,53.07,30Z"/><path class="cls-51" d="M45.54,41.26V40.18l.9.54A5.11,5.11,0,0,1,45.54,41.26Z"/><path class="cls-51" d="M43.84,50.94V48.39c.14,0,.21,0,.21.16,0,.74,0,1.49,0,2.23C44.05,50.94,44,51,43.84,50.94Z"/><path class="cls-52" d="M45.54,41.26a5.11,5.11,0,0,0,.9-.54l.33.16-1.19.69C45.5,41.46,45.54,41.36,45.54,41.26Z"/><path class="cls-53" d="M37.33,33H33.66c-.45,0-.57-.13-.63-.58,0-.29,0-.56,0-.84,0-1.36,0-2.71,0-4.07,0-.44.17-.6.6-.6H41c.41,0,.58.15.58.55,0,1.67,0,3.33,0,5,0,.38-.17.53-.56.54Zm0-5.13c-1,0-2.07,0-3.1,0-.19,0-.26,0-.25.24,0,1.21,0,2.41,0,3.61,0,.23,0,.31.3.31h6.07c.26,0,.3-.09.3-.31,0-1.2,0-2.4,0-3.61,0-.2-.06-.24-.25-.24C39.39,27.84,38.37,27.83,37.35,27.83Z"/><path class="cls-41" d="M44.73,28.22c-.57,0-1.13,0-1.69,0-.39,0-.6-.18-.59-.49s.21-.47.6-.47c1.14,0,2.29,0,3.43,0a.49.49,0,0,1,.55.47c0,.27-.2.47-.53.49H44.73Z"/><path class="cls-41" d="M44.75,29.63h1.72c.35,0,.57.19.56.48s-.22.48-.57.48q-1.73,0-3.45,0c-.36,0-.56-.18-.56-.48s.2-.48.56-.48Z"/><path class="cls-41" d="M44.75,33H43c-.36,0-.56-.18-.56-.48s.2-.48.56-.49h3.45c.35,0,.57.2.57.49s-.21.47-.56.48Z"/><path class="cls-54" d="M37.35,27.83c1,0,2,0,3.07,0,.19,0,.25,0,.25.24,0,1.21,0,2.41,0,3.61,0,.22,0,.31-.3.31H34.3c-.25,0-.31-.08-.3-.31,0-1.2,0-2.4,0-3.61,0-.2.06-.24.25-.24C35.28,27.84,36.32,27.83,37.35,27.83Z"/><circle class="cls-18" cx="40" cy="40" r="38.52"/><circle class="cls-18" cx="40" cy="40" r="38.52"/><path class="cls-55" d="M49.06,26.15c0-.7,0-1.39,0-2.08a1.25,1.25,0,0,1,.75-1.35h.54a1.24,1.24,0,0,1,.75,1.35c0,.69,0,1.38,0,2.08Z"/><path class="cls-56" d="M30.13,22.72a1.25,1.25,0,0,1,.75,1.35c0,.69,0,1.39,0,2.08h-2c0-.69,0-1.39,0-2.08a1.25,1.25,0,0,1,.75-1.35Z"/><path class="cls-55" d="M41,26.15c0-.7,0-1.39,0-2.08a1.25,1.25,0,0,1,.75-1.35h.54A1.25,1.25,0,0,1,43,24.07c0,.69,0,1.38,0,2.08Z"/><path class="cls-56" d="M26.15,30.87c-.69,0-1.39,0-2.08,0a1.25,1.25,0,0,1-1.35-.75v-.54a1.25,1.25,0,0,1,1.35-.75c.69,0,1.39,0,2.08,0Z"/><path class="cls-55" d="M46.3,22.72a1.25,1.25,0,0,1,.75,1.35c0,.69,0,1.38,0,2.08H45c0-.7,0-1.39,0-2.08a1.25,1.25,0,0,1,.75-1.35Z"/><path class="cls-56" d="M34.17,22.72a1.25,1.25,0,0,1,.75,1.35c0,.69,0,1.39,0,2.08h-2c0-.69,0-1.39,0-2.08a1.25,1.25,0,0,1,.75-1.35Z"/><path class="cls-56" d="M38.21,22.72A1.23,1.23,0,0,1,39,24.07c0,.69,0,1.39,0,2.08h-2c0-.69,0-1.39,0-2.08a1.24,1.24,0,0,1,.75-1.35Z"/><path class="cls-56" d="M26.15,43c-.69,0-1.39,0-2.08,0a1.25,1.25,0,0,1-1.35-.75v-.54A1.25,1.25,0,0,1,24.07,41c.69,0,1.39,0,2.08,0Z"/><path class="cls-56" d="M22.72,33.63a1.25,1.25,0,0,1,1.35-.75c.69,0,1.39,0,2.08,0v2c-.69,0-1.39,0-2.08,0a1.25,1.25,0,0,1-1.35-.75Z"/><path class="cls-56" d="M26.15,39c-.69,0-1.39,0-2.08,0a1.24,1.24,0,0,1-1.35-.75v-.53a1.23,1.23,0,0,1,1.35-.75c.69,0,1.39,0,2.08,0Z"/><path class="cls-56" d="M22.72,49.8a1.25,1.25,0,0,1,1.35-.75c.69,0,1.39,0,2.08,0v2c-.69,0-1.39,0-2.08,0a1.24,1.24,0,0,1-1.35-.75Z"/><path class="cls-56" d="M26.15,47c-.69,0-1.39,0-2.08,0a1.25,1.25,0,0,1-1.35-.75v-.54A1.25,1.25,0,0,1,24.07,45c.69,0,1.39,0,2.08,0Z"/><path class="cls-57" d="M45,26.15h7.71a1,1,0,0,1,1.05,1.05V52.73a1,1,0,0,1-1.05,1.05H40c0-1.34,0-2.69,0-4h8.63a1,1,0,0,0,1.15-1.17V31.36a1,1,0,0,0-1.15-1.16H40v-4H45Z"/><path class="cls-58" d="M40,49.74c0,1.34,0,2.69,0,4H27.21a1,1,0,0,1-1.06-1.06V27.24a1,1,0,0,1,1.09-1.09H40v4H31.25a1,1,0,0,0-1.05,1.06V48.67a1,1,0,0,0,1.05,1.07H40Z"/><path class="cls-55" d="M53.78,39v-2h2.33a1,1,0,1,1,0,2Z"/><path class="cls-55" d="M53.78,30.87v-2h2.33a1,1,0,1,1,0,2Z"/><path class="cls-55" d="M53.78,34.91v-2h2.33a1,1,0,1,1,0,2Z"/><path class="cls-55" d="M53.78,43V41h2.33a1,1,0,1,1,0,2Z"/><path class="cls-55" d="M49.06,53.78h2c0,.78,0,1.55,0,2.33a1,1,0,1,1-2,0Z"/><path class="cls-55" d="M53.78,47V45h2.33a1,1,0,1,1,0,2Z"/><path class="cls-55" d="M53.78,51.09v-2h2.33a1,1,0,1,1,0,2Z"/><path class="cls-55" d="M41,53.78h2v2.33a1,1,0,1,1-2,0Z"/><path class="cls-55" d="M45,53.78h2v2.33a1,1,0,1,1-2,0Z"/><path class="cls-56" d="M32.89,53.78h2c0,.79,0,1.57,0,2.36a1,1,0,1,1-2,0Z"/><path class="cls-56" d="M36.94,53.78h2c0,.79,0,1.57,0,2.36a1,1,0,1,1-2,0C36.93,55.35,36.94,54.57,36.94,53.78Z"/><path class="cls-56" d="M28.85,53.78h2v2.36a1,1,0,1,1-2,0Z"/><path class="cls-59" d="M40,30.19h8.63a1,1,0,0,1,1.15,1.16V48.57a1,1,0,0,1-1.15,1.17H40V43a8.53,8.53,0,0,1,.53,1.29,1.1,1.1,0,0,0,.55.61,1,1,0,0,0,1.09-.16,1,1,0,0,0,.27-1.17c-.37-1-.76-2-1.15-3.06S40.49,38.43,40,37.4L40,37.08c0-.13,0-.26,0-.4V30.2Zm3.87,9.74c0,1.29,0,2.58,0,3.87,0,.74.39,1.21,1,1.22s1-.47,1-1.23V36.08a1.06,1.06,0,0,0-.54-1,1,1,0,0,0-1.49,1C43.83,37.31,43.84,38.62,43.83,39.93Z"/><path class="cls-60" d="M40,43.07v6.66H31.25a1,1,0,0,1-1.05-1.07V31.26a1,1,0,0,1,1.05-1.06H40v6.48c0,.14,0,.27,0,.4-.17-.44-.35-.89-.52-1.34a1.21,1.21,0,0,0-1.15-.83,1.23,1.23,0,0,0-1.13.82q-1.5,3.93-3,7.88a1,1,0,1,0,1.88.71c.15-.35.28-.71.41-1.07,0-.12.1-.21.26-.21Z"/><path class="cls-61" d="M40,43.07l-3.26,0c-.16,0-.21.09-.26.21-.13.36-.26.72-.41,1.07a1,1,0,1,1-1.88-.71q1.48-3.95,3-7.88a1.23,1.23,0,0,1,1.13-.82,1.21,1.21,0,0,1,1.15.83c.17.45.35.9.52,1.34l.09.32c-.12.11-.07.26-.07.38,0,1.76,0,3.51,0,5.26Zm-1.69-4.64c-.32.86-.61,1.63-.91,2.39,0,.14,0,.2.14.2h1.55c.17,0,.17-.07.12-.21C38.89,40.05,38.61,39.29,38.28,38.43Z"/><path class="cls-62" d="M43.83,39.93c0-1.31,0-2.62,0-3.94a1,1,0,0,1,1.49-1,1.06,1.06,0,0,1,.54,1v7.71c0,.76-.4,1.24-1,1.23s-1-.48-1-1.22C43.83,42.51,43.83,41.22,43.83,39.93Z"/><path class="cls-63" d="M40,43c0-1.75,0-3.5,0-5.26,0-.12,0-.27.07-.38.45,1,.81,2.1,1.21,3.15s.78,2,1.15,3.06a1,1,0,0,1-.27,1.17,1,1,0,0,1-1.09.16,1.1,1.1,0,0,1-.55-.61A8.53,8.53,0,0,0,40,43Z"/><path class="cls-64" d="M38.28,38.43c.33.86.61,1.62.9,2.38,0,.14,0,.22-.12.21H37.51c-.16,0-.19-.06-.14-.2C37.67,40.06,38,39.29,38.28,38.43Z"/></svg>