<svg id="Layer_1" data-name="Layer 1" xmlns="http://www.w3.org/2000/svg" viewBox="0 0 80 80"><defs><style>.cls-1{fill:#fbfadf;}.cls-2{fill:#fe7901;}.cls-3{fill:#fe8701;}.cls-4{fill:#fe9402;}.cls-5{fill:#fefdfd;}.cls-6{fill:#fefcf9;}.cls-7{fill:#fefbf9;}.cls-8{fill:#ecf6fc;}.cls-9{fill:#030304;}.cls-10{fill:#fafafa;}.cls-11{fill:#8fd6f7;}.cls-12{fill:#8ed6f6;}.cls-13{fill:#74ccf6;}.cls-14{fill:#71c4ec;}.cls-15{fill:#3f6e91;}.cls-16{fill:#355d7b;}.cls-17{fill:#d7606b;}.cls-18{fill:#d04750;}.cls-19{fill:#030404;}.cls-20{fill:#bee1f5;}.cls-21{fill:#d8ecf8;}.cls-22{fill:#040404;}.cls-23{fill:#070808;}.cls-24{fill:#020202;}.cls-25{fill:#61b4e6;}.cls-26{fill:#44a6d6;}.cls-27{fill:#f2bf5e;}.cls-28{fill:#010202;}.cls-29{fill:#43a5d5;}.cls-30{fill:#44a6d7;}.cls-31{fill:#43a3d3;}.cls-32{fill:#798289;}.cls-33{fill:#020203;}.cls-34{fill:#43a4d5;}</style></defs><g id="videocrypt"><circle class="cls-1" cx="40" cy="40" r="38.52"/><path class="cls-2" d="M52.55,44A10.49,10.49,0,0,1,52,49.16,11.63,11.63,0,0,1,42.47,57a16.31,16.31,0,0,1-4.52.08,11.85,11.85,0,0,1-10.29-9,14,14,0,0,1-.31-3.87A7.29,7.29,0,0,1,27.58,43c.77-.05,1.52.18,2.29.1a12.87,12.87,0,0,0-.19,3.28.62.62,0,0,0,.68.64.57.57,0,0,0,.58-.67c0-.19,0-.39,0-.58a8.27,8.27,0,0,1,.23-2.67,4.92,4.92,0,0,0,.67.1c1.68.05,3.37.08,5.05.11q0,3.1,0,6.19c0,.76.62,1.17,1.25.78Q41.78,48,45.41,45.7a.71.71,0,0,0,0-1.26c-.32-.23-.67-.45-1-.67a4.17,4.17,0,0,1,1.65,0C48.22,43.78,50.39,43.89,52.55,44ZM33.48,52.36a.64.64,0,0,0-.23-.6,9.91,9.91,0,0,1-1.52-2.41,1.47,1.47,0,0,0-.22-.41.54.54,0,0,0-.76-.11c-.21.14-.43.35-.29.66a11.71,11.71,0,0,0,2,3.25.59.59,0,0,0,.71.21A.49.49,0,0,0,33.48,52.36Z"/><path class="cls-3" d="M29.87,43.13c-.77.08-1.52-.15-2.29-.1a11.71,11.71,0,0,1,7.09-8.59,14.69,14.69,0,0,1,7.69-.77,10.75,10.75,0,0,1,3.26.9c.46.21.54.1.5-.34a4.53,4.53,0,0,1,0-.52c1.14-.08,2.28.17,3.43.1,0,1,0,2,0,3.07a1.12,1.12,0,0,0,.28.81,11.83,11.83,0,0,1,2.69,6.13.88.88,0,0,1,0,.16c-2.16-.09-4.33-.2-6.5-.23a4.17,4.17,0,0,0-1.65,0c-.15-.09-.31-.16-.46-.26l-5.66-3.58a.94.94,0,0,0-1-.12c-.37.18-.42.52-.42.9,0,.87,0,1.75,0,2.63-1.68,0-3.37-.06-5.05-.11a4.92,4.92,0,0,1-.67-.1,9.74,9.74,0,0,1,2-4,1.64,1.64,0,0,0,.26-.33c.14-.29.24-.61-.05-.86a.58.58,0,0,0-.88.1l-.24.28A11.72,11.72,0,0,0,29.87,43.13Z"/><path class="cls-4" d="M49.58,33.81c-1.15.07-2.29-.18-3.43-.1A23.74,23.74,0,0,0,46,31.33a5.87,5.87,0,0,0-4-4.66,6.06,6.06,0,0,0-8,4.6,4.12,4.12,0,0,0-.2,1.56.24.24,0,0,1-.15.29,15.27,15.27,0,0,0-3.18,2.25c-.38-3.73.07-7.17,2.91-9.91a9.19,9.19,0,0,1,5-2.54,9.57,9.57,0,0,1,10.86,6.89A11.47,11.47,0,0,1,49.58,33.81Z"/><path class="cls-5" d="M36.86,43.34c0-.88,0-1.76,0-2.63,0-.38.05-.72.42-.9a.94.94,0,0,1,1,.12l5.66,3.58c.15.1.31.17.46.26.33.22.68.44,1,.67a.71.71,0,0,1,0,1.26Q41.78,48,38.13,50.31c-.63.39-1.25,0-1.25-.78Q36.86,46.44,36.86,43.34Z"/><path class="cls-6" d="M29.87,43.13a11.72,11.72,0,0,1,2.34-4.85l.24-.28a.58.58,0,0,1,.88-.1c.29.25.19.57.05.86a1.64,1.64,0,0,1-.26.33,9.74,9.74,0,0,0-2,4,8.27,8.27,0,0,0-.23,2.67c0,.19,0,.39,0,.58a.57.57,0,0,1-.58.67.62.62,0,0,1-.68-.64A12.87,12.87,0,0,1,29.87,43.13Z"/><path class="cls-7" d="M33.48,52.36a.49.49,0,0,1-.27.59.59.59,0,0,1-.71-.21,11.71,11.71,0,0,1-2-3.25c-.14-.31.08-.52.29-.66a.54.54,0,0,1,.76.11,1.47,1.47,0,0,1,.22.41,9.91,9.91,0,0,0,1.52,2.41A.64.64,0,0,1,33.48,52.36Z"/></g><g id="ai"><circle class="cls-8" cx="40" cy="40" r="38.52"/><path class="cls-9" d="M48.89,52c.4-.07.56,0,.66.42a13.3,13.3,0,0,1,.23,2.6.41.41,0,0,1-.37.42,2.14,2.14,0,0,1-.36,0H30.94c-.64,0-.76-.11-.72-.76a11.54,11.54,0,0,1,.24-2.34A4.12,4.12,0,0,1,34,49.42c1-.09,2.09-.16,3.13-.21.22,0,.26-.08.26-.28s-.05-.25-.25-.26c-1.34,0-2.68-.08-4-.15a11.35,11.35,0,0,1-2.66-.29,4.53,4.53,0,0,1-3.19-3.85c-.15-1.56-.22-3.11-.27-4.67,0-.21-.05-.28-.27-.32a2.48,2.48,0,0,1-2-1.88,7.87,7.87,0,0,0-.24-1.07V34.63a6.12,6.12,0,0,0,.23-1,2.56,2.56,0,0,1,1.61-1.83c.27-.12.69,0,.82-.27a2.92,2.92,0,0,0,.11-.95v0a4.51,4.51,0,0,1,2.74-3.69,6.48,6.48,0,0,1,2.42-.4c.22,0,.33-.06.4-.29a2.16,2.16,0,0,1,1.67-1.53c.05,0,.12,0,.14-.06h.55s0,.05.09.05A2.14,2.14,0,0,1,37.06,26c.06.15.11.28.31.23s.44.11.56-.23a2.18,2.18,0,0,1,1.42-1.34c.11,0,.25,0,.35-.11h.54s0,0,0,0a2.18,2.18,0,0,1,1.83,1.46c.12.31.35.13.53.18s.23,0,.29-.18a2.16,2.16,0,0,1,1.7-1.44s.08,0,.09-.06h.54c.08.11.2.05.3.08a2.16,2.16,0,0,1,1.57,1.48c.08.26.2.3.44.32a6.48,6.48,0,0,1,2.14.3,4.58,4.58,0,0,1,3,4.25,1.21,1.21,0,0,0,.07.58c.09.15.35.08.53.13a2.5,2.5,0,0,1,1.88,1.91,8,8,0,0,1,0,3.88,2.42,2.42,0,0,1-2,1.9c-.25.06-.29.15-.29.37-.05,1.56-.12,3.11-.27,4.67a4.56,4.56,0,0,1-4.09,4c-1.89.14-3.79.22-5.7.26-.26,0-.34.07-.32.34s.07.19.21.19l2.65.17a4.55,4.55,0,0,1,2.91,1.08c.29.28.32.44.1.79a.55.55,0,0,1-.71-.1,3.16,3.16,0,0,0-1.9-.82c-.94-.08-1.88-.13-2.82-.2a.6.6,0,0,0-.72.39A2.38,2.38,0,0,1,39.87,52a2.5,2.5,0,0,1-2.27-1.61c-.05-.11,0-.27-.23-.25l-1.47.1a17.73,17.73,0,0,0-1.8.13,3.14,3.14,0,0,0-2.81,2.46,14,14,0,0,0-.15,1.59c0,.14.05.17.17.17l2.65,0,.21,0H48.7c.12,0,.17,0,.16-.16a10,10,0,0,0-.18-1.73A.54.54,0,0,1,48.89,52ZM39.45,26.18h1.68a1.19,1.19,0,0,0-1.31-.67,1.24,1.24,0,0,0-1,.67Zm-4.64-.67a1.16,1.16,0,0,0-.9.52c-.06.08-.16.17-.12.27s.18,0,.27,0a.58.58,0,0,0,.32,0l1.6,0c.17,0,.18-.06.1-.2A1.26,1.26,0,0,0,34.81,25.51Zm9.6.76,1.65.08c.19,0,.18-.06.11-.19a1.27,1.27,0,0,0-1.34-.65,1,1,0,0,0-.66.28c-.14.11-.34.25-.29.42s.29.06.44.07Zm-2.74,23a1.93,1.93,0,0,1,0-.24c.06-.3-.06-.38-.37-.37-.79,0-1.59,0-2.38,0-.63,0-.63,0-.61.65a1.68,1.68,0,1,0,3.35,0ZM53,37c0,.43,0,.85,0,1.27,0,.22.05.28.27.2a1.7,1.7,0,0,0,1.16-1.56,6.62,6.62,0,0,0-.1-3.19,1.52,1.52,0,0,0-1.19-1.12c-.19,0-.28,0-.26.22q0,.72.06,1.44C53,35.16,53,36.07,53,37Zm-27.41-.09a2.23,2.23,0,0,0,0,.23,1.62,1.62,0,0,0,1.12,1.33c.18.06.28.07.27-.18,0-.42,0-.86,0-1.29,0-1.39.06-2.79.14-4.18,0-.22-.07-.27-.26-.22a1.49,1.49,0,0,0-1.18,1.09A6.62,6.62,0,0,0,25.59,36.89ZM31,27.5a3.57,3.57,0,0,0-2.78,3c-.16,1.53-.22,3.07-.27,4.61a73.25,73.25,0,0,0,.28,9.25,3.57,3.57,0,0,0,2.83,3c.12,0,.23.06.35.07,1.91.14,3.82.22,5.73.26a114,114,0,0,0,11.4-.26,3.59,3.59,0,0,0,3.24-3.18C51.9,43.2,52,42.07,52,41a83.08,83.08,0,0,0-.18-10,3.67,3.67,0,0,0-3.36-3.58c-1.72-.12-3.45-.2-5.18-.24q-5.86-.15-11.7.24A1.71,1.71,0,0,0,31,27.5Z"/><path class="cls-10" d="M39.7,24.55c-.1.1-.24.07-.35.11A2.18,2.18,0,0,0,37.93,26c-.12.34-.36.18-.56.23s-.25-.08-.31-.23a2.14,2.14,0,0,0-1.74-1.4s-.08,0-.09-.05Z"/><path class="cls-10" d="M44.71,24.55s-.05.05-.09.06a2.16,2.16,0,0,0-1.7,1.44c-.06.17-.15.21-.29.18s-.41.13-.53-.18a2.18,2.18,0,0,0-1.83-1.46s0,0,0,0Z"/><path class="cls-11" d="M35.9,50.2l1.47-.1c.2,0,.18.14.23.25A2.5,2.5,0,0,0,39.87,52a2.38,2.38,0,0,0,2.43-1.45.6.6,0,0,1,.72-.39c.94.07,1.88.12,2.82.2a3.16,3.16,0,0,1,1.9.82.55.55,0,0,0,.71.1,1.88,1.88,0,0,1,.44.76.54.54,0,0,0-.21.66,10,10,0,0,1,.18,1.73c0,.12,0,.17-.16.16H34.17l-.21,0a4,4,0,0,1,.06-.91c.21,0,.42-.08.51.23s.3.44.52.35.27-.3.15-.62c-.24-.63-.47-1.27-.7-1.9A4.5,4.5,0,0,1,35.9,50.2Zm.66,2.4V51.42c0-.24-.08-.42-.35-.42s-.37.16-.37.41v2.41a.35.35,0,0,0,.36.4c.26,0,.37-.16.36-.41Z"/><path class="cls-12" d="M31,27.5a1.71,1.71,0,0,1,.59-.11q5.83-.39,11.7-.24c1.73,0,3.46.12,5.18.24A3.67,3.67,0,0,1,51.83,31,83.08,83.08,0,0,1,52,41c0,1.12-.11,2.25-.23,3.37a3.59,3.59,0,0,1-3.24,3.18,114,114,0,0,1-11.4.26c-1.91,0-3.82-.12-5.73-.26-.12,0-.23,0-.35-.07l-.33-.35a4,4,0,0,1-1.13-2.15c-.15-.84-.15-1.69-.22-2.53s-.11-1.74-.12-2.61c0-2.2-.06-4.4.1-6.6.06-.92.11-1.85.18-2.78a4.79,4.79,0,0,1,.54-1.73A7.05,7.05,0,0,1,31,27.5ZM30.1,40a3.73,3.73,0,0,1,.06.88.5.5,0,0,0-.36.54,2.61,2.61,0,0,0,2.34,2.37c1.18.07,2.35.14,3.53.18q6.06.21,12.1-.17a2.58,2.58,0,0,0,2.38-2.16,33.62,33.62,0,0,0,.29-3.76,48.88,48.88,0,0,0-.24-6.84,2.59,2.59,0,0,0-2.38-2.43c-.47-.05-.94-.07-1.41-.09-3.35-.18-6.7-.23-10-.12-1.43,0-2.86.09-4.28.23a2.49,2.49,0,0,0-2.23,2.12,30.61,30.61,0,0,0-.27,3.16,48.94,48.94,0,0,0,.05,5.55A.5.5,0,0,0,30.1,40Z"/><path class="cls-13" d="M31,27.5a7.05,7.05,0,0,0-.92,1.18,4.79,4.79,0,0,0-.54,1.73c-.07.93-.12,1.86-.18,2.78-.16,2.2-.12,4.4-.1,6.6q0,1.3.12,2.61c.07.84.07,1.69.22,2.53a4,4,0,0,0,1.13,2.15l.33.35a3.57,3.57,0,0,1-2.83-3A73.25,73.25,0,0,1,28,35.15c.05-1.54.11-3.08.27-4.61A3.57,3.57,0,0,1,31,27.5Z"/><path class="cls-14" d="M35.9,50.2a4.5,4.5,0,0,0-1.4,1.48c0-.1-.09-.2-.13-.3s-.18-.39-.44-.39-.36.18-.44.39c-.29.75-.58,1.51-.86,2.27-.11.27,0,.48.17.55a.37.37,0,0,0,.5-.3c.06-.27.21-.33.45-.3l.27,0a4,4,0,0,0-.06.91l-2.65,0c-.12,0-.19,0-.17-.17a14,14,0,0,1,.15-1.59,3.14,3.14,0,0,1,2.81-2.46A17.73,17.73,0,0,1,35.9,50.2Z"/><path class="cls-15" d="M25.59,36.89a6.62,6.62,0,0,1,.11-3.22,1.49,1.49,0,0,1,1.18-1.09c.19,0,.27,0,.26.22C27.06,34.19,27,35.59,27,37A6.69,6.69,0,0,1,25.59,36.89Z"/><path class="cls-15" d="M53,37c0-.91,0-1.82-.08-2.74q0-.72-.06-1.44c0-.22.07-.27.26-.22a1.52,1.52,0,0,1,1.19,1.12,6.62,6.62,0,0,1,.1,3.19A6.69,6.69,0,0,1,53,37Z"/><path class="cls-15" d="M41.67,49.31A1.65,1.65,0,0,1,39.76,51c0-.1-.09-.15-.15-.22a2.19,2.19,0,0,1-.52-1.25c0-.19,0-.27.25-.26Z"/><path class="cls-16" d="M41.67,49.31H39.34c-.2,0-.26.07-.25.26a2.19,2.19,0,0,0,.52,1.25c.06.07.14.12.15.22a1.66,1.66,0,0,1-1.44-1.69c0-.65,0-.65.61-.65.79,0,1.59,0,2.38,0,.31,0,.43.07.37.37A1.93,1.93,0,0,0,41.67,49.31Z"/><path class="cls-16" d="M53,37a6.69,6.69,0,0,0,1.41-.09,1.7,1.7,0,0,1-1.16,1.56c-.22.08-.28,0-.27-.2C53,37.83,53,37.41,53,37Z"/><path class="cls-16" d="M25.59,36.89A6.69,6.69,0,0,0,27,37c0,.43,0,.87,0,1.29,0,.25-.09.24-.27.18a1.62,1.62,0,0,1-1.12-1.33A2.23,2.23,0,0,1,25.59,36.89Z"/><path class="cls-17" d="M44.83,25.51a1.27,1.27,0,0,1,1.34.65c.07.13.08.2-.11.19l-1.65-.08A2.69,2.69,0,0,1,44.83,25.51Z"/><path class="cls-17" d="M34.81,25.51a1.26,1.26,0,0,1,1.27.55c.08.14.07.2-.1.2l-1.6,0A1.7,1.7,0,0,1,34.81,25.51Z"/><path class="cls-17" d="M39.82,25.51a1.19,1.19,0,0,1,1.31.67H39.45C39.46,25.89,39.69,25.73,39.82,25.51Z"/><path class="cls-18" d="M34.81,25.51a1.7,1.7,0,0,0-.43.79.58.58,0,0,1-.32,0c-.09,0-.22.07-.27,0s.06-.19.12-.27A1.16,1.16,0,0,1,34.81,25.51Z"/><path class="cls-18" d="M44.83,25.51a2.69,2.69,0,0,0-.42.76h-.09c-.15,0-.39,0-.44-.07s.15-.31.29-.42A1,1,0,0,1,44.83,25.51Z"/><path class="cls-18" d="M39.82,25.51c-.13.22-.36.38-.37.67h-.62A1.24,1.24,0,0,1,39.82,25.51Z"/><path class="cls-19" d="M34,53.62l-.27,0c-.24,0-.39,0-.45.3a.37.37,0,0,1-.5.3c-.21-.07-.28-.28-.17-.55.28-.76.57-1.52.86-2.27.08-.21.18-.39.44-.39s.36.18.44.39.08.2.13.3c.23.63.46,1.27.7,1.9.12.32.07.53-.15.62s-.43,0-.52-.35S34.23,53.6,34,53.62Zm-.09-1.34c-.09.23-.23.4-.18.57s.25,0,.4,0Z"/><path class="cls-19" d="M36.56,52.6v1.21c0,.25-.1.41-.36.41a.35.35,0,0,1-.36-.4V51.41c0-.25.11-.42.37-.41s.36.18.35.42Z"/><path class="cls-19" d="M30.1,40a.5.5,0,0,1-.47-.54,48.94,48.94,0,0,1-.05-5.55,30.61,30.61,0,0,1,.27-3.16,2.49,2.49,0,0,1,2.23-2.12c1.42-.14,2.85-.18,4.28-.23,3.35-.11,6.7-.06,10,.12.47,0,.94,0,1.41.09a2.59,2.59,0,0,1,2.38,2.43,48.88,48.88,0,0,1,.24,6.84,33.62,33.62,0,0,1-.29,3.76,2.58,2.58,0,0,1-2.38,2.16q-6,.39-12.1.17c-1.18,0-2.35-.11-3.53-.18a2.61,2.61,0,0,1-2.34-2.37.5.5,0,0,1,.36-.54c.39,0,.49.12.56.52a1.66,1.66,0,0,0,1.55,1.48c1.2.1,2.41.15,3.61.19,3.92.13,7.83.08,11.74-.18a1.68,1.68,0,0,0,1.67-1.54c.13-1.18.22-2.37.25-3.55a51.41,51.41,0,0,0-.23-6.57,1.71,1.71,0,0,0-1.73-1.73c-1.33-.08-2.67-.15-4-.19-2.91-.1-5.83-.07-8.75.06-.87,0-1.74.06-2.61.17a1.61,1.61,0,0,0-1.5,1.51q-.12,1.07-.18,2.13a51.63,51.63,0,0,0,0,6.22C30.56,39.8,30.47,39.91,30.1,40Z"/><path class="cls-20" d="M30.1,40c.37-.11.46-.22.43-.6a51.63,51.63,0,0,1,0-6.22q.06-1.06.18-2.13a1.61,1.61,0,0,1,1.5-1.51,3.94,3.94,0,0,0-.43,1c-.12.74-.15,1.48-.23,2.23-.09.94-.05,1.9-.12,2.85a15.6,15.6,0,0,0,.07,2.16.74.74,0,0,0,0,.39c-.09.11-.05.25,0,.37.07,1,.15,2,.24,3a2.31,2.31,0,0,0,.54,1.31,1.66,1.66,0,0,1-1.55-1.48c-.07-.4-.17-.49-.56-.52A3.73,3.73,0,0,0,30.1,40Z"/><path class="cls-14" d="M33.93,52.28l.22.58c-.15,0-.37.07-.4,0S33.84,52.51,33.93,52.28Z"/><path class="cls-21" d="M32.27,42.9a2.31,2.31,0,0,1-.54-1.31c-.09-1-.17-2-.24-3,0-.12,0-.26,0-.37a.56.56,0,0,0,.49.23h1.69a.47.47,0,0,0,.53-.46c0-.27-.2-.44-.53-.44-.55,0-1.11,0-1.66,0a.56.56,0,0,0-.55.29,15.6,15.6,0,0,1-.07-2.16c.07-.95,0-1.91.12-2.85.08-.75.11-1.49.23-2.23a3.94,3.94,0,0,1,.43-1c.87-.11,1.74-.13,2.61-.17,2.92-.13,5.84-.16,8.75-.06,1.34,0,2.68.11,4,.19a1.71,1.71,0,0,1,1.73,1.73,51.41,51.41,0,0,1,.23,6.57c0,1.18-.12,2.37-.25,3.55a1.68,1.68,0,0,1-1.67,1.54c-3.91.26-7.82.31-11.74.18C34.68,43.05,33.47,43,32.27,42.9ZM34.72,35a2.33,2.33,0,1,0,0-4.65,2.33,2.33,0,1,0,0,4.65Zm10.57,0a2.33,2.33,0,0,0,2.32-2.32,2.33,2.33,0,1,0-4.66,0A2.32,2.32,0,0,0,45.29,35ZM40,38.15a2.65,2.65,0,0,0,2.63-2.48c0-.36-.12-.59-.41-.62s-.45.17-.49.55a1.74,1.74,0,0,1-3.48,0c0-.37-.21-.57-.5-.53s-.43.25-.41.6A2.66,2.66,0,0,0,40,38.15Zm-7.13-1.26h.87a.46.46,0,0,0,.49-.45.45.45,0,0,0-.47-.45c-.6,0-1.2,0-1.81,0a.45.45,0,1,0,0,.9Zm14.26,0H48a.45.45,0,1,0,0-.9c-.62,0-1.23,0-1.84,0a.45.45,0,1,0,0,.9Zm0,.64h-.91a.44.44,0,0,0-.49.45.46.46,0,0,0,.47.45H48a.45.45,0,1,0,0-.9Z"/><path class="cls-22" d="M31.5,37.81a.56.56,0,0,1,.55-.29c.55,0,1.11,0,1.66,0,.33,0,.53.17.53.44a.47.47,0,0,1-.53.46H32a.56.56,0,0,1-.49-.23A.74.74,0,0,1,31.5,37.81Z"/><path class="cls-19" d="M34.72,35A2.33,2.33,0,1,1,37,32.7,2.3,2.3,0,0,1,34.72,35ZM35,31.32a1.36,1.36,0,0,0-1.43.55,1.39,1.39,0,0,0-.05,1.56,1.36,1.36,0,0,0,1.48.65,1.41,1.41,0,0,0,1.15-1.43A1.37,1.37,0,0,0,35,31.32Z"/><path class="cls-9" d="M45.29,35a2.33,2.33,0,1,1,0-4.65,2.35,2.35,0,0,1,2.33,2.33A2.33,2.33,0,0,1,45.29,35Zm.27-.94a1.4,1.4,0,0,0,0-2.75,1.36,1.36,0,0,0-1.45.57,1.41,1.41,0,0,0,0,1.56A1.36,1.36,0,0,0,45.56,34.07Z"/><path class="cls-22" d="M40,38.15a2.66,2.66,0,0,1-2.66-2.49c0-.35.13-.58.41-.6s.47.16.5.53a1.74,1.74,0,0,0,3.48,0c0-.38.2-.57.49-.55s.44.26.41.62A2.65,2.65,0,0,1,40,38.15Z"/><path class="cls-23" d="M32.88,36.89H32a.45.45,0,1,1,0-.9c.61,0,1.21,0,1.81,0a.45.45,0,0,1,.47.45.46.46,0,0,1-.49.45h-.87Z"/><path class="cls-23" d="M47.14,36.89h-.91a.45.45,0,1,1,0-.9c.61,0,1.22,0,1.84,0a.45.45,0,1,1,0,.9Z"/><path class="cls-22" d="M47.16,37.53H48a.45.45,0,1,1,0,.9H46.23a.46.46,0,0,1-.47-.45.44.44,0,0,1,.49-.45Z"/><path class="cls-12" d="M35,31.32a1.37,1.37,0,0,1,1.15,1.33A1.41,1.41,0,0,1,35,34.08a1.19,1.19,0,0,0-.08-.16,1.86,1.86,0,0,1-.42-1.69A3.21,3.21,0,0,1,35,31.32Z"/><path class="cls-13" d="M35,31.32a3.21,3.21,0,0,0-.5.91,1.86,1.86,0,0,0,.42,1.69,1.19,1.19,0,0,1,.08.16,1.36,1.36,0,0,1-1.48-.65,1.39,1.39,0,0,1,.05-1.56A1.36,1.36,0,0,1,35,31.32Z"/><path class="cls-12" d="M45.56,31.32a1.4,1.4,0,0,1,0,2.75c0-.2-.24-.28-.33-.45A2,2,0,0,1,45.56,31.32Z"/><path class="cls-13" d="M45.56,31.32a2,2,0,0,0-.33,2.3c.09.17.29.25.33.45a1.36,1.36,0,0,1-1.48-.62,1.41,1.41,0,0,1,0-1.56A1.36,1.36,0,0,1,45.56,31.32Z"/></g><circle class="cls-1" cx="40" cy="40" r="38.52"/><path class="cls-24" d="M40.83,23c.47.15,1,.17,1.46.32a8.38,8.38,0,0,1,5.83,5.86c.07.24.13.31.41.27a6.34,6.34,0,0,1,7.34,6.49,6.16,6.16,0,0,1-3.94,5.68.4.4,0,0,0-.29.45c0,1.79,0,3.58,0,5.37a.56.56,0,0,0,.2.49,1.75,1.75,0,0,1,.24.23,1,1,0,0,0,1.25.4,2,2,0,0,1,2.34,1.1,2.13,2.13,0,0,1-.54,2.56,2.11,2.11,0,0,1-2.63.08,2.06,2.06,0,0,1-.68-2.51.34.34,0,0,0-.12-.5,2.77,2.77,0,0,1-1.15-2.71c.11-1.42,0-2.85,0-4.28,0-.23-.06-.3-.29-.25a8.86,8.86,0,0,1-1.63,0c-.17,0-.22.05-.22.22,0,1.92,0,3.83,0,5.74a.38.38,0,0,0,.15.34s.06.07.1.1a1.84,1.84,0,0,1,.82,1.94c0,.19.06.25.23.32A2.11,2.11,0,0,1,51,53.3a2.16,2.16,0,0,1-2.35,1.52,2.12,2.12,0,0,1-1.81-2.23,2,2,0,0,1,1.31-1.83.4.4,0,0,0,.29-.4A1.09,1.09,0,0,0,48,49.28a1.58,1.58,0,0,1-.62-1.46c0-1.8,0-3.6,0-5.41,0-.28-.08-.34-.34-.33a14.22,14.22,0,0,1-1.46,0c-.29,0-.38.09-.33.35v0a.84.84,0,0,0,.56,1,2,2,0,0,1,.94,2.42,2.13,2.13,0,0,1-4.13-.33,2.08,2.08,0,0,1,1.27-2.24.42.42,0,0,0,.31-.48c0-.77,0-.77-.77-.77-.37,0-.75,0-1.12,0-.18,0-.25,0-.25.23,0,1.74,0,3.48,0,5.21a.43.43,0,0,0,.16.34l1.2,1.2a.76.76,0,0,1,.24.59c0,.94,0,1.87,0,2.81a.35.35,0,0,0,.25.41,2.12,2.12,0,0,1,1.26,2.55A2.12,2.12,0,0,1,41,54.79a2.08,2.08,0,0,1,1.37-1.93.29.29,0,0,0,.22-.33c0-.85,0-1.71,0-2.56a.51.51,0,0,0-.17-.4L41.28,48.4a.8.8,0,0,1-.26-.62c0-1.8,0-3.6,0-5.4,0-.22,0-.31-.28-.3q-.8,0-1.59,0c-.24,0-.26.09-.26.29,0,.9,0,1.81,0,2.72a.31.31,0,0,0,.24.34,2.13,2.13,0,1,1-1.59,0,.4.4,0,0,0,.3-.45c0-.89,0-1.79,0-2.69,0-.18,0-.24-.23-.24-.56,0-1.13,0-1.69,0-.16,0-.21,0-.21.2q0,3.7,0,7.4a.3.3,0,0,0,.08.24c.29.28.58.55.85.84s.23.06.35,0a2.11,2.11,0,1,1,1.48,3.95,2,2,0,0,1-2.2-.59,2,2,0,0,1-.38-2.24.36.36,0,0,0-.1-.48c-.3-.27-.57-.58-.87-.86a.86.86,0,0,1-.28-.67c0-2.46,0-4.91,0-7.37,0-.42,0-.42-.44-.42s-.89,0-1.33,0c-.28,0-.37,0-.37.35,0,1.25,0,2.5,0,3.75a.72.72,0,0,1-.27.64,1.94,1.94,0,0,0-.81,1.93c.07.88,0,1.77,0,2.66a.34.34,0,0,0,.26.4A2.1,2.1,0,0,1,33,54.39a2.14,2.14,0,0,1-2.4,1.48,2.11,2.11,0,0,1-1.74-2.28,2,2,0,0,1,1.33-1.78.34.34,0,0,0,.25-.38c0-1.28,0-2.57,0-3.85a.71.71,0,0,1,.27-.67A2,2,0,0,0,31.49,45a25.43,25.43,0,0,1,0-2.62c0-.22-.06-.27-.28-.27a8.33,8.33,0,0,1-1.58,0c-.22,0-.28,0-.28.24,0,1.47,0,2.94,0,4.41a.84.84,0,0,1-.29.7c-.3.28-.57.58-.87.86a.32.32,0,0,0-.09.45,2.08,2.08,0,0,1-.6,2.48,2.13,2.13,0,0,1-3.33-2.39,2.14,2.14,0,0,1,2.16-1.38,1.57,1.57,0,0,1,.7.2c.17.1.25,0,.39-.08a2.14,2.14,0,0,0,.89-2.07c-.09-1.15,0-2.3,0-3.45a.33.33,0,0,0-.25-.38,6.37,6.37,0,0,1,1.31-12.19,5.59,5.59,0,0,1,2.08,0c.27,0,.31,0,.37-.25a8.38,8.38,0,0,1,4.66-5.45,8.2,8.2,0,0,1,2.41-.69c.06,0,.14,0,.17-.07ZM53,39.7a3.06,3.06,0,0,0,.29-.21A5.13,5.13,0,0,0,54.81,36a5.3,5.3,0,0,0-6.69-5.37c-.54.14-.76,0-.87-.54a7.42,7.42,0,0,0-14.58,0c-.1.5-.33.65-.82.52a5.28,5.28,0,0,0-2.27-.13,5.05,5.05,0,0,0-3.16,1.77,4.91,4.91,0,0,0-1.31,3.28A5.28,5.28,0,0,0,30.44,41h19A4.89,4.89,0,0,0,51,40.82,4.28,4.28,0,0,0,53,39.7Zm-8.21,6.63a1.06,1.06,0,1,0-1.07-1A1.06,1.06,0,0,0,44.75,46.33Zm-5.32,1.08a1.06,1.06,0,1,0-1.06,1.05A1.07,1.07,0,0,0,39.43,47.41ZM26.16,48.46a1.06,1.06,0,1,0,1.06,1A1.06,1.06,0,0,0,26.16,48.46Zm27.62,1.06a1.06,1.06,0,1,0,1,1.06A1,1,0,0,0,53.78,49.52ZM37.85,51.64a1.07,1.07,0,0,0-1.07,1,1.06,1.06,0,1,0,2.12,0A1.07,1.07,0,0,0,37.85,51.64Zm11.16,0a1.07,1.07,0,0,0-1.08,1,1.05,1.05,0,0,0,1,1.08,1.06,1.06,0,0,0,0-2.12ZM32,53.76a1.06,1.06,0,1,0-1,1.06A1.07,1.07,0,0,0,32,53.76Zm12.21,1.05a1.06,1.06,0,1,0-1,1.08A1.06,1.06,0,0,0,44.21,54.81Z"/><path class="cls-25" d="M26.42,32.25a5.05,5.05,0,0,1,3.16-1.77,5.28,5.28,0,0,1,2.27.13c.49.13.72,0,.82-.52a7.42,7.42,0,0,1,14.58,0c.11.55.33.68.87.54A5.3,5.3,0,0,1,54.81,36a5.13,5.13,0,0,1-1.56,3.52,3.06,3.06,0,0,1-.29.21,8,8,0,0,1-1.62.26H42c-.12,0-.25,0-.35-.06.36-.28.24-.71.34-1.06a2,2,0,0,1,.63.45c.17.13.29.14.44,0s.27-.38.52-.43a.62.62,0,0,0,.8-.17c.47-.49.95-1,1.43-1.43s.89-.67.12-1.55c-.12-.13-.09-.24,0-.41.16-.53.42-.86,1-.83.32,0,.49-.24.49-.59,0-.69,0-1.39,0-2.09,0-1.06,0-1.06-1-1.21-.09,0-.18,0-.23-.13-.21-.49-.49-1,.07-1.43.27-.23.21-.52,0-.79l-1.47-1.47c-.74-.74-.73-.74-1.57-.13-.08.06-.14.15-.26.09a2.74,2.74,0,0,1-.83-.38c-.14-.12-.09-.43-.13-.66a.56.56,0,0,0-.62-.55H39.17c-1,0-1,0-1.18,1a.34.34,0,0,1-.21.29c-.49.24-.93.37-1.37-.12-.23-.26-.52-.2-.79.07l-1.81,1.8a.6.6,0,0,0-.14.77c-.05.25-.27.37-.43.52a.28.28,0,0,0,0,.44,2.55,2.55,0,0,1,.46.63l-.56.08a.56.56,0,0,0-.57.63c0,.3,0,.6,0,.9a1.33,1.33,0,0,1-.19,0c-.32,0-.34.15-.33.4,0,.54,0,1.08,0,1.63,0,.74,0,.74.74.84a.5.5,0,0,1,.51.41,1.76,1.76,0,0,0,.34.78.92.92,0,0,0,.08.52c-.24.14-.34.4-.51.6s-.07.2,0,.3c.55.54,1.09,1.09,1.64,1.64.07.06.13.16.25.07a2.29,2.29,0,0,0,.64-.56,1,1,0,0,0,.53.09,2.85,2.85,0,0,0,.93.4c.26.09.27.3.25.51s-.22.14-.34.14c-1.78,0-3.56,0-5.34,0a5.25,5.25,0,0,1-2.6-.75,5.78,5.78,0,0,1-2.31-2.34,5.71,5.71,0,0,1-.63-3.42C26.26,33,26.41,32.66,26.42,32.25Z"/><path class="cls-26" d="M26.42,32.25c0,.41-.16.79-.21,1.2a5.71,5.71,0,0,0,.63,3.42,5.78,5.78,0,0,0,2.31,2.34,5.25,5.25,0,0,0,2.6.75c1.78,0,3.56,0,5.34,0,.12,0,.32.09.34-.14s0-.42-.25-.51a2.85,2.85,0,0,1-.93-.4c.18-.14.38-.27.55-.42s.26-.11.44-.06a.94.94,0,0,1,.82,1c0,.31.25.48.6.48H41a1.62,1.62,0,0,0,.62-.06c.1.11.23.06.35.06h9.37A8,8,0,0,0,53,39.7a4.28,4.28,0,0,1-2,1.12,4.89,4.89,0,0,1-1.47.21h-19a5.28,5.28,0,0,1-5.33-5.49A4.91,4.91,0,0,1,26.42,32.25Z"/><path class="cls-27" d="M44.75,46.33a1.06,1.06,0,1,1,1-1.06A1.06,1.06,0,0,1,44.75,46.33Z"/><path class="cls-27" d="M39.43,47.41a1.06,1.06,0,0,1-1.06,1.05,1.07,1.07,0,1,1,1.06-1.05Z"/><path class="cls-27" d="M26.16,48.46a1.06,1.06,0,1,1-1.06,1A1.07,1.07,0,0,1,26.16,48.46Z"/><path class="cls-27" d="M53.78,49.52a1,1,0,0,1,1,1.06,1.06,1.06,0,1,1-1-1.06Z"/><path class="cls-27" d="M37.85,51.64a1.07,1.07,0,0,1,1,1.06,1.06,1.06,0,1,1-2.12,0A1.07,1.07,0,0,1,37.85,51.64Z"/><path class="cls-27" d="M49,51.64a1.06,1.06,0,0,1,0,2.12,1.05,1.05,0,0,1-1-1.08A1.07,1.07,0,0,1,49,51.64Z"/><path class="cls-27" d="M32,53.76a1.06,1.06,0,1,1-2.12,0,1.06,1.06,0,0,1,2.12,0Z"/><path class="cls-27" d="M44.21,54.81a1.06,1.06,0,1,1-2.12,0,1.06,1.06,0,0,1,2.12,0Z"/><path class="cls-28" d="M41.62,39.9A1.62,1.62,0,0,1,41,40H38.66c-.35,0-.61-.17-.6-.48a.94.94,0,0,0-.82-1c-.18,0-.3-.08-.44.06s-.37.28-.55.42a1,1,0,0,1-.53-.09l-2-2a.92.92,0,0,1-.08-.52c.14-.18.27-.38.42-.55s.11-.26.06-.44c-.16-.53-.42-.86-1-.83-.32,0-.49-.24-.5-.58,0-.57,0-1.14,0-1.71,0-.3,0-.6,0-.9a.56.56,0,0,1,.57-.63l.56-.08s.09,0,.09,0a3.84,3.84,0,0,0,.37-.93c0-.2-.24-.36-.37-.55a.39.39,0,0,0-.08-.1.6.6,0,0,1,.14-.77l1.81-1.8c.27-.27.56-.33.79-.07.44.49.88.36,1.37.12a.34.34,0,0,0,.21-.29c.14-1,.14-1,1.18-1h2.09a.56.56,0,0,1,.62.55c0,.23,0,.54.13.66a2.74,2.74,0,0,0,.83.38c.12.06.18,0,.26-.09.84-.61.83-.61,1.57.13l1.47,1.47c.26.27.32.56,0,.79-.56.48-.28.94-.07,1.43.05.13.14.11.23.13,1,.15,1,.15,1,1.21,0,.7,0,1.4,0,2.09,0,.35-.17.6-.49.59-.63,0-.89.3-1,.83,0,.17-.07.28,0,.41.77.88.44,1-.12,1.55s-1,.94-1.43,1.43a.62.62,0,0,1-.8.17.84.84,0,0,0-1.25-.23.7.7,0,0,1-.24.09c-.07,0-.11.07-.1.15C41.86,39.19,42,39.62,41.62,39.9ZM36.14,27.43c-.1,0-.14.07-.2.12-.28.28-.54.58-.85.84s-.25.38,0,.61a.7.7,0,0,1,.11,1,3.92,3.92,0,0,0-.45,1.1.56.56,0,0,1-.53.47c-.13,0-.26.05-.39.05s-.21.07-.21.22c0,.4,0,.8,0,1.19s0,.49.41.49.61.06.7.42a6.38,6.38,0,0,0,.55,1.35.51.51,0,0,1,0,.62c-.08.1-.15.21-.24.31s-.12.23,0,.36a9.07,9.07,0,0,1,.82.82c.23.28.41.29.65,0a.61.61,0,0,1,.78-.18,6.55,6.55,0,0,0,1.34.56.51.51,0,0,1,.4.47,2.91,2.91,0,0,1,.05.4c0,.19.08.24.26.24h1.36c.19,0,.26,0,.26-.24a2.63,2.63,0,0,1,.06-.39.5.5,0,0,1,.39-.48,5.92,5.92,0,0,0,1.35-.56.54.54,0,0,1,.62,0c.09.08.2.14.29.22s.26.15.4,0a7.55,7.55,0,0,1,.8-.8c.27-.23.3-.41,0-.66a.67.67,0,0,1-.09-.95,2.57,2.57,0,0,0,.35-.82.87.87,0,0,1,1-.8c.18,0,.24-.07.24-.26,0-.45,0-.9,0-1.36,0-.17-.05-.26-.24-.26s-.24,0-.36-.05a.54.54,0,0,1-.52-.43,6.52,6.52,0,0,0-.53-1.28.57.57,0,0,1,.05-.68c.06-.07.11-.16.18-.23s.18-.29,0-.46a6.72,6.72,0,0,1-.8-.8c-.21-.25-.39-.26-.61,0a.71.71,0,0,1-1,.09,3.5,3.5,0,0,0-1-.42.59.59,0,0,1-.5-.57c0-.09-.05-.18,0-.26,0-.29-.13-.32-.36-.31s-.67,0-1,0c-.49,0-.51,0-.55.47a.7.7,0,0,1-.61.7,2.88,2.88,0,0,0-.92.38.79.79,0,0,1-1.1-.11A1.7,1.7,0,0,0,36.14,27.43Z"/><path class="cls-29" d="M32.52,32.14c0,.57,0,1.14,0,1.71,0,.34.18.6.5.58.62,0,.88.3,1,.83,0,.18.07.3-.06.44s-.28.37-.42.55a1.76,1.76,0,0,1-.34-.78.5.5,0,0,0-.51-.41C32,35,32,35,32,34.22c0-.55,0-1.09,0-1.63,0-.25,0-.43.33-.4A1.33,1.33,0,0,0,32.52,32.14Z"/><path class="cls-30" d="M33.67,36.77l2,2a2.29,2.29,0,0,1-.64.56c-.12.09-.18,0-.25-.07-.55-.55-1.09-1.1-1.64-1.64-.1-.1-.14-.18,0-.3S33.43,36.91,33.67,36.77Z"/><path class="cls-31" d="M33.67,28.94a.39.39,0,0,1,.08.1c.13.19.41.35.37.55a3.84,3.84,0,0,1-.37.93s-.06,0-.09,0a2.55,2.55,0,0,0-.46-.63.28.28,0,0,1,0-.44C33.4,29.31,33.62,29.19,33.67,28.94Z"/><path class="cls-31" d="M42,38.84c0-.08,0-.12.1-.15a.7.7,0,0,0,.24-.09.84.84,0,0,1,1.25.23c-.25.05-.37.27-.52.43s-.27.16-.44,0A2,2,0,0,0,42,38.84Z"/><path class="cls-32" d="M36.14,27.43a1.7,1.7,0,0,1,.23.17.79.79,0,0,0,1.1.11,2.88,2.88,0,0,1,.92-.38.7.7,0,0,0,.61-.7c0-.47.06-.47.55-.47.33,0,.66,0,1,0s.39,0,.36.31c0,.08,0,.17,0,.26a.59.59,0,0,0,.5.57,3.5,3.5,0,0,1,1,.42.71.71,0,0,0,1-.09c.22-.23.4-.22.61,0a6.72,6.72,0,0,0,.8.8c.19.17.18.3,0,.46s-.12.16-.18.23a.57.57,0,0,0-.05.68,6.52,6.52,0,0,1,.53,1.28.54.54,0,0,0,.52.43c.12,0,.24.05.36.05s.24.09.24.26c0,.46,0,.91,0,1.36,0,.19-.06.26-.24.26a.87.87,0,0,0-1,.8,2.57,2.57,0,0,1-.35.82.67.67,0,0,0,.09.95c.26.25.23.43,0,.66a7.55,7.55,0,0,0-.8.8c-.14.16-.26.16-.4,0s-.2-.14-.29-.22a.54.54,0,0,0-.62,0,5.92,5.92,0,0,1-1.35.56.5.5,0,0,0-.39.48,2.63,2.63,0,0,0-.06.39c0,.19-.07.24-.26.24H39.28c-.18,0-.26,0-.26-.24a2.91,2.91,0,0,0-.05-.4.51.51,0,0,0-.4-.47,6.55,6.55,0,0,1-1.34-.56.61.61,0,0,0-.78.18c-.24.25-.42.24-.65,0a9.07,9.07,0,0,0-.82-.82c-.14-.13-.14-.23,0-.36s.16-.21.24-.31a.51.51,0,0,0,0-.62,6.38,6.38,0,0,1-.55-1.35c-.09-.36-.4-.43-.7-.42s-.43-.17-.41-.49,0-.79,0-1.19c0-.15,0-.22.21-.22s.26,0,.39-.05a.56.56,0,0,0,.53-.47,3.92,3.92,0,0,1,.45-1.1.7.7,0,0,0-.11-1c-.22-.23-.23-.4,0-.61s.57-.56.85-.84C36,27.5,36,27.42,36.14,27.43Zm8.07,5.11a4.25,4.25,0,1,0-4.27,4.24A4.25,4.25,0,0,0,44.21,32.54Z"/><path class="cls-33" d="M44.21,32.54A4.25,4.25,0,1,1,40,28.29,4.25,4.25,0,0,1,44.21,32.54Zm-1.65,1.8a3,3,0,0,0,.52-2.44,3.16,3.16,0,0,0-4.92-2,3.09,3.09,0,0,0-1.31,3.23,3.18,3.18,0,0,0,2.47,2.48A3.15,3.15,0,0,0,42.56,34.34Z"/><path class="cls-25" d="M42.56,34.34a3.15,3.15,0,0,1-3.24,1.31,3.18,3.18,0,0,1-2.47-2.48,3.09,3.09,0,0,1,1.31-3.23,5.45,5.45,0,0,1,1.34,0,3.73,3.73,0,0,1,3,2.72A4.37,4.37,0,0,1,42.56,34.34Z"/><path class="cls-34" d="M42.56,34.34a4.37,4.37,0,0,0-.06-1.69,3.73,3.73,0,0,0-3-2.72,5.45,5.45,0,0,0-1.34,0,3.16,3.16,0,0,1,4.92,2A3,3,0,0,1,42.56,34.34Z"/></svg>