<svg id="Layer_1" data-name="Layer 1" xmlns="http://www.w3.org/2000/svg" xmlns:xlink="http://www.w3.org/1999/xlink" viewBox="0 0 80 80"><defs><style>.cls-1{fill:none;}.cls-2{fill:#fbeeee;}.cls-3{fill:#030303;}.cls-4{fill:#fc4f7b;}.cls-5{fill:#fd4f7c;}.cls-6{fill:#d4daeb;}.cls-7{fill:#d13d69;}.cls-8{fill:#cf3c68;}.cls-9{fill:#d1d8e8;}.cls-10{fill:#c6cee1;}.cls-11{fill:#efbf86;}.cls-12{fill:#684a4a;}.cls-13{fill:#e3ad77;}.cls-14{fill:#674a4a;}.cls-15{fill:#594045;}.cls-16{fill:#cd986c;}.cls-17{fill:#e0ab75;}.cls-18{fill:#eafbf1;}.cls-19{clip-path:url(#clip-path);}.cls-20{fill:url(#linear-gradient);}.cls-21{clip-path:url(#clip-path-2);}.cls-22{fill:url(#linear-gradient-2);}.cls-23{fill:#ecf6fc;}.cls-24{fill:#9b65c3;}.cls-25{fill:#be63c5;}.cls-26{fill:#bf63c6;}.cls-27{fill:#3278b1;}.cls-28{fill:#3278b2;}.cls-29{fill:#45a4ec;}.cls-30{fill:#19bb7d;}.cls-31{fill:#08c7fb;}.cls-32{fill:#59f2f6;}.cls-33{fill:#da3757;}.cls-34{fill:#d33c4e;}.cls-35{fill:#ee5a24;}.cls-36{fill:#8bdf55;}.cls-37{fill:#25c16f;}.cls-38{fill:#fb0;}.cls-39{fill:#ffa800;}.cls-40{fill:#fbfadf;}.cls-41{fill:#020203;}.cls-42{fill:#87c5f9;}.cls-43{fill:#e9ecee;}.cls-44{fill:#d7ebfd;}.cls-45{fill:#a69aa6;}.cls-46{fill:#e1a56e;}.cls-47{fill:#d5e9fb;}.cls-48{fill:#c3e1fd;}.cls-49{fill:#c08656;}.cls-50{fill:#59aaec;}.cls-51{fill:#817481;}.cls-52{fill:#655b65;}.cls-53{fill:#010302;}.cls-54{fill:#68f3bf;}.cls-55{fill:#e14d5b;}.cls-56{fill:#fefdfd;}.cls-57{fill:#fbb925;}.cls-58{fill:#fefdfa;}.cls-59{fill:#252f3e;}.cls-59,.cls-60{fill-rule:evenodd;}.cls-60{fill:#f90;}.cls-61{fill:#040404;}.cls-62{fill:#396f8d;}.cls-63{fill:#f66e1b;}.cls-64{fill:#427e9c;}.cls-65{fill:#f58d35;}.cls-66{fill:#f06c1a;}.cls-67{fill:#44d383;}.cls-68{fill:#78de8e;}.cls-69{fill:#020303;}.cls-70{fill:#f1f1f1;}.cls-71{fill:#e1e1e1;}.cls-72{fill:#070707;}.cls-73{fill:#28c9f0;}.cls-74{fill:#22b2e9;}.cls-75{fill:#fefefe;}.cls-76{fill:#1599fc;}.cls-77{fill:#159afd;}.cls-78{fill:#49d2fd;}.cls-79{fill:#375d80;}.cls-80{fill:#f6f6f6;}.cls-81{fill:#7ca3b6;}.cls-82{fill:#9debfe;}.cls-83{fill:#00d7df;}.cls-84{fill:#7af2ef;}.cls-85{fill:#feb129;}.cls-86{fill:#fb6467;}.cls-87{fill:#c1e27c;}.cls-88{fill:#c5c5c5;}.cls-89{fill:#040405;}.cls-90{fill:#b1e3f9;}.cls-91{fill:#e1e8ef;}.cls-92{fill:#f4f7f8;}.cls-93{fill:#f3f6f7;}.cls-94{fill:#aee0f6;}.cls-95{fill:#6297f5;}.cls-96{fill:#8ed5f5;}.cls-97{fill:#e5ecf3;}.cls-98{fill:#467ae7;}.cls-99{fill:#dee5ec;}.cls-100{fill:#c9dae4;}.cls-101{fill:#030403;}.cls-102{fill:#65c4a4;}.cls-103{fill:#4fb09d;}</style><clipPath id="clip-path"><path class="cls-1" d="M44.12,36.36V45.6a3.89,3.89,0,0,1-.9,2.75,3.42,3.42,0,0,1-2.61,1,3.3,3.3,0,0,1-2.57-1,3.93,3.93,0,0,1-.88-2.75V36.36L32.32,34.3V45.57a9,9,0,0,0,1.07,4.53,7,7,0,0,0,2.92,2.78,10.26,10.26,0,0,0,8.47,0,7.18,7.18,0,0,0,3-2.78A8.35,8.35,0,0,0,49,45.57V33.71Z"/></clipPath><linearGradient id="linear-gradient" x1="-33.46" y1="69.25" x2="-32.47" y2="69.25" gradientTransform="translate(825.11 -1605.11) scale(23.81)" gradientUnits="userSpaceOnUse"><stop offset="0" stop-color="#f17c21"/><stop offset="1" stop-color="#da5b26"/></linearGradient><clipPath id="clip-path-2"><path class="cls-1" d="M37.22,29.16a.24.24,0,0,1-.06-.45l1-.43,2.07-.88,2.06.88,1,.43a.23.23,0,1,1-.18.43L40.24,27.9l-2.89,1.24-.1,0h0m3.16-2.94a2.17,2.17,0,0,0-.84.16l-9.92,4-.34.22a.75.75,0,0,0-.25,1V33l-.29.29v1.48h1.18V33.29l-.3-.29V31.82l8.55,3.54.59-.3A2.86,2.86,0,0,1,40,34.77h.89a3.1,3.1,0,0,1,1.75.53l.53.35L51,31.3a.41.41,0,0,0,.19-.2.48.48,0,0,0-.24-.66l-9.73-4.05A2.13,2.13,0,0,0,40.38,26.22Z"/></clipPath><linearGradient id="linear-gradient-2" x1="-34.42" y1="64.62" x2="-33.43" y2="64.62" gradientTransform="matrix(0, -8.62, -8.62, 0, 597.31, -261.21)" gradientUnits="userSpaceOnUse"><stop offset="0" stop-color="#f17c21"/><stop offset="0.34" stop-color="#ed7722"/><stop offset="0.74" stop-color="#e36824"/><stop offset="1" stop-color="#da5b26"/></linearGradient></defs><g id="about_us" data-name="about us"><circle class="cls-2" cx="40" cy="40" r="38.52"/><path class="cls-3" d="M59.75,54.13c-.46.56-.91.5-1.16-.15,0-1.58,0-3.16,0-4.74a1.12,1.12,0,0,0-.38-1,1,1,0,0,0-.65-.39c-.78-.24-1.57-.46-2.36-.69a.26.26,0,0,0-.3.07L53.67,48.5a.36.36,0,0,0-.1.28c0,1.7,0,3.41,0,5.12-.07.34-.23.61-.62.6s-.53-.26-.57-.6c0-1.25,0-2.51,0-3.77a3.89,3.89,0,0,0,0-1.49c-.19-.44-.68-.75-1-1.11s-.45-.46-1-.12A3.47,3.47,0,0,1,51.11,50c0,1.31,0,2.62,0,3.93,0,.34-.22.6-.58.6a.58.58,0,0,1-.6-.54c0-1.48,0-3,0-4.46a1.77,1.77,0,0,0-.54-1.31,1.57,1.57,0,0,0-.79-.52c-1.13-.42-2.26-.82-3.39-1.25-.23-.09-.33,0-.46.17-.42.66-.86,1.3-1.3,1.95a1.21,1.21,0,0,1-2,.2,6.54,6.54,0,0,0-.81-.76v5.94c-.19.52-.53.71-.9.51a.77.77,0,0,1-.31-.51c0-.11,0-.23,0-.34,0-1.76,0-3.53,0-5.29a.42.42,0,0,0-.06-.33l-.78.79a1.23,1.23,0,0,1-2.05-.21c-.44-.65-.88-1.3-1.3-2a.32.32,0,0,0-.46-.15l-3.36,1.23a1.61,1.61,0,0,0-.87.6,1.68,1.68,0,0,0-.48,1.29c0,1.47,0,2.94,0,4.41a.58.58,0,0,1-.56.54c-.35,0-.52-.22-.62-.53,0-1.42,0-2.85,0-4.27a3,3,0,0,1,.29-1.46c.2-.34.09-.47-.22-.59s-.28-.08-.4.06a6.14,6.14,0,0,1-.45.43,2.46,2.46,0,0,1-2.11.68,3.07,3.07,0,0,1-1.74-1.06.34.34,0,0,0-.49-.09c-.49.27-1,.51-1.51.76a1.18,1.18,0,0,0-.56.45,1.06,1.06,0,0,0-.3.83V54c-.16.41-.38.59-.69.51s-.48-.37-.47-.73v-4a2.44,2.44,0,0,1,1.4-2.3l1.49-.75a5.24,5.24,0,0,1-2-1.53.75.75,0,0,1-.17-.78,8.6,8.6,0,0,0,.48-2.84,17,17,0,0,1,.23-2.84,4.82,4.82,0,0,1,7.68-2.89,5.09,5.09,0,0,1,2,3.66c.12,1.19.06,2.39.24,3.58a4.34,4.34,0,0,0,.3,1.23.79.79,0,0,1-.13.89,5.23,5.23,0,0,1-2,1.5.68.68,0,0,0,.87.11c1.05-.51,2.18-.83,3.27-1.24a1.2,1.2,0,0,0,.81-.64,3.73,3.73,0,0,1,.83-.91.88.88,0,0,0,.25-.6,3,3,0,0,0-.9-2.6,6.21,6.21,0,0,1-1.57-4.43A10.54,10.54,0,0,0,32.88,34a7.82,7.82,0,0,1,.33-5.39,5.18,5.18,0,0,1,4.68-3.08c2.94-.08,5.89,0,8.83,0,.43,0,.68.21.67.63,0,2.3.08,4.6,0,6.9A3.81,3.81,0,0,1,47,34.42,3.39,3.39,0,0,0,46.78,36,7.41,7.41,0,0,1,46,39.69a6.61,6.61,0,0,1-1.5,1.94.52.52,0,0,0-.21.5.75.75,0,0,1,0,.15,2.36,2.36,0,0,0,1,2.48s.11.09.12.14c.1.48.51.55.87.68.75.26,1.5.53,2.24.82a1,1,0,0,0,.81,0,5.08,5.08,0,0,1,.52-.15c.93-.29.69-.17.73-1a.43.43,0,0,0-.19-.39,4.37,4.37,0,0,1-1.66-3.57,3.49,3.49,0,0,0-.33-1.55,3.59,3.59,0,0,1,2.95-4.94c2-.14,3.93,0,5.9-.05.4,0,.66.2.66.55A33.83,33.83,0,0,1,57.83,39a2.15,2.15,0,0,1-.26.87,2.48,2.48,0,0,0-.29,1.41A4.28,4.28,0,0,1,55.6,45c-.34.26-.14.62-.16.93s.25.26.43.31l1.92.55a2.46,2.46,0,0,1,1.91,1.95s0,0,0,0ZM42,44.42l1-.67a.27.27,0,0,0,.14-.25v-.83c-.06,0-.08,0-.1,0l-.29.12a6.79,6.79,0,0,1-3.33.56,6.49,6.49,0,0,1-2.25-.61c-.09,0-.19-.18-.3,0A1.61,1.61,0,0,0,37,43.78l1.18.79,1.61,1.11c.1.07.18.14.3,0C40.74,45.28,41.4,44.9,42,44.42ZM24,40.74c-.52-.29-.57-.67-.16-1.1a5.5,5.5,0,0,0,.76-.84.93.93,0,0,1,.65-.31,7.18,7.18,0,0,1,3.37.94,6.36,6.36,0,0,1,1.57,1.41,3.47,3.47,0,0,0,0-.92,4.21,4.21,0,0,0-1.59-3.24,3.62,3.62,0,0,0-4.29,0,3.73,3.73,0,0,0-.52.45,4.84,4.84,0,0,0-1.11,3.61c0,.14.05.23.18.25a.72.72,0,0,1,.45.4,3.09,3.09,0,0,0,1.54,2.82,2.93,2.93,0,0,0,1.49.46,3.07,3.07,0,0,0,2.91-1.81,1.11,1.11,0,0,0-.05-1.43,4.81,4.81,0,0,0-3-1.69,1.14,1.14,0,0,0-1.3.44A1,1,0,0,1,24,40.74Zm25.77-.88a9.65,9.65,0,0,1,.13,1.86,3.16,3.16,0,0,0,1.47,2.44,3,3,0,0,0,3.44,0,3.4,3.4,0,0,0,1.32-3.25,2.81,2.81,0,0,1,.17-1.08,2,2,0,0,0,.39-1,20.63,20.63,0,0,0,.08-2.61c0-.26-.15-.25-.33-.25-1.48,0-3,0-4.44,0a2.49,2.49,0,0,0-2,.81A2.33,2.33,0,0,0,49.75,39.86ZM34.44,35.53a6.16,6.16,0,0,0,.33,2.92A5.5,5.5,0,0,0,38.61,42a4.81,4.81,0,0,0,2.32.12,5.68,5.68,0,0,0,4.66-6.56,4.09,4.09,0,0,1,.21-1.2,5,5,0,0,0,.44-2.21c0-1.71,0-3.42,0-5.13,0-.28-.06-.38-.36-.38-2.61,0-5.21,0-7.82,0a3.26,3.26,0,0,0-1.16.2,4,4,0,0,0-2,1.28,4.39,4.39,0,0,0-1.1,2.79,8,8,0,0,0,.38,3.33A3,3,0,0,1,34.44,35.53ZM40.9,46.6c.43.42.84.81,1.23,1.22.2.21.3.23.47,0,.43-.68.89-1.35,1.34-2a.59.59,0,0,0-.22-.95.19.19,0,0,0-.24,0Zm-4.5-1.84a2.52,2.52,0,0,0-.53.5c-.11.12,0,.22.09.31.49.75,1,1.48,1.48,2.24.16.24.25.21.42,0,.33-.36.68-.7,1-1,.18-.18.17-.26,0-.39-.75-.5-1.49-1-2.23-1.52Zm-11.26.9A4.29,4.29,0,0,1,25,46.75a.17.17,0,0,0,.05.18c.95,1,1.75,1,2.67,0a.14.14,0,0,0,0-.17,2.15,2.15,0,0,1-.1-.87c0-.13,0-.19-.18-.16A4.46,4.46,0,0,1,25.14,45.66Zm26.57,0c0,.28-.14.51.1.73s.68.67,1,1c.13.14.21.13.34,0a9.07,9.07,0,0,1,.82-.82.74.74,0,0,0,.25-.89,4.48,4.48,0,0,1-1.21.17A4.18,4.18,0,0,1,51.71,45.64ZM22.43,43.3c0,.5-.48,1-.18,1.42a2.82,2.82,0,0,0,1.26.86l.24.11c.08,0,.18,0,.19-.06s.11-.45-.09-.61A5.66,5.66,0,0,1,22.43,43.3Zm7.91,0A4.7,4.7,0,0,1,29,45a.32.32,0,0,0-.13.18.82.82,0,0,0,0,.49c0,.08.13,0,.2,0a4.14,4.14,0,0,0,1.45-.91c.08-.08.18-.16.14-.3C30.55,44.11,30.46,43.74,30.34,43.29Z"/><path class="cls-4" d="M30.55,48.26a1.61,1.61,0,0,1,.87-.6l3.36-1.23a.32.32,0,0,1,.46.15c.42.66.86,1.31,1.3,2a1.23,1.23,0,0,0,2.05.21l.78-.79a.42.42,0,0,1,.06.33c0,1.76,0,3.53,0,5.29,0,.11,0,.23,0,.34H33.79c0-.76,0-1.51,0-2.26s-.2-.78-.79-.75A11.09,11.09,0,0,0,30.55,48.26Z"/><path class="cls-5" d="M40.62,53.92V48a6.54,6.54,0,0,1,.81.76,1.21,1.21,0,0,0,2-.2c.44-.65.88-1.29,1.3-1.95.13-.2.23-.26.46-.17,1.13.43,2.26.83,3.39,1.25a1.57,1.57,0,0,1,.79.52c-.56.57-1.11,1.15-1.68,1.72a2.91,2.91,0,0,0-.71,1c-.59,0-.77.16-.78.76,0,.75,0,1.51,0,2.26Z"/><path class="cls-6" d="M21.71,48.88a1.18,1.18,0,0,1,.56-.45c.5-.25,1-.49,1.51-.76a.34.34,0,0,1,.49.09A3.07,3.07,0,0,0,26,48.82a2.46,2.46,0,0,0,2.11-.68,6.14,6.14,0,0,0,.45-.43c.12-.14.23-.13.4-.06s.42.25.22.59a3,3,0,0,0-.29,1.46c0,1.42,0,2.85,0,4.27h-5c0-.94,0-1.88,0-2.82,0-.54-.17-.71-.7-.75a.82.82,0,0,0-.37-.59A7.59,7.59,0,0,1,21.71,48.88Z"/><path class="cls-6" d="M53.59,53.9c0-1.71,0-3.42,0-5.12a.36.36,0,0,1,.1-.28l1.23-1.23a.26.26,0,0,1,.3-.07c.79.23,1.58.45,2.36.69a1,1,0,0,1,.65.39c0,.17-.16.25-.26.36a9.06,9.06,0,0,0-1,1.06c-.58-.11-.83.1-.83.7,0,1.17,0,2.33,0,3.5Z"/><path class="cls-7" d="M47,50.9a2.91,2.91,0,0,1,.71-1c.57-.57,1.12-1.15,1.68-1.72A1.77,1.77,0,0,1,50,49.5c0,1.49,0,3,0,4.46H47.41c0-.76,0-1.53,0-2.29A.8.8,0,0,0,47,50.9Z"/><path class="cls-8" d="M30.55,48.26A11.09,11.09,0,0,1,33,50.9a.85.85,0,0,0-.37.79c0,.75,0,1.51,0,2.26H30.07c0-1.47,0-2.94,0-4.41A1.68,1.68,0,0,1,30.55,48.26Z"/><path class="cls-9" d="M51.12,53.9c0-1.31,0-2.62,0-3.93a3.47,3.47,0,0,0-.83-2.56c.6-.34.6-.34,1,.12s.85.67,1,1.11a3.89,3.89,0,0,1,0,1.49c0,1.26,0,2.52,0,3.77Z"/><path class="cls-10" d="M57,49.7a9.06,9.06,0,0,1,1-1.06c.1-.11.25-.19.26-.36a1.12,1.12,0,0,1,.38,1c0,1.58,0,3.16,0,4.74h-1.3c0-1.2,0-2.39,0-3.59A.75.75,0,0,0,57,49.7Z"/><path class="cls-10" d="M21.71,48.88a7.59,7.59,0,0,0,1.1.94.82.82,0,0,1,.37.59.7.7,0,0,0-.46.76c0,.93,0,1.87,0,2.81h-1.3V49.71A1.06,1.06,0,0,1,21.71,48.88Z"/><path class="cls-3" d="M57,49.7a.75.75,0,0,1,.33.69c0,1.2,0,2.39,0,3.59-.09.31-.26.54-.61.52s-.53-.26-.57-.6c0-1.17,0-2.33,0-3.5C56.13,49.8,56.38,49.59,57,49.7Z"/><path class="cls-3" d="M22.71,54c0-.94,0-1.88,0-2.81a.7.7,0,0,1,.46-.76c.53,0,.69.21.7.75,0,.94,0,1.88,0,2.82a.59.59,0,0,1-.57.52A.61.61,0,0,1,22.71,54Z"/><path class="cls-3" d="M47,50.9a.8.8,0,0,1,.39.77c0,.76,0,1.53,0,2.29-.09.32-.27.57-.63.54s-.5-.26-.55-.58c0-.75,0-1.51,0-2.26C46.25,51.06,46.43,50.88,47,50.9Z"/><path class="cls-3" d="M32.61,54c0-.75,0-1.51,0-2.26A.85.85,0,0,1,33,50.9c.59,0,.79.15.79.75s0,1.5,0,2.26c0,.32-.2.57-.55.59S32.7,54.28,32.61,54Z"/><path class="cls-11" d="M45.59,35.57a5.68,5.68,0,0,1-4.66,6.56A4.81,4.81,0,0,1,38.61,42c0-.16-.14-.27-.22-.4a5.66,5.66,0,0,1-.85-2.79c0-1.47,0-3,0-4.43a1.22,1.22,0,0,1,.4-.92,1.61,1.61,0,0,1,1.1-.34,12.24,12.24,0,0,1,4,.2,6.39,6.39,0,0,0,1.28.35A2.13,2.13,0,0,0,45.59,35.57Z"/><path class="cls-12" d="M45.59,35.57a2.13,2.13,0,0,1-1.28-1.89v-.22a.54.54,0,0,0,.57-.42.57.57,0,0,0-.25-.66,3.94,3.94,0,0,0-.45-.36,7.91,7.91,0,0,0-3.92-1.21,20.12,20.12,0,0,0-2.8,0c-.08-.21-.28-.29-.42-.44a2.42,2.42,0,0,1-.57-2.67c.11-.31.36-.52.44-.84a3.26,3.26,0,0,1,1.16-.2c2.61,0,5.21,0,7.82,0,.3,0,.36.1.36.38,0,1.71,0,3.42,0,5.13a5,5,0,0,1-.44,2.21A4.09,4.09,0,0,0,45.59,35.57Z"/><path class="cls-13" d="M44.31,33.46v.22A6.39,6.39,0,0,1,43,33.33a12.24,12.24,0,0,0-4-.2,1.61,1.61,0,0,0-1.1.34,1.22,1.22,0,0,0-.4.92c0,1.48,0,3,0,4.43a5.66,5.66,0,0,0,.85,2.79c.08.13.21.24.22.4a5.5,5.5,0,0,1-3.84-3.56,6.16,6.16,0,0,1-.33-2.92,2,2,0,0,0,1.18-1.44c.47-.07.62-.23.63-.7a8.81,8.81,0,0,0,0-.89c0-.27.07-.37.34-.41a16.39,16.39,0,0,1,4.64,0,4.9,4.9,0,0,1,2.67,1.17A.59.59,0,0,0,44.31,33.46Z"/><path class="cls-11" d="M56.11,40.86a3.4,3.4,0,0,1-1.32,3.25,3,3,0,0,1-3.44,0,9.33,9.33,0,0,1-.24-2.47,1.27,1.27,0,0,1,1.41-1.36,15.5,15.5,0,0,1,1.67.18C54.83,40.61,55.47,40.74,56.11,40.86Z"/><path class="cls-14" d="M50,36.75a2.49,2.49,0,0,1,2-.81c1.48,0,3,0,4.44,0,.18,0,.34,0,.33.25a20.63,20.63,0,0,1-.08,2.61,2,2,0,0,1-.39,1l-.86-.55a.68.68,0,0,0-.49-.74c-.21-.08-.42-.17-.64-.23a14.42,14.42,0,0,0-3-.39.73.73,0,0,0-.71.37c-.24,0-.36-.15-.47-.32A1.42,1.42,0,0,1,50,36.75Z"/><path class="cls-14" d="M24.26,36.69a3.62,3.62,0,0,1,4.29,0,4.21,4.21,0,0,1,1.59,3.24,3.47,3.47,0,0,1,0,.92,6.36,6.36,0,0,0-1.57-1.41,7.18,7.18,0,0,0-3.37-.94.93.93,0,0,0-.65.31A2.57,2.57,0,0,1,24.26,36.69Z"/><path class="cls-15" d="M35.62,34.09a2,2,0,0,1-1.18,1.44,3,3,0,0,0-.27-1.26,8,8,0,0,1-.38-3.33,4.39,4.39,0,0,1,1.1-2.79,4,4,0,0,1,2-1.28c-.08.32-.33.53-.44.84A2.42,2.42,0,0,0,37,30.38c.14.15.34.23.42.44l-1.3.16a1.21,1.21,0,0,0-1,.95,5.61,5.61,0,0,0,0,1.53A.62.62,0,0,0,35.62,34.09Z"/><path class="cls-11" d="M29.2,42.87a3.07,3.07,0,0,1-2.91,1.81,2.93,2.93,0,0,1-1.49-.46c0-.11-.05-.22-.08-.33-.25-.83-.36-1.63.51-2.19l0,0c.4-.83,1-.71,1.63-.34A7.53,7.53,0,0,1,29.2,42.87Z"/><path class="cls-13" d="M55.42,39.23l.86.55a2.81,2.81,0,0,0-.17,1.08c-.64-.12-1.28-.25-1.92-.35a15.5,15.5,0,0,0-1.67-.18,1.27,1.27,0,0,0-1.41,1.36,9.33,9.33,0,0,0,.24,2.47,3.16,3.16,0,0,1-1.47-2.44,9.65,9.65,0,0,0-.13-1.86l.9-1a1.84,1.84,0,0,0,.89.2,9.3,9.3,0,0,1,3,.53C55,39.74,55.17,39.64,55.42,39.23Z"/><path class="cls-13" d="M29.2,42.87a7.53,7.53,0,0,0-2.31-1.54c-.66-.37-1.23-.49-1.63.34l0,0c-.87.56-.76,1.36-.51,2.19,0,.11.06.22.08.33a3.09,3.09,0,0,1-1.54-2.82l.72-.66a1,1,0,0,0,.9-.55,1.14,1.14,0,0,1,1.3-.44,4.81,4.81,0,0,1,3,1.69A1.11,1.11,0,0,1,29.2,42.87Z"/><path class="cls-16" d="M38.22,44.57,37,43.78a1.61,1.61,0,0,1-.16-1.08c.11-.15.21,0,.3,0a6.49,6.49,0,0,0,2.25.61,6.79,6.79,0,0,0,3.33-.56l.29-.12s0,0,.1,0v.83a.27.27,0,0,1-.14.25l-1,.67-.26,0a8.07,8.07,0,0,1-2.5.15C38.9,44.54,38.56,44.35,38.22,44.57Z"/><path class="cls-8" d="M40.9,46.6l2.58-1.76a.19.19,0,0,1,.24,0,.59.59,0,0,1,.22.95c-.45.67-.91,1.34-1.34,2-.17.27-.27.25-.47,0C41.74,47.41,41.33,47,40.9,46.6Z"/><path class="cls-15" d="M24,40.74l-.72.66a.72.72,0,0,0-.45-.4c-.13,0-.18-.11-.18-.25a4.84,4.84,0,0,1,1.11-3.61,3.73,3.73,0,0,1,.52-.45,2.57,2.57,0,0,0,.32,2.11,5.5,5.5,0,0,1-.76.84C23.41,40.07,23.46,40.45,24,40.74Z"/><path class="cls-8" d="M36.4,44.76l.23.14c.74.51,1.48,1,2.23,1.52.21.13.22.21,0,.39-.36.33-.71.67-1,1-.17.18-.26.21-.42,0-.48-.76-1-1.49-1.48-2.24-.06-.09-.2-.19-.09-.31A2.52,2.52,0,0,1,36.4,44.76Z"/><path class="cls-17" d="M25.14,45.66a4.46,4.46,0,0,0,2.35,0c.15,0,.18,0,.18.16a2.15,2.15,0,0,0,.1.87.14.14,0,0,1,0,.17C26.82,48,26,48,25.07,46.93a.17.17,0,0,1-.05-.18A4.29,4.29,0,0,0,25.14,45.66Z"/><path class="cls-17" d="M51.71,45.64a4.18,4.18,0,0,0,1.31.2,4.48,4.48,0,0,0,1.21-.17.74.74,0,0,1-.25.89,9.07,9.07,0,0,0-.82.82c-.13.13-.21.14-.34,0-.33-.34-.66-.68-1-1S51.76,45.92,51.71,45.64Z"/><path class="cls-15" d="M50.65,38.86l-.9,1a2.33,2.33,0,0,1,.2-3.11,1.42,1.42,0,0,0,.16,1.17c.11.17.23.33.47.32A1.45,1.45,0,0,0,50.65,38.86Z"/><path class="cls-17" d="M38.22,44.57c.34-.22.68,0,1,0a8.07,8.07,0,0,0,2.5-.15l.26,0c-.58.48-1.24.86-1.85,1.3-.12.1-.2,0-.3,0Z"/><path class="cls-15" d="M22.43,43.3A5.66,5.66,0,0,0,23.85,45c.2.16.09.41.09.61s-.11.09-.19.06l-.24-.11a2.82,2.82,0,0,1-1.26-.86C22,44.26,22.46,43.8,22.43,43.3Z"/><path class="cls-14" d="M30.34,43.29c.12.45.21.82.31,1.18,0,.14-.06.22-.14.3a4.14,4.14,0,0,1-1.45.91c-.07,0-.17.07-.2,0a.82.82,0,0,1,0-.49A.32.32,0,0,1,29,45,4.7,4.7,0,0,0,30.34,43.29Z"/><path class="cls-3" d="M35.62,34.09a.62.62,0,0,1-.53-.63,5.61,5.61,0,0,1,0-1.53,1.21,1.21,0,0,1,1-.95l1.3-.16a20.12,20.12,0,0,1,2.8,0A7.91,7.91,0,0,1,44.18,32a3.94,3.94,0,0,1,.45.36.57.57,0,0,1,.25.66.54.54,0,0,1-.57.42.59.59,0,0,1-.41-.19,4.9,4.9,0,0,0-2.67-1.17,16.39,16.39,0,0,0-4.64,0c-.27,0-.36.14-.34.41a8.81,8.81,0,0,1,0,.89C36.24,33.86,36.09,34,35.62,34.09Z"/><path class="cls-3" d="M50.65,38.86a1.45,1.45,0,0,1-.07-.62.73.73,0,0,1,.71-.37,14.42,14.42,0,0,1,3,.39c.22.06.43.15.64.23a.68.68,0,0,1,.49.74c-.25.41-.46.51-.84.36a9.3,9.3,0,0,0-3-.53A1.84,1.84,0,0,1,50.65,38.86Z"/></g><g id="educrypt"><circle class="cls-18" cx="40" cy="40" r="38.52"/><g class="cls-19"><rect class="cls-20" x="30.28" y="35.03" width="20.72" height="17.44" transform="matrix(0.04, -1, 1, 0.04, -4.69, 82.61)"/></g><g class="cls-21"><rect class="cls-22" x="28.74" y="26.22" width="22.6" height="9.44"/></g></g><g id="Freswork"><circle class="cls-23" cx="40" cy="40" r="38.52"/><g id="Layer"><path id="Layer-2" data-name="Layer" class="cls-24" d="M24.24,42.38a15.62,15.62,0,0,0,4.49,8.89l5.43-5.43A16,16,0,0,1,42.1,32Z"/><path id="Layer-3" data-name="Layer" class="cls-24" d="M34.16,45.84a15.76,15.76,0,0,1-7.95-2.15,22.41,22.41,0,0,1-2-1.31,15.62,15.62,0,0,0,4.49,8.89Z"/><path id="Layer-4" data-name="Layer" class="cls-25" d="M34.16,45.84l-5.43,5.43a15.62,15.62,0,0,0,8.89,4.49L47.9,37.9a15.89,15.89,0,0,1-13.74,7.94Z"/><path id="Layer-5" data-name="Layer" class="cls-26" d="M36.31,53.79a15.76,15.76,0,0,1-2.15-7.95l-5.43,5.43a15.62,15.62,0,0,0,8.89,4.49,22.41,22.41,0,0,1-1.31-2Z"/><path id="Layer-6" data-name="Layer" class="cls-27" d="M54.45,24.9,42.1,32a16,16,0,0,1-15.89,0,16.15,16.15,0,0,0-2.15,8,20.3,20.3,0,0,0,.18,2.33,22.41,22.41,0,0,0,2,1.31,15.76,15.76,0,0,0,7.95,2.15L54.73,25.27a1.31,1.31,0,0,1-.28-.37Z"/><path id="Layer-7" data-name="Layer" class="cls-28" d="M26.21,43.69a15.76,15.76,0,0,0,7.95,2.15A16,16,0,0,1,42.1,32L24.24,42.29a12.59,12.59,0,0,0,2,1.4Z"/><path id="Layer-8" data-name="Layer" class="cls-29" d="M26.21,32a16.15,16.15,0,0,0-2.15,8,20.3,20.3,0,0,0,.18,2.33L42.1,32a15.6,15.6,0,0,1-15.89,0Z"/><path id="Layer-9" data-name="Layer" class="cls-30" d="M54.73,25.27a4.35,4.35,0,0,0-.75-.65,3.62,3.62,0,0,0-2-.56H40A15.89,15.89,0,0,0,26.21,32,16,16,0,0,0,42.1,32a15.88,15.88,0,0,0-7.94,13.84A16,16,0,0,0,48,37.9l7.1-12.35a1.31,1.31,0,0,1-.37-.28Z"/><path id="Layer-10" data-name="Layer" class="cls-31" d="M42.1,32l12.35-7.1c-.19-.1-.28-.28-.47-.38L26.21,32A15.6,15.6,0,0,0,42.1,32Z"/><path id="Layer-11" data-name="Layer" class="cls-32" d="M51.92,24.06H40A15.89,15.89,0,0,0,26.21,32L54,24.52A5.09,5.09,0,0,0,51.92,24.06Z"/><path id="Layer-12" data-name="Layer" class="cls-33" d="M48,37.9l7.1-12.35a1.53,1.53,0,0,1-.28-.37L34.25,45.75a15.86,15.86,0,0,0,2.15,8,22.29,22.29,0,0,0,1.31,2,17.07,17.07,0,0,0,2.24.19A15.86,15.86,0,0,0,47.9,53.7,15.67,15.67,0,0,1,48,37.9Z"/><path id="Layer-13" data-name="Layer" class="cls-34" d="M34.16,45.84a15.76,15.76,0,0,0,2.15,7.95,22.41,22.41,0,0,0,1.31,2L47.9,37.9a15.89,15.89,0,0,1-13.74,7.94Z"/><path id="Layer-14" data-name="Layer" class="cls-35" d="M48,37.9,37.71,55.76a19,19,0,0,0,2.34.18,15.81,15.81,0,0,0,8-2.15A15.6,15.6,0,0,1,48,37.9Z"/><path id="Layer-15" data-name="Layer" class="cls-36" d="M55.38,26a3.73,3.73,0,0,0-.93-1.12L42.1,32a15.88,15.88,0,0,0-7.94,13.84A16,16,0,0,0,48,37.9a16,16,0,0,0,0,15.89,15.86,15.86,0,0,0,7.94-13.65V28.08A3.94,3.94,0,0,0,55.38,26Z"/><path id="Layer-16" data-name="Layer" class="cls-37" d="M54.45,24.9,42.1,32a15.88,15.88,0,0,0-7.94,13.84L54.73,25.27c-.09-.09-.19-.28-.28-.37Z"/><path id="Layer-17" data-name="Layer" class="cls-36" d="M34.16,45.84A16,16,0,0,0,48,37.9l7.1-12.35a1.53,1.53,0,0,1-.28-.37Z"/><path id="Layer-18" data-name="Layer" class="cls-38" d="M55.1,25.55,48,37.9a16,16,0,0,0,0,15.89L55.48,26a1.74,1.74,0,0,1-.38-.47Z"/><path id="Layer-19" data-name="Layer" class="cls-39" d="M48,53.79a15.71,15.71,0,0,0,7.94-13.74v-12A3.94,3.94,0,0,0,55.38,26L48,53.79Z"/></g></g><circle class="cls-40" cx="39.96" cy="40.1" r="38.52"/><circle class="cls-2" cx="40" cy="40" r="38.52"/><path class="cls-41" d="M40,54.94H30.36c-.52,0-.67-.15-.67-.65V53a2.09,2.09,0,0,1,1.72-2,4.2,4.2,0,0,1,.87-.07c.8,0,1.6,0,2.4,0,.22,0,.3,0,.3-.28,0-.68,0-1.36,0-2,0-.21-.06-.26-.27-.26H27.93a2.72,2.72,0,0,1-2.88-2.89V30.56a2.72,2.72,0,0,1,2.89-2.89h3c.19,0,.26-.05.25-.25,0-.39,0-.78,0-1.18a1.09,1.09,0,0,1,1.2-1.19H47.57a1.09,1.09,0,0,1,1.19,1.18c0,.4,0,.8,0,1.2,0,.19.06.24.24.24h2a.33.33,0,0,0,.3-.14,1.78,1.78,0,0,1,2.31-.4,2.06,2.06,0,0,1,1.25,1.44,1.23,1.23,0,0,1,0,.33c-.11,1.38,0,2.77,0,4.15s0,2.79,0,4.19v4.18c0,1.38,0,2.75,0,4.13a2.69,2.69,0,0,1-2.81,2.82q-3.4,0-6.81,0c-.23,0-.31.05-.3.29,0,.67,0,1.35,0,2,0,.23.07.28.29.28.86,0,1.73,0,2.59,0a2.65,2.65,0,0,1,1.38.35,1.91,1.91,0,0,1,1,1.78c0,.42,0,.84,0,1.26s-.17.6-.61.6Zm6.45-14.22-.9-.54v1.08c0,.1,0,.2,0,.31l1.19-.69ZM53.68,28.3a2.24,2.24,0,0,0-.66-.4.78.78,0,0,0-1,.27c-.17.26-.31.54-.47.8s0,.18.07.24c.47.25.91.57,1.41.79.19.21.32.18.44-.09s.23-.39.34-.59A.77.77,0,0,0,53.68,28.3Zm-2.3,15.36h.36c.29,0,.38,0,.38-.36,0-2.87,0-5.75,0-8.63v-.31h-.06l-.68,1.22,0,0-2.49,4.31a.46.46,0,0,0-.08.25v3.31c0,.14,0,.19.19.19Zm1.08-12.87c-.4-.23-.82-.46-1.21-.71-.19-.12-.26-.07-.36.1-.48.85-1,1.69-1.45,2.53q-1.8,3.1-3.59,6.21c-.06.11-.21.22,0,.34.46.24.91.5,1.36.76.16.12.3.29.48,0q2.5-4.38,5-8.74c.1-.17.11-.28-.09-.36A.69.69,0,0,1,52.46,30.79Zm-8.62,17.6-7.7,0c-.19,0-.21.08-.21.24,0,.67,0,1.34,0,2,0,.26.06.34.33.34h7.58c.14,0,.21,0,.21-.16,0-.74,0-1.49,0-2.23C44.05,48.39,44,48.36,43.84,48.39ZM47.4,26H32.59c-.4,0-.4,0-.4.39q0,8.46,0,16.92c0,.27.07.34.35.34H47.4c.4,0,.4,0,.4-.37s0-.92,0-1.38c0-.15.08-.38-.06-.44s-.28.11-.4.21l-.32.17-1.66,1c-.31.17-.61.12-.72-.16s-.2-.22-.38-.22H33.72a2.17,2.17,0,0,1-.36,0A.43.43,0,0,1,33,42a.43.43,0,0,1,.37-.47,1.71,1.71,0,0,1,.39,0H44.38c.15,0,.2,0,.19-.19a6.76,6.76,0,0,1,0-.9c0-.28-.09-.32-.34-.32H33.43a.48.48,0,0,1,0-1h11c.11,0,.24,0,.32-.1l.74-1.3H33.59c-.4,0-.64-.18-.64-.48s.22-.48.63-.48H45.72c.11,0,.24.06.32-.09.25-.44.51-.88.77-1.32H33.54c-.36,0-.58-.19-.59-.47s.22-.49.59-.5H46.31c.38,0,.67.07.75.54l.35-.65a1.8,1.8,0,0,0,.4-1.19c0-2.22,0-4.43,0-6.65C47.8,26,47.8,26,47.4,26ZM54,31.16l-.06,0c-.22.39-.44.78-.67,1.16a1.14,1.14,0,0,0-.17.62v11c0,.56-.14.7-.69.7H27.59c-.53,0-.67-.14-.67-.68V30.5c0-.68.28-1,1-1h2.74c.61,0,.6,0,.61-.61,0-.25-.09-.29-.31-.29h-3A1.74,1.74,0,0,0,26,30.53v15a1.74,1.74,0,0,0,1.9,1.91H52.07A1.75,1.75,0,0,0,54,45.52V31.16ZM31.23,37.08c0-2.1,0-4.2,0-6.29,0-.24-.06-.31-.3-.3-.92,0-1.84,0-2.77,0-.21,0-.29,0-.29.27q0,6.33,0,12.67c0,.2.05.25.24.25.94,0,1.87,0,2.8,0,.26,0,.31-.06.31-.31C31.22,41.27,31.23,39.17,31.23,37.08ZM40,54h9.1c.2,0,.28,0,.26-.26a5.3,5.3,0,0,1,0-.69.94.94,0,0,0-.45-.84,1.89,1.89,0,0,0-1.09-.28H31.87a1.2,1.2,0,0,0-1.22,1.31,3.38,3.38,0,0,1,0,.45c0,.23.05.3.29.3ZM50.66,28.64H48.92c-.14,0-.18.08-.16.19s-.16.61.12.68a2.48,2.48,0,0,0,1.24,0c.24-.06.3-.46.46-.7ZM49.6,30.49c-.27,0-.47,0-.67,0s-.18,0-.17.17v1.18l.05,0Z"/><path class="cls-42" d="M47.41,34.25l-.35.65c-.08-.47-.37-.54-.75-.54H33.54c-.37,0-.6.21-.59.5s.23.46.59.47H46.81c-.26.44-.52.88-.77,1.32-.08.15-.21.09-.32.09H33.58c-.41,0-.63.17-.63.48s.24.48.64.48H45.43L44.69,39c-.08.15-.21.1-.32.1h-11a.48.48,0,0,0,0,1H44.24c.25,0,.36,0,.34.32a6.76,6.76,0,0,0,0,.9c0,.14,0,.21-.19.19H33.72a1.71,1.71,0,0,0-.39,0A.43.43,0,0,0,33,42a.43.43,0,0,0,.4.45,2.17,2.17,0,0,0,.36,0H44.26c.18,0,.3,0,.38.22s.41.33.72.16l1.66-1,.32-.17c.09.07.06.17.06.25v1.73H32.53c-.28,0-.35-.07-.35-.34q0-8.46,0-16.92c0-.39,0-.39.4-.39H47.4V29.7C47.41,31.22,47.41,32.73,47.41,34.25ZM37.33,33h3.73c.39,0,.56-.16.56-.54,0-1.67,0-3.33,0-5,0-.4-.17-.55-.58-.55h-7.4c-.43,0-.6.16-.6.6,0,1.36,0,2.71,0,4.07,0,.28,0,.55,0,.84.06.45.18.58.63.58Zm7.4-4.74H46.5c.33,0,.54-.22.53-.49a.49.49,0,0,0-.55-.47c-1.14,0-2.29,0-3.43,0-.39,0-.6.17-.6.47s.2.49.59.49C43.6,28.23,44.16,28.22,44.73,28.22Zm0,1.41H43c-.36,0-.56.18-.56.48s.2.48.56.48q1.73,0,3.45,0c.35,0,.57-.19.57-.48s-.21-.48-.56-.48Zm0,3.33h1.72c.35,0,.57-.2.56-.48s-.22-.48-.57-.49H43c-.36,0-.56.19-.56.49s.2.47.56.48Z"/><path class="cls-43" d="M54,31.16V45.52a1.75,1.75,0,0,1-1.9,1.89H27.92A1.74,1.74,0,0,1,26,45.5v-15a1.74,1.74,0,0,1,1.89-1.89h3c.22,0,.32,0,.31.29,0,.61,0,.61-.61.61H27.88c-.68,0-1,.29-1,1V44c0,.54.14.68.67.68H52.38c.55,0,.69-.14.69-.7v-11a1.14,1.14,0,0,1,.17-.62c.23-.38.45-.77.67-1.16Z"/><path class="cls-44" d="M31.23,37.08c0,2.09,0,4.19,0,6.29,0,.25-.05.31-.31.31-.93,0-1.86,0-2.8,0-.19,0-.25,0-.24-.25q0-6.33,0-12.67c0-.24.08-.27.29-.27.93,0,1.85,0,2.77,0,.24,0,.3.06.3.3C31.22,32.88,31.23,35,31.23,37.08Z"/><path class="cls-43" d="M40,54h-9c-.24,0-.31-.07-.29-.3a3.38,3.38,0,0,0,0-.45,1.2,1.2,0,0,1,1.22-1.31H47.79a1.89,1.89,0,0,1,1.09.28.94.94,0,0,1,.45.84,5.3,5.3,0,0,0,0,.69c0,.22-.06.26-.26.26Z"/><path class="cls-45" d="M43.84,50.94H36.26c-.27,0-.34-.08-.33-.34,0-.67,0-1.34,0-2,0-.16,0-.24.21-.24l7.7,0Z"/><path class="cls-46" d="M47.22,40c-.45-.26-.9-.52-1.36-.76-.22-.12-.07-.23,0-.34q1.78-3.11,3.59-6.21c.48-.84,1-1.68,1.45-2.53.1-.17.17-.22.36-.1.39.25.81.48,1.21.71a.77.77,0,0,1-.17.44l-.8,1.38-2.17,3.77Z"/><path class="cls-47" d="M51.38,43.66l-2.43,0c-.15,0-.19,0-.19-.19V40.18a.46.46,0,0,1,.08-.25l2.49-4.31,0,0c0,.1,0,.2,0,.3Z"/><path class="cls-48" d="M51.38,43.66V35.88c0-.1,0-.2,0-.3l.68-1.22h.06v.31c0,2.88,0,5.76,0,8.63,0,.32-.09.41-.38.36Z"/><path class="cls-49" d="M47.22,40l2.1-3.64,2.17-3.77.8-1.38a.77.77,0,0,0,.17-.44.69.69,0,0,0,.19.1c.2.08.19.19.09.36q-2.54,4.36-5,8.74C47.52,40.31,47.38,40.14,47.22,40Z"/><path class="cls-50" d="M47.41,34.25c0-1.52,0-3,0-4.55V26c.4,0,.4,0,.4.38,0,2.22,0,4.43,0,6.65A1.8,1.8,0,0,1,47.41,34.25Z"/><path class="cls-51" d="M53.07,30c-.5-.22-.94-.54-1.41-.79-.11-.06-.14-.13-.07-.24s.3-.54.47-.8a.78.78,0,0,1,1-.27,2.24,2.24,0,0,1,.66.4,1.83,1.83,0,0,1-.34,1.12A1.2,1.2,0,0,0,53.07,30Z"/><path class="cls-43" d="M50.66,28.64l-.08.15c-.16.24-.22.64-.46.7a2.48,2.48,0,0,1-1.24,0c-.28-.07-.07-.45-.12-.68s0-.2.16-.19h1.74Z"/><path class="cls-50" d="M47.4,43.66V41.93c0-.08,0-.18-.06-.25.12-.1.29-.26.4-.21s0,.29.06.44c0,.46,0,.92,0,1.38S47.8,43.69,47.4,43.66Z"/><path class="cls-48" d="M49.6,30.49l-.79,1.37-.05,0V30.66c0-.13,0-.17.17-.17S49.33,30.49,49.6,30.49Z"/><path class="cls-52" d="M53.07,30a1.2,1.2,0,0,1,.27-.58,1.83,1.83,0,0,0,.34-1.12.77.77,0,0,1,.17,1c-.11.2-.25.39-.34.59S53.26,30.21,53.07,30Z"/><path class="cls-51" d="M45.54,41.26V40.18l.9.54A5.11,5.11,0,0,1,45.54,41.26Z"/><path class="cls-51" d="M43.84,50.94V48.39c.14,0,.21,0,.21.16,0,.74,0,1.49,0,2.23C44.05,50.94,44,51,43.84,50.94Z"/><path class="cls-52" d="M45.54,41.26a5.11,5.11,0,0,0,.9-.54l.33.16-1.19.69C45.5,41.46,45.54,41.36,45.54,41.26Z"/><path class="cls-53" d="M37.33,33H33.66c-.45,0-.57-.13-.63-.58,0-.29,0-.56,0-.84,0-1.36,0-2.71,0-4.07,0-.44.17-.6.6-.6H41c.41,0,.58.15.58.55,0,1.67,0,3.33,0,5,0,.38-.17.53-.56.54Zm0-5.13c-1,0-2.07,0-3.1,0-.19,0-.26,0-.25.24,0,1.21,0,2.41,0,3.61,0,.23,0,.31.3.31h6.07c.26,0,.3-.09.3-.31,0-1.2,0-2.4,0-3.61,0-.2-.06-.24-.25-.24C39.39,27.84,38.37,27.83,37.35,27.83Z"/><path class="cls-41" d="M44.73,28.22c-.57,0-1.13,0-1.69,0-.39,0-.6-.18-.59-.49s.21-.47.6-.47c1.14,0,2.29,0,3.43,0a.49.49,0,0,1,.55.47c0,.27-.2.47-.53.49H44.73Z"/><path class="cls-41" d="M44.75,29.63h1.72c.35,0,.57.19.56.48s-.22.48-.57.48q-1.73,0-3.45,0c-.36,0-.56-.18-.56-.48s.2-.48.56-.48Z"/><path class="cls-41" d="M44.75,33H43c-.36,0-.56-.18-.56-.48s.2-.48.56-.49h3.45c.35,0,.57.2.57.49s-.21.47-.56.48Z"/><path class="cls-54" d="M37.35,27.83c1,0,2,0,3.07,0,.19,0,.25,0,.25.24,0,1.21,0,2.41,0,3.61,0,.22,0,.31-.3.31H34.3c-.25,0-.31-.08-.3-.31,0-1.2,0-2.4,0-3.61,0-.2.06-.24.25-.24C35.28,27.84,36.32,27.83,37.35,27.83Z"/><circle class="cls-18" cx="40" cy="40" r="38.52"/><circle class="cls-2" cx="40" cy="40" r="38.52"/><circle class="cls-23" cx="40" cy="40" r="38.52"/><path class="cls-55" d="M27.61,24.55l.26.16,2.42,1.58a.46.46,0,0,0,.6,0,15.42,15.42,0,0,1,6-2.47c.24,0,.28-.2.31-.4.18-1,.38-1.94.54-2.91,0-.25.14-.29.37-.29h3.65c.26,0,.33.09.38.33.19,1,.4,1.93.6,2.9,0,.2.1.33.33.37A16.31,16.31,0,0,1,49,26.25a.58.58,0,0,0,.77,0c.79-.54,1.61-1,2.42-1.58a.28.28,0,0,1,.43,0c.88.89,1.75,1.77,2.64,2.64.18.17.16.29,0,.48-.53.8-1,1.61-1.57,2.41a.53.53,0,0,0,0,.7,15.43,15.43,0,0,1,2.44,6c0,.24.17.3.37.34,1,.17,1.89.37,2.84.53.25,0,.32.15.31.39,0,1.2,0,2.41,0,3.61a.36.36,0,0,1-.35.42l-2.9.59a.38.38,0,0,0-.36.35,16.83,16.83,0,0,1-2.45,6,.5.5,0,0,0,0,.66c.55.81,1.07,1.64,1.61,2.45.12.19.13.31,0,.47Q53.88,54,52.57,55.3a.28.28,0,0,1-.44,0c-.84-.55-1.69-1.09-2.52-1.65a.43.43,0,0,0-.56,0,15.59,15.59,0,0,1-6,2.48c-.23,0-.29.17-.33.38-.18.94-.37,1.88-.54,2.83,0,.22-.1.32-.34.31H38.12c-.25,0-.32-.09-.36-.31-.2-1-.41-2-.61-2.94a.38.38,0,0,0-.35-.35,16.83,16.83,0,0,1-5.93-2.43.52.52,0,0,0-.7,0c-.8.55-1.63,1.06-2.44,1.6a.31.31,0,0,1-.48,0Q26,53.88,24.64,52.59c-.19-.18-.16-.31,0-.5.54-.81,1.06-1.64,1.6-2.45a.46.46,0,0,0,0-.6,15.42,15.42,0,0,1-2.47-6c-.05-.25-.2-.29-.39-.32-.95-.18-1.89-.38-2.83-.54-.25,0-.3-.13-.3-.36,0-1.22,0-2.43,0-3.65,0-.25.08-.34.32-.39,1-.18,1.93-.4,2.9-.6.2,0,.34-.09.38-.33a16.61,16.61,0,0,1,2.46-6,.47.47,0,0,0,0-.63c-.55-.79-1.07-1.6-1.61-2.39-.11-.17-.14-.28,0-.44.9-.88,1.78-1.78,2.67-2.66C27.43,24.63,27.48,24.55,27.61,24.55ZM40,27.63A12.33,12.33,0,1,0,52.29,39.94,12.35,12.35,0,0,0,40,27.63Z"/><path class="cls-56" d="M40,27.63A12.33,12.33,0,1,1,27.63,40,12.35,12.35,0,0,1,40,27.63ZM40,31a9,9,0,1,0,9,9A9,9,0,0,0,40,31Z"/><path class="cls-57" d="M40,31a9,9,0,1,1-9,8.94A9,9,0,0,1,40,31ZM38.12,41.43h-.48c-.25,0-.33.08-.31.32a2.16,2.16,0,0,0,1.63,2c.59.16.6.16.59.79,0,.27,0,.39.36.41s.52-.14.46-.5.07-.61.52-.71a2,2,0,0,0,1.56-2.51A2.44,2.44,0,0,0,41,39.64,13.35,13.35,0,0,1,39.49,39a1,1,0,0,1-.38-1.13.86.86,0,0,1,.87-.59c.47,0,.71.22.89.71.08.21-.08.51.19.6a2.19,2.19,0,0,0,.68,0h.56c.14,0,.22,0,.21-.21A2.21,2.21,0,0,0,41,36.2c-.39-.08-.51-.24-.45-.61,0-.08,0-.16,0-.24,0-.33-.07-.44-.41-.42s-.42,0-.41.39c0,.71,0,.71-.65.9A2.08,2.08,0,0,0,38,39.45a3.45,3.45,0,0,0,1.56,1.07,4,4,0,0,1,1.2.62.93.93,0,0,1-.12,1.48,1.11,1.11,0,0,1-1.66-.78c0-.38-.19-.45-.5-.41Zm-3-.5a1,1,0,1,0,0-1.94,1,1,0,1,0,0,1.94Zm9.73,0a1,1,0,0,0,1-1,1,1,0,0,0-2,0A1,1,0,0,0,44.82,40.93Z"/><path class="cls-58" d="M38.12,41.43h.32c.31,0,.46,0,.5.41a1.11,1.11,0,0,0,1.66.78.93.93,0,0,0,.12-1.48,4,4,0,0,0-1.2-.62A3.45,3.45,0,0,1,38,39.45a2.08,2.08,0,0,1,1.1-3.23c.65-.19.67-.19.65-.9,0-.34.11-.39.41-.39s.46.09.41.42c0,.08,0,.16,0,.24-.06.37.06.53.45.61a2.21,2.21,0,0,1,1.53,2.17c0,.16-.07.21-.21.21h-.56a2.19,2.19,0,0,1-.68,0c-.27-.09-.11-.39-.19-.6-.18-.49-.42-.7-.89-.71a.86.86,0,0,0-.87.59A1,1,0,0,0,39.49,39a13.35,13.35,0,0,0,1.49.68,2.44,2.44,0,0,1,1.47,1.64,2,2,0,0,1-1.56,2.51c-.45.1-.6.28-.52.71s0,.52-.46.5-.37-.14-.36-.41c0-.63,0-.63-.59-.79a2.16,2.16,0,0,1-1.63-2c0-.24.06-.34.31-.32Z"/><path class="cls-58" d="M35.09,40.93a1,1,0,1,1,0-1.94,1,1,0,1,1,0,1.94Z"/><path class="cls-58" d="M44.82,40.93a1,1,0,0,1-1-1,1,1,0,0,1,2,0A1,1,0,0,1,44.82,40.93Z"/><g id="aws"><circle class="cls-40" cx="39.96" cy="40.1" r="38.52"/><g id="Layer_1-2" data-name="Layer_1"><g id="amazon-web-services-2.svg"><path class="cls-59" d="M30.73,36.53a4.17,4.17,0,0,0,.16,1.25,7.11,7.11,0,0,0,.45,1,.62.62,0,0,1,.1.32.57.57,0,0,1-.27.43l-.89.59a.64.64,0,0,1-.37.13.63.63,0,0,1-.42-.2,4.33,4.33,0,0,1-.51-.66c-.14-.24-.28-.51-.44-.84a5.2,5.2,0,0,1-4.15,2,3.88,3.88,0,0,1-2.82-1,4,4,0,0,1,.24-5.63,5.15,5.15,0,0,1,3.46-1.1,9.74,9.74,0,0,1,1.49.12c.53.07,1.06.18,1.63.31v-1a3.13,3.13,0,0,0-.67-2.26,3.28,3.28,0,0,0-2.3-.65,6.26,6.26,0,0,0-1.52.19,11.33,11.33,0,0,0-1.53.48,3.59,3.59,0,0,1-.49.18.79.79,0,0,1-.23,0c-.2,0-.3-.14-.3-.43V29a.9.9,0,0,1,.1-.49,1.06,1.06,0,0,1,.4-.3,9.43,9.43,0,0,1,4-.9,5.17,5.17,0,0,1,3.7,1.14A4.68,4.68,0,0,1,30.71,32v4.58ZM25,38.67a4.56,4.56,0,0,0,1.45-.25,3.18,3.18,0,0,0,1.35-.91,2.3,2.3,0,0,0,.48-.9,5.34,5.34,0,0,0,.14-1.23v-.59a10.33,10.33,0,0,0-1.3-.24,10,10,0,0,0-1.33-.09,3.28,3.28,0,0,0-2.11.57A2,2,0,0,0,23,36.65a1.83,1.83,0,0,0,2,2ZM36.34,40.2a.81.81,0,0,1-.54-.14,1.21,1.21,0,0,1-.29-.55L32.19,28.59a2.34,2.34,0,0,1-.13-.57.31.31,0,0,1,.34-.35h1.38a.8.8,0,0,1,.56.14,1.2,1.2,0,0,1,.28.55L37,37.71l2.2-9.35a1,1,0,0,1,.27-.55,1,1,0,0,1,.57-.14h1.13a.82.82,0,0,1,.56.14.91.91,0,0,1,.27.55l2.23,9.46,2.45-9.46a1.14,1.14,0,0,1,.28-.55,1,1,0,0,1,.55-.14h1.31a.32.32,0,0,1,.36.35c0,.07,0,.14,0,.23a2.24,2.24,0,0,1-.1.35l-3.4,10.92a1.13,1.13,0,0,1-.3.55.87.87,0,0,1-.54.14H43.59a.87.87,0,0,1-.57-.14,1,1,0,0,1-.27-.56l-2.19-9.12-2.17,9.1a1.16,1.16,0,0,1-.27.57.86.86,0,0,1-.56.14Zm18.15.38a9.27,9.27,0,0,1-2.17-.26,6.2,6.2,0,0,1-1.63-.56,1.09,1.09,0,0,1-.44-.4,1,1,0,0,1-.08-.39v-.72c0-.3.11-.44.32-.44a.78.78,0,0,1,.26,0l.35.14a7,7,0,0,0,1.56.5,8.63,8.63,0,0,0,1.68.17,3.81,3.81,0,0,0,2.06-.47,1.51,1.51,0,0,0,.73-1.34,1.35,1.35,0,0,0-.38-1,3.4,3.4,0,0,0-1.42-.73l-2-.64A4.23,4.23,0,0,1,51,33.05a3.34,3.34,0,0,1-.71-2,3.23,3.23,0,0,1,.38-1.57,3.74,3.74,0,0,1,1-1.15,4.33,4.33,0,0,1,1.47-.74A6.12,6.12,0,0,1,55,27.3a7.42,7.42,0,0,1,.94.06c.33,0,.63.1.92.15s.55.14.81.23a3.15,3.15,0,0,1,.59.25,1.19,1.19,0,0,1,.42.36.7.7,0,0,1,.13.46v.67c0,.29-.11.45-.32.45a1.51,1.51,0,0,1-.54-.17,6.4,6.4,0,0,0-2.71-.55,3.74,3.74,0,0,0-1.88.39,1.36,1.36,0,0,0-.66,1.26,1.31,1.31,0,0,0,.42,1,4.13,4.13,0,0,0,1.55.78l2,.64a4.25,4.25,0,0,1,2.19,1.35,3.2,3.2,0,0,1,.65,2,3.63,3.63,0,0,1-.37,1.64,3.72,3.72,0,0,1-1,1.24,4.55,4.55,0,0,1-1.57.79,6.62,6.62,0,0,1-2,.3Z"/><path class="cls-60" d="M57.16,47.44C52.51,50.88,45.76,52.7,40,52.7a31.14,31.14,0,0,1-21-8c-.43-.4,0-.93.48-.62a42.42,42.42,0,0,0,21,5.58,42,42,0,0,0,16-3.28C57.26,46,57.92,46.88,57.16,47.44Z"/><path class="cls-60" d="M59.1,45.24c-.6-.76-3.93-.37-5.44-.18-.45,0-.52-.34-.11-.64,2.65-1.86,7-1.33,7.52-.7s-.14,5-2.62,7.09c-.38.32-.75.15-.58-.27.56-1.4,1.82-4.55,1.23-5.3Z"/></g></g></g><g id="data_ana_ystics" data-name="data ana;ystics"><circle class="cls-18" cx="40" cy="40" r="38.52"/><path class="cls-61" d="M46.32,27.79c.48-.18.58-.15.89.26A13.35,13.35,0,0,1,49.82,34c0,.21.11.27.32.27h3a.53.53,0,0,1,.59.39.49.49,0,0,1-.52.62c-.45,0-.9,0-1.35,0H50.22c-.18,0-.23,0-.22.22,0,.75,0,.75.77.75h4.82c.29,0,.51.08.59.39s-.16.62-.58.62c-1.38,0-2.75,0-4.12,0-.43,0-.85,0-1.28,0-.16,0-.21.05-.23.21-.1.76-.11.76.68.76h2.53c.41,0,.67.27.6.59s-.29.42-.6.42c-1,0-2.1,0-3.14,0-.25,0-.35.07-.4.31a13.2,13.2,0,0,1-2.45,5.12c-.11.15-.15.24,0,.39.5.48,1,1,1.48,1.47.11.12.18.14.32,0a.86.86,0,0,1,1.22.09c1.57,1.55,3.12,3.11,4.68,4.67a.56.56,0,0,1,.07.79c-.38.21-.52.19-.82-.11-.49-.48-1-1-1.45-1.45-.12-.13-.2-.13-.32,0-.3.33-.62.64-.93,1l-.91.89c-.1.09-.13.16,0,.27l3.4,3.4c.09.09.15.11.25,0,.3-.33.62-.65.93-1l.78-.75c.31-.31.31-.31,0-.62s-.34-.47-.12-.86a.62.62,0,0,1,.82.12c.86.78.9,1.27,0,2.08-.6.55-1.17,1.15-1.75,1.73a1,1,0,0,1-1.61,0l-6.47-6.47a.93.93,0,0,1-.17-1.42c.1-.16,0-.2-.09-.27-.48-.49-1-1-1.45-1.46-.16-.17-.25-.13-.41,0a13.45,13.45,0,0,1-4.37,2.25,8.13,8.13,0,0,1-1.18.29c-.32,0-.36.18-.36.45,0,1,0,1.91,0,2.87,0,.41-.17.63-.49.63s-.52-.22-.52-.63c0-1,0-1.89,0-2.84,0-.24-.07-.27-.28-.25-.69.07-.69.06-.69.75v4.62a1.07,1.07,0,0,1,0,.4.49.49,0,0,1-.52.34.47.47,0,0,1-.45-.44c0-.11,0-.22,0-.34,0-1.65,0-3.3,0-5,0-.26-.07-.34-.33-.35-.66-.05-.66-.06-.66.58v2.5c0,.41-.18.62-.5.62s-.51-.22-.51-.61c0-1,0-2,0-3,0-.24-.07-.31-.3-.36a13.55,13.55,0,0,1-9.41-7.4,12.88,12.88,0,0,1-1.3-4.5c0-.07,0-.17-.08-.21V35.11c.09,0,.07-.11.07-.17a12.62,12.62,0,0,1,.6-2.79A13.58,13.58,0,0,1,33.8,22.92a14,14,0,0,0,1.44-.24h2.3a4.53,4.53,0,0,0,1.1.19,13.67,13.67,0,0,1,6.85,3.31.57.57,0,0,1,.09.81.65.65,0,0,1-.87-.14A12.31,12.31,0,0,0,39.22,24a12,12,0,0,0-4.85-.19A12.33,12.33,0,0,0,26.9,28a12.15,12.15,0,0,0-3,10.55,12.36,12.36,0,0,0,7,9.28A12,12,0,0,0,35.71,49a11.51,11.51,0,0,0,3.51-.34,3.88,3.88,0,0,0,.49-.11A12.66,12.66,0,0,0,49,35.34a12.41,12.41,0,0,0-2.58-6.7A.65.65,0,0,1,46.32,27.79Zm4.39,23,1-1c.24-.24,0-.34-.15-.4s-.24-.57-.56-.31-.65.65-1,1a10.92,10.92,0,0,0-.9.9c-.26.34.22.39.33.59s.16.35.38.12S50.41,51.08,50.71,50.78Zm-1.43-1.44.49-.46c.69-.69.68-.69-.08-1.34-.11-.1-.17-.09-.27,0l-1,1-.39.37c-.2.22-.59.41-.58.66s.4.45.61.68.17.14.29,0C48.68,49.94,49,49.64,49.28,49.34Zm-3-3.64a6,6,0,0,1-.44.48c-.15.14-.16.23,0,.38.36.34.7.69,1,1,.55.55.54.55,1.07,0,.13-.14.13-.22,0-.35-.48-.46-.94-.94-1.41-1.41A.36.36,0,0,0,46.28,45.7Z"/><path class="cls-62" d="M46.32,27.79a.65.65,0,0,0,.06.85A12.41,12.41,0,0,1,49,35.34a12.66,12.66,0,0,1-9.25,13.21,3.88,3.88,0,0,1-.49.11c0-.12.12-.12.2-.15a12.81,12.81,0,0,0,4.33-3c.09-.09.22-.17.19-.33.18-.17.36-.34.53-.52a11.65,11.65,0,0,0-.53-17.17c0-.14-.08-.22-.16-.31a14.67,14.67,0,0,0-1.08-1,12.61,12.61,0,0,0-2.83-1.78c-.22-.1-.49-.14-.65-.37a12.31,12.31,0,0,1,5.49,2.81.65.65,0,0,0,.87.14A3.31,3.31,0,0,1,46.32,27.79Z"/><path class="cls-63" d="M55.77,52.88c-.22.39-.2.54.12.86s.3.31,0,.62l-.78.75A1,1,0,0,0,55,55l-3.34-3.34a.32.32,0,0,0-.22-.13c.31-.32.63-.63.93-1,.12-.13.2-.13.32,0,.48.49,1,1,1.45,1.45.3.3.44.32.82.11Z"/><path class="cls-64" d="M43.94,45.2c0,.16-.1.24-.19.33a12.81,12.81,0,0,1-4.33,3c-.08,0-.19,0-.2.15a11.51,11.51,0,0,1-3.51.34,12,12,0,0,1-4.77-1.21,12.36,12.36,0,0,1-7-9.28A12.15,12.15,0,0,1,26.9,28a12.33,12.33,0,0,1,7.47-4.11,12,12,0,0,1,4.85.19c.16.23.43.27.65.37a12.61,12.61,0,0,1,2.83,1.78,14.67,14.67,0,0,1,1.08,1c.08.09.19.17.16.31l-.08-.05a11.43,11.43,0,0,0-8.62-2.69,11,11,0,0,0-6.8,3.09,11.47,11.47,0,0,0-3.66,9.74A11,11,0,0,0,27.57,44c.29.33.48.34.83.08.17.35.55.51.77.81a.62.62,0,0,0,.25.82,11.71,11.71,0,0,0,14.52-.52Z"/><path class="cls-65" d="M51.45,51.51a.32.32,0,0,1,.22.13L55,55a1,1,0,0,1,.09.13c-.31.32-.63.64-.93,1-.1.1-.16.08-.25,0l-3.4-3.4c-.11-.11-.08-.18,0-.27Z"/><path class="cls-64" d="M46.28,45.7a.36.36,0,0,1,.27.13c.47.47.93,1,1.41,1.41.13.13.13.21,0,.35-.53.56-.52.56-1.07,0-.35-.35-.69-.7-1-1-.16-.15-.15-.24,0-.38A6,6,0,0,0,46.28,45.7Z"/><path class="cls-65" d="M49.28,49.34c-.3.3-.6.6-.89.92-.12.12-.19.1-.29,0s-.59-.41-.61-.68.38-.44.58-.66l.39-.37A2.06,2.06,0,0,1,49.28,49.34Z"/><path class="cls-66" d="M49.28,49.34a2.06,2.06,0,0,0-.82-.81l1-1c.1-.1.16-.11.27,0,.76.65.77.65.08,1.34Z"/><path class="cls-67" d="M50,50.08c.32-.32.62-.68,1-1s.39.19.56.31.39.16.15.4l-1,1A3.32,3.32,0,0,0,50,50.08Z"/><path class="cls-68" d="M50,50.08a3.32,3.32,0,0,1,.7.7c-.3.3-.6.6-.89.91s-.32,0-.38-.12-.59-.25-.33-.59A10.92,10.92,0,0,1,50,50.08Z"/><path class="cls-69" d="M28.4,44.09c-.35.26-.54.25-.83-.08a11,11,0,0,1-2.79-6.41,11.47,11.47,0,0,1,3.66-9.74,11,11,0,0,1,6.8-3.09,11.43,11.43,0,0,1,8.62,2.69l.08.05a11.65,11.65,0,0,1,.53,17.17c-.17.18-.35.35-.53.52a11.71,11.71,0,0,1-14.52.52.62.62,0,0,1-.25-.82.6.6,0,0,1,.82,0,10.73,10.73,0,0,0,5,2,9.45,9.45,0,0,0,3.67-.18h.14a10.3,10.3,0,0,0,7.9-8.14A10.2,10.2,0,0,0,43,28.08,9.45,9.45,0,0,0,38.68,26l-.22-.07A10.71,10.71,0,0,0,25.81,37.8a10,10,0,0,0,2.48,5.5A.58.58,0,0,1,28.4,44.09Z"/><path class="cls-70" d="M38.68,46.71a9.45,9.45,0,0,1-3.67.18,10.73,10.73,0,0,1-5-2,.6.6,0,0,0-.82,0c-.22-.3-.6-.46-.77-.81a.58.58,0,0,0-.11-.79,10,10,0,0,1-2.48-5.5A10.71,10.71,0,0,1,38.46,25.93l.22.07c0,.19.23.21.36.27a10.58,10.58,0,0,1,3.08,2.12,11.3,11.3,0,0,1,2.61,4,11,11,0,0,1,.75,4A11.31,11.31,0,0,1,42.41,44a10.81,10.81,0,0,1-2.91,2.19C39.22,46.37,38.86,46.4,38.68,46.71ZM36.53,37.1h6.95a2.08,2.08,0,0,0,.43,0,.45.45,0,0,0,.37-.49.44.44,0,0,0-.39-.47,1.5,1.5,0,0,0-.47,0c-.27,0-.32-.08-.32-.32,0-.79,0-1.58,0-2.36s-.27-1-1-1c-.92,0-1.84,0-2.76,0-.27,0-.34-.08-.34-.34,0-1.27,0-2.54,0-3.81,0-.72-.27-1-1-1H34.88a.79.79,0,0,0-.89.89c0,.46,0,.93,0,1.39,0,.24-.08.29-.31.29H31c-.77,0-1,.25-1,1,0,1.6,0,3.2,0,4.79,0,.35-.08.45-.43.43-.53,0-.76.14-.76.48s.24.52.78.52Zm1.74,3.14c.24.62.47,1.16.67,1.72a.61.61,0,0,0,.67.44h2.46c.4,0,.62-.18.62-.5s-.22-.51-.61-.51h-2a.31.31,0,0,1-.35-.23c-.3-.8-.61-1.59-.92-2.38-.1-.27-.23-.48-.54-.48s-.43.21-.53.48c-.41,1.15-.84,2.29-1.27,3.44,0,.1,0,.24-.18.32l-1-2.74c-.08-.23-.2-.42-.48-.44a.54.54,0,0,0-.55.36c-.25.48-.54.94-.78,1.42a.41.41,0,0,1-.45.25H31.1c-.39,0-.63.19-.63.5s.23.51.62.51h2.43a.65.65,0,0,0,.65-.39c.15-.29.32-.58.51-.91,0,.12.07.18.09.24l1,2.85c.14.37.4.5.7.38a.62.62,0,0,0,.33-.41C37.28,42.88,37.76,41.6,38.27,40.24Z"/><path class="cls-71" d="M38.68,46.71c.18-.31.54-.34.82-.49A10.81,10.81,0,0,0,42.41,44a11.31,11.31,0,0,0,3.07-7.68,11,11,0,0,0-.75-4,11.3,11.3,0,0,0-2.61-4A10.58,10.58,0,0,0,39,26.27c-.13-.06-.31-.08-.36-.27A9.45,9.45,0,0,1,43,28.08a10.2,10.2,0,0,1,3.71,10.48,10.3,10.3,0,0,1-7.9,8.14Z"/><path class="cls-72" d="M36.53,37.1h-7c-.54,0-.79-.16-.78-.52s.23-.52.76-.48c.35,0,.43-.08.43-.43,0-1.59,0-3.19,0-4.79,0-.75.25-1,1-1h2.73c.23,0,.32-.05.31-.29,0-.46,0-.93,0-1.39a.79.79,0,0,1,.89-.89h3.21c.7,0,1,.27,1,1,0,1.27,0,2.54,0,3.81,0,.26.07.34.34.34.92,0,1.84,0,2.76,0,.69,0,1,.27,1,1s0,1.57,0,2.36c0,.24,0,.35.32.32a1.5,1.5,0,0,1,.47,0,.44.44,0,0,1,.39.47.45.45,0,0,1-.37.49,2.08,2.08,0,0,1-.43,0Zm4-1,1.27,0c.18,0,.24-.06.24-.23q0-1.08,0-2.16c0-.17-.06-.24-.24-.23l-1.28,0-1.3,0c-.17,0-.21.07-.21.22v2.18c0,.16,0,.23.21.23A11.51,11.51,0,0,0,40.58,36.06Zm-8.11-5.15c-.43,0-.87,0-1.31,0-.2,0-.21.11-.21.26V35.8c0,.14,0,.3.21.29l1.31,0,1.31,0c.16,0,.21-.07.21-.23q0-2.37,0-4.74c0-.18-.07-.23-.24-.23C33.33,30.91,32.9,30.91,32.47,30.91Zm4.05,5.16c.4,0,.81,0,1.21,0s.32-.07.32-.32c0-1.54,0-3.08,0-4.62V28.6c0-.13,0-.29-.19-.28a12,12,0,0,0-1.34,0c-.39,0-.79,0-1.18,0s-.34.08-.34.34q0,3.56,0,7.09v.14c0,.14.06.2.2.2Z"/><path class="cls-61" d="M38.27,40.24c-.51,1.36-1,2.64-1.46,3.92a.62.62,0,0,1-.33.41c-.3.12-.56,0-.7-.38l-1-2.85c0-.06-.05-.12-.09-.24-.19.33-.36.62-.51.91a.65.65,0,0,1-.65.39H31.09c-.39,0-.62-.2-.62-.51s.24-.5.63-.5h1.95a.41.41,0,0,0,.45-.25c.24-.48.53-.94.78-1.42a.54.54,0,0,1,.55-.36c.28,0,.4.21.48.44l1,2.74c.14-.08.14-.22.18-.32.43-1.15.86-2.29,1.27-3.44.1-.27.23-.48.53-.48s.44.21.54.48c.31.79.62,1.58.92,2.38a.31.31,0,0,0,.35.23h2c.39,0,.62.19.61.51s-.22.5-.62.5H39.61a.61.61,0,0,1-.67-.44C38.74,41.4,38.51,40.86,38.27,40.24Z"/><path class="cls-66" d="M36.52,28.35a12,12,0,0,1,1.34,0c.22,0,.19.15.19.28v2.56c0,1.54,0,3.08,0,4.62,0,.25-.07.34-.32.32s-.81,0-1.21,0Z"/><path class="cls-65" d="M36.52,28.35v7.72l-1.31,0c-.14,0-.21-.06-.2-.2v-.14q0-3.54,0-7.09c0-.26.07-.35.34-.34S36.13,28.34,36.52,28.35Z"/><path class="cls-73" d="M32.47,36.07l-1.31,0c-.24,0-.21-.15-.21-.29V31.15c0-.15,0-.27.21-.26.44,0,.88,0,1.31,0Z"/><path class="cls-74" d="M32.47,36.07V30.91c.43,0,.86,0,1.28,0,.17,0,.24.05.24.23q0,2.37,0,4.74c0,.16-.05.23-.21.23Z"/><path class="cls-68" d="M40.58,36.06a11.51,11.51,0,0,1-1.31,0c-.16,0-.21-.07-.21-.23V33.68c0-.15,0-.23.21-.22l1.3,0Z"/><path class="cls-67" d="M40.58,36.06V33.48l1.28,0c.18,0,.24.06.24.23q0,1.08,0,2.16c0,.17-.06.24-.24.23Z"/></g><g id="tv_app_development" data-name="tv app development"><circle class="cls-23" cx="40" cy="40" r="38.52"/><path class="cls-69" d="M58.6,50.18a1,1,0,0,1-.87.33c-.52,0-1,0-1.56,0-.21,0-.26.06-.26.26,0,.74,0,.74.73.74h.76c.43,0,.63.19.65.61s0,.87,0,1.3a.56.56,0,0,1-.59.6,2.81,2.81,0,0,1-.29,0H22.88c-.72,0-.86-.14-.86-.87,0-.31,0-.63,0-.94,0-.51.2-.7.7-.7h2c.19,0,.24,0,.24-.24,0-.76,0-.76-.74-.76h-2c-.59,0-.76-.17-.76-.75V26.84c0-.61.18-.79.81-.79H33.12a.63.63,0,0,1,.72.55c-.14.46-.25.54-.76.54H23c-.32,0-.42.06-.42.4q0,9.41,0,18.81c0,.12,0,.24,0,.36s.08.08.14.08l6.81,0h4.06l.25,0H57.17c.32,0,.34-.12.34-.38V32.87c0-.52.09-.65.56-.78a.77.77,0,0,1,.53.4ZM40,47.87H23.62c-.34,0-.77-.15-1,0s-.06.67-.08,1,0,.46.47.46H56.41c.35,0,.8.15,1-.06s0-.69.08-1-.1-.44-.44-.43C51.39,47.88,45.72,47.87,40,47.87Zm.39,3.63c4,0,8,0,12,0,.33,0,.44-.09.39-.4a.54.54,0,0,1,0-.18c.06-.35-.07-.44-.43-.44H28.65c-.62,0-.6,0-.62.63,0,.31.07.38.37.37ZM40,52.93H56.82c.13,0,.15-.09.15-.2a.13.13,0,0,0-.15-.15H23.25c-.11,0-.15.05-.15.16s0,.19.15.19H40ZM26,51c0,.51,0,.49.56.52s.3-.39.35-.63c.1-.51-.29-.34-.55-.38C26,50.42,26,50.73,26,51Zm28.79,0c0-.18.15-.54-.32-.46-.23,0-.66-.2-.57.34,0,.24-.24.68.35.65S54.83,51.49,54.83,51Z"/><path class="cls-69" d="M40.79,26.6a.63.63,0,0,1,.72-.55H57.88a.71.71,0,0,1,.72.43v3.91c-.17.13-.3.31-.53.33-.46-.12-.56-.25-.56-.73,0-.86,0-1.71,0-2.57,0-.18,0-.28-.24-.28l-4.12,0a0,0,0,0,0-.06,0H49l-3.24,0-3.64,0c-.22,0-.43,0-.65,0A.61.61,0,0,1,40.79,26.6Z"/><path class="cls-75" d="M58.07,30.72c.23,0,.36-.2.53-.33v2.1a.77.77,0,0,0-.53-.4Z"/><path class="cls-76" d="M40.79,26.6a.61.61,0,0,0,.71.55c.22,0,.43,0,.65,0l-.09.11c-1.32,1.28-2.63,2.59-3.91,3.91a1.68,1.68,0,0,0-1.42-.57c-.89,0-1.78,0-2.68,0a1.46,1.46,0,0,0-1.61,1.62c0,.88,0,1.76,0,2.64A1.75,1.75,0,0,0,33,36.33c-.12.1-.24.2-.35.31-.55.52-1.05,1.1-1.64,1.59a1.61,1.61,0,0,0-1.63-.88c-.88,0-1.77,0-2.65,0A1.44,1.44,0,0,0,25.15,39c0,.93,0,1.86,0,2.79a1.46,1.46,0,0,0,1,1.52.8.8,0,0,0-.37.28l-3.19,3.16c0-.12,0-.24,0-.36q0-9.41,0-18.81c0-.34.1-.41.42-.4H33.08c.51,0,.62-.08.76-.54h1.37c.14.44.25.53.72.53H38.7c.47,0,.58-.09.72-.53Zm-15.64,7c0,.52,0,1,0,1.56a1.37,1.37,0,0,0,1.4,1.43c1.05,0,2.11,0,3.15,0a1.38,1.38,0,0,0,1.41-1.47q0-1.5,0-3a1.41,1.41,0,0,0-1.48-1.49h-3a1.42,1.42,0,0,0-1.48,1.45C25.14,32.57,25.15,33.07,25.15,33.58Z"/><path class="cls-69" d="M39.42,26.61c-.14.44-.25.53-.72.53H35.93c-.47,0-.58-.09-.72-.53.13-.44.27-.55.71-.55h2.79C39.15,26.06,39.29,26.17,39.42,26.61Z"/><path class="cls-77" d="M58.07,30.72v1.37c-.47.13-.56.26-.56.78V46.42c0,.26,0,.38-.34.38H33.83l-.25,0c1-1,2.05-2.07,3.07-3.1.1-.1.24-.18.27-.34,1-.1,1.35-.46,1.52-1.48l1.29-1.23c0,.41,0,.82,0,1.23a1.39,1.39,0,0,0,1.44,1.47c1,0,2.05,0,3.08,0a1.38,1.38,0,0,0,1.44-1.44c0-1,0-2.05,0-3.07a1.41,1.41,0,0,0-1.47-1.46H43c.18-.27.49-.44.65-.73l.68,0a1.4,1.4,0,0,0,1.37-1.39c0-.2,0-.4,0-.6a.09.09,0,0,0,0-.06,1,1,0,0,0,.19-.16l7-7c.06-.06.11-.13.16-.19l.06,0,4.12,0c.23,0,.24.1.24.28,0,.86,0,1.71,0,2.57C57.51,30.47,57.61,30.6,58.07,30.72ZM51.22,34a5.5,5.5,0,0,0-3.38,1.13c-.34.27-.41.58-.2.84s.52.27.86,0a4.55,4.55,0,0,1,5.43,0c.35.25.67.24.87,0s.13-.6-.22-.87A5.43,5.43,0,0,0,51.22,34Zm3,3.48a.69.69,0,0,0-.34-.53,4.48,4.48,0,0,0-3.44-.76,3.9,3.9,0,0,0-1.8.79c-.32.25-.4.54-.22.81s.49.3.83.08l.15-.1A3.3,3.3,0,0,1,52,37.33,3.43,3.43,0,0,1,53.3,38a.51.51,0,0,0,.58,0A.52.52,0,0,0,54.17,37.52Zm-3,.71a3.28,3.28,0,0,0-1.86.63c-.31.24-.4.54-.21.81a.54.54,0,0,0,.8.09,2.16,2.16,0,0,1,2.6,0,.54.54,0,1,0,.62-.88A3.26,3.26,0,0,0,51.19,38.23Z"/><path class="cls-78" d="M38.15,31.18c1.28-1.32,2.59-2.63,3.91-3.91l.09-.11,3.64,0,3.24,0a.44.44,0,0,1-.08.15L45.26,31a1.82,1.82,0,0,0-1.18-.36c-.92,0-1.85,0-2.78,0a1.44,1.44,0,0,0-1.55,1.56c0,.91,0,1.83,0,2.75a1.81,1.81,0,0,0,.37,1.21c-.61.65-1.23,1.29-1.9,1.88a1.65,1.65,0,0,0-1.48-.66c-.89,0-1.78,0-2.68,0A1.47,1.47,0,0,0,32.44,39c0,.92,0,1.83,0,2.75a1.6,1.6,0,0,0,.65,1.38c0,.16-.16.24-.26.34l-3.3,3.33-6.81,0c-.06,0-.12,0-.14-.08l3.19-3.16a.8.8,0,0,1,.37-.28,27.76,27.76,0,0,0,3.76,0A1.35,1.35,0,0,0,31.11,42c0-.58,0-1.16,0-1.73a8.85,8.85,0,0,0-.08-2c.59-.49,1.09-1.07,1.64-1.59.11-.11.23-.21.35-.31a2.1,2.1,0,0,0,1.1.26c.89,0,1.78,0,2.68,0A1.46,1.46,0,0,0,38.42,35c0-.87,0-1.74,0-2.6A2.19,2.19,0,0,0,38.15,31.18Z"/><path class="cls-79" d="M40,47.87c5.68,0,11.35,0,17,0,.34,0,.49.06.44.43s.15.81-.08,1-.67.06-1,.06H23c-.47,0-.48,0-.47-.46s-.15-.79.08-1,.64,0,1,0Z"/><path class="cls-80" d="M40.43,51.5h-12c-.3,0-.39-.06-.37-.37,0-.63,0-.63.62-.63H52.42c.36,0,.49.09.43.44a.54.54,0,0,0,0,.18c0,.31-.06.4-.39.4C48.45,51.49,44.44,51.5,40.43,51.5Z"/><path class="cls-81" d="M40,52.93H23.25c-.13,0-.15-.09-.15-.19s0-.16.15-.16H56.82a.13.13,0,0,1,.15.15c0,.11,0,.2-.15.2H40Z"/><path class="cls-78" d="M36.92,43.33c0,.16-.17.24-.27.34-1,1-2,2.07-3.07,3.1H31.12c1-1,2.05-2.07,3.07-3.1.1-.1.24-.18.26-.34Z"/><path class="cls-76" d="M34.45,43.33c0,.16-.16.24-.26.34-1,1-2,2.07-3.07,3.1h-1.6l3.3-3.33c.1-.1.24-.18.26-.34A2.51,2.51,0,0,0,34.45,43.33Z"/><path class="cls-81" d="M26,51c0-.25-.09-.56.36-.49.26,0,.65-.13.55.38-.05.24.21.65-.35.63S26,51.49,26,51Z"/><path class="cls-81" d="M54.83,51c0,.53,0,.51-.54.53s-.31-.41-.35-.65c-.09-.54.34-.3.57-.34C55,50.42,54.79,50.78,54.83,51Z"/><path class="cls-78" d="M53.09,27.2c-.05.06-.1.13-.16.19l-7,7a1,1,0,0,1-.19.16h0v-2.4c.1,0,.16-.1.22-.16l4.58-4.58a1.24,1.24,0,0,0,.17-.23h2.39S53.08,27.18,53.09,27.2Z"/><path class="cls-76" d="M50.7,27.16a1.24,1.24,0,0,1-.17.23L46,32c-.06.06-.12.15-.22.16A1.69,1.69,0,0,0,45.26,31L49,27.31a.44.44,0,0,0,.08-.15Z"/><path class="cls-76" d="M53.09,27.2s0,0,0,0a0,0,0,0,1,.06,0Z"/><path class="cls-69" d="M38.15,31.18a2.19,2.19,0,0,1,.28,1.18c0,.86,0,1.73,0,2.6a1.46,1.46,0,0,1-1.62,1.63c-.9,0-1.79,0-2.68,0a2.1,2.1,0,0,1-1.1-.26,1.75,1.75,0,0,1-.59-1.46c0-.88,0-1.76,0-2.64a1.46,1.46,0,0,1,1.61-1.62c.9,0,1.79,0,2.68,0A1.68,1.68,0,0,1,38.15,31.18Zm-4.28,4.29,3.07,0c.3,0,.4-.18.4-.44,0-1,0-2,0-2.93,0-.29-.13-.42-.41-.42h-3a.36.36,0,0,0-.41.4q0,1.5,0,3C33.53,35.31,33.61,35.49,33.87,35.47Z"/><path class="cls-69" d="M31,38.23a8.85,8.85,0,0,1,.08,2c0,.57,0,1.15,0,1.73a1.35,1.35,0,0,1-1.22,1.35,27.76,27.76,0,0,1-3.76,0,1.46,1.46,0,0,1-1-1.52c0-.93,0-1.86,0-2.79a1.44,1.44,0,0,1,1.6-1.61c.88,0,1.77,0,2.65,0A1.61,1.61,0,0,1,31,38.23Zm-1,1.1c0-.09,0-.17,0-.26,0-.58-.05-.63-.65-.63h-2.5c-.6,0-.64,0-.64.63V41.5c0,.73,0,.76.75.74l.14,0,2.52,0c.27,0,.38-.16.38-.42C30,41,30,40.16,30,39.33Z"/><path class="cls-69" d="M25.15,33.58c0-.51,0-1,0-1.52a1.42,1.42,0,0,1,1.48-1.45h3a1.41,1.41,0,0,1,1.48,1.49q0,1.5,0,3a1.38,1.38,0,0,1-1.41,1.47c-1,0-2.1,0-3.15,0a1.37,1.37,0,0,1-1.4-1.43C25.14,34.62,25.15,34.1,25.15,33.58Zm4.88,0c0-.49,0-1,0-1.48a.38.38,0,0,0-.44-.44h-2.9c-.3,0-.45.12-.45.43v2.93c0,.28.11.43.4.43h3a.37.37,0,0,0,.42-.42C30,34.59,30,34.11,30,33.62Z"/><path class="cls-69" d="M43,37.34h1.23a1.41,1.41,0,0,1,1.47,1.46c0,1,0,2,0,3.07a1.38,1.38,0,0,1-1.44,1.44c-1,0-2.05,0-3.08,0a1.39,1.39,0,0,1-1.44-1.47c0-.41,0-.82,0-1.23,0-.23,0-.46,0-.69a5,5,0,0,1,.15-1.84h0c.06,0,.07-.05.07-.1l.43-.42a.08.08,0,0,0,.09-.07h0a2.69,2.69,0,0,1,1.05-.16C42,37.36,42.52,37.35,43,37.34Zm-2.18,3h0v1.42c0,.41.08.49.49.5.94,0,1.88,0,2.83,0,.33,0,.48-.13.48-.47,0-1,0-1.91,0-2.86,0-.35-.16-.47-.49-.47-.94,0-1.89,0-2.83,0-.33,0-.49.13-.48.47S40.83,39.85,40.83,40.32Z"/><path class="cls-69" d="M34.45,43.33a2.51,2.51,0,0,1-1.37-.23,1.6,1.6,0,0,1-.65-1.38c0-.92,0-1.83,0-2.75a1.47,1.47,0,0,1,1.61-1.62c.9,0,1.79,0,2.68,0a1.65,1.65,0,0,1,1.48.66,3,3,0,0,1,.23,1.38v2.46c-.17,1-.54,1.38-1.52,1.48Zm1-1.09H36.8c.45,0,.53-.09.54-.53,0-.92,0-1.85,0-2.78,0-.33-.13-.49-.47-.49-1,0-1.91,0-2.86,0-.34,0-.49.15-.49.48q0,1.42,0,2.85c0,.34.16.48.5.47S35,42.24,35.43,42.24Z"/><path class="cls-69" d="M45.26,31a1.69,1.69,0,0,1,.47,1.16v2.4a0,0,0,0,0,0,.06c0,.2,0,.4,0,.6a1.4,1.4,0,0,1-1.37,1.39l-.68,0c-.82,0-1.64,0-2.45,0a1.78,1.78,0,0,1-1.1-.48,1.81,1.81,0,0,1-.37-1.21c0-.92,0-1.84,0-2.75a1.44,1.44,0,0,1,1.55-1.56c.93,0,1.86,0,2.78,0A1.82,1.82,0,0,1,45.26,31Zm-.65,2.46c0-.39,0-.78,0-1.18,0-.14.06-.31-.1-.43s-.22-.12-.35-.12H41.31c-.33,0-.48.13-.48.47,0,1,0,1.92,0,2.89,0,.09,0,.19.07.26s.19.17.32.17c.45,0,.9,0,1.35,0l1.66,0a.36.36,0,0,0,.4-.41C44.62,34.54,44.62,34,44.61,33.43Z"/><path class="cls-69" d="M51.22,34a5.43,5.43,0,0,1,3.36,1.11c.35.27.43.6.22.87s-.52.26-.87,0a4.55,4.55,0,0,0-5.43,0c-.34.25-.66.24-.86,0s-.14-.57.2-.84A5.5,5.5,0,0,1,51.22,34Z"/><path class="cls-69" d="M54.17,37.52a.52.52,0,0,1-.29.47.51.51,0,0,1-.58,0A3.43,3.43,0,0,0,52,37.33a3.3,3.3,0,0,0-2.66.48l-.15.1c-.34.22-.64.19-.83-.08s-.1-.56.22-.81a3.9,3.9,0,0,1,1.8-.79,4.48,4.48,0,0,1,3.44.76A.69.69,0,0,1,54.17,37.52Z"/><path class="cls-69" d="M51.19,38.23a3.26,3.26,0,0,1,2,.65.54.54,0,1,1-.62.88,2.16,2.16,0,0,0-2.6,0,.54.54,0,0,1-.8-.09c-.19-.27-.1-.57.21-.81A3.28,3.28,0,0,1,51.19,38.23Z"/><path class="cls-78" d="M38.44,41.85V39.39l1.14-1.11c.09-.08.16-.22.32-.19a5,5,0,0,0-.15,1.84c0,.23,0,.46,0,.69Z"/><path class="cls-78" d="M41.21,36.61c.81,0,1.63,0,2.45,0-.16.29-.47.46-.65.73-.49,0-1,0-1.48,0a2.69,2.69,0,0,0-1.05.16c0-.16.11-.22.19-.32A4.22,4.22,0,0,0,41.21,36.61Z"/><path class="cls-76" d="M45.73,34.59a0,0,0,0,1,0-.06h0A.09.09,0,0,1,45.73,34.59Z"/><path class="cls-76" d="M41.21,36.61a4.22,4.22,0,0,1-.54.58c-.08.1-.21.16-.19.32h0l-.09.07L40,38l-.07.1h0c-.16,0-.23.11-.32.19l-1.14,1.11A3,3,0,0,0,38.21,38c.67-.59,1.29-1.23,1.9-1.88A1.78,1.78,0,0,0,41.21,36.61Z"/><path class="cls-78" d="M33.87,35.47c-.26,0-.34-.16-.34-.37q0-1.5,0-3a.36.36,0,0,1,.41-.4h3c.28,0,.42.13.41.42a.36.36,0,0,0-.22.09C36,33.3,35,34.39,33.87,35.47Z"/><path class="cls-82" d="M33.87,35.47C35,34.39,36,33.3,37.1,32.21a.36.36,0,0,1,.22-.09c0,1,0,2,0,2.93,0,.26-.1.45-.4.44Z"/><path class="cls-83" d="M27.13,42.22l-.14,0c-.72,0-.75,0-.75-.74V39.07c0-.59,0-.63.64-.63h2.5c.6,0,.65.05.65.63,0,.09,0,.17,0,.26C29,40.27,28.07,41.23,27.13,42.22Z"/><path class="cls-84" d="M27.13,42.22c.94-1,1.9-1.95,2.89-2.89,0,.83,0,1.66,0,2.49,0,.26-.11.42-.38.42Z"/><path class="cls-85" d="M30,33.62c0,.49,0,1,0,1.45a.37.37,0,0,1-.42.42h-3c-.29,0-.4-.15-.4-.43V32.13c0-.31.15-.43.45-.43h2.9a.38.38,0,0,1,.44.44C30,32.63,30,33.13,30,33.62Z"/><path class="cls-86" d="M40.83,40.32c0-.47,0-.94,0-1.41s.15-.48.48-.47c.94,0,1.89,0,2.83,0,.33,0,.49.12.49.47,0,1,0,1.9,0,2.86,0,.34-.15.47-.48.47-.95,0-1.89,0-2.83,0-.41,0-.48-.09-.49-.5V40.32Z"/><path class="cls-78" d="M40.39,37.57l.09-.07A.08.08,0,0,1,40.39,37.57Z"/><path class="cls-78" d="M39.89,38.09,40,38S40,38.08,39.89,38.09Z"/><path class="cls-87" d="M35.43,42.24c-.47,0-.94,0-1.41,0s-.5-.13-.5-.47q0-1.43,0-2.85c0-.33.15-.48.49-.48,1,0,1.9,0,2.86,0,.34,0,.47.16.47.49,0,.93,0,1.86,0,2.78,0,.44-.09.53-.54.53Z"/><path class="cls-71" d="M40.9,35.32c-.09-.07-.07-.17-.07-.26,0-1,0-1.93,0-2.89,0-.34.15-.48.48-.47h2.86c.13,0,.26,0,.35.12a.61.61,0,0,0-.31.24c-.53.52-1.05,1-1.58,1.58S41.51,34.8,40.9,35.32Z"/><path class="cls-88" d="M40.9,35.32c.61-.52,1.15-1.12,1.73-1.68s1-1.06,1.58-1.58a.61.61,0,0,1,.31-.24c.16.12.1.29.1.43,0,.4,0,.79,0,1.18a.31.31,0,0,0-.24.13l-1.68,1.67a.3.3,0,0,0-.12.25c-.45,0-.9,0-1.35,0C41.09,35.49,41,35.48,40.9,35.32Z"/><path class="cls-71" d="M42.57,35.48a.3.3,0,0,1,.12-.25l1.68-1.67a.31.31,0,0,1,.24-.13c0,.56,0,1.11,0,1.66a.36.36,0,0,1-.4.41Z"/></g><circle class="cls-18" cx="40" cy="40" r="38.52"/><path class="cls-89" d="M27.67,54.59a.58.58,0,0,1-.6.57c-.8,0-1.6.05-2.4,0a2.86,2.86,0,0,1-2.53-2.79A1.31,1.31,0,0,1,23.36,51c.24,0,.32-.09.31-.33,0-1.24,0-2.47,0-3.71,0-.18,0-.27-.24-.33a1.69,1.69,0,0,1-1.29-1.72V25.51a1.72,1.72,0,0,1,1.73-1.8H48.75a2,2,0,0,1,1.47.49,1.81,1.81,0,0,1,.53,1.35c0,1,0,2,0,2.94,0,.3.09.36.37.35.52,0,1,0,1.56,0a.62.62,0,0,1,.73.56c-.11.46-.26.58-.73.59s-1.07,0-1.61,0c-.24,0-.32.07-.31.32q0,3.38,0,6.75c0,.3.1.35.37.35,1.2,0,2.39,0,3.59,0a2.24,2.24,0,0,1,2.11,1.11,2.79,2.79,0,0,1,.24,1.25V49.92c0,.33-.14.76.06,1s.65,0,1,.08.46-.05.46-.44q0-9.84,0-19.69v-.27A.55.55,0,0,0,58,30c-.44,0-.89,0-1.33,0l-.94,0c-.53,0-.65-.09-.81-.59a.57.57,0,0,1,.59-.55c.9,0,1.81,0,2.71,0a1.65,1.65,0,0,1,1.5,1.56c0,.15,0,.31,0,.46q0,9.79,0,19.61c0,.32,0,.48.42.51.6,0,.89.49,1.12,1v.91c-.12,0-.1.14-.12.22a2.87,2.87,0,0,1-2.78,2c-.33,0-.66,0-1,0s-.3.08-.3.3c0,.47,0,.95,0,1.42a2,2,0,0,1-1.93,2c-.67,0-1.34,0-2,0H45.65a2.13,2.13,0,0,1-2.36-2.35c0-.36,0-.71,0-1.07s-.06-.32-.31-.32c-1.13,0-2.27,0-3.4,0H30c-.56,0-.67-.08-.83-.58.17-.5.26-.56.84-.56,4.13,0,8.26,0,12.4,0,.21,0,.43,0,.65,0s.23-.07.23-.25c0-.44,0-.89,0-1.33,0-.26-.06-.34-.33-.34H23.7c-.4,0-.47.08-.39.48A1.72,1.72,0,0,0,25.05,54c.63,0,1.27,0,1.9,0C27.42,54,27.55,54.13,27.67,54.59ZM46.26,24.88l-.3,0H24.09c-.63,0-.8.18-.8.82v18.9c0,.83.12,1,.94,1H43.05c.18,0,.26-.05.24-.24s0-.23,0-.34c0-.54.08-.48-.5-.48H26.3c-.41,0-.83,0-1.25,0s-.69-.21-.69-.7V26.62c0-.49.2-.69.7-.7.94,0,1.88,0,2.82,0a.59.59,0,1,1,0,1.15c-.69,0-1.38,0-2.06,0-.24,0-.32.05-.32.31q0,7.83,0,15.64c0,.26.07.31.31.31H43c.26,0,.31-.08.31-.32q0-1.76,0-3.51a2.09,2.09,0,0,1,2.06-2.11l1,0c.23,0,.46,0,.68,0s.38-.08.38-.38c0-3,0-6,0-9,0-1,0-1-1-.93l-.57,0H30.93c-.56,0-.69-.09-.84-.57.17-.51.26-.57.83-.57h15l.46,0,1.33,0c.72,0,.87.15.87.87v10c0,.6,0,.57.61.6.36,0,.47-.07.47-.45,0-3.74,0-7.47,0-11.21a1.51,1.51,0,0,0,0-.3.56.56,0,0,0-.56-.57C48.11,24.84,47.19,24.81,46.26,24.88ZM53.9,38.55l-.3,0h-8c-.82,0-1.16.34-1.16,1.16v7.89c0,.51-.13.67-.6.77a.62.62,0,0,1-.55-.7c0-.18,0-.36,0-.54s-.06-.44-.42-.44H25.16c-.25,0-.36,0-.35.32,0,1.22,0,2.45,0,3.67,0,.26.09.31.32.31H43c.27,0,.37-.07.34-.34a.66.66,0,0,1,.54-.79c.49.14.6.27.6.77v5.87c0,1,.31,1.26,1.28,1.26h7.77l.42,0a5.43,5.43,0,0,0,1.14,0,.93.93,0,0,0,.86-.91V39.75c0-.11,0-.23,0-.34a.9.9,0,0,0-.85-.87C54.66,38.52,54.28,38.55,53.9,38.55Zm4.66,13.56H57.3c-.16,0-.26,0-.25.22,0,.5,0,1,0,1.49,0,.14.06.2.2.2a11.54,11.54,0,0,0,1.44,0,1.74,1.74,0,0,0,1.39-1.52c0-.24,0-.36-.31-.35Z"/><path class="cls-90" d="M56.81,38.48a2.24,2.24,0,0,0-2.11-1.11c-1.2,0-2.39,0-3.59,0-.27,0-.37,0-.37-.35q0-3.37,0-6.75c0-.25.07-.32.31-.32.54,0,1.07,0,1.61,0s.62-.13.73-.59h1.5c.16.5.28.58.81.59l.94,0a3.29,3.29,0,0,1,.23,1.49c0,2.18,0,4.36,0,6.55C56.88,38.18,56.93,38.34,56.81,38.48Z"/><path class="cls-91" d="M27.67,54.59c-.12-.46-.25-.57-.72-.57-.63,0-1.27,0-1.9,0a1.72,1.72,0,0,1-1.74-1.42c-.08-.4,0-.48.39-.48H43c.27,0,.34.08.33.34,0,.44,0,.89,0,1.33,0,.18,0,.26-.23.25s-.44,0-.65,0c-4.14,0-8.27,0-12.4,0-.58,0-.67.06-.84.56Z"/><path class="cls-92" d="M30.09,26.5c.15.48.28.57.84.57H45.77l.57,0V37.36l-1,0a2.09,2.09,0,0,0-2.06,2.11q0,1.75,0,3.51c0,.24,0,.32-.31.32H25.81c-.24,0-.31,0-.31-.31q0-7.82,0-15.64c0-.26.08-.31.32-.31.68,0,1.37,0,2.06,0a.61.61,0,0,0,.71-.57Zm6.35,14.23A5.69,5.69,0,1,0,30.76,35,5.71,5.71,0,0,0,36.44,40.73Z"/><path class="cls-93" d="M43.83,48.35c.47-.1.6-.26.6-.77V39.69c0-.82.34-1.16,1.16-1.16h8l.3,0a3.28,3.28,0,0,1,.23,1.55c0,1.22,0,2.43,0,3.65,0,.68,0,1.37,0,2L54,45.71a4.56,4.56,0,1,0-3.14,6.93,4.72,4.72,0,0,0,3.21-2.17c0,.17,0,.35,0,.53,0,1.7,0,3.39,0,5.09a3.62,3.62,0,0,1-.23,1.63l-.42,0H45.71c-1,0-1.28-.3-1.28-1.26V50.61c0-.5-.11-.63-.6-.77Zm6.33-7.83h1c.41,0,.65-.25.64-.59a.57.57,0,0,0-.63-.56H49.22a.59.59,0,0,0-.65.55.6.6,0,0,0,.64.6Z"/><path class="cls-94" d="M43.83,48.35v1.49a.66.66,0,0,0-.54.79c0,.27-.07.34-.34.34H25.13c-.23,0-.33,0-.32-.31,0-1.22,0-2.45,0-3.67,0-.29.1-.32.35-.32H42.87c.36,0,.46.11.42.44s0,.36,0,.54A.62.62,0,0,0,43.83,48.35Z"/><path class="cls-95" d="M30.09,26.5h-1.5a.61.61,0,0,0-.71-.58c-.94,0-1.88,0-2.82,0-.5,0-.7.21-.7.7V43.76c0,.49.19.69.69.7s.84,0,1.25,0H42.79c.58,0,.49-.06.5.48,0,.11,0,.23,0,.34s-.06.26-.24.24H24.23c-.82,0-.94-.12-.94-1V25.68c0-.64.17-.82.8-.82H46l.3,0a2.92,2.92,0,0,1,.08,1l-.46,0h-15C30.35,25.93,30.26,26,30.09,26.5Z"/><path class="cls-96" d="M56.81,38.48c.12-.14.07-.3.07-.44,0-2.19,0-4.37,0-6.55A3.29,3.29,0,0,0,56.65,30c.44,0,.89,0,1.33,0a.55.55,0,0,1,.58.57v.27q0,9.84,0,19.69c0,.39-.11.49-.46.44s-.77.15-1-.08-.06-.63-.06-1V39.73A2.79,2.79,0,0,0,56.81,38.48Z"/><path class="cls-97" d="M53.9,57.72a3.62,3.62,0,0,0,.23-1.63c0-1.7,0-3.39,0-5.09,0-.18,0-.36,0-.53a4.62,4.62,0,0,0,0-4.67c0-.68,0-1.37,0-2,0-1.22,0-2.43,0-3.65a3.28,3.28,0,0,0-.23-1.55c.38,0,.76,0,1.14,0a.9.9,0,0,1,.85.87c0,.11,0,.23,0,.34V56.82a.93.93,0,0,1-.86.91A5.43,5.43,0,0,1,53.9,57.72Z"/><path class="cls-98" d="M46.34,25.9a2.92,2.92,0,0,0-.08-1c.93-.07,1.85,0,2.78,0a.56.56,0,0,1,.56.57,1.51,1.51,0,0,1,0,.3c0,3.74,0,7.47,0,11.21,0,.38-.11.47-.47.45-.61,0-.61,0-.61-.6v-10c0-.72-.15-.87-.87-.87Z"/><path class="cls-99" d="M46.34,37.36V27.09c1-.1,1-.1,1,.93,0,3,0,6,0,9,0,.3-.08.41-.38.38S46.57,37.37,46.34,37.36Z"/><path class="cls-100" d="M58.56,52.11h1.21c.26,0,.33.11.31.35A1.74,1.74,0,0,1,58.69,54a11.54,11.54,0,0,1-1.44,0c-.14,0-.2-.06-.2-.2,0-.5,0-1,0-1.49,0-.19.09-.23.25-.22Z"/><path class="cls-101" d="M36.44,40.73a5.69,5.69,0,1,1,5.7-5.66A5.68,5.68,0,0,1,36.44,40.73Zm3.26-8.82c-.05-.06-.09-.12-.14-.17a4.55,4.55,0,0,0-6.66.46,4.49,4.49,0,0,0,.45,6.13,2.2,2.2,0,0,0,.27.26,4.53,4.53,0,0,0,6.08-6.68Z"/><path class="cls-101" d="M54.1,45.8a4.62,4.62,0,0,1,0,4.67,4.72,4.72,0,0,1-3.21,2.17A4.56,4.56,0,1,1,54,45.71ZM52.76,46a3.39,3.39,0,1,0-4.59,4.91,3,3,0,0,0,2.3.66,3.23,3.23,0,0,0,2.85-2.1A3.19,3.19,0,0,0,52.76,46Z"/><path class="cls-89" d="M50.16,40.52h-.95a.6.6,0,0,1-.64-.6.59.59,0,0,1,.65-.55h1.91a.57.57,0,0,1,.63.56c0,.34-.23.57-.64.59Z"/><path class="cls-102" d="M33.35,38.33a4.49,4.49,0,0,1-.45-6.13,4.55,4.55,0,0,1,6.66-.46c0,.05.09.11.14.17A6.34,6.34,0,0,1,39.84,34a5.18,5.18,0,0,1-5.13,4.49C34.25,38.48,33.81,38.31,33.35,38.33Zm5.94-4.87a.58.58,0,0,0-1.06-.3l-1.9,2.44c-.27.35-.27.35-.58,0s-.5-.57-.76-.85-.62-.38-.89-.14-.26.56,0,.9c.46.53.92,1.05,1.39,1.57s.74.46,1.12,0l2.44-3.12A.88.88,0,0,0,39.29,33.46Z"/><path class="cls-103" d="M33.35,38.33c.46,0,.9.15,1.36.15A5.18,5.18,0,0,0,39.84,34a6.34,6.34,0,0,0-.14-2.08,4.53,4.53,0,0,1-6.08,6.68A2.2,2.2,0,0,1,33.35,38.33Z"/><path class="cls-102" d="M48.17,50.86A3.39,3.39,0,1,1,52.76,46v.11a3.9,3.9,0,0,1-1.59,4,3.5,3.5,0,0,1-2.43.71C48.55,50.76,48.33,50.68,48.17,50.86Zm4.21-3.79a.57.57,0,0,0-.35-.59.53.53,0,0,0-.65.17c-.3.36-.58.74-.87,1.1s-.37.66-.61.7-.41-.41-.64-.62l0,0a.57.57,0,0,0-.84-.1.57.57,0,0,0,0,.87c.34.39.67.77,1,1.14s.72.42,1.07,0l1.74-2.22A.66.66,0,0,0,52.38,47.07Z"/><path class="cls-103" d="M48.17,50.86c.16-.18.38-.1.57-.09a3.5,3.5,0,0,0,2.43-.71,3.9,3.9,0,0,0,1.59-4V46a3.19,3.19,0,0,1,.56,3.47,3.23,3.23,0,0,1-2.85,2.1A3,3,0,0,1,48.17,50.86Z"/><path class="cls-101" d="M39.29,33.46a.88.88,0,0,1-.2.47l-2.44,3.12c-.38.49-.7.5-1.12,0s-.93-1-1.39-1.57c-.3-.34-.31-.66,0-.9s.59-.2.89.14.51.57.76.85.31.35.58,0l1.9-2.44a.58.58,0,0,1,1.06.3Z"/><path class="cls-101" d="M52.38,47.07a.66.66,0,0,1-.18.39l-1.74,2.22c-.35.45-.68.46-1.07,0s-.67-.75-1-1.14a.57.57,0,0,1,0-.87.57.57,0,0,1,.84.1l0,0c.23.21.39.66.64.62s.41-.45.61-.7.57-.74.87-1.1a.53.53,0,0,1,.65-.17A.57.57,0,0,1,52.38,47.07Z"/></svg>