<svg id="Layer_1" data-name="Layer 1" xmlns="http://www.w3.org/2000/svg" viewBox="0 0 80 80"><defs><style>.cls-1{fill:#fbfadf;}.cls-2{fill:#d2dce9;}.cls-3{fill:#253758;}.cls-4{fill:#20345e;}.cls-5{fill:#294067;}.cls-6{fill:#2b4168;}.cls-7{fill:#0e1f44;}.cls-8{fill:#1d3156;}.cls-9{fill:#fcfdfd;}.cls-10{fill:#4f61ab;}.cls-11{fill:#223559;}.cls-12{fill:#24375c;}.cls-13{fill:#f2f6f9;}.cls-14{fill:#f5f8fa;}.cls-15{fill:#59679d;}</style></defs><circle class="cls-1" cx="40" cy="40" r="38.52"/><path class="cls-2" d="M25.81,28.81a6,6,0,0,0,1-.4c0,.24.12.32.35.25l1.16-.4c.22-.08.23-.21.1-.38a13.68,13.68,0,0,1,1.45-.22c0,.28.24.24.43.23a11.84,11.84,0,0,1,8.94,2.55,12,12,0,0,1,2.69,2.95A2.51,2.51,0,0,1,39.86,35l0,0-.09,0-.82.15-.24-.09a.48.48,0,0,0-.15-.29,8,8,0,0,0-2.63-2.3,8.47,8.47,0,0,0-9.42.56c-3.72,2.63-4.73,7.53-2.22,11.82A8.1,8.1,0,0,0,28,48.11,8.74,8.74,0,0,0,38.08,46a.65.65,0,0,1,.2,0c.83.5,1.73.89,2.59,1.34.48.25.49.25.19.68h0l-.09.09-.26.27a12.62,12.62,0,0,1-5,3.35,14,14,0,0,1-3.63.75l-.52,0-1.24-.06a.77.77,0,0,0-.42-.16,12,12,0,0,1-8.72-5.59,12.35,12.35,0,0,1,2-15.67,15.81,15.81,0,0,1,2.59-1.77c.11-.07.26-.12.24-.29S25.92,28.82,25.81,28.81Z"/><path class="cls-3" d="M65.37,40.93a11.85,11.85,0,0,1-1.53,5.48,11.39,11.39,0,0,1-3.52,4.06A12.79,12.79,0,0,1,53.51,53a3.93,3.93,0,0,0-1.74,0,11.94,11.94,0,0,1-6-2,11.48,11.48,0,0,1-1.36-1c-.13-.12-.39-.23-.19-.45s.32,0,.45.12a12.52,12.52,0,0,0,5.46,2.72c.6.12,1.22.17,1.84.26l-.27.14c.26,0,.41,0,.53-.12a.68.68,0,0,1,.4,0c.27.2.55,0,.83,0l-.15-.06a13.94,13.94,0,0,0,4.66-1.2A12.26,12.26,0,0,0,64.4,36.57a12.1,12.1,0,0,0-7.94-8A11.11,11.11,0,0,0,53.54,28c-4.51-.36-8,1.49-10.77,5-.11.14-.24.27-.36.4.05-.22-.15-.28-.26-.39a11.06,11.06,0,0,0,1.06-1.21,12.3,12.3,0,0,1,9.15-4.25,12.59,12.59,0,0,1,7.41,2.2,12.15,12.15,0,0,1,4.77,5.89,11.45,11.45,0,0,1,.83,4.18A1.77,1.77,0,0,0,65.37,40.93Z"/><path class="cls-3" d="M61.32,41.1a8.21,8.21,0,0,1-4,6.55,8.5,8.5,0,0,1-7.49.84,8.1,8.1,0,0,1-3.6-2.4c.07-.14.15-.25.32-.26a1.83,1.83,0,0,0,.13.16A8.31,8.31,0,0,0,57,47.34a7.75,7.75,0,0,0,3.1-3.43,8.06,8.06,0,0,0,.79-4.83,8.29,8.29,0,0,0-14.56-4.16c-.09.1-.24.19-.22.39a8.23,8.23,0,0,0,1.57-.1v.08a3.48,3.48,0,0,1-1.47.16c-.11,0-.2-.05-.19-.17.05-.39-.19-.21-.35-.18a8.44,8.44,0,0,1,3.57-2.88,7.51,7.51,0,0,1,2.5-.65,6,6,0,0,0,2,0,8.8,8.8,0,0,1,7.58,7.25c0,.21-.06.4,0,.61A3.12,3.12,0,0,0,61.32,41.1Z"/><path class="cls-4" d="M46.53,45.83c-.17,0-.25.12-.32.26l-.17,0c-.1-.11-.18,0-.29,0a6.87,6.87,0,0,1-.94.47,2,2,0,0,0-.92.6l0,0h0a1,1,0,0,0-.78.23,2.62,2.62,0,0,1-1.25.51c-.2,0-.3.21-.43.33-.11-.06-.2-.17-.33-.18.3-.43.29-.43-.19-.68-.86-.45-1.76-.84-2.59-1.34a.65.65,0,0,0-.2,0l-.44-.09c0-.06.08-.12,0-.19l-.08-.05a1.58,1.58,0,0,1-1.24-1.49c0-2.91,0-5.83,0-8.75,0-.25.09-.35.35-.3s.6.08.9.12a.77.77,0,0,0,.56,0l.12,0a.73.73,0,0,0,.41-.09l.24.09a.77.77,0,0,0,.82-.15l.09,0c.45.12.79-.17,1.18-.28s.56-.21.61-.57.13-.21.31-.12a9.55,9.55,0,0,0,1.9.86c.13,0,.25.12.37.16.39.1.75.42,1.19.2h.15c.12,0,.18-.06.16-.18h0c.16,0,.4-.21.35.18,0,.12.08.17.19.17a3.48,3.48,0,0,0,1.47-.16c.17,0,.17.15.16.28,0,.41,0,.83,0,1.24-.13.13-.07.29-.07.43v7c-.07,0-.14,0-.15.11s.06.13.15.14h0a.71.71,0,0,0-.17.56l-.09.1c-.2,0-.27.11-.32.27l-.07.07c-.07,0-.14,0-.18.07h-.07a.25.25,0,0,0-.26.16ZM36.76,40c0,1.31,0,2.63,0,3.94a1.26,1.26,0,0,0,.69,1.22c1.46.77,2.93,1.54,4.38,2.32a.47.47,0,0,0,.47,0l4.54-2.29a1.09,1.09,0,0,0,.64-1c0-2.54-.09-5.08.07-7.62.05-.82,0-.82-.8-.76h-.17a8.7,8.7,0,0,1-3.9-1,.93.93,0,0,0-1,0,7.42,7.42,0,0,1-4.55.87c-.32,0-.4.08-.4.38C36.77,37.33,36.76,38.66,36.76,40Z"/><path class="cls-5" d="M25.81,28.81c.11,0,.22,0,.24.18s-.13.22-.24.29a15.81,15.81,0,0,0-2.59,1.77,12.35,12.35,0,0,0-2,15.67A12,12,0,0,0,30,52.31a.77.77,0,0,1,.42.16l.08.07v.09a3.7,3.7,0,0,1-1.14-.13,1.1,1.1,0,0,0-.76,0,12.17,12.17,0,0,1-5.19-2.62A10.73,10.73,0,0,1,21.54,48a12.73,12.73,0,0,1,2-17.73A11.58,11.58,0,0,1,25.81,28.81Z"/><path class="cls-5" d="M42.15,33c.11.11.31.17.26.39v0h-.5a12,12,0,0,0-2.69-2.95,11.84,11.84,0,0,0-8.94-2.55c-.19,0-.4.05-.43-.23s.26-.18.42-.2a12.39,12.39,0,0,1,8.62,2.18A12.67,12.67,0,0,1,42.15,33Z"/><path class="cls-6" d="M30.45,52.54l-.08-.07,1.24.06c.26.2.55,0,.83,0l-.31-.06a14,14,0,0,0,3.63-.75,12.62,12.62,0,0,0,5-3.35l.26-.27.09-.09h0c.13,0,.22.12.33.18a12.5,12.5,0,0,1-6.71,4.3,10.09,10.09,0,0,1-3.45.38,12.21,12.21,0,0,1-2.68-.45,1.1,1.1,0,0,1,.76,0,3.7,3.7,0,0,0,1.14.13H31v-.09Z"/><path class="cls-3" d="M41.92,33.39h.48l-.33.57a11.63,11.63,0,0,0,3.32,1.34c-.44.22-.8-.1-1.19-.2-.12,0-.24-.13-.37-.16a9.55,9.55,0,0,1-1.9-.86c-.18-.09-.28-.09-.31.12s-.29.47-.61.57-.73.4-1.18.28l0,0A2.51,2.51,0,0,0,41.92,33.39Z"/><path class="cls-6" d="M28.41,27.88c.13.17.12.3-.1.38l-1.16.4c-.23.07-.35,0-.35-.25A3.31,3.31,0,0,1,28.41,27.88Z"/><path class="cls-3" d="M43.89,47.14a2,2,0,0,1,.92-.6,6.87,6.87,0,0,0,.94-.47c.11,0,.19-.12.29,0Z"/><path class="cls-3" d="M41.82,47.9a2.62,2.62,0,0,0,1.25-.51,1,1,0,0,1,.78-.23L42.3,48A.37.37,0,0,1,41.82,47.9Z"/><path class="cls-5" d="M53.76,31.58a6,6,0,0,1-2,0A6,6,0,0,1,53.76,31.58Z"/><path class="cls-6" d="M51.77,53a3.93,3.93,0,0,1,1.74,0A5.64,5.64,0,0,1,51.77,53Z"/><path class="cls-6" d="M61.32,41.1a3.12,3.12,0,0,1,0-1.66A4.63,4.63,0,0,1,61.32,41.1Z"/><path class="cls-7" d="M65.37,40.93a1.77,1.77,0,0,1,0-1.16A5.62,5.62,0,0,1,65.37,40.93Z"/><path class="cls-7" d="M53.27,52.59l.15.06c-.28,0-.56.17-.83,0Z"/><path class="cls-7" d="M52.19,52.61c-.12.16-.27.08-.53.12l.27-.14Z"/><path class="cls-3" d="M45.7,35.11c0,.12,0,.18-.16.18Z"/><path class="cls-5" d="M37.64,45.9l.44.09A8.74,8.74,0,0,1,28,48.11a8.1,8.1,0,0,1-3.71-3.2c-2.51-4.29-1.5-9.19,2.22-11.82a8.47,8.47,0,0,1,9.42-.56,8,8,0,0,1,2.63,2.3.48.48,0,0,1,.15.29.73.73,0,0,1-.41.09,7.46,7.46,0,0,0-2.7-2.39,8.06,8.06,0,0,0-8.88.64A8.31,8.31,0,0,0,33,48.35a8.83,8.83,0,0,0,4.47-2.28l.1-.11Z"/><path class="cls-3" d="M39.74,35.06a.77.77,0,0,1-.82.15Z"/><path class="cls-8" d="M32.13,52.51l.31.06c-.28,0-.57.16-.83,0Z"/><path class="cls-4" d="M41.06,48.05l-.09.09Z"/><path class="cls-9" d="M47.53,45.16l.09-.1c.11-.18.26-.33.25-.56h0a1.19,1.19,0,0,0,.07-.56c0-2.27,0-4.53,0-6.79,0-.53.12-1.06.08-1.6,0-.2,0-.42-.31-.33a8.23,8.23,0,0,1-1.57.1c0-.2.13-.29.22-.39a8.29,8.29,0,0,1,14.56,4.16,8.06,8.06,0,0,1-.79,4.83A7.75,7.75,0,0,1,57,47.34,8.31,8.31,0,0,1,46.66,46a1.83,1.83,0,0,1-.13-.16l.1-.09a.22.22,0,0,0,.26-.16H47c.09,0,.14,0,.18-.07l.07-.07A.39.39,0,0,0,47.53,45.16Zm4.21-4.58a1.32,1.32,0,0,0-1.35-1.37,1.34,1.34,0,0,0-1.34,1.24,1.31,1.31,0,0,0,1.35,1.36C51.28,41.77,51.65,41.47,51.74,40.58Zm4.2-.58c.06,0,.23.07.29,0s0-.3-.13-.41a1.07,1.07,0,0,0-1.13-.3.72.72,0,0,0-.63.67.68.68,0,0,0,.51.76c.19.08.39.13.58.21s.25.19.15.36a.3.3,0,0,1-.41.08c-.06,0-.09-.11-.14-.15a.52.52,0,0,0-.64,0c-.16.13,0,.35.16.48a1.22,1.22,0,0,0,1.46.08.7.7,0,0,0-.12-1.22,6.29,6.29,0,0,0-.65-.26c-.12-.05-.22-.12-.22-.27a.19.19,0,0,1,.15-.18.26.26,0,0,1,.33.09C55.59,40,55.73,40,55.94,40Zm-3.15-.74h0a1,1,0,0,1-.25,0c-.38-.07-.48.1-.46.47,0,.61,0,1.21,0,1.82,0,.23,0,.34.3.34s.37-.09.34-.35c-.06-.41,0-.66.53-.62a.77.77,0,0,0,.82-.81.81.81,0,0,0-.83-.84Z"/><path class="cls-6" d="M47.71,35.21c.31-.09.3.13.31.33,0,.54-.07,1.07-.08,1.6,0,2.26,0,4.52,0,6.79a1.19,1.19,0,0,1-.07.56V36.81c0-.41,0-.83,0-1.24,0-.13,0-.25-.16-.28Z"/><path class="cls-9" d="M37.48,46.07A8.83,8.83,0,0,1,33,48.35a8.31,8.31,0,0,1-6.32-14.89,8.06,8.06,0,0,1,8.88-.64,7.46,7.46,0,0,1,2.7,2.39l-.12,0-.56,0c-.3,0-.6-.07-.9-.12s-.35.05-.35.3c0,2.92,0,5.84,0,8.75a1.58,1.58,0,0,0,1.24,1.49l.08.05c0,.07,0,.13,0,.19l-.06.06Zm-5.2-4.48v-.33c-.2-.17-.44-.07-.66-.07s-.27-.08-.27-.29,0-.31.28-.28.22,0,.33,0,.25,0,.24-.22,0-.31-.23-.28-.25,0-.37,0-.24-.09-.25-.27.07-.27.26-.25.31,0,.46,0,.24-.09.24-.27-.06-.26-.25-.26a9.73,9.73,0,0,1-1.08,0c-.22,0-.28.07-.28.29,0,.71,0,1.43,0,2.15,0,.06,0,.14.08.16H32.2C32.26,41.69,32.3,41.66,32.28,41.59Zm-4.07-2.48-.08,0c0,.79-.08,1.58-.13,2.37,0,.17.07.21.22.2.32,0,.63,0,1,0a1.22,1.22,0,0,0,1.15-1,1.3,1.3,0,0,0-.58-1.46A2.66,2.66,0,0,0,28.21,39.11ZM33.85,41c-.21-.59-.41-1.07-.55-1.57s-.42-.27-.65-.34-.1.08-.07.16c.27.76.54,1.51.8,2.27.09.27.31.16.49.16s.35.1.44-.16c.25-.71.53-1.42.78-2.13,0-.06.11-.14,0-.22a.59.59,0,0,0-.67.23Z"/><path class="cls-10" d="M36.76,40c0-1.32,0-2.65,0-4,0-.3.08-.42.4-.38a7.42,7.42,0,0,0,4.55-.87.93.93,0,0,1,1,0,8.7,8.7,0,0,0,3.9,1h.17c.81-.06.85-.06.8.76-.16,2.54,0,5.08-.07,7.62a1.09,1.09,0,0,1-.64,1L42.3,47.47a.47.47,0,0,1-.47,0c-1.45-.78-2.92-1.55-4.38-2.32a1.26,1.26,0,0,1-.69-1.22C36.77,42.61,36.76,41.29,36.76,40Zm3.81.46h0l-.12-.08s0,0,0,0c0-.23.42-.12.33-.41.11-.41-.15-.61-.46-.73a1.15,1.15,0,0,0-1.34.32c-.33.13-.2.42-.18.64a.6.6,0,0,0,.65.56c-.16.18-.41.05-.49.26-.27.39.1.49.3.64a1.17,1.17,0,0,0,1.38-.07.76.76,0,0,0,.06-1Zm3.56-.61h0a1.16,1.16,0,0,1,.74.19h0c.15.27.4.1.6.14.16-.18.06-.34,0-.49a1.13,1.13,0,0,0-1.31-.52,1.28,1.28,0,0,0-1,1.09,3.3,3.3,0,0,0,.17,1.08c0,.18,0,.26.22.37.42.24.85.1,1.28.13a.61.61,0,0,0,.65-.58h0l.07-.1h0c.16-.11.13-.36,0-.34-.28,0-.6-.17-.83,0A.8.8,0,0,1,44,41h0A2.87,2.87,0,0,0,44,39.91h0C44.09,39.91,44.12,39.89,44.13,39.83Zm-2.89-.72c-.07,0-.15,0-.16.11,0,.84,0,1.67,0,2.51,0,.1.08,0,.13,0a3.76,3.76,0,0,0,1.53.07c.14,0,.07-.21.08-.32s-.08-.16-.19-.16a3.53,3.53,0,0,0-.46,0c-.23,0-.31-.06-.31-.3s.1-.26.3-.29.55.21.55-.23-.36-.2-.55-.24-.29,0-.29-.24.06-.31.28-.29.28,0,.41,0,.26-.07.27-.26-.09-.26-.27-.25H41.24v-.08h1.4A3.15,3.15,0,0,0,41.24,39.11Z"/><path class="cls-7" d="M47.86,36.81v7.68h-.08V37.24C47.79,37.1,47.73,36.94,47.86,36.81Z"/><path class="cls-3" d="M47.79,44.5h.08c0,.23-.14.38-.25.56A.71.71,0,0,1,47.79,44.5Z"/><path class="cls-3" d="M47.53,45.16a.39.39,0,0,1-.32.27C47.26,45.27,47.33,45.14,47.53,45.16Z"/><path class="cls-5" d="M37.59,35.24l.56,0A.77.77,0,0,1,37.59,35.24Z"/><path class="cls-3" d="M47.79,44.25v.25c-.09,0-.16,0-.15-.14S47.72,44.26,47.79,44.25Z"/><path class="cls-3" d="M46.89,45.58a.22.22,0,0,1-.26.16A.25.25,0,0,1,46.89,45.58Z"/><path class="cls-3" d="M47.14,45.5c0,.07-.09.11-.18.07S47.07,45.5,47.14,45.5Z"/><path class="cls-5" d="M37.67,45.71l-.08-.05Z"/><path class="cls-8" d="M30.45,52.54H31v.09h-.57Z"/><path class="cls-4" d="M37.48,46.07l.1-.11Z"/><path class="cls-11" d="M51.74,40.58c-.09.89-.46,1.19-1.34,1.23a1.31,1.31,0,0,1-1.35-1.36,1.34,1.34,0,0,1,1.34-1.24A1.32,1.32,0,0,1,51.74,40.58Zm-1.23.63c.34,0,.55-.21.58-.61a.72.72,0,0,0-.66-.8.69.69,0,0,0-.72.69C49.7,40.94,50,41.19,50.51,41.21Z"/><path class="cls-3" d="M55.94,40c-.21,0-.35,0-.44-.15a.26.26,0,0,0-.33-.09.19.19,0,0,0-.15.18c0,.15.1.22.22.27a6.29,6.29,0,0,1,.65.26A.7.7,0,0,1,56,41.69a1.22,1.22,0,0,1-1.46-.08c-.13-.13-.32-.35-.16-.48a.52.52,0,0,1,.64,0s.08.12.14.15a.3.3,0,0,0,.41-.08c.1-.17,0-.29-.15-.36s-.39-.13-.58-.21a.68.68,0,0,1-.51-.76.72.72,0,0,1,.63-.67,1.07,1.07,0,0,1,1.13.3c.1.11.21.26.13.41S56,40,55.94,40Z"/><path class="cls-8" d="M52.79,39.26h.46a.81.81,0,0,1,.83.84.77.77,0,0,1-.82.81c-.53,0-.59.21-.53.62,0,.26-.06.35-.34.35s-.31-.11-.3-.34c0-.61,0-1.21,0-1.82,0-.37.08-.54.46-.47a1,1,0,0,0,.25,0Zm.16.51c-.25-.08-.24.11-.24.3s0,.4.27.37.45-.06.44-.36S53.22,39.76,53,39.77Z"/><path class="cls-12" d="M28.21,39.11a2.66,2.66,0,0,1,1.53.16,1.3,1.3,0,0,1,.58,1.46,1.22,1.22,0,0,1-1.15,1c-.32,0-.63,0-1,0-.15,0-.23,0-.22-.2.05-.79.09-1.58.13-2.37v1.38h.08Zm.44,1.51c.08.14-.17.43.14.53a.77.77,0,0,0,.42-1.47c-.26-.08-.5-.15-.5.3C28.71,40.17,28.65,40.38,28.65,40.62Z"/><path class="cls-11" d="M33.85,41l.57-1.6a.59.59,0,0,1,.67-.23c.11.08,0,.16,0,.22-.25.71-.53,1.42-.78,2.13-.09.26-.29.17-.44.16s-.4.11-.49-.16c-.26-.76-.53-1.51-.8-2.27,0-.08,0-.2.07-.16s.54,0,.65.34S33.64,40.42,33.85,41Z"/><path class="cls-11" d="M32.28,41.35v.24l-.08.09H32a1.71,1.71,0,0,0-1.16,0c-.1,0-.08-.1-.08-.16,0-.72,0-1.44,0-2.15,0-.22.06-.3.28-.29a9.73,9.73,0,0,0,1.08,0c.19,0,.26.06.25.26s0,.29-.24.27-.31,0-.46,0-.27,0-.26.25,0,.29.25.27.25,0,.37,0,.23.11.23.28-.08.23-.24.22-.22,0-.33,0-.28.08-.28.28,0,.29.27.29.46-.1.66.07C32.22,41.3,32.23,41.32,32.28,41.35Zm-.82-.07v0h.38v0Z"/><path class="cls-7" d="M28.21,39.11v1.4h-.08V39.13Z"/><path class="cls-7" d="M30.79,41.68a1.71,1.71,0,0,1,1.16,0Z"/><path class="cls-7" d="M32.28,41.35c-.05,0-.06-.05,0-.09Z"/><path class="cls-7" d="M32.2,41.68l.08-.09C32.3,41.66,32.26,41.69,32.2,41.68Z"/><path class="cls-13" d="M40.41,40.35s0,0,0,0l.12.08h0l.09.08a.76.76,0,0,1-.06,1,1.17,1.17,0,0,1-1.38.07c-.2-.15-.57-.25-.3-.64.27,0,.57-.07.78.24a.27.27,0,0,0,.43-.08c.1-.18,0-.28-.18-.35s-.26-.09-.39-.14c-.65-.24-.76-.45-.62-1.13a1.15,1.15,0,0,1,1.34-.32c.31.12.57.32.46.73-.27,0-.58.07-.78-.24a.23.23,0,0,0-.36.06.22.22,0,0,0,.11.34Z"/><path class="cls-13" d="M43.31,41.34a3.3,3.3,0,0,1-.17-1.08,1.28,1.28,0,0,1,1-1.09,1.13,1.13,0,0,1,1.31.52c.1.15.2.31,0,.49-.15-.26-.41-.07-.6-.14h0c-.17-.37-.43-.38-.74-.19h0l-.1.08h0A.91.91,0,0,0,43.94,41h0a.55.55,0,0,0,.86,0c.21-.19.45-.12.67-.09s0,.16,0,.25h0l-.07.1h0A1.4,1.4,0,0,1,43.31,41.34Z"/><path class="cls-14" d="M41.24,39.19h1.32c.18,0,.27,0,.27.25s-.07.27-.27.26-.27,0-.41,0-.28.08-.28.29.13.21.29.24.55-.21.55.24-.36.21-.55.23-.29.07-.3.29.08.32.31.3a3.53,3.53,0,0,1,.46,0c.11,0,.19,0,.19.16s.06.32-.08.32a3.76,3.76,0,0,1-1.53-.07v-.17a.08.08,0,0,0,0-.08v-.67a.06.06,0,0,0,0-.07v-.34a.06.06,0,0,0,0-.08Z"/><path class="cls-15" d="M38.94,39.53c-.14.68,0,.89.62,1.13.13.05.27.08.39.14s.28.17.18.35a.27.27,0,0,1-.43.08c-.21-.31-.51-.19-.78-.24.08-.21.33-.08.49-.26a.6.6,0,0,1-.65-.56C38.74,40,38.61,39.66,38.94,39.53Z"/><path class="cls-15" d="M40.41,40.35l-.7-.25a.22.22,0,0,1-.11-.34A.23.23,0,0,1,40,39.7c.2.31.51.19.78.24C40.83,40.23,40.4,40.12,40.41,40.35Z"/><path class="cls-15" d="M41.22,41.51v.17c-.05,0-.13.15-.13,0,0-.84,0-1.67,0-2.51,0-.07.09-.1.16-.11h0v.08l0,1.08,0,0a.14.14,0,0,1,0,.06v.34l0,0,0,0v.67l0,0Z"/><path class="cls-15" d="M43.31,41.34a1.4,1.4,0,0,0,2.15-.08.61.61,0,0,1-.65.58c-.43,0-.86.11-1.28-.13C43.35,41.6,43.3,41.52,43.31,41.34Z"/><path class="cls-15" d="M45.52,41.17c0-.09.08-.23,0-.25s-.46-.1-.67.09A.55.55,0,0,1,44,41a.8.8,0,0,0,.78-.17c.23-.21.55,0,.83,0C45.65,40.81,45.68,41.06,45.52,41.17Z"/><path class="cls-15" d="M43.94,41A.91.91,0,0,1,44,39.91,2.87,2.87,0,0,1,43.94,41Z"/><path class="cls-15" d="M41.24,39.11a3.15,3.15,0,0,1,1.4,0Z"/><path class="cls-15" d="M44.13,39.84c.31-.19.57-.18.74.19A1.16,1.16,0,0,0,44.13,39.84Z"/><path class="cls-15" d="M44.88,40c.19.07.45-.12.6.14C45.28,40.14,45,40.31,44.88,40Z"/><path class="cls-15" d="M40.57,40.44l-.12-.08Z"/><path class="cls-15" d="M40.66,40.52l-.09-.08Z"/><path class="cls-15" d="M45.46,41.26l.07-.1Z"/><path class="cls-15" d="M44,39.91l.1-.08C44.12,39.89,44.09,39.91,44,39.91Z"/><path class="cls-13" d="M50.51,41.21c-.53,0-.81-.27-.8-.72a.69.69,0,0,1,.72-.69.72.72,0,0,1,.66.8C51.06,41,50.85,41.23,50.51,41.21Z"/><path class="cls-2" d="M53,39.77c.27,0,.46,0,.47.31s-.2.34-.44.36-.27-.18-.27-.37S52.7,39.69,53,39.77Z"/><path class="cls-13" d="M28.65,40.62c0-.24.06-.45.06-.64,0-.45.24-.38.5-.3a.77.77,0,0,1-.42,1.47C28.48,41.05,28.73,40.76,28.65,40.62Z"/><path class="cls-7" d="M31.46,41.28h.38v0h-.38Z"/><path class="cls-10" d="M41.21,40.35a.14.14,0,0,0,0-.06l0,0A.06.06,0,0,1,41.21,40.35Z"/><path class="cls-10" d="M41.21,40.76l0,0,0,0A.06.06,0,0,1,41.21,40.76Z"/><path class="cls-10" d="M41.22,41.51l0,0,0,0A.08.08,0,0,1,41.22,41.51Z"/></svg>