<svg id="Layer_1" data-name="Layer 1" xmlns="http://www.w3.org/2000/svg" viewBox="0 0 80 80"><defs><style>.cls-1{fill:#fbfadf;}.cls-2{fill:#ecf6fc;}.cls-3{fill:#020202;}.cls-4{fill:#020303;}.cls-5{fill:#060707;}.cls-6{fill:#060606;}.cls-7{fill:#fdb853;}.cls-8{fill:#fa5b5b;}.cls-9{fill:#60c84b;}.cls-10{fill:#2d9adf;}.cls-11{fill:#fc9f2c;}.cls-12{fill:#030302;}.cls-13{fill:#030201;}</style></defs><circle class="cls-1" cx="40" cy="40" r="38.52"/><circle class="cls-2" cx="40" cy="40" r="38.52"/><path class="cls-3" d="M56.74,30c-.19.14-.17.39-.27.58a2.47,2.47,0,0,1-3.12,1.18.4.4,0,0,0-.51.11c-.57.6-1.18,1.18-1.75,1.78a1.25,1.25,0,0,1-1,.4H43.93c.22.28.42.51.61.76a8.24,8.24,0,0,1,1.07,1.87.81.81,0,0,1-.35,1.18.83.83,0,0,1-1-.62A6.71,6.71,0,0,0,38.65,33a6.84,6.84,0,1,0-.93,13.63.87.87,0,0,1,.93.66c0,.58,0,1.15,0,1.73,0,.27,0,.34.33.34,2.37,0,4.73,0,7.1,0a1.12,1.12,0,0,1,1.14.67c.62,1.19,1.29,2.36,1.93,3.54.1.2.2.24.42.18a2.49,2.49,0,1,1,.93,4.86,2.51,2.51,0,0,1-2.72-2.46A2.25,2.25,0,0,1,48,55a.42.42,0,0,0,0-.43c-.66-1.17-1.31-2.35-1.94-3.54a.37.37,0,0,0-.37-.22h-6.8c-.29,0-.28.13-.28.33,0,2.16,0,4.31,0,6.47,0,.75-.24,1-1,1H34.79c-.64,0-.92-.29-.92-.93s0-1.2,0-1.8c0-.2,0-.3-.24-.36A14.93,14.93,0,0,1,29.78,54a.28.28,0,0,0-.4.07l-1.3,1.3a.79.79,0,0,1-1.3,0l-4.39-4.4a.78.78,0,0,1,0-1.29c.42-.43.84-.86,1.28-1.27a.3.3,0,0,0,.07-.43,14.76,14.76,0,0,1-1.58-3.81c-.06-.22-.17-.28-.39-.28-.6,0-1.2,0-1.8,0s-.9-.29-.9-.9V36.69a.79.79,0,0,1,.89-.91h1.84c.19,0,.29,0,.34-.23a15.52,15.52,0,0,1,1.61-3.88.26.26,0,0,0-.05-.37c-.45-.43-.88-.86-1.31-1.3a.78.78,0,0,1,0-1.29q2.19-2.21,4.39-4.4a.79.79,0,0,1,1.32,0c.43.42.86.84,1.27,1.28a.28.28,0,0,0,.41.06,14.84,14.84,0,0,1,3.84-1.59c.22-.06.26-.16.25-.36,0-.56,0-1.11,0-1.66A1.09,1.09,0,0,1,34.38,21h3.68a1,1,0,0,1,.59,1c0,2.13,0,4.27,0,6.4,0,.24,0,.33.31.33,2.25,0,4.49,0,6.73,0a.42.42,0,0,0,.43-.25c.62-1.15,1.25-2.29,1.89-3.44a.44.44,0,0,0,0-.49,2.5,2.5,0,0,1,.66-3A9.24,9.24,0,0,1,49.75,21h.89s0,.06,0,.06a2.48,2.48,0,1,1-1.15,4.81c-.22-.06-.29,0-.38.19-.65,1.18-1.32,2.35-1.94,3.53a1.09,1.09,0,0,1-1.08.65c-2.15,0-4.29,0-6.44,0-.34,0-.81-.15-1,.07s0,.68-.06,1c0,.19.06.25.24.27a7.92,7.92,0,0,1,2.89.9.87.87,0,0,0,.45.13h7.61a.55.55,0,0,0,.42-.17q.77-.8,1.56-1.56a.4.4,0,0,0,.11-.53,2.45,2.45,0,0,1,1.06-3,2.51,2.51,0,0,1,3.21.59A6.1,6.1,0,0,1,56.74,29ZM37.17,27c0-1.43,0-2.85,0-4.27,0-.22,0-.3-.28-.29-.42,0-.84,0-1.25,0-.23,0-.32,0-.31.3,0,.56,0,1.13,0,1.69a.76.76,0,0,1-.69.88,16,16,0,0,0-4.69,2,.78.78,0,0,1-1.15-.15c-.41-.4-.82-.81-1.22-1.22-.12-.13-.19-.13-.31,0L24,29.17c-.16.15-.13.23,0,.37.4.38.79.77,1.18,1.17s.46.67.15,1.17a15.65,15.65,0,0,0-1.93,4.69.77.77,0,0,1-.87.68c-.57,0-1.15,0-1.73,0-.2,0-.27.06-.27.27,0,1.53,0,3.06,0,4.6,0,.21.07.27.27.26h1.7c.54,0,.78.16.9.67a15.82,15.82,0,0,0,1.95,4.73.75.75,0,0,1-.15,1.11L24,50.1c-.12.12-.15.19,0,.32l3.3,3.31c.12.12.19.13.31,0,.41-.43.83-.84,1.25-1.25a.75.75,0,0,1,1.09-.14,15.77,15.77,0,0,0,4.76,2c.48.11.65.36.65.88s0,1.12,0,1.69c0,.22,0,.31.28.29a10.84,10.84,0,0,1,1.14,0c.32,0,.42-.05.42-.4,0-2.64,0-5.27,0-7.91,0-.73,0-.73-.71-.86a8.31,8.31,0,0,1,.38-16.43c.26,0,.34-.11.34-.38C37.16,29.79,37.17,28.39,37.17,27ZM51.3,23.49a1,1,0,1,0-1,1A1,1,0,0,0,51.3,23.49Zm-1,31.62a1,1,0,0,0-1,1,1,1,0,1,0,1-1Zm4-24.63a1,1,0,1,0-1-1A1,1,0,0,0,54.25,30.48Z"/><path class="cls-3" d="M56.74,50.69c-.2.18-.2.46-.32.68a2.53,2.53,0,0,1-3.21,1.05,2.46,2.46,0,0,1-1.29-3.13.44.44,0,0,0-.13-.56c-.51-.49-1-1-1.51-1.51a.66.66,0,0,0-.51-.21c-1.54,0-3.08,0-4.63,0-.52,0-.84-.27-.85-.7a.71.71,0,0,1,.73-.76h5.33a.94.94,0,0,1,.67.33c.62.63,1.25,1.24,1.86,1.87a.32.32,0,0,0,.41.1,2.48,2.48,0,0,1,3.39,1.81s0,.05.06.08Zm-2.48-1.56a1,1,0,0,0-1,1,1,1,0,0,0,2.06,0A1,1,0,0,0,54.26,49.13Z"/><path class="cls-4" d="M56.74,40.32c-.19.3-.26.67-.48,1A2.49,2.49,0,0,1,52,40.78a.33.33,0,0,0-.35-.24c-.6,0-1.2,0-1.8,0s-.84-.29-.85-.72.33-.74.86-.75h1.8a.29.29,0,0,0,.33-.2,2.49,2.49,0,0,1,2.39-1.56,2.52,2.52,0,0,1,2.33,1.87c0,.06,0,.15.08.17Zm-1.47-.52a1,1,0,1,0-1,1A1,1,0,0,0,55.27,39.8Z"/><path class="cls-5" d="M45.41,40.55c-.45-.14-.66-.39-.66-.75s.22-.62.66-.75c.51.06.79.32.81.73S45.94,40.49,45.41,40.55Z"/><path class="cls-6" d="M41.34,46.63a.74.74,0,0,1,.2-.92.75.75,0,0,1,1,.06.81.81,0,0,1,.11.82C42.38,47.13,41.76,47.15,41.34,46.63Z"/><path class="cls-7" d="M37.17,27c0,1.39,0,2.79,0,4.19,0,.27-.08.35-.34.38A8.31,8.31,0,0,0,36.46,48c.71.13.71.13.71.86,0,2.64,0,5.27,0,7.91,0,.35-.1.43-.42.4a10.84,10.84,0,0,0-1.14,0c-.24,0-.29-.07-.28-.29,0-.57,0-1.13,0-1.69s-.17-.77-.65-.88a15.77,15.77,0,0,1-4.76-2,.75.75,0,0,0-1.09.14c-.42.41-.84.82-1.25,1.25-.12.13-.19.12-.31,0L24,50.42c-.14-.13-.11-.2,0-.32l1.22-1.22a.75.75,0,0,0,.15-1.11A15.82,15.82,0,0,1,23.41,43c-.12-.51-.36-.67-.9-.67h-1.7c-.2,0-.27,0-.27-.26,0-1.54,0-3.07,0-4.6,0-.21.07-.27.27-.27.58,0,1.16,0,1.73,0a.77.77,0,0,0,.87-.68,15.65,15.65,0,0,1,1.93-4.69c.31-.5.26-.75-.15-1.17s-.78-.79-1.18-1.17c-.14-.14-.17-.22,0-.37l3.28-3.28c.12-.13.19-.13.31,0,.4.41.81.82,1.22,1.22a.78.78,0,0,0,1.15.15,16,16,0,0,1,4.69-2,.76.76,0,0,0,.69-.88c0-.56,0-1.13,0-1.69,0-.25.08-.31.31-.3.41,0,.83,0,1.25,0,.23,0,.28.07.28.29C37.17,24.15,37.17,25.57,37.17,27ZM33.9,29a2.92,2.92,0,0,0-.36.11,11.53,11.53,0,0,0-7.18,10.53c0,.55.26.89.7.9s.75-.32.76-.86a8.68,8.68,0,0,1,.11-1.35,9.93,9.93,0,0,1,6-7.78,2.51,2.51,0,0,0,.49-.25.67.67,0,0,0,.23-.79A.74.74,0,0,0,33.9,29Z"/><path class="cls-8" d="M51.3,23.49a1,1,0,1,1-1-1A1,1,0,0,1,51.3,23.49Z"/><path class="cls-8" d="M50.26,55.11a1,1,0,0,1,1,1,1,1,0,1,1-2.06,0A1,1,0,0,1,50.26,55.11Z"/><path class="cls-9" d="M54.25,30.48a1,1,0,0,1-1-1,1,1,0,1,1,1,1Z"/><path class="cls-9" d="M54.26,49.13a1,1,0,1,1,0,2,1,1,0,0,1-1-1A1,1,0,0,1,54.26,49.13Z"/><path class="cls-10" d="M55.27,39.8a1,1,0,1,1-1-1A1,1,0,0,1,55.27,39.8Z"/><path class="cls-11" d="M38.65,35a4.84,4.84,0,0,1,4,4A.87.87,0,0,0,42,40a4.12,4.12,0,1,1-4.27-4.32A.86.86,0,0,0,38.65,35Z"/><path class="cls-12" d="M38.65,35a.86.86,0,0,1-.91.68A4.12,4.12,0,1,0,42,40a.87.87,0,0,1,.68-1c.64.12.83.37.79,1a5.58,5.58,0,1,1-6.32-5.8l.48-.05C38.28,34.19,38.52,34.39,38.65,35Z"/><path class="cls-13" d="M33.9,29a.74.74,0,0,1,.72.51.67.67,0,0,1-.23.79,2.51,2.51,0,0,1-.49.25,9.93,9.93,0,0,0-6,7.78,8.68,8.68,0,0,0-.11,1.35c0,.54-.32.87-.76.86s-.71-.35-.7-.9a11.53,11.53,0,0,1,7.18-10.53A2.92,2.92,0,0,1,33.9,29Z"/></svg>