<svg id="Layer_1" data-name="Layer 1" xmlns="http://www.w3.org/2000/svg" xmlns:xlink="http://www.w3.org/1999/xlink" viewBox="0 0 80 80"><defs><style>.cls-1{fill:none;}.cls-2{fill:#fbeeee;}.cls-3{fill:#030303;}.cls-4{fill:#fc4f7b;}.cls-5{fill:#fd4f7c;}.cls-6{fill:#d4daeb;}.cls-7{fill:#d13d69;}.cls-8{fill:#cf3c68;}.cls-9{fill:#d1d8e8;}.cls-10{fill:#c6cee1;}.cls-11{fill:#efbf86;}.cls-12{fill:#684a4a;}.cls-13{fill:#e3ad77;}.cls-14{fill:#674a4a;}.cls-15{fill:#594045;}.cls-16{fill:#cd986c;}.cls-17{fill:#e0ab75;}.cls-18{fill:#eafbf1;}.cls-19{clip-path:url(#clip-path);}.cls-20{fill:url(#linear-gradient);}.cls-21{clip-path:url(#clip-path-2);}.cls-22{fill:url(#linear-gradient-2);}.cls-23{fill:#ecf6fc;}.cls-24{fill:#9b65c3;}.cls-25{fill:#be63c5;}.cls-26{fill:#bf63c6;}.cls-27{fill:#3278b1;}.cls-28{fill:#3278b2;}.cls-29{fill:#45a4ec;}.cls-30{fill:#19bb7d;}.cls-31{fill:#08c7fb;}.cls-32{fill:#59f2f6;}.cls-33{fill:#da3757;}.cls-34{fill:#d33c4e;}.cls-35{fill:#ee5a24;}.cls-36{fill:#8bdf55;}.cls-37{fill:#25c16f;}.cls-38{fill:#fb0;}.cls-39{fill:#ffa800;}.cls-40{fill:#fbfadf;}.cls-41{fill:#020203;}.cls-42{fill:#87c5f9;}.cls-43{fill:#e9ecee;}.cls-44{fill:#d7ebfd;}.cls-45{fill:#a69aa6;}.cls-46{fill:#e1a56e;}.cls-47{fill:#d5e9fb;}.cls-48{fill:#c3e1fd;}.cls-49{fill:#c08656;}.cls-50{fill:#59aaec;}.cls-51{fill:#817481;}.cls-52{fill:#655b65;}.cls-53{fill:#010302;}.cls-54{fill:#68f3bf;}.cls-55{fill:#17171d;}.cls-56{fill:#16151b;}.cls-57{fill:#18181e;}.cls-58{fill:#efeffb;}.cls-59{fill:#f4514a;}.cls-60{fill:#dd4a44;}.cls-61{fill:#d6d6e1;}.cls-62{fill:#f5514b;}.cls-63{fill:#dcdce8;}.cls-64{fill:#c5c5d0;}.cls-65{fill:#3f3f48;}.cls-66{fill:#e14d5b;}.cls-67{fill:#fefdfd;}.cls-68{fill:#fbb925;}.cls-69{fill:#fefdfa;}.cls-70{fill:#252f3e;}.cls-70,.cls-71{fill-rule:evenodd;}.cls-71{fill:#f90;}.cls-72{fill:#040404;}.cls-73{fill:#396f8d;}.cls-74{fill:#f66e1b;}.cls-75{fill:#427e9c;}.cls-76{fill:#f58d35;}.cls-77{fill:#f06c1a;}.cls-78{fill:#44d383;}.cls-79{fill:#78de8e;}.cls-80{fill:#020303;}.cls-81{fill:#f1f1f1;}.cls-82{fill:#e1e1e1;}.cls-83{fill:#070707;}.cls-84{fill:#28c9f0;}.cls-85{fill:#22b2e9;}.cls-86{fill:#060505;}.cls-87{fill:#0c0c0c;}.cls-88{fill:#eaedef;}.cls-89{fill:#fdd065;}.cls-90{fill:#4d3c4c;}.cls-91{fill:#f94654;}.cls-92{fill:#040506;}.cls-93{fill:#050706;}.cls-94{fill:#060404;}.cls-95{fill:#5fb5fc;}.cls-96{fill:#00df96;}.cls-97{fill:#f9cd64;}.cls-98{fill:#e8ebed;}.cls-99{fill:#020202;}.cls-100{fill:#fbfbfb;}.cls-101{fill:#eee;}.cls-102{fill:#525353;}.cls-103{fill:#dcdcdc;}.cls-104{fill:#434342;}.cls-105{fill:#030404;}.cls-106{fill:#010102;}.cls-107{fill:#a2d6f1;}.cls-108{fill:#7cc8e7;}.cls-109{fill:#6fb4e7;}.cls-110{fill:#68a9d8;}.cls-111{fill:#ce9867;}.cls-112{fill:#89aa1e;}.cls-113{fill:#e84541;}.cls-114{fill:#edaa0c;}.cls-115{fill:#010202;}.cls-116{fill:#5395e3;}.cls-117{fill:#909298;}.cls-118{fill:#edd282;}.cls-119{fill:#87e19d;}.cls-120{fill:#df6f6f;}.cls-121{fill:#c1cac9;}.cls-122{fill:#090909;}</style><clipPath id="clip-path"><path class="cls-1" d="M44.12,36.36V45.6a3.89,3.89,0,0,1-.9,2.75,3.42,3.42,0,0,1-2.61,1,3.3,3.3,0,0,1-2.57-1,3.93,3.93,0,0,1-.88-2.75V36.36L32.32,34.3V45.57a9,9,0,0,0,1.07,4.53,7,7,0,0,0,2.92,2.78,10.26,10.26,0,0,0,8.47,0,7.18,7.18,0,0,0,3-2.78A8.35,8.35,0,0,0,49,45.57V33.71Z"/></clipPath><linearGradient id="linear-gradient" x1="-33.46" y1="69.25" x2="-32.47" y2="69.25" gradientTransform="translate(825.11 -1605.11) scale(23.81)" gradientUnits="userSpaceOnUse"><stop offset="0" stop-color="#f17c21"/><stop offset="1" stop-color="#da5b26"/></linearGradient><clipPath id="clip-path-2"><path class="cls-1" d="M37.22,29.16a.24.24,0,0,1-.06-.45l1-.43,2.07-.88,2.06.88,1,.43a.23.23,0,1,1-.18.43L40.24,27.9l-2.89,1.24-.1,0h0m3.16-2.94a2.17,2.17,0,0,0-.84.16l-9.92,4-.34.22a.75.75,0,0,0-.25,1V33l-.29.29v1.48h1.18V33.29l-.3-.29V31.82l8.55,3.54.59-.3A2.86,2.86,0,0,1,40,34.77h.89a3.1,3.1,0,0,1,1.75.53l.53.35L51,31.3a.41.41,0,0,0,.19-.2.48.48,0,0,0-.24-.66l-9.73-4.05A2.13,2.13,0,0,0,40.38,26.22Z"/></clipPath><linearGradient id="linear-gradient-2" x1="-34.42" y1="64.62" x2="-33.43" y2="64.62" gradientTransform="matrix(0, -8.62, -8.62, 0, 597.31, -261.21)" gradientUnits="userSpaceOnUse"><stop offset="0" stop-color="#f17c21"/><stop offset="0.34" stop-color="#ed7722"/><stop offset="0.74" stop-color="#e36824"/><stop offset="1" stop-color="#da5b26"/></linearGradient></defs><g id="about_us" data-name="about us"><circle class="cls-2" cx="40" cy="40" r="38.52"/><path class="cls-3" d="M59.75,54.13c-.46.56-.91.5-1.16-.15,0-1.58,0-3.16,0-4.74a1.12,1.12,0,0,0-.38-1,1,1,0,0,0-.65-.39c-.78-.24-1.57-.46-2.36-.69a.26.26,0,0,0-.3.07L53.67,48.5a.36.36,0,0,0-.1.28c0,1.7,0,3.41,0,5.12-.07.34-.23.61-.62.6s-.53-.26-.57-.6c0-1.25,0-2.51,0-3.77a3.89,3.89,0,0,0,0-1.49c-.19-.44-.68-.75-1-1.11s-.45-.46-1-.12A3.47,3.47,0,0,1,51.11,50c0,1.31,0,2.62,0,3.93,0,.34-.22.6-.58.6a.58.58,0,0,1-.6-.54c0-1.48,0-3,0-4.46a1.77,1.77,0,0,0-.54-1.31,1.57,1.57,0,0,0-.79-.52c-1.13-.42-2.26-.82-3.39-1.25-.23-.09-.33,0-.46.17-.42.66-.86,1.3-1.3,1.95a1.21,1.21,0,0,1-2,.2,6.54,6.54,0,0,0-.81-.76v5.94c-.19.52-.53.71-.9.51a.77.77,0,0,1-.31-.51c0-.11,0-.23,0-.34,0-1.76,0-3.53,0-5.29a.42.42,0,0,0-.06-.33l-.78.79a1.23,1.23,0,0,1-2.05-.21c-.44-.65-.88-1.3-1.3-2a.32.32,0,0,0-.46-.15l-3.36,1.23a1.61,1.61,0,0,0-.87.6,1.68,1.68,0,0,0-.48,1.29c0,1.47,0,2.94,0,4.41a.58.58,0,0,1-.56.54c-.35,0-.52-.22-.62-.53,0-1.42,0-2.85,0-4.27a3,3,0,0,1,.29-1.46c.2-.34.09-.47-.22-.59s-.28-.08-.4.06a6.14,6.14,0,0,1-.45.43,2.46,2.46,0,0,1-2.11.68,3.07,3.07,0,0,1-1.74-1.06.34.34,0,0,0-.49-.09c-.49.27-1,.51-1.51.76a1.18,1.18,0,0,0-.56.45,1.06,1.06,0,0,0-.3.83V54c-.16.41-.38.59-.69.51s-.48-.37-.47-.73v-4a2.44,2.44,0,0,1,1.4-2.3l1.49-.75a5.24,5.24,0,0,1-2-1.53.75.75,0,0,1-.17-.78,8.6,8.6,0,0,0,.48-2.84,17,17,0,0,1,.23-2.84,4.82,4.82,0,0,1,7.68-2.89,5.09,5.09,0,0,1,2,3.66c.12,1.19.06,2.39.24,3.58a4.34,4.34,0,0,0,.3,1.23.79.79,0,0,1-.13.89,5.23,5.23,0,0,1-2,1.5.68.68,0,0,0,.87.11c1.05-.51,2.18-.83,3.27-1.24a1.2,1.2,0,0,0,.81-.64,3.73,3.73,0,0,1,.83-.91.88.88,0,0,0,.25-.6,3,3,0,0,0-.9-2.6,6.21,6.21,0,0,1-1.57-4.43A10.54,10.54,0,0,0,32.88,34a7.82,7.82,0,0,1,.33-5.39,5.18,5.18,0,0,1,4.68-3.08c2.94-.08,5.89,0,8.83,0,.43,0,.68.21.67.63,0,2.3.08,4.6,0,6.9A3.81,3.81,0,0,1,47,34.42,3.39,3.39,0,0,0,46.78,36,7.41,7.41,0,0,1,46,39.69a6.61,6.61,0,0,1-1.5,1.94.52.52,0,0,0-.21.5.75.75,0,0,1,0,.15,2.36,2.36,0,0,0,1,2.48s.11.09.12.14c.1.48.51.55.87.68.75.26,1.5.53,2.24.82a1,1,0,0,0,.81,0,5.08,5.08,0,0,1,.52-.15c.93-.29.69-.17.73-1a.43.43,0,0,0-.19-.39,4.37,4.37,0,0,1-1.66-3.57,3.49,3.49,0,0,0-.33-1.55,3.59,3.59,0,0,1,2.95-4.94c2-.14,3.93,0,5.9-.05.4,0,.66.2.66.55A33.83,33.83,0,0,1,57.83,39a2.15,2.15,0,0,1-.26.87,2.48,2.48,0,0,0-.29,1.41A4.28,4.28,0,0,1,55.6,45c-.34.26-.14.62-.16.93s.25.26.43.31l1.92.55a2.46,2.46,0,0,1,1.91,1.95s0,0,0,0ZM42,44.42l1-.67a.27.27,0,0,0,.14-.25v-.83c-.06,0-.08,0-.1,0l-.29.12a6.79,6.79,0,0,1-3.33.56,6.49,6.49,0,0,1-2.25-.61c-.09,0-.19-.18-.3,0A1.61,1.61,0,0,0,37,43.78l1.18.79,1.61,1.11c.1.07.18.14.3,0C40.74,45.28,41.4,44.9,42,44.42ZM24,40.74c-.52-.29-.57-.67-.16-1.1a5.5,5.5,0,0,0,.76-.84.93.93,0,0,1,.65-.31,7.18,7.18,0,0,1,3.37.94,6.36,6.36,0,0,1,1.57,1.41,3.47,3.47,0,0,0,0-.92,4.21,4.21,0,0,0-1.59-3.24,3.62,3.62,0,0,0-4.29,0,3.73,3.73,0,0,0-.52.45,4.84,4.84,0,0,0-1.11,3.61c0,.14.05.23.18.25a.72.72,0,0,1,.45.4,3.09,3.09,0,0,0,1.54,2.82,2.93,2.93,0,0,0,1.49.46,3.07,3.07,0,0,0,2.91-1.81,1.11,1.11,0,0,0-.05-1.43,4.81,4.81,0,0,0-3-1.69,1.14,1.14,0,0,0-1.3.44A1,1,0,0,1,24,40.74Zm25.77-.88a9.65,9.65,0,0,1,.13,1.86,3.16,3.16,0,0,0,1.47,2.44,3,3,0,0,0,3.44,0,3.4,3.4,0,0,0,1.32-3.25,2.81,2.81,0,0,1,.17-1.08,2,2,0,0,0,.39-1,20.63,20.63,0,0,0,.08-2.61c0-.26-.15-.25-.33-.25-1.48,0-3,0-4.44,0a2.49,2.49,0,0,0-2,.81A2.33,2.33,0,0,0,49.75,39.86ZM34.44,35.53a6.16,6.16,0,0,0,.33,2.92A5.5,5.5,0,0,0,38.61,42a4.81,4.81,0,0,0,2.32.12,5.68,5.68,0,0,0,4.66-6.56,4.09,4.09,0,0,1,.21-1.2,5,5,0,0,0,.44-2.21c0-1.71,0-3.42,0-5.13,0-.28-.06-.38-.36-.38-2.61,0-5.21,0-7.82,0a3.26,3.26,0,0,0-1.16.2,4,4,0,0,0-2,1.28,4.39,4.39,0,0,0-1.1,2.79,8,8,0,0,0,.38,3.33A3,3,0,0,1,34.44,35.53ZM40.9,46.6c.43.42.84.81,1.23,1.22.2.21.3.23.47,0,.43-.68.89-1.35,1.34-2a.59.59,0,0,0-.22-.95.19.19,0,0,0-.24,0Zm-4.5-1.84a2.52,2.52,0,0,0-.53.5c-.11.12,0,.22.09.31.49.75,1,1.48,1.48,2.24.16.24.25.21.42,0,.33-.36.68-.7,1-1,.18-.18.17-.26,0-.39-.75-.5-1.49-1-2.23-1.52Zm-11.26.9A4.29,4.29,0,0,1,25,46.75a.17.17,0,0,0,.05.18c.95,1,1.75,1,2.67,0a.14.14,0,0,0,0-.17,2.15,2.15,0,0,1-.1-.87c0-.13,0-.19-.18-.16A4.46,4.46,0,0,1,25.14,45.66Zm26.57,0c0,.28-.14.51.1.73s.68.67,1,1c.13.14.21.13.34,0a9.07,9.07,0,0,1,.82-.82.74.74,0,0,0,.25-.89,4.48,4.48,0,0,1-1.21.17A4.18,4.18,0,0,1,51.71,45.64ZM22.43,43.3c0,.5-.48,1-.18,1.42a2.82,2.82,0,0,0,1.26.86l.24.11c.08,0,.18,0,.19-.06s.11-.45-.09-.61A5.66,5.66,0,0,1,22.43,43.3Zm7.91,0A4.7,4.7,0,0,1,29,45a.32.32,0,0,0-.13.18.82.82,0,0,0,0,.49c0,.08.13,0,.2,0a4.14,4.14,0,0,0,1.45-.91c.08-.08.18-.16.14-.3C30.55,44.11,30.46,43.74,30.34,43.29Z"/><path class="cls-4" d="M30.55,48.26a1.61,1.61,0,0,1,.87-.6l3.36-1.23a.32.32,0,0,1,.46.15c.42.66.86,1.31,1.3,2a1.23,1.23,0,0,0,2.05.21l.78-.79a.42.42,0,0,1,.06.33c0,1.76,0,3.53,0,5.29,0,.11,0,.23,0,.34H33.79c0-.76,0-1.51,0-2.26s-.2-.78-.79-.75A11.09,11.09,0,0,0,30.55,48.26Z"/><path class="cls-5" d="M40.62,53.92V48a6.54,6.54,0,0,1,.81.76,1.21,1.21,0,0,0,2-.2c.44-.65.88-1.29,1.3-1.95.13-.2.23-.26.46-.17,1.13.43,2.26.83,3.39,1.25a1.57,1.57,0,0,1,.79.52c-.56.57-1.11,1.15-1.68,1.72a2.91,2.91,0,0,0-.71,1c-.59,0-.77.16-.78.76,0,.75,0,1.51,0,2.26Z"/><path class="cls-6" d="M21.71,48.88a1.18,1.18,0,0,1,.56-.45c.5-.25,1-.49,1.51-.76a.34.34,0,0,1,.49.09A3.07,3.07,0,0,0,26,48.82a2.46,2.46,0,0,0,2.11-.68,6.14,6.14,0,0,0,.45-.43c.12-.14.23-.13.4-.06s.42.25.22.59a3,3,0,0,0-.29,1.46c0,1.42,0,2.85,0,4.27h-5c0-.94,0-1.88,0-2.82,0-.54-.17-.71-.7-.75a.82.82,0,0,0-.37-.59A7.59,7.59,0,0,1,21.71,48.88Z"/><path class="cls-6" d="M53.59,53.9c0-1.71,0-3.42,0-5.12a.36.36,0,0,1,.1-.28l1.23-1.23a.26.26,0,0,1,.3-.07c.79.23,1.58.45,2.36.69a1,1,0,0,1,.65.39c0,.17-.16.25-.26.36a9.06,9.06,0,0,0-1,1.06c-.58-.11-.83.1-.83.7,0,1.17,0,2.33,0,3.5Z"/><path class="cls-7" d="M47,50.9a2.91,2.91,0,0,1,.71-1c.57-.57,1.12-1.15,1.68-1.72A1.77,1.77,0,0,1,50,49.5c0,1.49,0,3,0,4.46H47.41c0-.76,0-1.53,0-2.29A.8.8,0,0,0,47,50.9Z"/><path class="cls-8" d="M30.55,48.26A11.09,11.09,0,0,1,33,50.9a.85.85,0,0,0-.37.79c0,.75,0,1.51,0,2.26H30.07c0-1.47,0-2.94,0-4.41A1.68,1.68,0,0,1,30.55,48.26Z"/><path class="cls-9" d="M51.12,53.9c0-1.31,0-2.62,0-3.93a3.47,3.47,0,0,0-.83-2.56c.6-.34.6-.34,1,.12s.85.67,1,1.11a3.89,3.89,0,0,1,0,1.49c0,1.26,0,2.52,0,3.77Z"/><path class="cls-10" d="M57,49.7a9.06,9.06,0,0,1,1-1.06c.1-.11.25-.19.26-.36a1.12,1.12,0,0,1,.38,1c0,1.58,0,3.16,0,4.74h-1.3c0-1.2,0-2.39,0-3.59A.75.75,0,0,0,57,49.7Z"/><path class="cls-10" d="M21.71,48.88a7.59,7.59,0,0,0,1.1.94.82.82,0,0,1,.37.59.7.7,0,0,0-.46.76c0,.93,0,1.87,0,2.81h-1.3V49.71A1.06,1.06,0,0,1,21.71,48.88Z"/><path class="cls-3" d="M57,49.7a.75.75,0,0,1,.33.69c0,1.2,0,2.39,0,3.59-.09.31-.26.54-.61.52s-.53-.26-.57-.6c0-1.17,0-2.33,0-3.5C56.13,49.8,56.38,49.59,57,49.7Z"/><path class="cls-3" d="M22.71,54c0-.94,0-1.88,0-2.81a.7.7,0,0,1,.46-.76c.53,0,.69.21.7.75,0,.94,0,1.88,0,2.82a.59.59,0,0,1-.57.52A.61.61,0,0,1,22.71,54Z"/><path class="cls-3" d="M47,50.9a.8.8,0,0,1,.39.77c0,.76,0,1.53,0,2.29-.09.32-.27.57-.63.54s-.5-.26-.55-.58c0-.75,0-1.51,0-2.26C46.25,51.06,46.43,50.88,47,50.9Z"/><path class="cls-3" d="M32.61,54c0-.75,0-1.51,0-2.26A.85.85,0,0,1,33,50.9c.59,0,.79.15.79.75s0,1.5,0,2.26c0,.32-.2.57-.55.59S32.7,54.28,32.61,54Z"/><path class="cls-11" d="M45.59,35.57a5.68,5.68,0,0,1-4.66,6.56A4.81,4.81,0,0,1,38.61,42c0-.16-.14-.27-.22-.4a5.66,5.66,0,0,1-.85-2.79c0-1.47,0-3,0-4.43a1.22,1.22,0,0,1,.4-.92,1.61,1.61,0,0,1,1.1-.34,12.24,12.24,0,0,1,4,.2,6.39,6.39,0,0,0,1.28.35A2.13,2.13,0,0,0,45.59,35.57Z"/><path class="cls-12" d="M45.59,35.57a2.13,2.13,0,0,1-1.28-1.89v-.22a.54.54,0,0,0,.57-.42.57.57,0,0,0-.25-.66,3.94,3.94,0,0,0-.45-.36,7.91,7.91,0,0,0-3.92-1.21,20.12,20.12,0,0,0-2.8,0c-.08-.21-.28-.29-.42-.44a2.42,2.42,0,0,1-.57-2.67c.11-.31.36-.52.44-.84a3.26,3.26,0,0,1,1.16-.2c2.61,0,5.21,0,7.82,0,.3,0,.36.1.36.38,0,1.71,0,3.42,0,5.13a5,5,0,0,1-.44,2.21A4.09,4.09,0,0,0,45.59,35.57Z"/><path class="cls-13" d="M44.31,33.46v.22A6.39,6.39,0,0,1,43,33.33a12.24,12.24,0,0,0-4-.2,1.61,1.61,0,0,0-1.1.34,1.22,1.22,0,0,0-.4.92c0,1.48,0,3,0,4.43a5.66,5.66,0,0,0,.85,2.79c.08.13.21.24.22.4a5.5,5.5,0,0,1-3.84-3.56,6.16,6.16,0,0,1-.33-2.92,2,2,0,0,0,1.18-1.44c.47-.07.62-.23.63-.7a8.81,8.81,0,0,0,0-.89c0-.27.07-.37.34-.41a16.39,16.39,0,0,1,4.64,0,4.9,4.9,0,0,1,2.67,1.17A.59.59,0,0,0,44.31,33.46Z"/><path class="cls-11" d="M56.11,40.86a3.4,3.4,0,0,1-1.32,3.25,3,3,0,0,1-3.44,0,9.33,9.33,0,0,1-.24-2.47,1.27,1.27,0,0,1,1.41-1.36,15.5,15.5,0,0,1,1.67.18C54.83,40.61,55.47,40.74,56.11,40.86Z"/><path class="cls-14" d="M50,36.75a2.49,2.49,0,0,1,2-.81c1.48,0,3,0,4.44,0,.18,0,.34,0,.33.25a20.63,20.63,0,0,1-.08,2.61,2,2,0,0,1-.39,1l-.86-.55a.68.68,0,0,0-.49-.74c-.21-.08-.42-.17-.64-.23a14.42,14.42,0,0,0-3-.39.73.73,0,0,0-.71.37c-.24,0-.36-.15-.47-.32A1.42,1.42,0,0,1,50,36.75Z"/><path class="cls-14" d="M24.26,36.69a3.62,3.62,0,0,1,4.29,0,4.21,4.21,0,0,1,1.59,3.24,3.47,3.47,0,0,1,0,.92,6.36,6.36,0,0,0-1.57-1.41,7.18,7.18,0,0,0-3.37-.94.93.93,0,0,0-.65.31A2.57,2.57,0,0,1,24.26,36.69Z"/><path class="cls-15" d="M35.62,34.09a2,2,0,0,1-1.18,1.44,3,3,0,0,0-.27-1.26,8,8,0,0,1-.38-3.33,4.39,4.39,0,0,1,1.1-2.79,4,4,0,0,1,2-1.28c-.08.32-.33.53-.44.84A2.42,2.42,0,0,0,37,30.38c.14.15.34.23.42.44l-1.3.16a1.21,1.21,0,0,0-1,.95,5.61,5.61,0,0,0,0,1.53A.62.62,0,0,0,35.62,34.09Z"/><path class="cls-11" d="M29.2,42.87a3.07,3.07,0,0,1-2.91,1.81,2.93,2.93,0,0,1-1.49-.46c0-.11-.05-.22-.08-.33-.25-.83-.36-1.63.51-2.19l0,0c.4-.83,1-.71,1.63-.34A7.53,7.53,0,0,1,29.2,42.87Z"/><path class="cls-13" d="M55.42,39.23l.86.55a2.81,2.81,0,0,0-.17,1.08c-.64-.12-1.28-.25-1.92-.35a15.5,15.5,0,0,0-1.67-.18,1.27,1.27,0,0,0-1.41,1.36,9.33,9.33,0,0,0,.24,2.47,3.16,3.16,0,0,1-1.47-2.44,9.65,9.65,0,0,0-.13-1.86l.9-1a1.84,1.84,0,0,0,.89.2,9.3,9.3,0,0,1,3,.53C55,39.74,55.17,39.64,55.42,39.23Z"/><path class="cls-13" d="M29.2,42.87a7.53,7.53,0,0,0-2.31-1.54c-.66-.37-1.23-.49-1.63.34l0,0c-.87.56-.76,1.36-.51,2.19,0,.11.06.22.08.33a3.09,3.09,0,0,1-1.54-2.82l.72-.66a1,1,0,0,0,.9-.55,1.14,1.14,0,0,1,1.3-.44,4.81,4.81,0,0,1,3,1.69A1.11,1.11,0,0,1,29.2,42.87Z"/><path class="cls-16" d="M38.22,44.57,37,43.78a1.61,1.61,0,0,1-.16-1.08c.11-.15.21,0,.3,0a6.49,6.49,0,0,0,2.25.61,6.79,6.79,0,0,0,3.33-.56l.29-.12s0,0,.1,0v.83a.27.27,0,0,1-.14.25l-1,.67-.26,0a8.07,8.07,0,0,1-2.5.15C38.9,44.54,38.56,44.35,38.22,44.57Z"/><path class="cls-8" d="M40.9,46.6l2.58-1.76a.19.19,0,0,1,.24,0,.59.59,0,0,1,.22.95c-.45.67-.91,1.34-1.34,2-.17.27-.27.25-.47,0C41.74,47.41,41.33,47,40.9,46.6Z"/><path class="cls-15" d="M24,40.74l-.72.66a.72.72,0,0,0-.45-.4c-.13,0-.18-.11-.18-.25a4.84,4.84,0,0,1,1.11-3.61,3.73,3.73,0,0,1,.52-.45,2.57,2.57,0,0,0,.32,2.11,5.5,5.5,0,0,1-.76.84C23.41,40.07,23.46,40.45,24,40.74Z"/><path class="cls-8" d="M36.4,44.76l.23.14c.74.51,1.48,1,2.23,1.52.21.13.22.21,0,.39-.36.33-.71.67-1,1-.17.18-.26.21-.42,0-.48-.76-1-1.49-1.48-2.24-.06-.09-.2-.19-.09-.31A2.52,2.52,0,0,1,36.4,44.76Z"/><path class="cls-17" d="M25.14,45.66a4.46,4.46,0,0,0,2.35,0c.15,0,.18,0,.18.16a2.15,2.15,0,0,0,.1.87.14.14,0,0,1,0,.17C26.82,48,26,48,25.07,46.93a.17.17,0,0,1-.05-.18A4.29,4.29,0,0,0,25.14,45.66Z"/><path class="cls-17" d="M51.71,45.64a4.18,4.18,0,0,0,1.31.2,4.48,4.48,0,0,0,1.21-.17.74.74,0,0,1-.25.89,9.07,9.07,0,0,0-.82.82c-.13.13-.21.14-.34,0-.33-.34-.66-.68-1-1S51.76,45.92,51.71,45.64Z"/><path class="cls-15" d="M50.65,38.86l-.9,1a2.33,2.33,0,0,1,.2-3.11,1.42,1.42,0,0,0,.16,1.17c.11.17.23.33.47.32A1.45,1.45,0,0,0,50.65,38.86Z"/><path class="cls-17" d="M38.22,44.57c.34-.22.68,0,1,0a8.07,8.07,0,0,0,2.5-.15l.26,0c-.58.48-1.24.86-1.85,1.3-.12.1-.2,0-.3,0Z"/><path class="cls-15" d="M22.43,43.3A5.66,5.66,0,0,0,23.85,45c.2.16.09.41.09.61s-.11.09-.19.06l-.24-.11a2.82,2.82,0,0,1-1.26-.86C22,44.26,22.46,43.8,22.43,43.3Z"/><path class="cls-14" d="M30.34,43.29c.12.45.21.82.31,1.18,0,.14-.06.22-.14.3a4.14,4.14,0,0,1-1.45.91c-.07,0-.17.07-.2,0a.82.82,0,0,1,0-.49A.32.32,0,0,1,29,45,4.7,4.7,0,0,0,30.34,43.29Z"/><path class="cls-3" d="M35.62,34.09a.62.62,0,0,1-.53-.63,5.61,5.61,0,0,1,0-1.53,1.21,1.21,0,0,1,1-.95l1.3-.16a20.12,20.12,0,0,1,2.8,0A7.91,7.91,0,0,1,44.18,32a3.94,3.94,0,0,1,.45.36.57.57,0,0,1,.25.66.54.54,0,0,1-.57.42.59.59,0,0,1-.41-.19,4.9,4.9,0,0,0-2.67-1.17,16.39,16.39,0,0,0-4.64,0c-.27,0-.36.14-.34.41a8.81,8.81,0,0,1,0,.89C36.24,33.86,36.09,34,35.62,34.09Z"/><path class="cls-3" d="M50.65,38.86a1.45,1.45,0,0,1-.07-.62.73.73,0,0,1,.71-.37,14.42,14.42,0,0,1,3,.39c.22.06.43.15.64.23a.68.68,0,0,1,.49.74c-.25.41-.46.51-.84.36a9.3,9.3,0,0,0-3-.53A1.84,1.84,0,0,1,50.65,38.86Z"/></g><g id="educrypt"><circle class="cls-18" cx="40" cy="40" r="38.52"/><g class="cls-19"><rect class="cls-20" x="30.28" y="35.03" width="20.72" height="17.44" transform="matrix(0.04, -1, 1, 0.04, -4.69, 82.61)"/></g><g class="cls-21"><rect class="cls-22" x="28.74" y="26.22" width="22.6" height="9.44"/></g></g><g id="Freswork"><circle class="cls-23" cx="40" cy="40" r="38.52"/><g id="Layer"><path id="Layer-2" data-name="Layer" class="cls-24" d="M24.24,42.38a15.62,15.62,0,0,0,4.49,8.89l5.43-5.43A16,16,0,0,1,42.1,32Z"/><path id="Layer-3" data-name="Layer" class="cls-24" d="M34.16,45.84a15.76,15.76,0,0,1-7.95-2.15,22.41,22.41,0,0,1-2-1.31,15.62,15.62,0,0,0,4.49,8.89Z"/><path id="Layer-4" data-name="Layer" class="cls-25" d="M34.16,45.84l-5.43,5.43a15.62,15.62,0,0,0,8.89,4.49L47.9,37.9a15.89,15.89,0,0,1-13.74,7.94Z"/><path id="Layer-5" data-name="Layer" class="cls-26" d="M36.31,53.79a15.76,15.76,0,0,1-2.15-7.95l-5.43,5.43a15.62,15.62,0,0,0,8.89,4.49,22.41,22.41,0,0,1-1.31-2Z"/><path id="Layer-6" data-name="Layer" class="cls-27" d="M54.45,24.9,42.1,32a16,16,0,0,1-15.89,0,16.15,16.15,0,0,0-2.15,8,20.3,20.3,0,0,0,.18,2.33,22.41,22.41,0,0,0,2,1.31,15.76,15.76,0,0,0,7.95,2.15L54.73,25.27a1.31,1.31,0,0,1-.28-.37Z"/><path id="Layer-7" data-name="Layer" class="cls-28" d="M26.21,43.69a15.76,15.76,0,0,0,7.95,2.15A16,16,0,0,1,42.1,32L24.24,42.29a12.59,12.59,0,0,0,2,1.4Z"/><path id="Layer-8" data-name="Layer" class="cls-29" d="M26.21,32a16.15,16.15,0,0,0-2.15,8,20.3,20.3,0,0,0,.18,2.33L42.1,32a15.6,15.6,0,0,1-15.89,0Z"/><path id="Layer-9" data-name="Layer" class="cls-30" d="M54.73,25.27a4.35,4.35,0,0,0-.75-.65,3.62,3.62,0,0,0-2-.56H40A15.89,15.89,0,0,0,26.21,32,16,16,0,0,0,42.1,32a15.88,15.88,0,0,0-7.94,13.84A16,16,0,0,0,48,37.9l7.1-12.35a1.31,1.31,0,0,1-.37-.28Z"/><path id="Layer-10" data-name="Layer" class="cls-31" d="M42.1,32l12.35-7.1c-.19-.1-.28-.28-.47-.38L26.21,32A15.6,15.6,0,0,0,42.1,32Z"/><path id="Layer-11" data-name="Layer" class="cls-32" d="M51.92,24.06H40A15.89,15.89,0,0,0,26.21,32L54,24.52A5.09,5.09,0,0,0,51.92,24.06Z"/><path id="Layer-12" data-name="Layer" class="cls-33" d="M48,37.9l7.1-12.35a1.53,1.53,0,0,1-.28-.37L34.25,45.75a15.86,15.86,0,0,0,2.15,8,22.29,22.29,0,0,0,1.31,2,17.07,17.07,0,0,0,2.24.19A15.86,15.86,0,0,0,47.9,53.7,15.67,15.67,0,0,1,48,37.9Z"/><path id="Layer-13" data-name="Layer" class="cls-34" d="M34.16,45.84a15.76,15.76,0,0,0,2.15,7.95,22.41,22.41,0,0,0,1.31,2L47.9,37.9a15.89,15.89,0,0,1-13.74,7.94Z"/><path id="Layer-14" data-name="Layer" class="cls-35" d="M48,37.9,37.71,55.76a19,19,0,0,0,2.34.18,15.81,15.81,0,0,0,8-2.15A15.6,15.6,0,0,1,48,37.9Z"/><path id="Layer-15" data-name="Layer" class="cls-36" d="M55.38,26a3.73,3.73,0,0,0-.93-1.12L42.1,32a15.88,15.88,0,0,0-7.94,13.84A16,16,0,0,0,48,37.9a16,16,0,0,0,0,15.89,15.86,15.86,0,0,0,7.94-13.65V28.08A3.94,3.94,0,0,0,55.38,26Z"/><path id="Layer-16" data-name="Layer" class="cls-37" d="M54.45,24.9,42.1,32a15.88,15.88,0,0,0-7.94,13.84L54.73,25.27c-.09-.09-.19-.28-.28-.37Z"/><path id="Layer-17" data-name="Layer" class="cls-36" d="M34.16,45.84A16,16,0,0,0,48,37.9l7.1-12.35a1.53,1.53,0,0,1-.28-.37Z"/><path id="Layer-18" data-name="Layer" class="cls-38" d="M55.1,25.55,48,37.9a16,16,0,0,0,0,15.89L55.48,26a1.74,1.74,0,0,1-.38-.47Z"/><path id="Layer-19" data-name="Layer" class="cls-39" d="M48,53.79a15.71,15.71,0,0,0,7.94-13.74v-12A3.94,3.94,0,0,0,55.38,26L48,53.79Z"/></g></g><circle class="cls-40" cx="39.96" cy="40.1" r="38.52"/><circle class="cls-2" cx="40" cy="40" r="38.52"/><path class="cls-41" d="M40,54.94H30.36c-.52,0-.67-.15-.67-.65V53a2.09,2.09,0,0,1,1.72-2,4.2,4.2,0,0,1,.87-.07c.8,0,1.6,0,2.4,0,.22,0,.3,0,.3-.28,0-.68,0-1.36,0-2,0-.21-.06-.26-.27-.26H27.93a2.72,2.72,0,0,1-2.88-2.89V30.56a2.72,2.72,0,0,1,2.89-2.89h3c.19,0,.26-.05.25-.25,0-.39,0-.78,0-1.18a1.09,1.09,0,0,1,1.2-1.19H47.57a1.09,1.09,0,0,1,1.19,1.18c0,.4,0,.8,0,1.2,0,.19.06.24.24.24h2a.33.33,0,0,0,.3-.14,1.78,1.78,0,0,1,2.31-.4,2.06,2.06,0,0,1,1.25,1.44,1.23,1.23,0,0,1,0,.33c-.11,1.38,0,2.77,0,4.15s0,2.79,0,4.19v4.18c0,1.38,0,2.75,0,4.13a2.69,2.69,0,0,1-2.81,2.82q-3.4,0-6.81,0c-.23,0-.31.05-.3.29,0,.67,0,1.35,0,2,0,.23.07.28.29.28.86,0,1.73,0,2.59,0a2.65,2.65,0,0,1,1.38.35,1.91,1.91,0,0,1,1,1.78c0,.42,0,.84,0,1.26s-.17.6-.61.6Zm6.45-14.22-.9-.54v1.08c0,.1,0,.2,0,.31l1.19-.69ZM53.68,28.3a2.24,2.24,0,0,0-.66-.4.78.78,0,0,0-1,.27c-.17.26-.31.54-.47.8s0,.18.07.24c.47.25.91.57,1.41.79.19.21.32.18.44-.09s.23-.39.34-.59A.77.77,0,0,0,53.68,28.3Zm-2.3,15.36h.36c.29,0,.38,0,.38-.36,0-2.87,0-5.75,0-8.63v-.31h-.06l-.68,1.22,0,0-2.49,4.31a.46.46,0,0,0-.08.25v3.31c0,.14,0,.19.19.19Zm1.08-12.87c-.4-.23-.82-.46-1.21-.71-.19-.12-.26-.07-.36.1-.48.85-1,1.69-1.45,2.53q-1.8,3.1-3.59,6.21c-.06.11-.21.22,0,.34.46.24.91.5,1.36.76.16.12.3.29.48,0q2.5-4.38,5-8.74c.1-.17.11-.28-.09-.36A.69.69,0,0,1,52.46,30.79Zm-8.62,17.6-7.7,0c-.19,0-.21.08-.21.24,0,.67,0,1.34,0,2,0,.26.06.34.33.34h7.58c.14,0,.21,0,.21-.16,0-.74,0-1.49,0-2.23C44.05,48.39,44,48.36,43.84,48.39ZM47.4,26H32.59c-.4,0-.4,0-.4.39q0,8.46,0,16.92c0,.27.07.34.35.34H47.4c.4,0,.4,0,.4-.37s0-.92,0-1.38c0-.15.08-.38-.06-.44s-.28.11-.4.21l-.32.17-1.66,1c-.31.17-.61.12-.72-.16s-.2-.22-.38-.22H33.72a2.17,2.17,0,0,1-.36,0A.43.43,0,0,1,33,42a.43.43,0,0,1,.37-.47,1.71,1.71,0,0,1,.39,0H44.38c.15,0,.2,0,.19-.19a6.76,6.76,0,0,1,0-.9c0-.28-.09-.32-.34-.32H33.43a.48.48,0,0,1,0-1h11c.11,0,.24,0,.32-.1l.74-1.3H33.59c-.4,0-.64-.18-.64-.48s.22-.48.63-.48H45.72c.11,0,.24.06.32-.09.25-.44.51-.88.77-1.32H33.54c-.36,0-.58-.19-.59-.47s.22-.49.59-.5H46.31c.38,0,.67.07.75.54l.35-.65a1.8,1.8,0,0,0,.4-1.19c0-2.22,0-4.43,0-6.65C47.8,26,47.8,26,47.4,26ZM54,31.16l-.06,0c-.22.39-.44.78-.67,1.16a1.14,1.14,0,0,0-.17.62v11c0,.56-.14.7-.69.7H27.59c-.53,0-.67-.14-.67-.68V30.5c0-.68.28-1,1-1h2.74c.61,0,.6,0,.61-.61,0-.25-.09-.29-.31-.29h-3A1.74,1.74,0,0,0,26,30.53v15a1.74,1.74,0,0,0,1.9,1.91H52.07A1.75,1.75,0,0,0,54,45.52V31.16ZM31.23,37.08c0-2.1,0-4.2,0-6.29,0-.24-.06-.31-.3-.3-.92,0-1.84,0-2.77,0-.21,0-.29,0-.29.27q0,6.33,0,12.67c0,.2.05.25.24.25.94,0,1.87,0,2.8,0,.26,0,.31-.06.31-.31C31.22,41.27,31.23,39.17,31.23,37.08ZM40,54h9.1c.2,0,.28,0,.26-.26a5.3,5.3,0,0,1,0-.69.94.94,0,0,0-.45-.84,1.89,1.89,0,0,0-1.09-.28H31.87a1.2,1.2,0,0,0-1.22,1.31,3.38,3.38,0,0,1,0,.45c0,.23.05.3.29.3ZM50.66,28.64H48.92c-.14,0-.18.08-.16.19s-.16.61.12.68a2.48,2.48,0,0,0,1.24,0c.24-.06.3-.46.46-.7ZM49.6,30.49c-.27,0-.47,0-.67,0s-.18,0-.17.17v1.18l.05,0Z"/><path class="cls-42" d="M47.41,34.25l-.35.65c-.08-.47-.37-.54-.75-.54H33.54c-.37,0-.6.21-.59.5s.23.46.59.47H46.81c-.26.44-.52.88-.77,1.32-.08.15-.21.09-.32.09H33.58c-.41,0-.63.17-.63.48s.24.48.64.48H45.43L44.69,39c-.08.15-.21.1-.32.1h-11a.48.48,0,0,0,0,1H44.24c.25,0,.36,0,.34.32a6.76,6.76,0,0,0,0,.9c0,.14,0,.21-.19.19H33.72a1.71,1.71,0,0,0-.39,0A.43.43,0,0,0,33,42a.43.43,0,0,0,.4.45,2.17,2.17,0,0,0,.36,0H44.26c.18,0,.3,0,.38.22s.41.33.72.16l1.66-1,.32-.17c.09.07.06.17.06.25v1.73H32.53c-.28,0-.35-.07-.35-.34q0-8.46,0-16.92c0-.39,0-.39.4-.39H47.4V29.7C47.41,31.22,47.41,32.73,47.41,34.25ZM37.33,33h3.73c.39,0,.56-.16.56-.54,0-1.67,0-3.33,0-5,0-.4-.17-.55-.58-.55h-7.4c-.43,0-.6.16-.6.6,0,1.36,0,2.71,0,4.07,0,.28,0,.55,0,.84.06.45.18.58.63.58Zm7.4-4.74H46.5c.33,0,.54-.22.53-.49a.49.49,0,0,0-.55-.47c-1.14,0-2.29,0-3.43,0-.39,0-.6.17-.6.47s.2.49.59.49C43.6,28.23,44.16,28.22,44.73,28.22Zm0,1.41H43c-.36,0-.56.18-.56.48s.2.48.56.48q1.73,0,3.45,0c.35,0,.57-.19.57-.48s-.21-.48-.56-.48Zm0,3.33h1.72c.35,0,.57-.2.56-.48s-.22-.48-.57-.49H43c-.36,0-.56.19-.56.49s.2.47.56.48Z"/><path class="cls-43" d="M54,31.16V45.52a1.75,1.75,0,0,1-1.9,1.89H27.92A1.74,1.74,0,0,1,26,45.5v-15a1.74,1.74,0,0,1,1.89-1.89h3c.22,0,.32,0,.31.29,0,.61,0,.61-.61.61H27.88c-.68,0-1,.29-1,1V44c0,.54.14.68.67.68H52.38c.55,0,.69-.14.69-.7v-11a1.14,1.14,0,0,1,.17-.62c.23-.38.45-.77.67-1.16Z"/><path class="cls-44" d="M31.23,37.08c0,2.09,0,4.19,0,6.29,0,.25-.05.31-.31.31-.93,0-1.86,0-2.8,0-.19,0-.25,0-.24-.25q0-6.33,0-12.67c0-.24.08-.27.29-.27.93,0,1.85,0,2.77,0,.24,0,.3.06.3.3C31.22,32.88,31.23,35,31.23,37.08Z"/><path class="cls-43" d="M40,54h-9c-.24,0-.31-.07-.29-.3a3.38,3.38,0,0,0,0-.45,1.2,1.2,0,0,1,1.22-1.31H47.79a1.89,1.89,0,0,1,1.09.28.94.94,0,0,1,.45.84,5.3,5.3,0,0,0,0,.69c0,.22-.06.26-.26.26Z"/><path class="cls-45" d="M43.84,50.94H36.26c-.27,0-.34-.08-.33-.34,0-.67,0-1.34,0-2,0-.16,0-.24.21-.24l7.7,0Z"/><path class="cls-46" d="M47.22,40c-.45-.26-.9-.52-1.36-.76-.22-.12-.07-.23,0-.34q1.78-3.11,3.59-6.21c.48-.84,1-1.68,1.45-2.53.1-.17.17-.22.36-.1.39.25.81.48,1.21.71a.77.77,0,0,1-.17.44l-.8,1.38-2.17,3.77Z"/><path class="cls-47" d="M51.38,43.66l-2.43,0c-.15,0-.19,0-.19-.19V40.18a.46.46,0,0,1,.08-.25l2.49-4.31,0,0c0,.1,0,.2,0,.3Z"/><path class="cls-48" d="M51.38,43.66V35.88c0-.1,0-.2,0-.3l.68-1.22h.06v.31c0,2.88,0,5.76,0,8.63,0,.32-.09.41-.38.36Z"/><path class="cls-49" d="M47.22,40l2.1-3.64,2.17-3.77.8-1.38a.77.77,0,0,0,.17-.44.69.69,0,0,0,.19.1c.2.08.19.19.09.36q-2.54,4.36-5,8.74C47.52,40.31,47.38,40.14,47.22,40Z"/><path class="cls-50" d="M47.41,34.25c0-1.52,0-3,0-4.55V26c.4,0,.4,0,.4.38,0,2.22,0,4.43,0,6.65A1.8,1.8,0,0,1,47.41,34.25Z"/><path class="cls-51" d="M53.07,30c-.5-.22-.94-.54-1.41-.79-.11-.06-.14-.13-.07-.24s.3-.54.47-.8a.78.78,0,0,1,1-.27,2.24,2.24,0,0,1,.66.4,1.83,1.83,0,0,1-.34,1.12A1.2,1.2,0,0,0,53.07,30Z"/><path class="cls-43" d="M50.66,28.64l-.08.15c-.16.24-.22.64-.46.7a2.48,2.48,0,0,1-1.24,0c-.28-.07-.07-.45-.12-.68s0-.2.16-.19h1.74Z"/><path class="cls-50" d="M47.4,43.66V41.93c0-.08,0-.18-.06-.25.12-.1.29-.26.4-.21s0,.29.06.44c0,.46,0,.92,0,1.38S47.8,43.69,47.4,43.66Z"/><path class="cls-48" d="M49.6,30.49l-.79,1.37-.05,0V30.66c0-.13,0-.17.17-.17S49.33,30.49,49.6,30.49Z"/><path class="cls-52" d="M53.07,30a1.2,1.2,0,0,1,.27-.58,1.83,1.83,0,0,0,.34-1.12.77.77,0,0,1,.17,1c-.11.2-.25.39-.34.59S53.26,30.21,53.07,30Z"/><path class="cls-51" d="M45.54,41.26V40.18l.9.54A5.11,5.11,0,0,1,45.54,41.26Z"/><path class="cls-51" d="M43.84,50.94V48.39c.14,0,.21,0,.21.16,0,.74,0,1.49,0,2.23C44.05,50.94,44,51,43.84,50.94Z"/><path class="cls-52" d="M45.54,41.26a5.11,5.11,0,0,0,.9-.54l.33.16-1.19.69C45.5,41.46,45.54,41.36,45.54,41.26Z"/><path class="cls-53" d="M37.33,33H33.66c-.45,0-.57-.13-.63-.58,0-.29,0-.56,0-.84,0-1.36,0-2.71,0-4.07,0-.44.17-.6.6-.6H41c.41,0,.58.15.58.55,0,1.67,0,3.33,0,5,0,.38-.17.53-.56.54Zm0-5.13c-1,0-2.07,0-3.1,0-.19,0-.26,0-.25.24,0,1.21,0,2.41,0,3.61,0,.23,0,.31.3.31h6.07c.26,0,.3-.09.3-.31,0-1.2,0-2.4,0-3.61,0-.2-.06-.24-.25-.24C39.39,27.84,38.37,27.83,37.35,27.83Z"/><path class="cls-41" d="M44.73,28.22c-.57,0-1.13,0-1.69,0-.39,0-.6-.18-.59-.49s.21-.47.6-.47c1.14,0,2.29,0,3.43,0a.49.49,0,0,1,.55.47c0,.27-.2.47-.53.49H44.73Z"/><path class="cls-41" d="M44.75,29.63h1.72c.35,0,.57.19.56.48s-.22.48-.57.48q-1.73,0-3.45,0c-.36,0-.56-.18-.56-.48s.2-.48.56-.48Z"/><path class="cls-41" d="M44.75,33H43c-.36,0-.56-.18-.56-.48s.2-.48.56-.49h3.45c.35,0,.57.2.57.49s-.21.47-.56.48Z"/><path class="cls-54" d="M37.35,27.83c1,0,2,0,3.07,0,.19,0,.25,0,.25.24,0,1.21,0,2.41,0,3.61,0,.22,0,.31-.3.31H34.3c-.25,0-.31-.08-.3-.31,0-1.2,0-2.4,0-3.61,0-.2.06-.24.25-.24C35.28,27.84,36.32,27.83,37.35,27.83Z"/><circle class="cls-18" cx="40" cy="40" r="38.52"/><circle class="cls-2" cx="40" cy="40" r="38.52"/><circle class="cls-23" cx="40" cy="40" r="38.52"/><path class="cls-55" d="M58.69,39.13a.82.82,0,0,1-1,.28c-.7-.21-1.4-.38-2.11-.58-.42-.11-.62-.39-.53-.76s.41-.51.85-.4c.75.19,1.49.4,2.24.6a.75.75,0,0,1,.57.49Z"/><path class="cls-56" d="M21.32,43a7.73,7.73,0,0,1,5.21-7.34A37.2,37.2,0,0,0,41.65,25.43a1.61,1.61,0,0,0,.49-1.21,2.34,2.34,0,0,1,2-2.28,2.4,2.4,0,0,1,2.63,1.52c.56,1.47,1.08,3,1.62,4.44L55.1,46.28a2.46,2.46,0,0,1-.84,3.1A2.4,2.4,0,0,1,51,48.8a.77.77,0,0,0-.55-.34,35.63,35.63,0,0,0-7.92-.41c-.35,0-.49.1-.56.47a4.21,4.21,0,0,1-1.68,2.68c-.19.15-.2.24-.1.44.45.9.88,1.81,1.32,2.72a2.1,2.1,0,0,1-1.25,3.11L39,57.92a2.07,2.07,0,0,1-2.6-.77q-2.46-3.21-4.9-6.44A.45.45,0,0,0,31,50.5a7.74,7.74,0,0,1-9.55-6.33A5,5,0,0,1,21.32,43Zm16.6,6.73-.27-.59c-.25-.52-.25-.52-.8-.41a22.63,22.63,0,0,0-4.1,1.12c-.16.07-.29.09-.12.31.66.84,1.31,1.69,2,2.54q1.42,1.9,2.87,3.8a.85.85,0,0,0,1,.29c.51-.17,1-.35,1.5-.55a.85.85,0,0,0,.5-1.25C39.63,53.28,38.77,51.53,37.92,49.77ZM23.94,39a1.07,1.07,0,0,0-.14.16,6.47,6.47,0,0,0-1.09,5.4,6.57,6.57,0,0,0,6.6,5,13.45,13.45,0,0,0,3.64-1c.15,0,.17-.13.12-.27l-1.53-4.11-2.8-7.77c-.07-.19-.16-.16-.3-.11-.6.23-1.21.43-1.8.67A6,6,0,0,0,23.94,39Zm9.12,5.62c.4,1.12.8,2.23,1.19,3.35.07.2.2.11.32.08a43.86,43.86,0,0,1,7.11-1.13,37.63,37.63,0,0,1,6.19,0c.78.07,1.57.16,2.4.25-.17-.46-.32-.89-.48-1.32l-1.46-4c0-.11-.06-.23-.1-.35q-2.35-6.45-4.7-12.91c-.3-.81-.6-1.63-.89-2.45l-.07,0-.69.75a41.11,41.11,0,0,1-11.72,8.58c-.27.13-.35.23-.24.54.59,1.55,1.15,3.12,1.72,4.69Zm19.86,4a1.09,1.09,0,0,0,.74-.25A1.26,1.26,0,0,0,54,46.74q-3.43-9.42-6.86-18.85c-.48-1.31-1-2.63-1.44-3.94a1.22,1.22,0,0,0-2-.47,1.31,1.31,0,0,0-.21,1.46q3.15,8.62,6.28,17.25l2,5.5A1.19,1.19,0,0,0,52.92,48.57Zm-12.14-.31c0-.06-.05-.07-.14-.06-.57.07-1.15.13-1.72.21-.21,0-.24.14-.14.33s.3.64.45.95c.3.64.31.65.78.12A3.29,3.29,0,0,0,40.78,48.26Z"/><path class="cls-57" d="M57.07,33a.57.57,0,0,1-.38.54c-.83.31-1.65.62-2.49.91a.57.57,0,0,1-.71-.35.55.55,0,0,1,.26-.74c.87-.34,1.74-.66,2.63-1A.59.59,0,0,1,57.07,33Z"/><path class="cls-55" d="M52.49,30.21a.58.58,0,0,1-.53-.88c.48-.75,1-1.48,1.53-2.21a.58.58,0,0,1,.78-.12.56.56,0,0,1,.18.8c-.49.74-1,1.46-1.51,2.18A.56.56,0,0,1,52.49,30.21Z"/><path class="cls-58" d="M33.06,44.6l-1.42-3.82c-.57-1.57-1.13-3.14-1.72-4.69-.11-.31,0-.41.24-.54A41.11,41.11,0,0,0,41.88,27l.69-.75.07,0c.29.82.59,1.64.89,2.45q2.34,6.47,4.7,12.91c0,.12.07.24.1.35a2.45,2.45,0,0,0-.74.37A22.5,22.5,0,0,1,43.37,44a25.14,25.14,0,0,1-3.55.74c-.66.08-1.32.13-2,.18a14.21,14.21,0,0,1-2.26,0Z"/><path class="cls-59" d="M52.92,48.57a1.19,1.19,0,0,1-1.17-.88l-2-5.5q-3.14-8.62-6.28-17.25a1.31,1.31,0,0,1,.21-1.46,1.22,1.22,0,0,1,2,.47c.49,1.31,1,2.63,1.44,3.94Q50.55,37.31,54,46.74a1.26,1.26,0,0,1-.33,1.58A1.09,1.09,0,0,1,52.92,48.57Z"/><path class="cls-60" d="M31.54,44.16l1.53,4.11c0,.14,0,.22-.12.27a13.45,13.45,0,0,1-3.64,1,6.57,6.57,0,0,1-6.6-5,6.47,6.47,0,0,1,1.09-5.4,1.07,1.07,0,0,1,.14-.16,7.37,7.37,0,0,0,1,1.43,12.86,12.86,0,0,0,6,3.66C31.14,44.13,31.33,44.29,31.54,44.16Z"/><path class="cls-61" d="M33.06,44.6l2.52.27a14.21,14.21,0,0,0,2.26,0c.66,0,1.32-.1,2-.18A25.14,25.14,0,0,0,43.37,44a22.5,22.5,0,0,0,4.22-1.68,2.45,2.45,0,0,1,.74-.37l1.46,4c.16.43.31.86.48,1.32-.83-.09-1.62-.18-2.4-.25a37.63,37.63,0,0,0-6.19,0A43.86,43.86,0,0,0,34.57,48c-.12,0-.25.12-.32-.08C33.86,46.83,33.46,45.72,33.06,44.6Z"/><path class="cls-62" d="M31.54,44.16c-.21.13-.4,0-.57-.09a12.86,12.86,0,0,1-6-3.66,7.37,7.37,0,0,1-1-1.43,6,6,0,0,1,2.7-2c.59-.24,1.2-.44,1.8-.67.14-.05.23-.08.3.11Z"/><path class="cls-63" d="M37.92,49.77c.85,1.76,1.71,3.51,2.55,5.26a.85.85,0,0,1-.5,1.25c-.49.2-1,.38-1.5.55a.85.85,0,0,1-1-.29q-1.44-1.89-2.87-3.8a5.15,5.15,0,0,1,1.69-2.14A3.61,3.61,0,0,1,37.92,49.77Z"/><path class="cls-64" d="M37.92,49.77a3.61,3.61,0,0,0-1.64.83,5.15,5.15,0,0,0-1.69,2.14c-.65-.85-1.3-1.7-2-2.54-.17-.22,0-.24.12-.31a22.63,22.63,0,0,1,4.1-1.12c.55-.11.55-.11.8.41Z"/><path class="cls-65" d="M40.78,48.26A3.29,3.29,0,0,1,40,49.81c-.47.53-.48.52-.78-.12-.15-.31-.29-.64-.45-.95s-.07-.3.14-.33c.57-.08,1.15-.14,1.72-.21C40.73,48.19,40.79,48.2,40.78,48.26Z"/><circle class="cls-23" cx="40" cy="40" r="38.52"/><path class="cls-66" d="M27.61,24.55l.26.16,2.42,1.58a.46.46,0,0,0,.6,0,15.42,15.42,0,0,1,6-2.47c.24,0,.28-.2.31-.4.18-1,.38-1.94.54-2.91,0-.25.14-.29.37-.29h3.65c.26,0,.33.09.38.33.19,1,.4,1.93.6,2.9,0,.2.1.33.33.37A16.31,16.31,0,0,1,49,26.25a.58.58,0,0,0,.77,0c.79-.54,1.61-1,2.42-1.58a.28.28,0,0,1,.43,0c.88.89,1.75,1.77,2.64,2.64.18.17.16.29,0,.48-.53.8-1,1.61-1.57,2.41a.53.53,0,0,0,0,.7,15.43,15.43,0,0,1,2.44,6c0,.24.17.3.37.34,1,.17,1.89.37,2.84.53.25,0,.32.15.31.39,0,1.2,0,2.41,0,3.61a.36.36,0,0,1-.35.42l-2.9.59a.38.38,0,0,0-.36.35,16.83,16.83,0,0,1-2.45,6,.5.5,0,0,0,0,.66c.55.81,1.07,1.64,1.61,2.45.12.19.13.31,0,.47Q53.88,54,52.57,55.3a.28.28,0,0,1-.44,0c-.84-.55-1.69-1.09-2.52-1.65a.43.43,0,0,0-.56,0,15.59,15.59,0,0,1-6,2.48c-.23,0-.29.17-.33.38-.18.94-.37,1.88-.54,2.83,0,.22-.1.32-.34.31H38.12c-.25,0-.32-.09-.36-.31-.2-1-.41-2-.61-2.94a.38.38,0,0,0-.35-.35,16.83,16.83,0,0,1-5.93-2.43.52.52,0,0,0-.7,0c-.8.55-1.63,1.06-2.44,1.6a.31.31,0,0,1-.48,0Q26,53.88,24.64,52.59c-.19-.18-.16-.31,0-.5.54-.81,1.06-1.64,1.6-2.45a.46.46,0,0,0,0-.6,15.42,15.42,0,0,1-2.47-6c-.05-.25-.2-.29-.39-.32-.95-.18-1.89-.38-2.83-.54-.25,0-.3-.13-.3-.36,0-1.22,0-2.43,0-3.65,0-.25.08-.34.32-.39,1-.18,1.93-.4,2.9-.6.2,0,.34-.09.38-.33a16.61,16.61,0,0,1,2.46-6,.47.47,0,0,0,0-.63c-.55-.79-1.07-1.6-1.61-2.39-.11-.17-.14-.28,0-.44.9-.88,1.78-1.78,2.67-2.66C27.43,24.63,27.48,24.55,27.61,24.55ZM40,27.63A12.33,12.33,0,1,0,52.29,39.94,12.35,12.35,0,0,0,40,27.63Z"/><path class="cls-67" d="M40,27.63A12.33,12.33,0,1,1,27.63,40,12.35,12.35,0,0,1,40,27.63ZM40,31a9,9,0,1,0,9,9A9,9,0,0,0,40,31Z"/><path class="cls-68" d="M40,31a9,9,0,1,1-9,8.94A9,9,0,0,1,40,31ZM38.12,41.43h-.48c-.25,0-.33.08-.31.32a2.16,2.16,0,0,0,1.63,2c.59.16.6.16.59.79,0,.27,0,.39.36.41s.52-.14.46-.5.07-.61.52-.71a2,2,0,0,0,1.56-2.51A2.44,2.44,0,0,0,41,39.64,13.35,13.35,0,0,1,39.49,39a1,1,0,0,1-.38-1.13.86.86,0,0,1,.87-.59c.47,0,.71.22.89.71.08.21-.08.51.19.6a2.19,2.19,0,0,0,.68,0h.56c.14,0,.22,0,.21-.21A2.21,2.21,0,0,0,41,36.2c-.39-.08-.51-.24-.45-.61,0-.08,0-.16,0-.24,0-.33-.07-.44-.41-.42s-.42,0-.41.39c0,.71,0,.71-.65.9A2.08,2.08,0,0,0,38,39.45a3.45,3.45,0,0,0,1.56,1.07,4,4,0,0,1,1.2.62.93.93,0,0,1-.12,1.48,1.11,1.11,0,0,1-1.66-.78c0-.38-.19-.45-.5-.41Zm-3-.5a1,1,0,1,0,0-1.94,1,1,0,1,0,0,1.94Zm9.73,0a1,1,0,0,0,1-1,1,1,0,0,0-2,0A1,1,0,0,0,44.82,40.93Z"/><path class="cls-69" d="M38.12,41.43h.32c.31,0,.46,0,.5.41a1.11,1.11,0,0,0,1.66.78.93.93,0,0,0,.12-1.48,4,4,0,0,0-1.2-.62A3.45,3.45,0,0,1,38,39.45a2.08,2.08,0,0,1,1.1-3.23c.65-.19.67-.19.65-.9,0-.34.11-.39.41-.39s.46.09.41.42c0,.08,0,.16,0,.24-.06.37.06.53.45.61a2.21,2.21,0,0,1,1.53,2.17c0,.16-.07.21-.21.21h-.56a2.19,2.19,0,0,1-.68,0c-.27-.09-.11-.39-.19-.6-.18-.49-.42-.7-.89-.71a.86.86,0,0,0-.87.59A1,1,0,0,0,39.49,39a13.35,13.35,0,0,0,1.49.68,2.44,2.44,0,0,1,1.47,1.64,2,2,0,0,1-1.56,2.51c-.45.1-.6.28-.52.71s0,.52-.46.5-.37-.14-.36-.41c0-.63,0-.63-.59-.79a2.16,2.16,0,0,1-1.63-2c0-.24.06-.34.31-.32Z"/><path class="cls-69" d="M35.09,40.93a1,1,0,1,1,0-1.94,1,1,0,1,1,0,1.94Z"/><path class="cls-69" d="M44.82,40.93a1,1,0,0,1-1-1,1,1,0,0,1,2,0A1,1,0,0,1,44.82,40.93Z"/><g id="aws"><circle class="cls-40" cx="39.96" cy="40.1" r="38.52"/><g id="Layer_1-2" data-name="Layer_1"><g id="amazon-web-services-2.svg"><path class="cls-70" d="M30.73,36.53a4.17,4.17,0,0,0,.16,1.25,7.11,7.11,0,0,0,.45,1,.62.62,0,0,1,.1.32.57.57,0,0,1-.27.43l-.89.59a.64.64,0,0,1-.37.13.63.63,0,0,1-.42-.2,4.33,4.33,0,0,1-.51-.66c-.14-.24-.28-.51-.44-.84a5.2,5.2,0,0,1-4.15,2,3.88,3.88,0,0,1-2.82-1,4,4,0,0,1,.24-5.63,5.15,5.15,0,0,1,3.46-1.1,9.74,9.74,0,0,1,1.49.12c.53.07,1.06.18,1.63.31v-1a3.13,3.13,0,0,0-.67-2.26,3.28,3.28,0,0,0-2.3-.65,6.26,6.26,0,0,0-1.52.19,11.33,11.33,0,0,0-1.53.48,3.59,3.59,0,0,1-.49.18.79.79,0,0,1-.23,0c-.2,0-.3-.14-.3-.43V29a.9.9,0,0,1,.1-.49,1.06,1.06,0,0,1,.4-.3,9.43,9.43,0,0,1,4-.9,5.17,5.17,0,0,1,3.7,1.14A4.68,4.68,0,0,1,30.71,32v4.58ZM25,38.67a4.56,4.56,0,0,0,1.45-.25,3.18,3.18,0,0,0,1.35-.91,2.3,2.3,0,0,0,.48-.9,5.34,5.34,0,0,0,.14-1.23v-.59a10.33,10.33,0,0,0-1.3-.24,10,10,0,0,0-1.33-.09,3.28,3.28,0,0,0-2.11.57A2,2,0,0,0,23,36.65a1.83,1.83,0,0,0,2,2ZM36.34,40.2a.81.81,0,0,1-.54-.14,1.21,1.21,0,0,1-.29-.55L32.19,28.59a2.34,2.34,0,0,1-.13-.57.31.31,0,0,1,.34-.35h1.38a.8.8,0,0,1,.56.14,1.2,1.2,0,0,1,.28.55L37,37.71l2.2-9.35a1,1,0,0,1,.27-.55,1,1,0,0,1,.57-.14h1.13a.82.82,0,0,1,.56.14.91.91,0,0,1,.27.55l2.23,9.46,2.45-9.46a1.14,1.14,0,0,1,.28-.55,1,1,0,0,1,.55-.14h1.31a.32.32,0,0,1,.36.35c0,.07,0,.14,0,.23a2.24,2.24,0,0,1-.1.35l-3.4,10.92a1.13,1.13,0,0,1-.3.55.87.87,0,0,1-.54.14H43.59a.87.87,0,0,1-.57-.14,1,1,0,0,1-.27-.56l-2.19-9.12-2.17,9.1a1.16,1.16,0,0,1-.27.57.86.86,0,0,1-.56.14Zm18.15.38a9.27,9.27,0,0,1-2.17-.26,6.2,6.2,0,0,1-1.63-.56,1.09,1.09,0,0,1-.44-.4,1,1,0,0,1-.08-.39v-.72c0-.3.11-.44.32-.44a.78.78,0,0,1,.26,0l.35.14a7,7,0,0,0,1.56.5,8.63,8.63,0,0,0,1.68.17,3.81,3.81,0,0,0,2.06-.47,1.51,1.51,0,0,0,.73-1.34,1.35,1.35,0,0,0-.38-1,3.4,3.4,0,0,0-1.42-.73l-2-.64A4.23,4.23,0,0,1,51,33.05a3.34,3.34,0,0,1-.71-2,3.23,3.23,0,0,1,.38-1.57,3.74,3.74,0,0,1,1-1.15,4.33,4.33,0,0,1,1.47-.74A6.12,6.12,0,0,1,55,27.3a7.42,7.42,0,0,1,.94.06c.33,0,.63.1.92.15s.55.14.81.23a3.15,3.15,0,0,1,.59.25,1.19,1.19,0,0,1,.42.36.7.7,0,0,1,.13.46v.67c0,.29-.11.45-.32.45a1.51,1.51,0,0,1-.54-.17,6.4,6.4,0,0,0-2.71-.55,3.74,3.74,0,0,0-1.88.39,1.36,1.36,0,0,0-.66,1.26,1.31,1.31,0,0,0,.42,1,4.13,4.13,0,0,0,1.55.78l2,.64a4.25,4.25,0,0,1,2.19,1.35,3.2,3.2,0,0,1,.65,2,3.63,3.63,0,0,1-.37,1.64,3.72,3.72,0,0,1-1,1.24,4.55,4.55,0,0,1-1.57.79,6.62,6.62,0,0,1-2,.3Z"/><path class="cls-71" d="M57.16,47.44C52.51,50.88,45.76,52.7,40,52.7a31.14,31.14,0,0,1-21-8c-.43-.4,0-.93.48-.62a42.42,42.42,0,0,0,21,5.58,42,42,0,0,0,16-3.28C57.26,46,57.92,46.88,57.16,47.44Z"/><path class="cls-71" d="M59.1,45.24c-.6-.76-3.93-.37-5.44-.18-.45,0-.52-.34-.11-.64,2.65-1.86,7-1.33,7.52-.7s-.14,5-2.62,7.09c-.38.32-.75.15-.58-.27.56-1.4,1.82-4.55,1.23-5.3Z"/></g></g></g><g id="data_ana_ystics" data-name="data ana;ystics"><circle class="cls-18" cx="40" cy="40" r="38.52"/><path class="cls-72" d="M46.32,27.79c.48-.18.58-.15.89.26A13.35,13.35,0,0,1,49.82,34c0,.21.11.27.32.27h3a.53.53,0,0,1,.59.39.49.49,0,0,1-.52.62c-.45,0-.9,0-1.35,0H50.22c-.18,0-.23,0-.22.22,0,.75,0,.75.77.75h4.82c.29,0,.51.08.59.39s-.16.62-.58.62c-1.38,0-2.75,0-4.12,0-.43,0-.85,0-1.28,0-.16,0-.21.05-.23.21-.1.76-.11.76.68.76h2.53c.41,0,.67.27.6.59s-.29.42-.6.42c-1,0-2.1,0-3.14,0-.25,0-.35.07-.4.31a13.2,13.2,0,0,1-2.45,5.12c-.11.15-.15.24,0,.39.5.48,1,1,1.48,1.47.11.12.18.14.32,0a.86.86,0,0,1,1.22.09c1.57,1.55,3.12,3.11,4.68,4.67a.56.56,0,0,1,.07.79c-.38.21-.52.19-.82-.11-.49-.48-1-1-1.45-1.45-.12-.13-.2-.13-.32,0-.3.33-.62.64-.93,1l-.91.89c-.1.09-.13.16,0,.27l3.4,3.4c.09.09.15.11.25,0,.3-.33.62-.65.93-1l.78-.75c.31-.31.31-.31,0-.62s-.34-.47-.12-.86a.62.62,0,0,1,.82.12c.86.78.9,1.27,0,2.08-.6.55-1.17,1.15-1.75,1.73a1,1,0,0,1-1.61,0l-6.47-6.47a.93.93,0,0,1-.17-1.42c.1-.16,0-.2-.09-.27-.48-.49-1-1-1.45-1.46-.16-.17-.25-.13-.41,0a13.45,13.45,0,0,1-4.37,2.25,8.13,8.13,0,0,1-1.18.29c-.32,0-.36.18-.36.45,0,1,0,1.91,0,2.87,0,.41-.17.63-.49.63s-.52-.22-.52-.63c0-1,0-1.89,0-2.84,0-.24-.07-.27-.28-.25-.69.07-.69.06-.69.75v4.62a1.07,1.07,0,0,1,0,.4.49.49,0,0,1-.52.34.47.47,0,0,1-.45-.44c0-.11,0-.22,0-.34,0-1.65,0-3.3,0-5,0-.26-.07-.34-.33-.35-.66-.05-.66-.06-.66.58v2.5c0,.41-.18.62-.5.62s-.51-.22-.51-.61c0-1,0-2,0-3,0-.24-.07-.31-.3-.36a13.55,13.55,0,0,1-9.41-7.4,12.88,12.88,0,0,1-1.3-4.5c0-.07,0-.17-.08-.21V35.11c.09,0,.07-.11.07-.17a12.62,12.62,0,0,1,.6-2.79A13.58,13.58,0,0,1,33.8,22.92a14,14,0,0,0,1.44-.24h2.3a4.53,4.53,0,0,0,1.1.19,13.67,13.67,0,0,1,6.85,3.31.57.57,0,0,1,.09.81.65.65,0,0,1-.87-.14A12.31,12.31,0,0,0,39.22,24a12,12,0,0,0-4.85-.19A12.33,12.33,0,0,0,26.9,28a12.15,12.15,0,0,0-3,10.55,12.36,12.36,0,0,0,7,9.28A12,12,0,0,0,35.71,49a11.51,11.51,0,0,0,3.51-.34,3.88,3.88,0,0,0,.49-.11A12.66,12.66,0,0,0,49,35.34a12.41,12.41,0,0,0-2.58-6.7A.65.65,0,0,1,46.32,27.79Zm4.39,23,1-1c.24-.24,0-.34-.15-.4s-.24-.57-.56-.31-.65.65-1,1a10.92,10.92,0,0,0-.9.9c-.26.34.22.39.33.59s.16.35.38.12S50.41,51.08,50.71,50.78Zm-1.43-1.44.49-.46c.69-.69.68-.69-.08-1.34-.11-.1-.17-.09-.27,0l-1,1-.39.37c-.2.22-.59.41-.58.66s.4.45.61.68.17.14.29,0C48.68,49.94,49,49.64,49.28,49.34Zm-3-3.64a6,6,0,0,1-.44.48c-.15.14-.16.23,0,.38.36.34.7.69,1,1,.55.55.54.55,1.07,0,.13-.14.13-.22,0-.35-.48-.46-.94-.94-1.41-1.41A.36.36,0,0,0,46.28,45.7Z"/><path class="cls-73" d="M46.32,27.79a.65.65,0,0,0,.06.85A12.41,12.41,0,0,1,49,35.34a12.66,12.66,0,0,1-9.25,13.21,3.88,3.88,0,0,1-.49.11c0-.12.12-.12.2-.15a12.81,12.81,0,0,0,4.33-3c.09-.09.22-.17.19-.33.18-.17.36-.34.53-.52a11.65,11.65,0,0,0-.53-17.17c0-.14-.08-.22-.16-.31a14.67,14.67,0,0,0-1.08-1,12.61,12.61,0,0,0-2.83-1.78c-.22-.1-.49-.14-.65-.37a12.31,12.31,0,0,1,5.49,2.81.65.65,0,0,0,.87.14A3.31,3.31,0,0,1,46.32,27.79Z"/><path class="cls-74" d="M55.77,52.88c-.22.39-.2.54.12.86s.3.31,0,.62l-.78.75A1,1,0,0,0,55,55l-3.34-3.34a.32.32,0,0,0-.22-.13c.31-.32.63-.63.93-1,.12-.13.2-.13.32,0,.48.49,1,1,1.45,1.45.3.3.44.32.82.11Z"/><path class="cls-75" d="M43.94,45.2c0,.16-.1.24-.19.33a12.81,12.81,0,0,1-4.33,3c-.08,0-.19,0-.2.15a11.51,11.51,0,0,1-3.51.34,12,12,0,0,1-4.77-1.21,12.36,12.36,0,0,1-7-9.28A12.15,12.15,0,0,1,26.9,28a12.33,12.33,0,0,1,7.47-4.11,12,12,0,0,1,4.85.19c.16.23.43.27.65.37a12.61,12.61,0,0,1,2.83,1.78,14.67,14.67,0,0,1,1.08,1c.08.09.19.17.16.31l-.08-.05a11.43,11.43,0,0,0-8.62-2.69,11,11,0,0,0-6.8,3.09,11.47,11.47,0,0,0-3.66,9.74A11,11,0,0,0,27.57,44c.29.33.48.34.83.08.17.35.55.51.77.81a.62.62,0,0,0,.25.82,11.71,11.71,0,0,0,14.52-.52Z"/><path class="cls-76" d="M51.45,51.51a.32.32,0,0,1,.22.13L55,55a1,1,0,0,1,.09.13c-.31.32-.63.64-.93,1-.1.1-.16.08-.25,0l-3.4-3.4c-.11-.11-.08-.18,0-.27Z"/><path class="cls-75" d="M46.28,45.7a.36.36,0,0,1,.27.13c.47.47.93,1,1.41,1.41.13.13.13.21,0,.35-.53.56-.52.56-1.07,0-.35-.35-.69-.7-1-1-.16-.15-.15-.24,0-.38A6,6,0,0,0,46.28,45.7Z"/><path class="cls-76" d="M49.28,49.34c-.3.3-.6.6-.89.92-.12.12-.19.1-.29,0s-.59-.41-.61-.68.38-.44.58-.66l.39-.37A2.06,2.06,0,0,1,49.28,49.34Z"/><path class="cls-77" d="M49.28,49.34a2.06,2.06,0,0,0-.82-.81l1-1c.1-.1.16-.11.27,0,.76.65.77.65.08,1.34Z"/><path class="cls-78" d="M50,50.08c.32-.32.62-.68,1-1s.39.19.56.31.39.16.15.4l-1,1A3.32,3.32,0,0,0,50,50.08Z"/><path class="cls-79" d="M50,50.08a3.32,3.32,0,0,1,.7.7c-.3.3-.6.6-.89.91s-.32,0-.38-.12-.59-.25-.33-.59A10.92,10.92,0,0,1,50,50.08Z"/><path class="cls-80" d="M28.4,44.09c-.35.26-.54.25-.83-.08a11,11,0,0,1-2.79-6.41,11.47,11.47,0,0,1,3.66-9.74,11,11,0,0,1,6.8-3.09,11.43,11.43,0,0,1,8.62,2.69l.08.05a11.65,11.65,0,0,1,.53,17.17c-.17.18-.35.35-.53.52a11.71,11.71,0,0,1-14.52.52.62.62,0,0,1-.25-.82.6.6,0,0,1,.82,0,10.73,10.73,0,0,0,5,2,9.45,9.45,0,0,0,3.67-.18h.14a10.3,10.3,0,0,0,7.9-8.14A10.2,10.2,0,0,0,43,28.08,9.45,9.45,0,0,0,38.68,26l-.22-.07A10.71,10.71,0,0,0,25.81,37.8a10,10,0,0,0,2.48,5.5A.58.58,0,0,1,28.4,44.09Z"/><path class="cls-81" d="M38.68,46.71a9.45,9.45,0,0,1-3.67.18,10.73,10.73,0,0,1-5-2,.6.6,0,0,0-.82,0c-.22-.3-.6-.46-.77-.81a.58.58,0,0,0-.11-.79,10,10,0,0,1-2.48-5.5A10.71,10.71,0,0,1,38.46,25.93l.22.07c0,.19.23.21.36.27a10.58,10.58,0,0,1,3.08,2.12,11.3,11.3,0,0,1,2.61,4,11,11,0,0,1,.75,4A11.31,11.31,0,0,1,42.41,44a10.81,10.81,0,0,1-2.91,2.19C39.22,46.37,38.86,46.4,38.68,46.71ZM36.53,37.1h6.95a2.08,2.08,0,0,0,.43,0,.45.45,0,0,0,.37-.49.44.44,0,0,0-.39-.47,1.5,1.5,0,0,0-.47,0c-.27,0-.32-.08-.32-.32,0-.79,0-1.58,0-2.36s-.27-1-1-1c-.92,0-1.84,0-2.76,0-.27,0-.34-.08-.34-.34,0-1.27,0-2.54,0-3.81,0-.72-.27-1-1-1H34.88a.79.79,0,0,0-.89.89c0,.46,0,.93,0,1.39,0,.24-.08.29-.31.29H31c-.77,0-1,.25-1,1,0,1.6,0,3.2,0,4.79,0,.35-.08.45-.43.43-.53,0-.76.14-.76.48s.24.52.78.52Zm1.74,3.14c.24.62.47,1.16.67,1.72a.61.61,0,0,0,.67.44h2.46c.4,0,.62-.18.62-.5s-.22-.51-.61-.51h-2a.31.31,0,0,1-.35-.23c-.3-.8-.61-1.59-.92-2.38-.1-.27-.23-.48-.54-.48s-.43.21-.53.48c-.41,1.15-.84,2.29-1.27,3.44,0,.1,0,.24-.18.32l-1-2.74c-.08-.23-.2-.42-.48-.44a.54.54,0,0,0-.55.36c-.25.48-.54.94-.78,1.42a.41.41,0,0,1-.45.25H31.1c-.39,0-.63.19-.63.5s.23.51.62.51h2.43a.65.65,0,0,0,.65-.39c.15-.29.32-.58.51-.91,0,.12.07.18.09.24l1,2.85c.14.37.4.5.7.38a.62.62,0,0,0,.33-.41C37.28,42.88,37.76,41.6,38.27,40.24Z"/><path class="cls-82" d="M38.68,46.71c.18-.31.54-.34.82-.49A10.81,10.81,0,0,0,42.41,44a11.31,11.31,0,0,0,3.07-7.68,11,11,0,0,0-.75-4,11.3,11.3,0,0,0-2.61-4A10.58,10.58,0,0,0,39,26.27c-.13-.06-.31-.08-.36-.27A9.45,9.45,0,0,1,43,28.08a10.2,10.2,0,0,1,3.71,10.48,10.3,10.3,0,0,1-7.9,8.14Z"/><path class="cls-83" d="M36.53,37.1h-7c-.54,0-.79-.16-.78-.52s.23-.52.76-.48c.35,0,.43-.08.43-.43,0-1.59,0-3.19,0-4.79,0-.75.25-1,1-1h2.73c.23,0,.32-.05.31-.29,0-.46,0-.93,0-1.39a.79.79,0,0,1,.89-.89h3.21c.7,0,1,.27,1,1,0,1.27,0,2.54,0,3.81,0,.26.07.34.34.34.92,0,1.84,0,2.76,0,.69,0,1,.27,1,1s0,1.57,0,2.36c0,.24,0,.35.32.32a1.5,1.5,0,0,1,.47,0,.44.44,0,0,1,.39.47.45.45,0,0,1-.37.49,2.08,2.08,0,0,1-.43,0Zm4-1,1.27,0c.18,0,.24-.06.24-.23q0-1.08,0-2.16c0-.17-.06-.24-.24-.23l-1.28,0-1.3,0c-.17,0-.21.07-.21.22v2.18c0,.16,0,.23.21.23A11.51,11.51,0,0,0,40.58,36.06Zm-8.11-5.15c-.43,0-.87,0-1.31,0-.2,0-.21.11-.21.26V35.8c0,.14,0,.3.21.29l1.31,0,1.31,0c.16,0,.21-.07.21-.23q0-2.37,0-4.74c0-.18-.07-.23-.24-.23C33.33,30.91,32.9,30.91,32.47,30.91Zm4.05,5.16c.4,0,.81,0,1.21,0s.32-.07.32-.32c0-1.54,0-3.08,0-4.62V28.6c0-.13,0-.29-.19-.28a12,12,0,0,0-1.34,0c-.39,0-.79,0-1.18,0s-.34.08-.34.34q0,3.56,0,7.09v.14c0,.14.06.2.2.2Z"/><path class="cls-72" d="M38.27,40.24c-.51,1.36-1,2.64-1.46,3.92a.62.62,0,0,1-.33.41c-.3.12-.56,0-.7-.38l-1-2.85c0-.06-.05-.12-.09-.24-.19.33-.36.62-.51.91a.65.65,0,0,1-.65.39H31.09c-.39,0-.62-.2-.62-.51s.24-.5.63-.5h1.95a.41.41,0,0,0,.45-.25c.24-.48.53-.94.78-1.42a.54.54,0,0,1,.55-.36c.28,0,.4.21.48.44l1,2.74c.14-.08.14-.22.18-.32.43-1.15.86-2.29,1.27-3.44.1-.27.23-.48.53-.48s.44.21.54.48c.31.79.62,1.58.92,2.38a.31.31,0,0,0,.35.23h2c.39,0,.62.19.61.51s-.22.5-.62.5H39.61a.61.61,0,0,1-.67-.44C38.74,41.4,38.51,40.86,38.27,40.24Z"/><path class="cls-77" d="M36.52,28.35a12,12,0,0,1,1.34,0c.22,0,.19.15.19.28v2.56c0,1.54,0,3.08,0,4.62,0,.25-.07.34-.32.32s-.81,0-1.21,0Z"/><path class="cls-76" d="M36.52,28.35v7.72l-1.31,0c-.14,0-.21-.06-.2-.2v-.14q0-3.54,0-7.09c0-.26.07-.35.34-.34S36.13,28.34,36.52,28.35Z"/><path class="cls-84" d="M32.47,36.07l-1.31,0c-.24,0-.21-.15-.21-.29V31.15c0-.15,0-.27.21-.26.44,0,.88,0,1.31,0Z"/><path class="cls-85" d="M32.47,36.07V30.91c.43,0,.86,0,1.28,0,.17,0,.24.05.24.23q0,2.37,0,4.74c0,.16-.05.23-.21.23Z"/><path class="cls-79" d="M40.58,36.06a11.51,11.51,0,0,1-1.31,0c-.16,0-.21-.07-.21-.23V33.68c0-.15,0-.23.21-.22l1.3,0Z"/><path class="cls-78" d="M40.58,36.06V33.48l1.28,0c.18,0,.24.06.24.23q0,1.08,0,2.16c0,.17-.06.24-.24.23Z"/></g><g id="mobile_app_development" data-name="mobile app development"><circle class="cls-2" cx="40" cy="40" r="38.52"/><path class="cls-86" d="M35,35.69a1.89,1.89,0,0,1-1.43.46H28.66A1.5,1.5,0,0,1,27,34.58a3,3,0,0,0-.77-1.83,6.29,6.29,0,0,1-1.55-4.1,6.52,6.52,0,0,1,11.63-4.13c.19.24.28.3.56.11A3.59,3.59,0,0,1,39,24c4.08,0,8.16,0,12.24,0a4,4,0,0,1,4,3.9c0,.11,0,.23,0,.35v25.4a4.07,4.07,0,0,1-3.11,4.13,4.53,4.53,0,0,1-1.16.12c-3.83,0-7.67-.06-11.5,0A4.27,4.27,0,0,1,35,53.4c.07-5.72,0-11.45,0-17.18Zm19.45,4V28.14a3.27,3.27,0,0,0-3.4-3.38H39.13a3.28,3.28,0,0,0-1.47.32c-.7.33-.74.46-.36,1.13.05.1.09.14.2.1a3.42,3.42,0,0,1,1.65-.13,1,1,0,0,1,1,.91c.11.81.54,1.06,1.31.75a1,1,0,0,1,1.21.32,4.71,4.71,0,0,1,.7,1.21A1,1,0,0,1,43,30.6c-.62.47-.62,1,0,1.48a1,1,0,0,1,.35,1.21,4.44,4.44,0,0,1-.74,1.26,1,1,0,0,1-1.16.29c-.79-.31-1.21-.07-1.33.76a1,1,0,0,1-.85.87,4.11,4.11,0,0,1-1.4,0,.94.94,0,0,1-.91-.93.91.91,0,0,0-.35-.71.76.76,0,0,0-.71-.11c-.25.11-.13.34-.13.52,0,5.33,0,10.67,0,16,0,.34.08.43.42.42H54.05c.31,0,.41-.06.41-.39C54.44,47.4,54.45,43.52,54.45,39.64ZM31.2,35.37H34a.7.7,0,0,0,.61-.42c.13-.24-.08-.36-.18-.5a4.85,4.85,0,0,1-.65-1.15,1,1,0,0,1,.34-1.21c.64-.49.64-1,0-1.5a.94.94,0,0,1-.36-1.1,4.17,4.17,0,0,1,.81-1.4.88.88,0,0,1,.87-.32,3.89,3.89,0,0,1,.44.16.85.85,0,0,0,.84-.13c.27-.2.14-.44.09-.67a5.73,5.73,0,1,0-9.91,5.16,3.63,3.63,0,0,1,.94,2.29.72.72,0,0,0,.83.79Zm14,17.13H36.23c-.32,0-.44.08-.42.41a7.37,7.37,0,0,1,0,.94,3.22,3.22,0,0,0,3.25,3.26q6.06,0,12.11,0a3.18,3.18,0,0,0,2.91-1.82,5.12,5.12,0,0,0,.37-2.36c0-.34-.09-.43-.43-.43ZM38.46,35.75c.79,0,.79,0,1-.68a1.6,1.6,0,0,1,2-1.11c.65.18.65.18,1-.42.06-.11.11-.23.18-.34.16-.26.1-.42-.15-.6a1.57,1.57,0,0,1-.16-2.39c.48-.47.48-.47.13-1.07-.06-.11-.14-.22-.2-.33s-.3-.31-.6-.18a1.57,1.57,0,0,1-2.16-1.09c-.13-.59-.13-.59-.74-.6h-.35c-.4,0-.57.1-.63.52a1.55,1.55,0,0,1-2,1.23c-.56-.18-.56-.18-.87.32-.09.14-.16.3-.25.44s-.11.44.15.64a1.56,1.56,0,0,1,.17,2.36c-.5.51-.5.51-.13,1.13l.22.33a.35.35,0,0,0,.51.15,1.56,1.56,0,0,1,2.24,1.29.38.38,0,0,0,.42.39Z"/><path class="cls-87" d="M31.22,39.15H28.66c-.25,0-.48,0-.54-.33s.15-.45.53-.45h5.17c.28,0,.51.1.5.41s-.23.38-.49.38Z"/><path class="cls-83" d="M31.24,37.64H28.63c-.27,0-.51-.06-.51-.38s.24-.4.52-.4h5.17c.28,0,.51.09.51.4s-.23.38-.52.38Z"/><path class="cls-83" d="M31.22,39.87h1.52c.27,0,.51.05.52.37s-.23.41-.51.41H29.69c-.28,0-.51-.08-.5-.4s.24-.39.52-.38Z"/><path class="cls-88" d="M54.45,39.64c0,3.88,0,7.76,0,11.65,0,.33-.1.39-.41.39H36.2c-.34,0-.42-.08-.42-.42,0-5.34,0-10.68,0-16,0-.18-.12-.41.13-.52a.76.76,0,0,1,.71.11.91.91,0,0,1,.35.71.94.94,0,0,0,.91.93,4.11,4.11,0,0,0,1.4,0,1,1,0,0,0,.85-.87c.12-.83.54-1.07,1.33-.76a1,1,0,0,0,1.16-.29,4.44,4.44,0,0,0,.74-1.26A1,1,0,0,0,43,32.08c-.63-.48-.63-1,0-1.48a1,1,0,0,0,.35-1.23,4.71,4.71,0,0,0-.7-1.21,1,1,0,0,0-1.21-.32c-.77.31-1.2.06-1.31-.75a1,1,0,0,0-1-.91,3.42,3.42,0,0,0-1.65.13c-.11,0-.15,0-.2-.1-.38-.67-.34-.8.36-1.13a3.28,3.28,0,0,1,1.47-.32H51.05a3.27,3.27,0,0,1,3.4,3.38ZM42.39,41.77h1.24a1.2,1.2,0,0,0,1.23-1.19q0-1.24,0-2.49a1.17,1.17,0,0,0-1.15-1.19c-.87,0-1.74,0-2.6,0A1.16,1.16,0,0,0,40,38.07c0,.84,0,1.68,0,2.53a1.18,1.18,0,0,0,1.2,1.17Zm5.45.52H46.63a1.2,1.2,0,0,0-1.26,1.2q0,1.24,0,2.49a1.15,1.15,0,0,0,1.08,1.17q1.38.06,2.76,0a1.13,1.13,0,0,0,1-1.16c0-.84,0-1.69,0-2.53a1.18,1.18,0,0,0-1.16-1.17ZM42.41,47h1.52a.88.88,0,0,0,.79-1.36c-.49-.89-1-1.76-1.51-2.63a.88.88,0,0,0-1.58,0c-.52.87-1,1.74-1.51,2.62A.88.88,0,0,0,40.93,47Zm5.42-9.84A2.2,2.2,0,1,0,50,39.34,2.19,2.19,0,0,0,47.83,37.13ZM45.1,27.57c.54,0,1.07,0,1.6,0,.29,0,.51-.1.5-.41s-.23-.38-.5-.37H43.55c-.29,0-.52.09-.52.4s.23.39.52.39C44.07,27.56,44.58,27.57,45.1,27.57Z"/><path class="cls-89" d="M31.2,35.37H28.63a.72.72,0,0,1-.83-.79,3.63,3.63,0,0,0-.94-2.29,5.73,5.73,0,1,1,9.91-5.16c0,.23.18.47-.09.67a.85.85,0,0,1-.84.13,3.89,3.89,0,0,0-.44-.16.88.88,0,0,0-.87.32,4.17,4.17,0,0,0-.81,1.4.94.94,0,0,0,.36,1.1c.65.51.65,1,0,1.5a1,1,0,0,0-.34,1.21,4.85,4.85,0,0,0,.65,1.15c.1.14.31.26.18.5a.7.7,0,0,1-.61.42H31.2ZM27,28a.37.37,0,0,0,.34.42c.26,0,.4-.12.44-.38a3.39,3.39,0,0,1,1-1.95,3.62,3.62,0,0,1,1.44-.88c.25-.08.37-.25.28-.5a.37.37,0,0,0-.51-.23A4.21,4.21,0,0,0,27,28Z"/><path class="cls-90" d="M45.15,52.5H54c.34,0,.44.09.43.43a5.12,5.12,0,0,1-.37,2.36,3.18,3.18,0,0,1-2.91,1.82q-6.06,0-12.11,0a3.22,3.22,0,0,1-3.25-3.26,7.37,7.37,0,0,0,0-.94c0-.33.1-.41.42-.41h8.92ZM45.07,55h1.67c.25,0,.45-.06.46-.35a.39.39,0,0,0-.41-.42c-1.12,0-2.23,0-3.34,0a.4.4,0,0,0-.43.42c0,.26.2.36.46.36Z"/><path class="cls-91" d="M38.46,35.75h-.31a.38.38,0,0,1-.42-.39,1.56,1.56,0,0,0-2.24-1.29.35.35,0,0,1-.51-.15l-.22-.33c-.37-.62-.37-.62.13-1.13a1.56,1.56,0,0,0-.17-2.36c-.26-.2-.32-.37-.15-.64s.16-.3.25-.44c.31-.5.31-.5.87-.32a1.55,1.55,0,0,0,2-1.23c.06-.42.23-.56.63-.52h.35c.61,0,.61,0,.74.6a1.57,1.57,0,0,0,2.16,1.09c.3-.13.45-.07.6.18s.14.22.2.33c.35.6.35.6-.13,1.07a1.57,1.57,0,0,0,.16,2.39c.25.18.31.34.15.6-.07.11-.12.23-.18.34-.35.6-.35.6-1,.42a1.6,1.6,0,0,0-2,1.11C39.25,35.75,39.25,35.75,38.46,35.75Zm.09-2.4a2,2,0,0,0,2-2,2,2,0,0,0-4,0A2,2,0,0,0,38.55,33.35Z"/><path class="cls-92" d="M42.39,41.77H41.18A1.18,1.18,0,0,1,40,40.6c0-.85,0-1.69,0-2.53a1.16,1.16,0,0,1,1.13-1.17c.86,0,1.73,0,2.6,0a1.17,1.17,0,0,1,1.15,1.19q0,1.24,0,2.49a1.2,1.2,0,0,1-1.23,1.19Zm1.7-2.39V38.21c0-.35-.16-.54-.52-.54H41.28a.47.47,0,0,0-.53.53v2.25c0,.35.15.54.51.54.77,0,1.54,0,2.3,0a.46.46,0,0,0,.53-.52Z"/><path class="cls-93" d="M47.84,42.29h1.25a1.18,1.18,0,0,1,1.16,1.17c0,.84,0,1.69,0,2.53a1.13,1.13,0,0,1-1,1.16q-1.38.06-2.76,0A1.15,1.15,0,0,1,45.37,46q0-1.24,0-2.49a1.2,1.2,0,0,1,1.26-1.2Zm1.64,2.44c0-.38,0-.75,0-1.13s-.16-.53-.52-.53H46.67c-.34,0-.52.16-.52.49q0,1.17,0,2.34a.44.44,0,0,0,.48.49H49a.44.44,0,0,0,.48-.49C49.47,45.51,49.48,45.12,49.48,44.73Z"/><path class="cls-86" d="M42.41,47H40.93a.88.88,0,0,1-.81-1.38c.49-.88,1-1.75,1.51-2.62a.88.88,0,0,1,1.58,0c.52.87,1,1.74,1.51,2.63A.88.88,0,0,1,43.93,47Zm0-.78h1.37c.26,0,.37,0,.21-.32-.47-.79-.93-1.59-1.38-2.39-.13-.22-.23-.26-.37,0-.46.81-.93,1.62-1.4,2.42-.12.22-.08.3.17.3Z"/><path class="cls-94" d="M47.83,37.13a2.2,2.2,0,1,1-2.22,2.17A2.2,2.2,0,0,1,47.83,37.13Zm0,3.62a1.42,1.42,0,1,0-1.42-1.4A1.41,1.41,0,0,0,47.82,40.75Z"/><path class="cls-3" d="M45.1,27.57c-.52,0-1,0-1.55,0-.29,0-.52-.09-.52-.39s.23-.4.52-.4H46.7c.27,0,.49.08.5.37s-.21.41-.5.41C46.17,27.56,45.64,27.57,45.1,27.57Z"/><path class="cls-86" d="M27,28a4.21,4.21,0,0,1,3-3.52.37.37,0,0,1,.51.23c.09.25,0,.42-.28.5a3.62,3.62,0,0,0-1.44.88,3.39,3.39,0,0,0-1,1.95c0,.26-.18.41-.44.38A.37.37,0,0,1,27,28Z"/><path class="cls-3" d="M45.07,55H43.48c-.26,0-.45-.1-.46-.36a.4.4,0,0,1,.43-.42c1.11,0,2.22,0,3.34,0a.39.39,0,0,1,.41.42c0,.29-.21.36-.46.35Z"/><path class="cls-94" d="M38.55,33.35a2,2,0,0,1-2-2,2,2,0,0,1,4,0A2,2,0,0,1,38.55,33.35Zm0-.78a1.23,1.23,0,0,0,1.23-1.23,1.24,1.24,0,1,0-2.48,0A1.23,1.23,0,0,0,38.57,32.57Z"/><path class="cls-95" d="M44.09,39.38v1.09a.46.46,0,0,1-.53.52c-.76,0-1.53,0-2.3,0-.36,0-.51-.19-.51-.54V38.2a.47.47,0,0,1,.53-.53h2.29c.36,0,.52.19.52.54Z"/><path class="cls-96" d="M49.48,44.73c0,.39,0,.78,0,1.17a.44.44,0,0,1-.48.49H46.63a.44.44,0,0,1-.48-.49q0-1.17,0-2.34c0-.33.18-.49.52-.49H49c.36,0,.52.18.52.53S49.48,44.35,49.48,44.73Z"/><path class="cls-97" d="M42.41,46.19H41c-.25,0-.29-.08-.17-.3.47-.8.94-1.61,1.4-2.42.14-.25.24-.21.37,0,.45.8.91,1.6,1.38,2.39.16.28,0,.33-.21.32Z"/><path class="cls-91" d="M47.82,40.75a1.42,1.42,0,1,1,1.42-1.4A1.4,1.4,0,0,1,47.82,40.75Z"/><path class="cls-98" d="M38.57,32.57a1.23,1.23,0,0,1-1.25-1.22,1.24,1.24,0,1,1,2.48,0A1.23,1.23,0,0,1,38.57,32.57Z"/></g><g id="tab_app_development" data-name="tab app development"><circle class="cls-40" cx="39.96" cy="40.1" r="38.52"/><path class="cls-99" d="M57.4,24.77v30.6a10.36,10.36,0,0,1-.5,1,3,3,0,0,1-1.67,1H39.15c-.1-.17-.29-.29-.29-.52.12-.41.24-.5.72-.5h15a1.58,1.58,0,0,0,1.79-1.79V25.5a1.59,1.59,0,0,0-1.8-1.81H35a1.53,1.53,0,0,0-1.84,1.57q0,14.76,0,29.53a1.83,1.83,0,0,0,0,.47,1.58,1.58,0,0,0,1.8,1.1c.61,0,1.21,0,1.82,0a.62.62,0,0,1,.7.49.68.68,0,0,1-.42.53H24.7c0-.1-.12-.08-.19-.11a2.53,2.53,0,0,1-1.84-2.54V30.53c0-.45.09-.56.54-.68.41.11.48.4.48.78V54.54c0,.12,0,.25,0,.37a1.53,1.53,0,0,0,1.46,1.47c.21,0,.43,0,.64,0h6.87a2.88,2.88,0,0,1-.52-2q0-14.51,0-29c0-.1,0-.2,0-.3a2.82,2.82,0,0,1,.47-1.42H25.45a1.56,1.56,0,0,0-1.76,1.76c0,.8,0,1.6,0,2.4a.59.59,0,0,1-.48.67c-.42-.1-.54-.23-.54-.65V25.26a2.38,2.38,0,0,1,.26-1.14,2.53,2.53,0,0,1,2.41-1.45H55a2.56,2.56,0,0,1,1.93,1A5.27,5.27,0,0,1,57.4,24.77Z"/><path class="cls-100" d="M55.23,57.4a3,3,0,0,0,1.67-1,10.36,10.36,0,0,0,.5-1c0,.62,0,1.24,0,1.86,0,.15,0,.18-.17.18Z"/><path class="cls-101" d="M37.12,57.4a.68.68,0,0,0,.42-.53h1.32c0,.23.19.35.29.52Z"/><path class="cls-101" d="M25.79,23.7h6.82a2.82,2.82,0,0,0-.47,1.42c0,.1,0,.2,0,.3q0,14.51,0,29a2.88,2.88,0,0,0,.52,2H25.79a.3.3,0,0,0-.14-.22,1.7,1.7,0,0,1-.47-1.23V27.7c0-.12,0-.25.06-.35l.27.14a1.45,1.45,0,0,0,1.65-.34,1.43,1.43,0,0,0,.21-1.69A1.46,1.46,0,0,0,25.19,25a.91.91,0,0,1,0-.33A3,3,0,0,1,25.79,23.7Z"/><path class="cls-102" d="M38.86,56.88H37.54a.62.62,0,0,0-.7-.49c-.61,0-1.21,0-1.82,0a.38.38,0,0,0,0-.1c-.8-1-.55-2.15-.57-3.27,0,0,0,0,.06-.08a3.09,3.09,0,0,0,.6.08H54.45a1,1,0,0,0,1.18-1.19v-25a1,1,0,0,0-1.19-1.19H35.08a1.77,1.77,0,0,0-.6.08,2.13,2.13,0,0,1,.32-1.66A1.25,1.25,0,0,0,35,23.7H54.58a1.59,1.59,0,0,1,1.8,1.81V54.59a1.58,1.58,0,0,1-1.79,1.79h-15C39.1,56.38,39,56.47,38.86,56.88Zm7.35-2.16a1.44,1.44,0,0,0-1.43-1.46,1.47,1.47,0,0,0-1.48,1.45,1.51,1.51,0,0,0,1.44,1.47A1.46,1.46,0,0,0,46.21,54.72ZM44.78,24.23a.51.51,0,0,0-.53.5.59.59,0,0,0,.52.51.53.53,0,0,0,.49-.51A.46.46,0,0,0,44.78,24.23Z"/><path class="cls-103" d="M25.24,27.35c-.1.1-.06.23-.06.35V54.92a1.7,1.7,0,0,0,.47,1.23.3.3,0,0,1,.14.22c-.21,0-.43,0-.64,0a1.53,1.53,0,0,1-1.46-1.47c0-.12,0-.25,0-.37V30.63c0-.38-.07-.67-.48-.78V28.52a.59.59,0,0,0,.48-.67c0-.8,0-1.6,0-2.4a1.56,1.56,0,0,1,1.76-1.76h.34a3,3,0,0,0-.55,1,.91.91,0,0,0,0,.33A1.48,1.48,0,0,0,25.24,27.35Z"/><path class="cls-104" d="M34.48,52.92s-.06,0-.06.08c0,1.12-.23,2.29.57,3.27a.38.38,0,0,1,0,.1,1.58,1.58,0,0,1-1.8-1.1,1.83,1.83,0,0,1,0-.47q0-14.76,0-29.53A1.53,1.53,0,0,1,35,23.7a1.25,1.25,0,0,1-.22.37,2.13,2.13,0,0,0-.32,1.66,1.18,1.18,0,0,0-.56,1.11q0,12.48,0,25A1.18,1.18,0,0,0,34.48,52.92Z"/><path class="cls-105" d="M25.24,27.35a1.48,1.48,0,0,1,0-2.34,1.46,1.46,0,0,1,2.18.45,1.43,1.43,0,0,1-.21,1.69,1.45,1.45,0,0,1-1.65.34Zm1.3-1.21a.43.43,0,0,0-.44-.42.49.49,0,0,0-.44.45.47.47,0,0,0,.46.42A.45.45,0,0,0,26.54,26.14Z"/><path class="cls-106" d="M34.48,52.92a1.18,1.18,0,0,1-.56-1.11q0-12.5,0-25a1.18,1.18,0,0,1,.56-1.11,1.77,1.77,0,0,1,.6-.08H54.44a1,1,0,0,1,1.19,1.19v25A1,1,0,0,1,54.45,53H35.08A3.09,3.09,0,0,1,34.48,52.92Zm2-26.24h-.95c-.57,0-.56,0-.55.58,0,.19.06.25.25.24.42,0,.83,0,1.25,0l.41,0h14c.51,0,.65.1.74.54-.13.4-.24.48-.73.48H36.44c-.36,0-.72,0-1.08,0s-.43.05-.43.41q0,11.34,0,22.66a1.47,1.47,0,0,1,0,.21c0,.17.06.2.22.2l1.28,0,.37,0c5.8,0,11.6,0,17.4,0,.33,0,.4-.08.4-.41q0-11.34,0-22.68a1,1,0,0,1,0-.17c0-.19-.06-.23-.23-.23h-.85a.56.56,0,0,1-.59-.48c.14-.45.25-.54.72-.54h.75c.06,0,.17,0,.18-.06a2.05,2.05,0,0,0,0-.7c0-.13-.24-.06-.37-.06H36.44Z"/><path class="cls-106" d="M46.21,54.72a1.46,1.46,0,0,1-1.47,1.46,1.51,1.51,0,0,1-1.44-1.47,1.47,1.47,0,0,1,1.48-1.45A1.44,1.44,0,0,1,46.21,54.72Zm-1.39-.44a.45.45,0,0,0-.49.45.44.44,0,0,0,.45.42.4.4,0,0,0,.41-.44A.39.39,0,0,0,44.82,54.28Z"/><path class="cls-99" d="M44.78,24.23a.46.46,0,0,1,.48.5.53.53,0,0,1-.49.51.59.59,0,0,1-.52-.51A.51.51,0,0,1,44.78,24.23Z"/><path class="cls-102" d="M26.54,26.14a.45.45,0,0,1-.42.45.47.47,0,0,1-.46-.42.49.49,0,0,1,.44-.45A.43.43,0,0,1,26.54,26.14Z"/><path class="cls-107" d="M52.93,28a.56.56,0,0,0,.59.48h.85c.17,0,.26,0,.23.23a1,1,0,0,0,0,.17q0,11.34,0,22.68c0,.33-.07.41-.4.41-5.8,0-11.6,0-17.4,0l-.37,0V28.52H50.86c.49,0,.6-.08.73-.48ZM38.27,33.92c-.21,0-.41,0-.61,0a.74.74,0,0,0-.82.82v1.19a.74.74,0,0,0,.76.81q.65,0,1.29,0a.73.73,0,0,0,.78-.79c0-.42,0-.84,0-1.25a.74.74,0,0,0-.83-.78C38.65,33.91,38.46,33.92,38.27,33.92Zm13,3.67h0c-.24,0-.48,0-.71,0a.69.69,0,0,0-.71.68c0,.48,0,1,0,1.45a.66.66,0,0,0,.65.66,9.64,9.64,0,0,0,1.52,0,.62.62,0,0,0,.61-.57,5.86,5.86,0,0,0,0-1.62.66.66,0,0,0-.66-.6C51.76,37.57,51.52,37.59,51.29,37.59Zm-5.77-2.25h0V36a.72.72,0,0,0,.72.78,13.26,13.26,0,0,0,1.41,0,.65.65,0,0,0,.67-.64,5.75,5.75,0,0,0,0-1.55.65.65,0,0,0-.68-.61c-.47,0-.93,0-1.39,0a.71.71,0,0,0-.72.73C45.51,34.89,45.52,35.11,45.52,35.34Zm-4.34,0h0c0,.21,0,.43,0,.64a.7.7,0,0,0,.7.75,13.45,13.45,0,0,0,1.42,0A.65.65,0,0,0,44,36.1a5.75,5.75,0,0,0,0-1.55.65.65,0,0,0-.68-.62c-.46,0-.92,0-1.39,0a.7.7,0,0,0-.72.73C41.17,34.88,41.18,35.11,41.18,35.34Zm-4.34-3.66v.61a.71.71,0,0,0,.72.78,12.71,12.71,0,0,0,1.38,0,.7.7,0,0,0,.72-.71,9.21,9.21,0,0,0,0-1.39.72.72,0,0,0-.8-.72c-.4,0-.79,0-1.19,0a.76.76,0,0,0-.83.81Zm1.42,16.69h-.64a.73.73,0,0,0-.77.76q0,.65,0,1.29a.69.69,0,0,0,.69.76,8.42,8.42,0,0,0,1.42,0,.7.7,0,0,0,.71-.75c0-.42,0-.85,0-1.28a.75.75,0,0,0-.83-.78Zm2.92,1.42h0v.61a.73.73,0,0,0,.71.79,7,7,0,0,0,1.45,0,.65.65,0,0,0,.64-.63A5.75,5.75,0,0,0,44,49a.67.67,0,0,0-.71-.62c-.45,0-.91,0-1.36,0a.71.71,0,0,0-.72.73C41.17,49.34,41.18,49.56,41.18,49.79Zm4.34,0h0v.68a.7.7,0,0,0,.68.75,7.32,7.32,0,0,0,1.48,0,.64.64,0,0,0,.64-.62,5.75,5.75,0,0,0,0-1.55.67.67,0,0,0-.71-.63q-.68,0-1.35,0a.71.71,0,0,0-.73.73C45.51,49.32,45.52,49.54,45.52,49.75Zm-4.33-18.1c0,.24,0,.48,0,.71a.69.69,0,0,0,.65.7,6.93,6.93,0,0,0,1.51,0,.64.64,0,0,0,.63-.6,6,6,0,0,0,0-1.58.66.66,0,0,0-.69-.61c-.46,0-.93,0-1.39,0a.71.71,0,0,0-.71.71C41.17,31.2,41.19,31.43,41.19,31.65Zm4.33,0h0c0,.22,0,.45,0,.68a.68.68,0,0,0,.64.7,6.7,6.7,0,0,0,1.55,0,.64.64,0,0,0,.6-.59,6,6,0,0,0,0-1.58.66.66,0,0,0-.68-.62c-.46,0-.93,0-1.39,0a.71.71,0,0,0-.72.73C45.51,31.23,45.52,31.45,45.52,31.68Zm5.79,2.25h0c-.24,0-.48,0-.71,0a.72.72,0,0,0-.73.7c0,.48,0,1,0,1.42a.68.68,0,0,0,.63.68,8.13,8.13,0,0,0,1.56,0,.64.64,0,0,0,.6-.59,6.2,6.2,0,0,0,0-1.61.66.66,0,0,0-.64-.59C51.78,33.91,51.54,33.93,51.31,33.93Zm0-3.67h0c-.23,0-.47,0-.71,0a.72.72,0,0,0-.71.72q0,.69,0,1.38a.67.67,0,0,0,.65.7,6.36,6.36,0,0,0,1.51,0,.66.66,0,0,0,.64-.63,6.44,6.44,0,0,0,0-1.52.69.69,0,0,0-.73-.65C51.72,30.25,51.51,30.26,51.29,30.26ZM49.86,49.79c0,.22,0,.43,0,.65a.69.69,0,0,0,.67.74,7,7,0,0,0,1.52,0,.64.64,0,0,0,.6-.59,6,6,0,0,0,0-1.58.66.66,0,0,0-.68-.62c-.46,0-.93,0-1.39,0a.71.71,0,0,0-.72.74C49.85,49.34,49.86,49.57,49.86,49.79Zm1.38-5.74h.68a.72.72,0,0,0,.76-.7,6.76,6.76,0,0,0,0-1.49.65.65,0,0,0-.67-.62c-.47,0-1,0-1.42,0a.69.69,0,0,0-.7.69c0,.47,0,.94,0,1.42a.69.69,0,0,0,.69.69C50.79,44.06,51,44.05,51.24,44.05Zm-4.31-2.81h0c-.24,0-.48,0-.71,0a.68.68,0,0,0-.68.66,12.35,12.35,0,0,0,0,1.49.65.65,0,0,0,.66.64c.49,0,1,0,1.49,0a.63.63,0,0,0,.63-.59,6,6,0,0,0,0-1.58.66.66,0,0,0-.68-.62C47.4,41.23,47.17,41.24,46.93,41.24Zm-5.75,1.37c0,.23,0,.47,0,.71a.7.7,0,0,0,.72.73c.46,0,.93,0,1.39,0a.66.66,0,0,0,.68-.62,5.75,5.75,0,0,0,0-1.55.65.65,0,0,0-.67-.63c-.47,0-.94,0-1.42,0a.69.69,0,0,0-.7.71C41.17,42.18,41.19,42.39,41.18,42.61ZM45.53,39h0c0,.22,0,.45,0,.67a.68.68,0,0,0,.68.73,11.85,11.85,0,0,0,1.46,0,.63.63,0,0,0,.65-.61,6,6,0,0,0,0-1.58.65.65,0,0,0-.66-.6c-.48,0-.95,0-1.42,0a.69.69,0,0,0-.71.71C45.51,38.53,45.53,38.75,45.53,39Zm-7.27,5.07h.58a.75.75,0,0,0,.83-.78,9.11,9.11,0,0,0,0-1.28.72.72,0,0,0-.78-.76q-.66,0-1.32,0a.7.7,0,0,0-.72.74q0,.68,0,1.35a.7.7,0,0,0,.7.72C37.79,44.07,38,44.05,38.26,44.05Zm0-6.47h-.61a.75.75,0,0,0-.82.82v1.18a.74.74,0,0,0,.79.82h1.22a.74.74,0,0,0,.82-.79c0-.42,0-.83,0-1.25a.73.73,0,0,0-.82-.78Zm4.34,0h0c-.24,0-.48,0-.71,0a.7.7,0,0,0-.71.71c0,.46,0,.93,0,1.39a.68.68,0,0,0,.65.69,9.64,9.64,0,0,0,1.52,0,.64.64,0,0,0,.62-.57,6.27,6.27,0,0,0,0-1.62.66.66,0,0,0-.66-.6C43.08,37.57,42.84,37.59,42.61,37.59Z"/><path class="cls-108" d="M36.44,28.52V52l-1.28,0c-.16,0-.24,0-.22-.2a1.47,1.47,0,0,0,0-.21q0-11.32,0-22.66c0-.36.1-.44.43-.41S36.08,28.52,36.44,28.52Z"/><path class="cls-109" d="M52.93,28H51.59c-.09-.44-.23-.54-.74-.54h-14l-.41,0v-.79H54.2c.13,0,.34-.07.37.06a2.05,2.05,0,0,1,0,.7c0,.08-.12.06-.18.06h-.75C53.18,27.49,53.07,27.58,52.93,28Z"/><path class="cls-110" d="M36.44,26.68v.79c-.42,0-.83,0-1.25,0-.19,0-.25,0-.25-.24,0-.58,0-.58.55-.58Z"/><path class="cls-102" d="M44.82,54.28a.39.39,0,0,1,.37.43.4.4,0,0,1-.41.44.44.44,0,0,1-.45-.42A.45.45,0,0,1,44.82,54.28Z"/><path class="cls-105" d="M38.27,33.92c.19,0,.38,0,.57,0a.74.74,0,0,1,.83.78c0,.41,0,.83,0,1.25a.73.73,0,0,1-.78.79q-.64,0-1.29,0a.74.74,0,0,1-.76-.81V34.74a.74.74,0,0,1,.82-.82C37.86,33.91,38.06,33.92,38.27,33.92Zm0,1c-.34-.1-.41.06-.41.37s0,.44.39.43.45-.07.44-.43S38.59,34.86,38.26,35Z"/><path class="cls-105" d="M51.29,37.59c.23,0,.47,0,.71,0a.66.66,0,0,1,.66.6,5.86,5.86,0,0,1,0,1.62.62.62,0,0,1-.61.57,9.64,9.64,0,0,1-1.52,0,.66.66,0,0,1-.65-.66c0-.48,0-1,0-1.45a.69.69,0,0,1,.71-.68c.23,0,.47,0,.71,0ZM50.9,39c-.1.33,0,.43.36.41s.45,0,.43-.38-.06-.44-.42-.43S50.79,38.62,50.9,39Z"/><path class="cls-105" d="M45.52,35.34c0-.23,0-.45,0-.68a.71.71,0,0,1,.72-.73c.46,0,.92,0,1.39,0a.65.65,0,0,1,.68.61,5.75,5.75,0,0,1,0,1.55.65.65,0,0,1-.67.64,13.26,13.26,0,0,1-1.41,0,.72.72,0,0,1-.72-.78v-.61Zm1,0c0,.29,0,.47.36.44s.5,0,.46-.39,0-.48-.4-.44S46.42,34.92,46.54,35.31Z"/><path class="cls-105" d="M41.18,35.34c0-.23,0-.46,0-.68a.7.7,0,0,1,.72-.73c.47,0,.93,0,1.39,0a.65.65,0,0,1,.68.62,5.75,5.75,0,0,1,0,1.55.65.65,0,0,1-.67.63,13.45,13.45,0,0,1-1.42,0,.7.7,0,0,1-.7-.75c0-.21,0-.43,0-.64Zm1,0c-.1.35.07.4.38.4s.42-.06.43-.4-.11-.42-.44-.42S42.12,35,42.21,35.34Z"/><path class="cls-105" d="M36.84,31.68v-.61a.76.76,0,0,1,.83-.81c.4,0,.79,0,1.19,0a.72.72,0,0,1,.8.72,9.21,9.21,0,0,1,0,1.39.7.7,0,0,1-.72.71,12.71,12.71,0,0,1-1.38,0,.71.71,0,0,1-.72-.78Zm1,0c-.08.32,0,.43.37.42s.45,0,.44-.39-.07-.46-.42-.44S37.77,31.31,37.87,31.67Z"/><path class="cls-105" d="M38.26,48.37h.58a.75.75,0,0,1,.83.78c0,.43,0,.86,0,1.28a.7.7,0,0,1-.71.75,8.42,8.42,0,0,1-1.42,0,.69.69,0,0,1-.69-.76q0-.64,0-1.29a.73.73,0,0,1,.77-.76Zm0,1c-.29,0-.49,0-.45.35s0,.49.36.45.5,0,.46-.4S38.68,49.28,38.3,49.4Z"/><path class="cls-105" d="M41.18,49.79c0-.23,0-.45,0-.68a.71.71,0,0,1,.72-.73c.45,0,.91,0,1.36,0A.67.67,0,0,1,44,49a5.75,5.75,0,0,1,0,1.55.65.65,0,0,1-.64.63,7,7,0,0,1-1.45,0,.73.73,0,0,1-.71-.79v-.61Zm1.81,0c.09-.34-.05-.43-.37-.42s-.46,0-.43.38,0,.48.37.44S43.11,50.21,43,49.8Z"/><path class="cls-105" d="M45.52,49.75c0-.21,0-.43,0-.64a.71.71,0,0,1,.73-.73q.68,0,1.35,0a.67.67,0,0,1,.71.63,5.75,5.75,0,0,1,0,1.55.64.64,0,0,1-.64.62,7.32,7.32,0,0,1-1.48,0,.7.7,0,0,1-.68-.75v-.68Zm1,0c-.09.33.05.42.37.42s.44,0,.43-.4-.07-.44-.42-.42S46.45,49.43,46.55,49.78Z"/><path class="cls-105" d="M41.19,31.65c0-.22,0-.45,0-.67a.71.71,0,0,1,.71-.71c.46,0,.93,0,1.39,0a.66.66,0,0,1,.69.61,6,6,0,0,1,0,1.58.64.64,0,0,1-.63.6,6.93,6.93,0,0,1-1.51,0,.69.69,0,0,1-.65-.7C41.17,32.13,41.19,31.89,41.19,31.65Zm1.38.41c.3.07.47,0,.44-.36s0-.47-.38-.44-.49,0-.44.4S42.19,32.18,42.57,32.06Z"/><path class="cls-105" d="M45.52,31.68c0-.23,0-.45,0-.68a.71.71,0,0,1,.72-.73c.46,0,.93,0,1.39,0a.66.66,0,0,1,.68.62,6,6,0,0,1,0,1.58.64.64,0,0,1-.6.59,6.7,6.7,0,0,1-1.55,0,.68.68,0,0,1-.64-.7c0-.23,0-.46,0-.68Zm1.38.38c.3.06.48,0,.45-.35s0-.5-.37-.44c-.24,0-.51-.06-.45.35C46.57,31.87,46.45,32.2,46.9,32.06Z"/><path class="cls-105" d="M51.31,33.93c.23,0,.47,0,.71,0a.66.66,0,0,1,.64.59,6.2,6.2,0,0,1,0,1.61.64.64,0,0,1-.6.59,8.13,8.13,0,0,1-1.56,0,.68.68,0,0,1-.63-.68c0-.47,0-.94,0-1.42a.72.72,0,0,1,.73-.7c.23,0,.47,0,.71,0Zm.36,1.41c.1-.34-.06-.42-.38-.42s-.44,0-.43.39,0,.46.42.44S51.78,35.7,51.67,35.34Z"/><path class="cls-105" d="M51.29,30.26c.22,0,.43,0,.65,0a.69.69,0,0,1,.73.65,6.44,6.44,0,0,1,0,1.52.66.66,0,0,1-.64.63,6.36,6.36,0,0,1-1.51,0,.67.67,0,0,1-.65-.7q0-.69,0-1.38a.72.72,0,0,1,.71-.72c.24,0,.48,0,.71,0Zm-.4,1.39c-.07.31,0,.46.36.44s.48,0,.45-.41,0-.45-.4-.42S50.76,31.25,50.89,31.65Z"/><path class="cls-105" d="M49.86,49.79c0-.22,0-.45,0-.67a.71.71,0,0,1,.72-.74c.46,0,.93,0,1.39,0a.66.66,0,0,1,.68.62,6,6,0,0,1,0,1.58.64.64,0,0,1-.6.59,7,7,0,0,1-1.52,0,.69.69,0,0,1-.67-.74C49.86,50.22,49.86,50,49.86,49.79Zm1.82,0c0-.44,0-.42-.4-.45s-.41.07-.42.4.11.42.44.42S51.75,50.1,51.68,49.83Z"/><path class="cls-105" d="M51.24,44.05c-.23,0-.45,0-.68,0a.69.69,0,0,1-.69-.69c0-.48,0-1,0-1.42a.69.69,0,0,1,.7-.69c.47,0,1,0,1.42,0a.65.65,0,0,1,.67.62,6.76,6.76,0,0,1,0,1.49.72.72,0,0,1-.76.7h-.68Zm0-1c.3.06.47,0,.45-.36s0-.46-.39-.43-.47,0-.43.38S50.84,43.15,51.24,43Z"/><path class="cls-105" d="M46.93,41.24c.24,0,.47,0,.71,0a.66.66,0,0,1,.68.62,6,6,0,0,1,0,1.58.63.63,0,0,1-.63.59c-.5,0-1,0-1.49,0a.65.65,0,0,1-.66-.64,12.35,12.35,0,0,1,0-1.49.68.68,0,0,1,.68-.66c.23,0,.47,0,.71,0Zm0,1.79c.34.09.42-.06.42-.38s-.09-.41-.41-.41-.43.07-.41.41S46.58,43.13,46.93,43Z"/><path class="cls-105" d="M41.18,42.61c0-.22,0-.43,0-.65a.69.69,0,0,1,.7-.71c.48,0,1,0,1.42,0a.65.65,0,0,1,.67.63,5.75,5.75,0,0,1,0,1.55.66.66,0,0,1-.68.62c-.46,0-.93,0-1.39,0a.7.7,0,0,1-.72-.73C41.17,43.08,41.18,42.84,41.18,42.61Zm1.4.41c.3.08.45,0,.43-.35s0-.45-.39-.43-.46,0-.43.39S42.18,43.15,42.58,43Z"/><path class="cls-105" d="M45.53,39c0-.23,0-.45,0-.68a.69.69,0,0,1,.71-.71c.47,0,.94,0,1.42,0a.65.65,0,0,1,.66.6,6,6,0,0,1,0,1.58.63.63,0,0,1-.65.61,11.85,11.85,0,0,1-1.46,0,.68.68,0,0,1-.68-.73c0-.22,0-.45,0-.67Zm1.37.39c.31.07.47,0,.45-.36s0-.45-.39-.43-.47,0-.43.39S46.51,39.49,46.9,39.37Z"/><path class="cls-105" d="M38.26,44.05c-.23,0-.47,0-.71,0a.7.7,0,0,1-.7-.72q0-.67,0-1.35a.7.7,0,0,1,.72-.74q.66,0,1.32,0a.72.72,0,0,1,.78.76,9.11,9.11,0,0,1,0,1.28.75.75,0,0,1-.83.78h-.58Zm0-1.77c-.3-.08-.42,0-.4.35s0,.43.37.41.45,0,.43-.39S38.59,42.19,38.26,42.28Z"/><path class="cls-105" d="M38.27,37.58h.58a.73.73,0,0,1,.82.78c0,.42,0,.83,0,1.25a.74.74,0,0,1-.82.79H37.63a.74.74,0,0,1-.79-.82V38.4a.75.75,0,0,1,.82-.82ZM37.87,39c-.08.31,0,.42.35.4s.47,0,.46-.39-.11-.42-.44-.42S37.78,38.66,37.87,39Z"/><path class="cls-105" d="M42.61,37.59c.23,0,.47,0,.71,0a.66.66,0,0,1,.66.6,6.27,6.27,0,0,1,0,1.62.64.64,0,0,1-.62.57,9.64,9.64,0,0,1-1.52,0,.68.68,0,0,1-.65-.69c0-.46,0-.93,0-1.39a.7.7,0,0,1,.71-.71c.23,0,.47,0,.71,0Zm0,1c-.33-.1-.42,0-.41.37s0,.44.39.42.46,0,.44-.41S43,38.51,42.6,38.61Z"/><path class="cls-111" d="M38.26,35c.33-.09.4,0,.42.37s-.11.42-.44.43-.39-.13-.39-.43S37.92,34.85,38.26,35Z"/><path class="cls-101" d="M50.9,39c-.11-.36.07-.38.37-.4s.41.11.42.43-.15.37-.43.38S50.8,39.31,50.9,39Z"/><path class="cls-111" d="M46.54,35.31c-.12-.39.13-.37.42-.39s.38.15.4.44-.19.37-.46.39S46.49,35.6,46.54,35.31Z"/><path class="cls-110" d="M42.21,35.34c-.09-.34,0-.41.37-.42s.44.07.44.42-.12.41-.43.4S42.11,35.69,42.21,35.34Z"/><path class="cls-112" d="M37.87,31.67c-.1-.36.09-.39.39-.41s.41.11.42.44-.14.38-.44.39S37.79,32,37.87,31.67Z"/><path class="cls-112" d="M38.3,49.4c.38-.12.35.13.37.4s-.18.38-.46.4-.33-.2-.36-.45S38,49.35,38.3,49.4Z"/><path class="cls-110" d="M43,49.8c.12.41-.15.37-.43.4s-.35-.18-.37-.44.14-.38.43-.38S43.08,49.46,43,49.8Z"/><path class="cls-110" d="M46.55,49.78c-.1-.35.07-.39.38-.4s.42.09.42.42-.13.4-.43.4S46.46,50.11,46.55,49.78Z"/><path class="cls-113" d="M42.57,32.06c-.38.12-.35-.12-.38-.4s.16-.37.44-.4.36.17.38.44S42.87,32.13,42.57,32.06Z"/><path class="cls-114" d="M46.9,32.06c-.45.14-.33-.19-.37-.44-.06-.41.21-.32.45-.35.39-.06.35.17.37.44S47.2,32.12,46.9,32.06Z"/><path class="cls-110" d="M51.67,35.34c.11.36-.1.38-.39.41s-.4-.13-.42-.44.14-.38.43-.39S51.77,35,51.67,35.34Z"/><path class="cls-103" d="M50.89,31.65c-.13-.4.14-.36.41-.39s.37.13.4.42-.16.39-.45.41S50.82,32,50.89,31.65Z"/><path class="cls-114" d="M51.68,49.83c.07.27,0,.37-.38.37s-.44-.07-.44-.42.09-.42.42-.4S51.68,49.39,51.68,49.83Z"/><path class="cls-114" d="M51.24,43c-.4.12-.34-.14-.37-.41s.15-.36.43-.38.38.14.39.43S51.54,43.09,51.24,43Z"/><path class="cls-110" d="M46.93,43c-.35.1-.39-.08-.4-.38s.09-.41.41-.41.42.08.41.41S47.27,43.12,46.93,43Z"/><path class="cls-113" d="M42.58,43c-.4.13-.37-.12-.39-.39s.14-.37.43-.39.38.13.39.43S42.88,43.1,42.58,43Z"/><path class="cls-110" d="M46.9,39.37c-.39.12-.34-.14-.37-.4s.14-.37.43-.39.38.13.39.43S47.21,39.44,46.9,39.37Z"/><path class="cls-111" d="M38.26,42.28c.33-.09.39.06.4.37s-.14.37-.43.39-.36-.14-.37-.41S38,42.2,38.26,42.28Z"/><path class="cls-101" d="M37.87,39c-.09-.33.05-.41.37-.41s.42.07.44.42-.19.37-.46.39S37.79,39.3,37.87,39Z"/><path class="cls-114" d="M42.6,38.61c.35-.1.4.06.42.38s-.13.4-.44.41-.39-.13-.39-.42S42.27,38.51,42.6,38.61Z"/></g><circle class="cls-2" cx="40" cy="40" r="38.52"/><path class="cls-115" d="M40,58.79H34.69a1.24,1.24,0,0,1-1.41-1.39c0-3,0-6.1,0-9.15,0-.35-.1-.4-.41-.4a4.81,4.81,0,0,1-4.94-3.76,4.86,4.86,0,0,1,4.52-5.94c.25,0,.33-.06.39-.32a7.26,7.26,0,0,1,13.86-1.19.39.39,0,0,0,.46.29,4.23,4.23,0,0,1,2.45.66,6.08,6.08,0,0,1,2.93,3.66,5.4,5.4,0,0,1-4,6.45,4.81,4.81,0,0,1-1.46.15c-.32,0-.42,0-.42.4,0,3,0,6.07,0,9.11a1.25,1.25,0,0,1-1.44,1.43Zm0-17h5.31a1.24,1.24,0,0,1,1.36,1.37c0,1.06,0,2.12,0,3.18,0,.26.07.32.31.32a5.77,5.77,0,0,0,1.43-.17,4.27,4.27,0,0,0,3.1-4.41,5,5,0,0,0-3.43-3.83,3.24,3.24,0,0,0-1.24-.07c-.73.1-.85,0-1.07-.67A6.06,6.06,0,0,0,34,38.63c-.09.67-.27.81-1,.74a3.67,3.67,0,0,0-3.93,4.18,3.63,3.63,0,0,0,3.84,3.1c.28,0,.39,0,.38-.37,0-1,0-2.07,0-3.11a1.23,1.23,0,0,1,1.37-1.39ZM34.5,50.29q0,3.45,0,6.9c0,.28,0,.39.36.39H45.09c.26,0,.34-.06.34-.33q0-7,0-13.93c0-.27-.08-.33-.34-.33H34.85c-.33,0-.36.12-.36.39Q34.5,46.83,34.5,50.29Z"/><path class="cls-72" d="M53.55,28.18a2.4,2.4,0,0,1-3.35,2.23.43.43,0,0,0-.57.13c-1,1-2,2-3,3-.19.19-.3.2-.47,0s-.54-.43-.54-.64.34-.42.54-.63c.87-.87,1.73-1.74,2.61-2.6a.42.42,0,0,0,.12-.57,2.3,2.3,0,0,1,.5-2.62A2.39,2.39,0,0,1,52.06,26,2.33,2.33,0,0,1,53.55,28.18ZM51.12,27a1.21,1.21,0,1,0,0,2.41,1.21,1.21,0,1,0,0-2.41Z"/><path class="cls-72" d="M26.37,28.19A2.37,2.37,0,0,1,27.86,26a2.5,2.5,0,0,1,2.67.51,2.37,2.37,0,0,1,.5,2.63.42.42,0,0,0,.12.57l3,3c.18.18.21.29,0,.46s-.41.54-.64.56-.42-.35-.62-.56c-.89-.88-1.78-1.76-2.66-2.65a.36.36,0,0,0-.48-.09A2.41,2.41,0,0,1,26.37,28.19Zm1.22,0a1.19,1.19,0,0,0,1.19,1.21,1.21,1.21,0,1,0-1.19-1.21Z"/><path class="cls-99" d="M39.35,28.35c0-.7,0-1.39,0-2.09a.39.39,0,0,0-.3-.46,2.41,2.41,0,0,1-1.44-2.91,2.46,2.46,0,0,1,2.72-1.74,2.42,2.42,0,0,1,2,2.57,2.28,2.28,0,0,1-1.49,2.06.47.47,0,0,0-.33.52c0,1.41,0,2.81,0,4.21,0,.29-.08.36-.36.35-.87,0-.87,0-.87-.88Zm.59-3.57a1.22,1.22,0,0,0,1.23-1.19A1.21,1.21,0,0,0,40,22.35a1.22,1.22,0,0,0,0,2.43Z"/><path class="cls-116" d="M40,41.78H34.65a1.23,1.23,0,0,0-1.37,1.39c0,1,0,2.08,0,3.11,0,.32-.1.37-.38.37a3.63,3.63,0,0,1-3.84-3.1A3.67,3.67,0,0,1,33,39.37c.68.07.86-.07,1-.74A6.06,6.06,0,0,1,45.74,37.5c.22.7.34.77,1.07.67a3.24,3.24,0,0,1,1.24.07,5,5,0,0,1,3.43,3.83,4.27,4.27,0,0,1-3.1,4.41,5.77,5.77,0,0,1-1.43.17c-.24,0-.32-.06-.31-.32,0-1.06,0-2.12,0-3.18a1.24,1.24,0,0,0-1.36-1.37Z"/><path class="cls-117" d="M34.5,50.29q0-3.47,0-6.91c0-.27,0-.39.36-.39H45.09c.26,0,.34.06.34.33q0,7,0,13.93c0,.27-.08.33-.34.33H34.85c-.32,0-.36-.11-.36-.39Q34.5,53.74,34.5,50.29Zm.6,0v5.35c0,.61.13.74.73.74H44.1c.59,0,.72-.13.72-.74V45c0-.61-.13-.74-.72-.74H35.83c-.6,0-.73.13-.73.74Z"/><path class="cls-118" d="M51.12,27a1.21,1.21,0,1,1-1.21,1.21A1.21,1.21,0,0,1,51.12,27Z"/><path class="cls-119" d="M27.59,28.18A1.2,1.2,0,0,1,28.8,27a1.21,1.21,0,1,1,0,2.41A1.19,1.19,0,0,1,27.59,28.18Z"/><path class="cls-120" d="M39.94,24.78a1.22,1.22,0,1,1,1.23-1.19A1.22,1.22,0,0,1,39.94,24.78Z"/><path class="cls-121" d="M35.1,50.27V45c0-.61.13-.74.73-.74H44.1c.59,0,.72.13.72.74V55.62c0,.61-.13.74-.72.74H35.83c-.6,0-.73-.13-.73-.74ZM39.91,46a8.48,8.48,0,0,0-3.8.91c-.85.42-.84.41-.34,1.2.16.27.27.22.49.1a7.23,7.23,0,0,1,6.9-.24c.25.11.51.42.72.33s.32-.46.5-.69.11-.3-.1-.42A8.82,8.82,0,0,0,39.91,46Zm0,2.43a6,6,0,0,0-2.49.55c-.87.4-.87.41-.32,1.19l0,0c.11.25.24.21.44.09a4.68,4.68,0,0,1,4.26-.24c.24.1.48.42.72.29s.31-.44.49-.65.13-.3-.09-.43A6.1,6.1,0,0,0,39.93,48.46Zm0,2.44a3.83,3.83,0,0,0-1.37.24c-.68.24-.67.25-.3.87,0,.09.11.17.15.26s.18.19.35.11a2.73,2.73,0,0,1,1.78-.2c.26.06.52.35.75.19s.3-.49.46-.73.08-.25-.1-.33A4.09,4.09,0,0,0,40,50.9Zm.62,3a.62.62,0,0,0-.59-.62.6.6,0,0,0-.62.58.61.61,0,0,0,.6.64A.62.62,0,0,0,40.57,53.94Z"/><path class="cls-3" d="M39.91,46a8.82,8.82,0,0,1,4.37,1.19c.21.12.27.21.1.42s-.28.59-.5.69-.47-.22-.72-.33a7.23,7.23,0,0,0-6.9.24c-.22.12-.33.17-.49-.1-.5-.79-.51-.78.34-1.2A8.48,8.48,0,0,1,39.91,46Z"/><path class="cls-3" d="M39.93,48.46a6.1,6.1,0,0,1,3,.83c.22.13.24.23.09.43s-.28.54-.49.65-.48-.19-.72-.29a4.68,4.68,0,0,0-4.26.24c-.2.12-.33.16-.44-.09l0,0c-.55-.78-.55-.79.32-1.19A6,6,0,0,1,39.93,48.46Z"/><path class="cls-72" d="M40,50.9a4.09,4.09,0,0,1,1.72.41c.18.08.22.16.1.33s-.25.57-.46.73-.49-.13-.75-.19a2.73,2.73,0,0,0-1.78.2c-.17.08-.27.07-.35-.11s-.1-.17-.15-.26c-.37-.62-.38-.63.3-.87A3.83,3.83,0,0,1,40,50.9Z"/><path class="cls-122" d="M40.57,53.94a.62.62,0,0,1-.61.6.61.61,0,0,1-.6-.64.6.6,0,0,1,.62-.58A.62.62,0,0,1,40.57,53.94Z"/></svg>