<svg id="Layer_1" data-name="Layer 1" xmlns="http://www.w3.org/2000/svg" xmlns:xlink="http://www.w3.org/1999/xlink" viewBox="0 0 80 80"><defs><style>.cls-1{fill:none;}.cls-2{fill:#fbeeee;}.cls-3{fill:#030303;}.cls-4{fill:#fc4f7b;}.cls-5{fill:#fd4f7c;}.cls-6{fill:#d4daeb;}.cls-7{fill:#d13d69;}.cls-8{fill:#cf3c68;}.cls-9{fill:#d1d8e8;}.cls-10{fill:#c6cee1;}.cls-11{fill:#efbf86;}.cls-12{fill:#684a4a;}.cls-13{fill:#e3ad77;}.cls-14{fill:#674a4a;}.cls-15{fill:#594045;}.cls-16{fill:#cd986c;}.cls-17{fill:#e0ab75;}.cls-18{fill:#eafbf1;}.cls-19{clip-path:url(#clip-path);}.cls-20{fill:url(#linear-gradient);}.cls-21{clip-path:url(#clip-path-2);}.cls-22{fill:url(#linear-gradient-2);}.cls-23{fill:#ecf6fc;}.cls-24{fill:#9b65c3;}.cls-25{fill:#be63c5;}.cls-26{fill:#bf63c6;}.cls-27{fill:#3278b1;}.cls-28{fill:#3278b2;}.cls-29{fill:#45a4ec;}.cls-30{fill:#19bb7d;}.cls-31{fill:#08c7fb;}.cls-32{fill:#59f2f6;}.cls-33{fill:#da3757;}.cls-34{fill:#d33c4e;}.cls-35{fill:#ee5a24;}.cls-36{fill:#8bdf55;}.cls-37{fill:#25c16f;}.cls-38{fill:#fb0;}.cls-39{fill:#ffa800;}.cls-40{fill:#fbfadf;}.cls-41{fill:#020203;}.cls-42{fill:#87c5f9;}.cls-43{fill:#e9ecee;}.cls-44{fill:#d7ebfd;}.cls-45{fill:#a69aa6;}.cls-46{fill:#e1a56e;}.cls-47{fill:#d5e9fb;}.cls-48{fill:#c3e1fd;}.cls-49{fill:#c08656;}.cls-50{fill:#59aaec;}.cls-51{fill:#817481;}.cls-52{fill:#655b65;}.cls-53{fill:#010302;}.cls-54{fill:#68f3bf;}.cls-55{fill:#040404;}.cls-56{fill:#396f8d;}.cls-57{fill:#f66e1b;}.cls-58{fill:#427e9c;}.cls-59{fill:#f58d35;}.cls-60{fill:#f06c1a;}.cls-61{fill:#44d383;}.cls-62{fill:#78de8e;}.cls-63{fill:#020303;}.cls-64{fill:#f1f1f1;}.cls-65{fill:#e1e1e1;}.cls-66{fill:#070707;}.cls-67{fill:#28c9f0;}.cls-68{fill:#22b2e9;}.cls-69{fill:#050505;}.cls-70{fill:#fa4654;}.cls-71{fill:#00e197;}.cls-72{fill:#c39d6b;}.cls-73{fill:#5eb2f9;}.cls-74{fill:#00e298;}.cls-75{fill:#fb4654;}.cls-76{fill:#f2d8ca;}.cls-77{fill:#0a0303;}.cls-78{fill:#090203;}.cls-79{fill:#000805;}.cls-80{fill:#000202;}.cls-81{fill:#080808;}</style><clipPath id="clip-path"><path class="cls-1" d="M44.12,36.36V45.6a3.89,3.89,0,0,1-.9,2.75,3.42,3.42,0,0,1-2.61,1,3.3,3.3,0,0,1-2.57-1,3.93,3.93,0,0,1-.88-2.75V36.36L32.32,34.3V45.57a9,9,0,0,0,1.07,4.53,7,7,0,0,0,2.92,2.78,10.26,10.26,0,0,0,8.47,0,7.18,7.18,0,0,0,3-2.78A8.35,8.35,0,0,0,49,45.57V33.71Z"/></clipPath><linearGradient id="linear-gradient" x1="-33.46" y1="69.25" x2="-32.47" y2="69.25" gradientTransform="translate(825.11 -1605.11) scale(23.81)" gradientUnits="userSpaceOnUse"><stop offset="0" stop-color="#f17c21"/><stop offset="1" stop-color="#da5b26"/></linearGradient><clipPath id="clip-path-2"><path class="cls-1" d="M37.22,29.16a.24.24,0,0,1-.06-.45l1-.43,2.07-.88,2.06.88,1,.43a.23.23,0,1,1-.18.43L40.24,27.9l-2.89,1.24-.1,0h0m3.16-2.94a2.17,2.17,0,0,0-.84.16l-9.92,4-.34.22a.75.75,0,0,0-.25,1V33l-.29.29v1.48h1.18V33.29l-.3-.29V31.82l8.55,3.54.59-.3A2.86,2.86,0,0,1,40,34.77h.89a3.1,3.1,0,0,1,1.75.53l.53.35L51,31.3a.41.41,0,0,0,.19-.2.48.48,0,0,0-.24-.66l-9.73-4.05A2.13,2.13,0,0,0,40.38,26.22Z"/></clipPath><linearGradient id="linear-gradient-2" x1="-34.42" y1="64.62" x2="-33.43" y2="64.62" gradientTransform="matrix(0, -8.62, -8.62, 0, 597.31, -261.21)" gradientUnits="userSpaceOnUse"><stop offset="0" stop-color="#f17c21"/><stop offset="0.34" stop-color="#ed7722"/><stop offset="0.74" stop-color="#e36824"/><stop offset="1" stop-color="#da5b26"/></linearGradient></defs><g id="about_us" data-name="about us"><circle class="cls-2" cx="40" cy="40" r="38.52"/><path class="cls-3" d="M59.75,54.13c-.46.56-.91.5-1.16-.15,0-1.58,0-3.16,0-4.74a1.12,1.12,0,0,0-.38-1,1,1,0,0,0-.65-.39c-.78-.24-1.57-.46-2.36-.69a.26.26,0,0,0-.3.07L53.67,48.5a.36.36,0,0,0-.1.28c0,1.7,0,3.41,0,5.12-.07.34-.23.61-.62.6s-.53-.26-.57-.6c0-1.25,0-2.51,0-3.77a3.89,3.89,0,0,0,0-1.49c-.19-.44-.68-.75-1-1.11s-.45-.46-1-.12A3.47,3.47,0,0,1,51.11,50c0,1.31,0,2.62,0,3.93,0,.34-.22.6-.58.6a.58.58,0,0,1-.6-.54c0-1.48,0-3,0-4.46a1.77,1.77,0,0,0-.54-1.31,1.57,1.57,0,0,0-.79-.52c-1.13-.42-2.26-.82-3.39-1.25-.23-.09-.33,0-.46.17-.42.66-.86,1.3-1.3,1.95a1.21,1.21,0,0,1-2,.2,6.54,6.54,0,0,0-.81-.76v5.94c-.19.52-.53.71-.9.51a.77.77,0,0,1-.31-.51c0-.11,0-.23,0-.34,0-1.76,0-3.53,0-5.29a.42.42,0,0,0-.06-.33l-.78.79a1.23,1.23,0,0,1-2.05-.21c-.44-.65-.88-1.3-1.3-2a.32.32,0,0,0-.46-.15l-3.36,1.23a1.61,1.61,0,0,0-.87.6,1.68,1.68,0,0,0-.48,1.29c0,1.47,0,2.94,0,4.41a.58.58,0,0,1-.56.54c-.35,0-.52-.22-.62-.53,0-1.42,0-2.85,0-4.27a3,3,0,0,1,.29-1.46c.2-.34.09-.47-.22-.59s-.28-.08-.4.06a6.14,6.14,0,0,1-.45.43,2.46,2.46,0,0,1-2.11.68,3.07,3.07,0,0,1-1.74-1.06.34.34,0,0,0-.49-.09c-.49.27-1,.51-1.51.76a1.18,1.18,0,0,0-.56.45,1.06,1.06,0,0,0-.3.83V54c-.16.41-.38.59-.69.51s-.48-.37-.47-.73v-4a2.44,2.44,0,0,1,1.4-2.3l1.49-.75a5.24,5.24,0,0,1-2-1.53.75.75,0,0,1-.17-.78,8.6,8.6,0,0,0,.48-2.84,17,17,0,0,1,.23-2.84,4.82,4.82,0,0,1,7.68-2.89,5.09,5.09,0,0,1,2,3.66c.12,1.19.06,2.39.24,3.58a4.34,4.34,0,0,0,.3,1.23.79.79,0,0,1-.13.89,5.23,5.23,0,0,1-2,1.5.68.68,0,0,0,.87.11c1.05-.51,2.18-.83,3.27-1.24a1.2,1.2,0,0,0,.81-.64,3.73,3.73,0,0,1,.83-.91.88.88,0,0,0,.25-.6,3,3,0,0,0-.9-2.6,6.21,6.21,0,0,1-1.57-4.43A10.54,10.54,0,0,0,32.88,34a7.82,7.82,0,0,1,.33-5.39,5.18,5.18,0,0,1,4.68-3.08c2.94-.08,5.89,0,8.83,0,.43,0,.68.21.67.63,0,2.3.08,4.6,0,6.9A3.81,3.81,0,0,1,47,34.42,3.39,3.39,0,0,0,46.78,36,7.41,7.41,0,0,1,46,39.69a6.61,6.61,0,0,1-1.5,1.94.52.52,0,0,0-.21.5.75.75,0,0,1,0,.15,2.36,2.36,0,0,0,1,2.48s.11.09.12.14c.1.48.51.55.87.68.75.26,1.5.53,2.24.82a1,1,0,0,0,.81,0,5.08,5.08,0,0,1,.52-.15c.93-.29.69-.17.73-1a.43.43,0,0,0-.19-.39,4.37,4.37,0,0,1-1.66-3.57,3.49,3.49,0,0,0-.33-1.55,3.59,3.59,0,0,1,2.95-4.94c2-.14,3.93,0,5.9-.05.4,0,.66.2.66.55A33.83,33.83,0,0,1,57.83,39a2.15,2.15,0,0,1-.26.87,2.48,2.48,0,0,0-.29,1.41A4.28,4.28,0,0,1,55.6,45c-.34.26-.14.62-.16.93s.25.26.43.31l1.92.55a2.46,2.46,0,0,1,1.91,1.95s0,0,0,0ZM42,44.42l1-.67a.27.27,0,0,0,.14-.25v-.83c-.06,0-.08,0-.1,0l-.29.12a6.79,6.79,0,0,1-3.33.56,6.49,6.49,0,0,1-2.25-.61c-.09,0-.19-.18-.3,0A1.61,1.61,0,0,0,37,43.78l1.18.79,1.61,1.11c.1.07.18.14.3,0C40.74,45.28,41.4,44.9,42,44.42ZM24,40.74c-.52-.29-.57-.67-.16-1.1a5.5,5.5,0,0,0,.76-.84.93.93,0,0,1,.65-.31,7.18,7.18,0,0,1,3.37.94,6.36,6.36,0,0,1,1.57,1.41,3.47,3.47,0,0,0,0-.92,4.21,4.21,0,0,0-1.59-3.24,3.62,3.62,0,0,0-4.29,0,3.73,3.73,0,0,0-.52.45,4.84,4.84,0,0,0-1.11,3.61c0,.14.05.23.18.25a.72.72,0,0,1,.45.4,3.09,3.09,0,0,0,1.54,2.82,2.93,2.93,0,0,0,1.49.46,3.07,3.07,0,0,0,2.91-1.81,1.11,1.11,0,0,0-.05-1.43,4.81,4.81,0,0,0-3-1.69,1.14,1.14,0,0,0-1.3.44A1,1,0,0,1,24,40.74Zm25.77-.88a9.65,9.65,0,0,1,.13,1.86,3.16,3.16,0,0,0,1.47,2.44,3,3,0,0,0,3.44,0,3.4,3.4,0,0,0,1.32-3.25,2.81,2.81,0,0,1,.17-1.08,2,2,0,0,0,.39-1,20.63,20.63,0,0,0,.08-2.61c0-.26-.15-.25-.33-.25-1.48,0-3,0-4.44,0a2.49,2.49,0,0,0-2,.81A2.33,2.33,0,0,0,49.75,39.86ZM34.44,35.53a6.16,6.16,0,0,0,.33,2.92A5.5,5.5,0,0,0,38.61,42a4.81,4.81,0,0,0,2.32.12,5.68,5.68,0,0,0,4.66-6.56,4.09,4.09,0,0,1,.21-1.2,5,5,0,0,0,.44-2.21c0-1.71,0-3.42,0-5.13,0-.28-.06-.38-.36-.38-2.61,0-5.21,0-7.82,0a3.26,3.26,0,0,0-1.16.2,4,4,0,0,0-2,1.28,4.39,4.39,0,0,0-1.1,2.79,8,8,0,0,0,.38,3.33A3,3,0,0,1,34.44,35.53ZM40.9,46.6c.43.42.84.81,1.23,1.22.2.21.3.23.47,0,.43-.68.89-1.35,1.34-2a.59.59,0,0,0-.22-.95.19.19,0,0,0-.24,0Zm-4.5-1.84a2.52,2.52,0,0,0-.53.5c-.11.12,0,.22.09.31.49.75,1,1.48,1.48,2.24.16.24.25.21.42,0,.33-.36.68-.7,1-1,.18-.18.17-.26,0-.39-.75-.5-1.49-1-2.23-1.52Zm-11.26.9A4.29,4.29,0,0,1,25,46.75a.17.17,0,0,0,.05.18c.95,1,1.75,1,2.67,0a.14.14,0,0,0,0-.17,2.15,2.15,0,0,1-.1-.87c0-.13,0-.19-.18-.16A4.46,4.46,0,0,1,25.14,45.66Zm26.57,0c0,.28-.14.51.1.73s.68.67,1,1c.13.14.21.13.34,0a9.07,9.07,0,0,1,.82-.82.74.74,0,0,0,.25-.89,4.48,4.48,0,0,1-1.21.17A4.18,4.18,0,0,1,51.71,45.64ZM22.43,43.3c0,.5-.48,1-.18,1.42a2.82,2.82,0,0,0,1.26.86l.24.11c.08,0,.18,0,.19-.06s.11-.45-.09-.61A5.66,5.66,0,0,1,22.43,43.3Zm7.91,0A4.7,4.7,0,0,1,29,45a.32.32,0,0,0-.13.18.82.82,0,0,0,0,.49c0,.08.13,0,.2,0a4.14,4.14,0,0,0,1.45-.91c.08-.08.18-.16.14-.3C30.55,44.11,30.46,43.74,30.34,43.29Z"/><path class="cls-4" d="M30.55,48.26a1.61,1.61,0,0,1,.87-.6l3.36-1.23a.32.32,0,0,1,.46.15c.42.66.86,1.31,1.3,2a1.23,1.23,0,0,0,2.05.21l.78-.79a.42.42,0,0,1,.06.33c0,1.76,0,3.53,0,5.29,0,.11,0,.23,0,.34H33.79c0-.76,0-1.51,0-2.26s-.2-.78-.79-.75A11.09,11.09,0,0,0,30.55,48.26Z"/><path class="cls-5" d="M40.62,53.92V48a6.54,6.54,0,0,1,.81.76,1.21,1.21,0,0,0,2-.2c.44-.65.88-1.29,1.3-1.95.13-.2.23-.26.46-.17,1.13.43,2.26.83,3.39,1.25a1.57,1.57,0,0,1,.79.52c-.56.57-1.11,1.15-1.68,1.72a2.91,2.91,0,0,0-.71,1c-.59,0-.77.16-.78.76,0,.75,0,1.51,0,2.26Z"/><path class="cls-6" d="M21.71,48.88a1.18,1.18,0,0,1,.56-.45c.5-.25,1-.49,1.51-.76a.34.34,0,0,1,.49.09A3.07,3.07,0,0,0,26,48.82a2.46,2.46,0,0,0,2.11-.68,6.14,6.14,0,0,0,.45-.43c.12-.14.23-.13.4-.06s.42.25.22.59a3,3,0,0,0-.29,1.46c0,1.42,0,2.85,0,4.27h-5c0-.94,0-1.88,0-2.82,0-.54-.17-.71-.7-.75a.82.82,0,0,0-.37-.59A7.59,7.59,0,0,1,21.71,48.88Z"/><path class="cls-6" d="M53.59,53.9c0-1.71,0-3.42,0-5.12a.36.36,0,0,1,.1-.28l1.23-1.23a.26.26,0,0,1,.3-.07c.79.23,1.58.45,2.36.69a1,1,0,0,1,.65.39c0,.17-.16.25-.26.36a9.06,9.06,0,0,0-1,1.06c-.58-.11-.83.1-.83.7,0,1.17,0,2.33,0,3.5Z"/><path class="cls-7" d="M47,50.9a2.91,2.91,0,0,1,.71-1c.57-.57,1.12-1.15,1.68-1.72A1.77,1.77,0,0,1,50,49.5c0,1.49,0,3,0,4.46H47.41c0-.76,0-1.53,0-2.29A.8.8,0,0,0,47,50.9Z"/><path class="cls-8" d="M30.55,48.26A11.09,11.09,0,0,1,33,50.9a.85.85,0,0,0-.37.79c0,.75,0,1.51,0,2.26H30.07c0-1.47,0-2.94,0-4.41A1.68,1.68,0,0,1,30.55,48.26Z"/><path class="cls-9" d="M51.12,53.9c0-1.31,0-2.62,0-3.93a3.47,3.47,0,0,0-.83-2.56c.6-.34.6-.34,1,.12s.85.67,1,1.11a3.89,3.89,0,0,1,0,1.49c0,1.26,0,2.52,0,3.77Z"/><path class="cls-10" d="M57,49.7a9.06,9.06,0,0,1,1-1.06c.1-.11.25-.19.26-.36a1.12,1.12,0,0,1,.38,1c0,1.58,0,3.16,0,4.74h-1.3c0-1.2,0-2.39,0-3.59A.75.75,0,0,0,57,49.7Z"/><path class="cls-10" d="M21.71,48.88a7.59,7.59,0,0,0,1.1.94.82.82,0,0,1,.37.59.7.7,0,0,0-.46.76c0,.93,0,1.87,0,2.81h-1.3V49.71A1.06,1.06,0,0,1,21.71,48.88Z"/><path class="cls-3" d="M57,49.7a.75.75,0,0,1,.33.69c0,1.2,0,2.39,0,3.59-.09.31-.26.54-.61.52s-.53-.26-.57-.6c0-1.17,0-2.33,0-3.5C56.13,49.8,56.38,49.59,57,49.7Z"/><path class="cls-3" d="M22.71,54c0-.94,0-1.88,0-2.81a.7.7,0,0,1,.46-.76c.53,0,.69.21.7.75,0,.94,0,1.88,0,2.82a.59.59,0,0,1-.57.52A.61.61,0,0,1,22.71,54Z"/><path class="cls-3" d="M47,50.9a.8.8,0,0,1,.39.77c0,.76,0,1.53,0,2.29-.09.32-.27.57-.63.54s-.5-.26-.55-.58c0-.75,0-1.51,0-2.26C46.25,51.06,46.43,50.88,47,50.9Z"/><path class="cls-3" d="M32.61,54c0-.75,0-1.51,0-2.26A.85.85,0,0,1,33,50.9c.59,0,.79.15.79.75s0,1.5,0,2.26c0,.32-.2.57-.55.59S32.7,54.28,32.61,54Z"/><path class="cls-11" d="M45.59,35.57a5.68,5.68,0,0,1-4.66,6.56A4.81,4.81,0,0,1,38.61,42c0-.16-.14-.27-.22-.4a5.66,5.66,0,0,1-.85-2.79c0-1.47,0-3,0-4.43a1.22,1.22,0,0,1,.4-.92,1.61,1.61,0,0,1,1.1-.34,12.24,12.24,0,0,1,4,.2,6.39,6.39,0,0,0,1.28.35A2.13,2.13,0,0,0,45.59,35.57Z"/><path class="cls-12" d="M45.59,35.57a2.13,2.13,0,0,1-1.28-1.89v-.22a.54.54,0,0,0,.57-.42.57.57,0,0,0-.25-.66,3.94,3.94,0,0,0-.45-.36,7.91,7.91,0,0,0-3.92-1.21,20.12,20.12,0,0,0-2.8,0c-.08-.21-.28-.29-.42-.44a2.42,2.42,0,0,1-.57-2.67c.11-.31.36-.52.44-.84a3.26,3.26,0,0,1,1.16-.2c2.61,0,5.21,0,7.82,0,.3,0,.36.1.36.38,0,1.71,0,3.42,0,5.13a5,5,0,0,1-.44,2.21A4.09,4.09,0,0,0,45.59,35.57Z"/><path class="cls-13" d="M44.31,33.46v.22A6.39,6.39,0,0,1,43,33.33a12.24,12.24,0,0,0-4-.2,1.61,1.61,0,0,0-1.1.34,1.22,1.22,0,0,0-.4.92c0,1.48,0,3,0,4.43a5.66,5.66,0,0,0,.85,2.79c.08.13.21.24.22.4a5.5,5.5,0,0,1-3.84-3.56,6.16,6.16,0,0,1-.33-2.92,2,2,0,0,0,1.18-1.44c.47-.07.62-.23.63-.7a8.81,8.81,0,0,0,0-.89c0-.27.07-.37.34-.41a16.39,16.39,0,0,1,4.64,0,4.9,4.9,0,0,1,2.67,1.17A.59.59,0,0,0,44.31,33.46Z"/><path class="cls-11" d="M56.11,40.86a3.4,3.4,0,0,1-1.32,3.25,3,3,0,0,1-3.44,0,9.33,9.33,0,0,1-.24-2.47,1.27,1.27,0,0,1,1.41-1.36,15.5,15.5,0,0,1,1.67.18C54.83,40.61,55.47,40.74,56.11,40.86Z"/><path class="cls-14" d="M50,36.75a2.49,2.49,0,0,1,2-.81c1.48,0,3,0,4.44,0,.18,0,.34,0,.33.25a20.63,20.63,0,0,1-.08,2.61,2,2,0,0,1-.39,1l-.86-.55a.68.68,0,0,0-.49-.74c-.21-.08-.42-.17-.64-.23a14.42,14.42,0,0,0-3-.39.73.73,0,0,0-.71.37c-.24,0-.36-.15-.47-.32A1.42,1.42,0,0,1,50,36.75Z"/><path class="cls-14" d="M24.26,36.69a3.62,3.62,0,0,1,4.29,0,4.21,4.21,0,0,1,1.59,3.24,3.47,3.47,0,0,1,0,.92,6.36,6.36,0,0,0-1.57-1.41,7.18,7.18,0,0,0-3.37-.94.93.93,0,0,0-.65.31A2.57,2.57,0,0,1,24.26,36.69Z"/><path class="cls-15" d="M35.62,34.09a2,2,0,0,1-1.18,1.44,3,3,0,0,0-.27-1.26,8,8,0,0,1-.38-3.33,4.39,4.39,0,0,1,1.1-2.79,4,4,0,0,1,2-1.28c-.08.32-.33.53-.44.84A2.42,2.42,0,0,0,37,30.38c.14.15.34.23.42.44l-1.3.16a1.21,1.21,0,0,0-1,.95,5.61,5.61,0,0,0,0,1.53A.62.62,0,0,0,35.62,34.09Z"/><path class="cls-11" d="M29.2,42.87a3.07,3.07,0,0,1-2.91,1.81,2.93,2.93,0,0,1-1.49-.46c0-.11-.05-.22-.08-.33-.25-.83-.36-1.63.51-2.19l0,0c.4-.83,1-.71,1.63-.34A7.53,7.53,0,0,1,29.2,42.87Z"/><path class="cls-13" d="M55.42,39.23l.86.55a2.81,2.81,0,0,0-.17,1.08c-.64-.12-1.28-.25-1.92-.35a15.5,15.5,0,0,0-1.67-.18,1.27,1.27,0,0,0-1.41,1.36,9.33,9.33,0,0,0,.24,2.47,3.16,3.16,0,0,1-1.47-2.44,9.65,9.65,0,0,0-.13-1.86l.9-1a1.84,1.84,0,0,0,.89.2,9.3,9.3,0,0,1,3,.53C55,39.74,55.17,39.64,55.42,39.23Z"/><path class="cls-13" d="M29.2,42.87a7.53,7.53,0,0,0-2.31-1.54c-.66-.37-1.23-.49-1.63.34l0,0c-.87.56-.76,1.36-.51,2.19,0,.11.06.22.08.33a3.09,3.09,0,0,1-1.54-2.82l.72-.66a1,1,0,0,0,.9-.55,1.14,1.14,0,0,1,1.3-.44,4.81,4.81,0,0,1,3,1.69A1.11,1.11,0,0,1,29.2,42.87Z"/><path class="cls-16" d="M38.22,44.57,37,43.78a1.61,1.61,0,0,1-.16-1.08c.11-.15.21,0,.3,0a6.49,6.49,0,0,0,2.25.61,6.79,6.79,0,0,0,3.33-.56l.29-.12s0,0,.1,0v.83a.27.27,0,0,1-.14.25l-1,.67-.26,0a8.07,8.07,0,0,1-2.5.15C38.9,44.54,38.56,44.35,38.22,44.57Z"/><path class="cls-8" d="M40.9,46.6l2.58-1.76a.19.19,0,0,1,.24,0,.59.59,0,0,1,.22.95c-.45.67-.91,1.34-1.34,2-.17.27-.27.25-.47,0C41.74,47.41,41.33,47,40.9,46.6Z"/><path class="cls-15" d="M24,40.74l-.72.66a.72.72,0,0,0-.45-.4c-.13,0-.18-.11-.18-.25a4.84,4.84,0,0,1,1.11-3.61,3.73,3.73,0,0,1,.52-.45,2.57,2.57,0,0,0,.32,2.11,5.5,5.5,0,0,1-.76.84C23.41,40.07,23.46,40.45,24,40.74Z"/><path class="cls-8" d="M36.4,44.76l.23.14c.74.51,1.48,1,2.23,1.52.21.13.22.21,0,.39-.36.33-.71.67-1,1-.17.18-.26.21-.42,0-.48-.76-1-1.49-1.48-2.24-.06-.09-.2-.19-.09-.31A2.52,2.52,0,0,1,36.4,44.76Z"/><path class="cls-17" d="M25.14,45.66a4.46,4.46,0,0,0,2.35,0c.15,0,.18,0,.18.16a2.15,2.15,0,0,0,.1.87.14.14,0,0,1,0,.17C26.82,48,26,48,25.07,46.93a.17.17,0,0,1-.05-.18A4.29,4.29,0,0,0,25.14,45.66Z"/><path class="cls-17" d="M51.71,45.64a4.18,4.18,0,0,0,1.31.2,4.48,4.48,0,0,0,1.21-.17.74.74,0,0,1-.25.89,9.07,9.07,0,0,0-.82.82c-.13.13-.21.14-.34,0-.33-.34-.66-.68-1-1S51.76,45.92,51.71,45.64Z"/><path class="cls-15" d="M50.65,38.86l-.9,1a2.33,2.33,0,0,1,.2-3.11,1.42,1.42,0,0,0,.16,1.17c.11.17.23.33.47.32A1.45,1.45,0,0,0,50.65,38.86Z"/><path class="cls-17" d="M38.22,44.57c.34-.22.68,0,1,0a8.07,8.07,0,0,0,2.5-.15l.26,0c-.58.48-1.24.86-1.85,1.3-.12.1-.2,0-.3,0Z"/><path class="cls-15" d="M22.43,43.3A5.66,5.66,0,0,0,23.85,45c.2.16.09.41.09.61s-.11.09-.19.06l-.24-.11a2.82,2.82,0,0,1-1.26-.86C22,44.26,22.46,43.8,22.43,43.3Z"/><path class="cls-14" d="M30.34,43.29c.12.45.21.82.31,1.18,0,.14-.06.22-.14.3a4.14,4.14,0,0,1-1.45.91c-.07,0-.17.07-.2,0a.82.82,0,0,1,0-.49A.32.32,0,0,1,29,45,4.7,4.7,0,0,0,30.34,43.29Z"/><path class="cls-3" d="M35.62,34.09a.62.62,0,0,1-.53-.63,5.61,5.61,0,0,1,0-1.53,1.21,1.21,0,0,1,1-.95l1.3-.16a20.12,20.12,0,0,1,2.8,0A7.91,7.91,0,0,1,44.18,32a3.94,3.94,0,0,1,.45.36.57.57,0,0,1,.25.66.54.54,0,0,1-.57.42.59.59,0,0,1-.41-.19,4.9,4.9,0,0,0-2.67-1.17,16.39,16.39,0,0,0-4.64,0c-.27,0-.36.14-.34.41a8.81,8.81,0,0,1,0,.89C36.24,33.86,36.09,34,35.62,34.09Z"/><path class="cls-3" d="M50.65,38.86a1.45,1.45,0,0,1-.07-.62.73.73,0,0,1,.71-.37,14.42,14.42,0,0,1,3,.39c.22.06.43.15.64.23a.68.68,0,0,1,.49.74c-.25.41-.46.51-.84.36a9.3,9.3,0,0,0-3-.53A1.84,1.84,0,0,1,50.65,38.86Z"/></g><g id="educrypt"><circle class="cls-18" cx="40" cy="40" r="38.52"/><g class="cls-19"><rect class="cls-20" x="30.28" y="35.03" width="20.72" height="17.44" transform="matrix(0.04, -1, 1, 0.04, -4.69, 82.61)"/></g><g class="cls-21"><rect class="cls-22" x="28.74" y="26.22" width="22.6" height="9.44"/></g></g><g id="Freswork"><circle class="cls-23" cx="40" cy="40" r="38.52"/><g id="Layer"><path id="Layer-2" data-name="Layer" class="cls-24" d="M24.24,42.38a15.62,15.62,0,0,0,4.49,8.89l5.43-5.43A16,16,0,0,1,42.1,32Z"/><path id="Layer-3" data-name="Layer" class="cls-24" d="M34.16,45.84a15.76,15.76,0,0,1-7.95-2.15,22.41,22.41,0,0,1-2-1.31,15.62,15.62,0,0,0,4.49,8.89Z"/><path id="Layer-4" data-name="Layer" class="cls-25" d="M34.16,45.84l-5.43,5.43a15.62,15.62,0,0,0,8.89,4.49L47.9,37.9a15.89,15.89,0,0,1-13.74,7.94Z"/><path id="Layer-5" data-name="Layer" class="cls-26" d="M36.31,53.79a15.76,15.76,0,0,1-2.15-7.95l-5.43,5.43a15.62,15.62,0,0,0,8.89,4.49,22.41,22.41,0,0,1-1.31-2Z"/><path id="Layer-6" data-name="Layer" class="cls-27" d="M54.45,24.9,42.1,32a16,16,0,0,1-15.89,0,16.15,16.15,0,0,0-2.15,8,20.3,20.3,0,0,0,.18,2.33,22.41,22.41,0,0,0,2,1.31,15.76,15.76,0,0,0,7.95,2.15L54.73,25.27a1.31,1.31,0,0,1-.28-.37Z"/><path id="Layer-7" data-name="Layer" class="cls-28" d="M26.21,43.69a15.76,15.76,0,0,0,7.95,2.15A16,16,0,0,1,42.1,32L24.24,42.29a12.59,12.59,0,0,0,2,1.4Z"/><path id="Layer-8" data-name="Layer" class="cls-29" d="M26.21,32a16.15,16.15,0,0,0-2.15,8,20.3,20.3,0,0,0,.18,2.33L42.1,32a15.6,15.6,0,0,1-15.89,0Z"/><path id="Layer-9" data-name="Layer" class="cls-30" d="M54.73,25.27a4.35,4.35,0,0,0-.75-.65,3.62,3.62,0,0,0-2-.56H40A15.89,15.89,0,0,0,26.21,32,16,16,0,0,0,42.1,32a15.88,15.88,0,0,0-7.94,13.84A16,16,0,0,0,48,37.9l7.1-12.35a1.31,1.31,0,0,1-.37-.28Z"/><path id="Layer-10" data-name="Layer" class="cls-31" d="M42.1,32l12.35-7.1c-.19-.1-.28-.28-.47-.38L26.21,32A15.6,15.6,0,0,0,42.1,32Z"/><path id="Layer-11" data-name="Layer" class="cls-32" d="M51.92,24.06H40A15.89,15.89,0,0,0,26.21,32L54,24.52A5.09,5.09,0,0,0,51.92,24.06Z"/><path id="Layer-12" data-name="Layer" class="cls-33" d="M48,37.9l7.1-12.35a1.53,1.53,0,0,1-.28-.37L34.25,45.75a15.86,15.86,0,0,0,2.15,8,22.29,22.29,0,0,0,1.31,2,17.07,17.07,0,0,0,2.24.19A15.86,15.86,0,0,0,47.9,53.7,15.67,15.67,0,0,1,48,37.9Z"/><path id="Layer-13" data-name="Layer" class="cls-34" d="M34.16,45.84a15.76,15.76,0,0,0,2.15,7.95,22.41,22.41,0,0,0,1.31,2L47.9,37.9a15.89,15.89,0,0,1-13.74,7.94Z"/><path id="Layer-14" data-name="Layer" class="cls-35" d="M48,37.9,37.71,55.76a19,19,0,0,0,2.34.18,15.81,15.81,0,0,0,8-2.15A15.6,15.6,0,0,1,48,37.9Z"/><path id="Layer-15" data-name="Layer" class="cls-36" d="M55.38,26a3.73,3.73,0,0,0-.93-1.12L42.1,32a15.88,15.88,0,0,0-7.94,13.84A16,16,0,0,0,48,37.9a16,16,0,0,0,0,15.89,15.86,15.86,0,0,0,7.94-13.65V28.08A3.94,3.94,0,0,0,55.38,26Z"/><path id="Layer-16" data-name="Layer" class="cls-37" d="M54.45,24.9,42.1,32a15.88,15.88,0,0,0-7.94,13.84L54.73,25.27c-.09-.09-.19-.28-.28-.37Z"/><path id="Layer-17" data-name="Layer" class="cls-36" d="M34.16,45.84A16,16,0,0,0,48,37.9l7.1-12.35a1.53,1.53,0,0,1-.28-.37Z"/><path id="Layer-18" data-name="Layer" class="cls-38" d="M55.1,25.55,48,37.9a16,16,0,0,0,0,15.89L55.48,26a1.74,1.74,0,0,1-.38-.47Z"/><path id="Layer-19" data-name="Layer" class="cls-39" d="M48,53.79a15.71,15.71,0,0,0,7.94-13.74v-12A3.94,3.94,0,0,0,55.38,26L48,53.79Z"/></g></g><circle class="cls-40" cx="39.96" cy="40.1" r="38.52"/><circle class="cls-2" cx="40" cy="40" r="38.52"/><path class="cls-41" d="M40,54.94H30.36c-.52,0-.67-.15-.67-.65V53a2.09,2.09,0,0,1,1.72-2,4.2,4.2,0,0,1,.87-.07c.8,0,1.6,0,2.4,0,.22,0,.3,0,.3-.28,0-.68,0-1.36,0-2,0-.21-.06-.26-.27-.26H27.93a2.72,2.72,0,0,1-2.88-2.89V30.56a2.72,2.72,0,0,1,2.89-2.89h3c.19,0,.26-.05.25-.25,0-.39,0-.78,0-1.18a1.09,1.09,0,0,1,1.2-1.19H47.57a1.09,1.09,0,0,1,1.19,1.18c0,.4,0,.8,0,1.2,0,.19.06.24.24.24h2a.33.33,0,0,0,.3-.14,1.78,1.78,0,0,1,2.31-.4,2.06,2.06,0,0,1,1.25,1.44,1.23,1.23,0,0,1,0,.33c-.11,1.38,0,2.77,0,4.15s0,2.79,0,4.19v4.18c0,1.38,0,2.75,0,4.13a2.69,2.69,0,0,1-2.81,2.82q-3.4,0-6.81,0c-.23,0-.31.05-.3.29,0,.67,0,1.35,0,2,0,.23.07.28.29.28.86,0,1.73,0,2.59,0a2.65,2.65,0,0,1,1.38.35,1.91,1.91,0,0,1,1,1.78c0,.42,0,.84,0,1.26s-.17.6-.61.6Zm6.45-14.22-.9-.54v1.08c0,.1,0,.2,0,.31l1.19-.69ZM53.68,28.3a2.24,2.24,0,0,0-.66-.4.78.78,0,0,0-1,.27c-.17.26-.31.54-.47.8s0,.18.07.24c.47.25.91.57,1.41.79.19.21.32.18.44-.09s.23-.39.34-.59A.77.77,0,0,0,53.68,28.3Zm-2.3,15.36h.36c.29,0,.38,0,.38-.36,0-2.87,0-5.75,0-8.63v-.31h-.06l-.68,1.22,0,0-2.49,4.31a.46.46,0,0,0-.08.25v3.31c0,.14,0,.19.19.19Zm1.08-12.87c-.4-.23-.82-.46-1.21-.71-.19-.12-.26-.07-.36.1-.48.85-1,1.69-1.45,2.53q-1.8,3.1-3.59,6.21c-.06.11-.21.22,0,.34.46.24.91.5,1.36.76.16.12.3.29.48,0q2.5-4.38,5-8.74c.1-.17.11-.28-.09-.36A.69.69,0,0,1,52.46,30.79Zm-8.62,17.6-7.7,0c-.19,0-.21.08-.21.24,0,.67,0,1.34,0,2,0,.26.06.34.33.34h7.58c.14,0,.21,0,.21-.16,0-.74,0-1.49,0-2.23C44.05,48.39,44,48.36,43.84,48.39ZM47.4,26H32.59c-.4,0-.4,0-.4.39q0,8.46,0,16.92c0,.27.07.34.35.34H47.4c.4,0,.4,0,.4-.37s0-.92,0-1.38c0-.15.08-.38-.06-.44s-.28.11-.4.21l-.32.17-1.66,1c-.31.17-.61.12-.72-.16s-.2-.22-.38-.22H33.72a2.17,2.17,0,0,1-.36,0A.43.43,0,0,1,33,42a.43.43,0,0,1,.37-.47,1.71,1.71,0,0,1,.39,0H44.38c.15,0,.2,0,.19-.19a6.76,6.76,0,0,1,0-.9c0-.28-.09-.32-.34-.32H33.43a.48.48,0,0,1,0-1h11c.11,0,.24,0,.32-.1l.74-1.3H33.59c-.4,0-.64-.18-.64-.48s.22-.48.63-.48H45.72c.11,0,.24.06.32-.09.25-.44.51-.88.77-1.32H33.54c-.36,0-.58-.19-.59-.47s.22-.49.59-.5H46.31c.38,0,.67.07.75.54l.35-.65a1.8,1.8,0,0,0,.4-1.19c0-2.22,0-4.43,0-6.65C47.8,26,47.8,26,47.4,26ZM54,31.16l-.06,0c-.22.39-.44.78-.67,1.16a1.14,1.14,0,0,0-.17.62v11c0,.56-.14.7-.69.7H27.59c-.53,0-.67-.14-.67-.68V30.5c0-.68.28-1,1-1h2.74c.61,0,.6,0,.61-.61,0-.25-.09-.29-.31-.29h-3A1.74,1.74,0,0,0,26,30.53v15a1.74,1.74,0,0,0,1.9,1.91H52.07A1.75,1.75,0,0,0,54,45.52V31.16ZM31.23,37.08c0-2.1,0-4.2,0-6.29,0-.24-.06-.31-.3-.3-.92,0-1.84,0-2.77,0-.21,0-.29,0-.29.27q0,6.33,0,12.67c0,.2.05.25.24.25.94,0,1.87,0,2.8,0,.26,0,.31-.06.31-.31C31.22,41.27,31.23,39.17,31.23,37.08ZM40,54h9.1c.2,0,.28,0,.26-.26a5.3,5.3,0,0,1,0-.69.94.94,0,0,0-.45-.84,1.89,1.89,0,0,0-1.09-.28H31.87a1.2,1.2,0,0,0-1.22,1.31,3.38,3.38,0,0,1,0,.45c0,.23.05.3.29.3ZM50.66,28.64H48.92c-.14,0-.18.08-.16.19s-.16.61.12.68a2.48,2.48,0,0,0,1.24,0c.24-.06.3-.46.46-.7ZM49.6,30.49c-.27,0-.47,0-.67,0s-.18,0-.17.17v1.18l.05,0Z"/><path class="cls-42" d="M47.41,34.25l-.35.65c-.08-.47-.37-.54-.75-.54H33.54c-.37,0-.6.21-.59.5s.23.46.59.47H46.81c-.26.44-.52.88-.77,1.32-.08.15-.21.09-.32.09H33.58c-.41,0-.63.17-.63.48s.24.48.64.48H45.43L44.69,39c-.08.15-.21.1-.32.1h-11a.48.48,0,0,0,0,1H44.24c.25,0,.36,0,.34.32a6.76,6.76,0,0,0,0,.9c0,.14,0,.21-.19.19H33.72a1.71,1.71,0,0,0-.39,0A.43.43,0,0,0,33,42a.43.43,0,0,0,.4.45,2.17,2.17,0,0,0,.36,0H44.26c.18,0,.3,0,.38.22s.41.33.72.16l1.66-1,.32-.17c.09.07.06.17.06.25v1.73H32.53c-.28,0-.35-.07-.35-.34q0-8.46,0-16.92c0-.39,0-.39.4-.39H47.4V29.7C47.41,31.22,47.41,32.73,47.41,34.25ZM37.33,33h3.73c.39,0,.56-.16.56-.54,0-1.67,0-3.33,0-5,0-.4-.17-.55-.58-.55h-7.4c-.43,0-.6.16-.6.6,0,1.36,0,2.71,0,4.07,0,.28,0,.55,0,.84.06.45.18.58.63.58Zm7.4-4.74H46.5c.33,0,.54-.22.53-.49a.49.49,0,0,0-.55-.47c-1.14,0-2.29,0-3.43,0-.39,0-.6.17-.6.47s.2.49.59.49C43.6,28.23,44.16,28.22,44.73,28.22Zm0,1.41H43c-.36,0-.56.18-.56.48s.2.48.56.48q1.73,0,3.45,0c.35,0,.57-.19.57-.48s-.21-.48-.56-.48Zm0,3.33h1.72c.35,0,.57-.2.56-.48s-.22-.48-.57-.49H43c-.36,0-.56.19-.56.49s.2.47.56.48Z"/><path class="cls-43" d="M54,31.16V45.52a1.75,1.75,0,0,1-1.9,1.89H27.92A1.74,1.74,0,0,1,26,45.5v-15a1.74,1.74,0,0,1,1.89-1.89h3c.22,0,.32,0,.31.29,0,.61,0,.61-.61.61H27.88c-.68,0-1,.29-1,1V44c0,.54.14.68.67.68H52.38c.55,0,.69-.14.69-.7v-11a1.14,1.14,0,0,1,.17-.62c.23-.38.45-.77.67-1.16Z"/><path class="cls-44" d="M31.23,37.08c0,2.09,0,4.19,0,6.29,0,.25-.05.31-.31.31-.93,0-1.86,0-2.8,0-.19,0-.25,0-.24-.25q0-6.33,0-12.67c0-.24.08-.27.29-.27.93,0,1.85,0,2.77,0,.24,0,.3.06.3.3C31.22,32.88,31.23,35,31.23,37.08Z"/><path class="cls-43" d="M40,54h-9c-.24,0-.31-.07-.29-.3a3.38,3.38,0,0,0,0-.45,1.2,1.2,0,0,1,1.22-1.31H47.79a1.89,1.89,0,0,1,1.09.28.94.94,0,0,1,.45.84,5.3,5.3,0,0,0,0,.69c0,.22-.06.26-.26.26Z"/><path class="cls-45" d="M43.84,50.94H36.26c-.27,0-.34-.08-.33-.34,0-.67,0-1.34,0-2,0-.16,0-.24.21-.24l7.7,0Z"/><path class="cls-46" d="M47.22,40c-.45-.26-.9-.52-1.36-.76-.22-.12-.07-.23,0-.34q1.78-3.11,3.59-6.21c.48-.84,1-1.68,1.45-2.53.1-.17.17-.22.36-.1.39.25.81.48,1.21.71a.77.77,0,0,1-.17.44l-.8,1.38-2.17,3.77Z"/><path class="cls-47" d="M51.38,43.66l-2.43,0c-.15,0-.19,0-.19-.19V40.18a.46.46,0,0,1,.08-.25l2.49-4.31,0,0c0,.1,0,.2,0,.3Z"/><path class="cls-48" d="M51.38,43.66V35.88c0-.1,0-.2,0-.3l.68-1.22h.06v.31c0,2.88,0,5.76,0,8.63,0,.32-.09.41-.38.36Z"/><path class="cls-49" d="M47.22,40l2.1-3.64,2.17-3.77.8-1.38a.77.77,0,0,0,.17-.44.69.69,0,0,0,.19.1c.2.08.19.19.09.36q-2.54,4.36-5,8.74C47.52,40.31,47.38,40.14,47.22,40Z"/><path class="cls-50" d="M47.41,34.25c0-1.52,0-3,0-4.55V26c.4,0,.4,0,.4.38,0,2.22,0,4.43,0,6.65A1.8,1.8,0,0,1,47.41,34.25Z"/><path class="cls-51" d="M53.07,30c-.5-.22-.94-.54-1.41-.79-.11-.06-.14-.13-.07-.24s.3-.54.47-.8a.78.78,0,0,1,1-.27,2.24,2.24,0,0,1,.66.4,1.83,1.83,0,0,1-.34,1.12A1.2,1.2,0,0,0,53.07,30Z"/><path class="cls-43" d="M50.66,28.64l-.08.15c-.16.24-.22.64-.46.7a2.48,2.48,0,0,1-1.24,0c-.28-.07-.07-.45-.12-.68s0-.2.16-.19h1.74Z"/><path class="cls-50" d="M47.4,43.66V41.93c0-.08,0-.18-.06-.25.12-.1.29-.26.4-.21s0,.29.06.44c0,.46,0,.92,0,1.38S47.8,43.69,47.4,43.66Z"/><path class="cls-48" d="M49.6,30.49l-.79,1.37-.05,0V30.66c0-.13,0-.17.17-.17S49.33,30.49,49.6,30.49Z"/><path class="cls-52" d="M53.07,30a1.2,1.2,0,0,1,.27-.58,1.83,1.83,0,0,0,.34-1.12.77.77,0,0,1,.17,1c-.11.2-.25.39-.34.59S53.26,30.21,53.07,30Z"/><path class="cls-51" d="M45.54,41.26V40.18l.9.54A5.11,5.11,0,0,1,45.54,41.26Z"/><path class="cls-51" d="M43.84,50.94V48.39c.14,0,.21,0,.21.16,0,.74,0,1.49,0,2.23C44.05,50.94,44,51,43.84,50.94Z"/><path class="cls-52" d="M45.54,41.26a5.11,5.11,0,0,0,.9-.54l.33.16-1.19.69C45.5,41.46,45.54,41.36,45.54,41.26Z"/><path class="cls-53" d="M37.33,33H33.66c-.45,0-.57-.13-.63-.58,0-.29,0-.56,0-.84,0-1.36,0-2.71,0-4.07,0-.44.17-.6.6-.6H41c.41,0,.58.15.58.55,0,1.67,0,3.33,0,5,0,.38-.17.53-.56.54Zm0-5.13c-1,0-2.07,0-3.1,0-.19,0-.26,0-.25.24,0,1.21,0,2.41,0,3.61,0,.23,0,.31.3.31h6.07c.26,0,.3-.09.3-.31,0-1.2,0-2.4,0-3.61,0-.2-.06-.24-.25-.24C39.39,27.84,38.37,27.83,37.35,27.83Z"/><path class="cls-41" d="M44.73,28.22c-.57,0-1.13,0-1.69,0-.39,0-.6-.18-.59-.49s.21-.47.6-.47c1.14,0,2.29,0,3.43,0a.49.49,0,0,1,.55.47c0,.27-.2.47-.53.49H44.73Z"/><path class="cls-41" d="M44.75,29.63h1.72c.35,0,.57.19.56.48s-.22.48-.57.48q-1.73,0-3.45,0c-.36,0-.56-.18-.56-.48s.2-.48.56-.48Z"/><path class="cls-41" d="M44.75,33H43c-.36,0-.56-.18-.56-.48s.2-.48.56-.49h3.45c.35,0,.57.2.57.49s-.21.47-.56.48Z"/><path class="cls-54" d="M37.35,27.83c1,0,2,0,3.07,0,.19,0,.25,0,.25.24,0,1.21,0,2.41,0,3.61,0,.22,0,.31-.3.31H34.3c-.25,0-.31-.08-.3-.31,0-1.2,0-2.4,0-3.61,0-.2.06-.24.25-.24C35.28,27.84,36.32,27.83,37.35,27.83Z"/><circle class="cls-18" cx="40" cy="40" r="38.52"/><g id="data_ana_ystics" data-name="data ana;ystics"><circle class="cls-2" cx="40" cy="40" r="38.52"/><path class="cls-55" d="M46.32,27.79c.48-.18.58-.15.89.26A13.35,13.35,0,0,1,49.82,34c0,.21.11.27.32.27h3a.53.53,0,0,1,.59.39.49.49,0,0,1-.52.62c-.45,0-.9,0-1.35,0H50.22c-.18,0-.23,0-.22.22,0,.75,0,.75.77.75h4.82c.29,0,.51.08.59.39s-.16.62-.58.62c-1.38,0-2.75,0-4.12,0-.43,0-.85,0-1.28,0-.16,0-.21.05-.23.21-.1.76-.11.76.68.76h2.53c.41,0,.67.27.6.59s-.29.42-.6.42c-1,0-2.1,0-3.14,0-.25,0-.35.07-.4.31a13.2,13.2,0,0,1-2.45,5.12c-.11.15-.15.24,0,.39.5.48,1,1,1.48,1.47.11.12.18.14.32,0a.86.86,0,0,1,1.22.09c1.57,1.55,3.12,3.11,4.68,4.67a.56.56,0,0,1,.07.79c-.38.21-.52.19-.82-.11-.49-.48-1-1-1.45-1.45-.12-.13-.2-.13-.32,0-.3.33-.62.64-.93,1l-.91.89c-.1.09-.13.16,0,.27l3.4,3.4c.09.09.15.11.25,0,.3-.33.62-.65.93-1l.78-.75c.31-.31.31-.31,0-.62s-.34-.47-.12-.86a.62.62,0,0,1,.82.12c.86.78.9,1.27,0,2.08-.6.55-1.17,1.15-1.75,1.73a1,1,0,0,1-1.61,0l-6.47-6.47a.93.93,0,0,1-.17-1.42c.1-.16,0-.2-.09-.27-.48-.49-1-1-1.45-1.46-.16-.17-.25-.13-.41,0a13.45,13.45,0,0,1-4.37,2.25,8.13,8.13,0,0,1-1.18.29c-.32,0-.36.18-.36.45,0,1,0,1.91,0,2.87,0,.41-.17.63-.49.63s-.52-.22-.52-.63c0-1,0-1.89,0-2.84,0-.24-.07-.27-.28-.25-.69.07-.69.06-.69.75v4.62a1.07,1.07,0,0,1,0,.4.49.49,0,0,1-.52.34.47.47,0,0,1-.45-.44c0-.11,0-.22,0-.34,0-1.65,0-3.3,0-5,0-.26-.07-.34-.33-.35-.66-.05-.66-.06-.66.58v2.5c0,.41-.18.62-.5.62s-.51-.22-.51-.61c0-1,0-2,0-3,0-.24-.07-.31-.3-.36a13.55,13.55,0,0,1-9.41-7.4,12.88,12.88,0,0,1-1.3-4.5c0-.07,0-.17-.08-.21V35.11c.09,0,.07-.11.07-.17a12.62,12.62,0,0,1,.6-2.79A13.58,13.58,0,0,1,33.8,22.92a14,14,0,0,0,1.44-.24h2.3a4.53,4.53,0,0,0,1.1.19,13.67,13.67,0,0,1,6.85,3.31.57.57,0,0,1,.09.81.65.65,0,0,1-.87-.14A12.31,12.31,0,0,0,39.22,24a12,12,0,0,0-4.85-.19A12.33,12.33,0,0,0,26.9,28a12.15,12.15,0,0,0-3,10.55,12.36,12.36,0,0,0,7,9.28A12,12,0,0,0,35.71,49a11.51,11.51,0,0,0,3.51-.34,3.88,3.88,0,0,0,.49-.11A12.66,12.66,0,0,0,49,35.34a12.41,12.41,0,0,0-2.58-6.7A.65.65,0,0,1,46.32,27.79Zm4.39,23,1-1c.24-.24,0-.34-.15-.4s-.24-.57-.56-.31-.65.65-1,1a10.92,10.92,0,0,0-.9.9c-.26.34.22.39.33.59s.16.35.38.12S50.41,51.08,50.71,50.78Zm-1.43-1.44.49-.46c.69-.69.68-.69-.08-1.34-.11-.1-.17-.09-.27,0l-1,1-.39.37c-.2.22-.59.41-.58.66s.4.45.61.68.17.14.29,0C48.68,49.94,49,49.64,49.28,49.34Zm-3-3.64a6,6,0,0,1-.44.48c-.15.14-.16.23,0,.38.36.34.7.69,1,1,.55.55.54.55,1.07,0,.13-.14.13-.22,0-.35-.48-.46-.94-.94-1.41-1.41A.36.36,0,0,0,46.28,45.7Z"/><path class="cls-56" d="M46.32,27.79a.65.65,0,0,0,.06.85A12.41,12.41,0,0,1,49,35.34a12.66,12.66,0,0,1-9.25,13.21,3.88,3.88,0,0,1-.49.11c0-.12.12-.12.2-.15a12.81,12.81,0,0,0,4.33-3c.09-.09.22-.17.19-.33.18-.17.36-.34.53-.52a11.65,11.65,0,0,0-.53-17.17c0-.14-.08-.22-.16-.31a14.67,14.67,0,0,0-1.08-1,12.61,12.61,0,0,0-2.83-1.78c-.22-.1-.49-.14-.65-.37a12.31,12.31,0,0,1,5.49,2.81.65.65,0,0,0,.87.14A3.31,3.31,0,0,1,46.32,27.79Z"/><path class="cls-57" d="M55.77,52.88c-.22.39-.2.54.12.86s.3.31,0,.62l-.78.75A1,1,0,0,0,55,55l-3.34-3.34a.32.32,0,0,0-.22-.13c.31-.32.63-.63.93-1,.12-.13.2-.13.32,0,.48.49,1,1,1.45,1.45.3.3.44.32.82.11Z"/><path class="cls-58" d="M43.94,45.2c0,.16-.1.24-.19.33a12.81,12.81,0,0,1-4.33,3c-.08,0-.19,0-.2.15a11.51,11.51,0,0,1-3.51.34,12,12,0,0,1-4.77-1.21,12.36,12.36,0,0,1-7-9.28A12.15,12.15,0,0,1,26.9,28a12.33,12.33,0,0,1,7.47-4.11,12,12,0,0,1,4.85.19c.16.23.43.27.65.37a12.61,12.61,0,0,1,2.83,1.78,14.67,14.67,0,0,1,1.08,1c.08.09.19.17.16.31l-.08-.05a11.43,11.43,0,0,0-8.62-2.69,11,11,0,0,0-6.8,3.09,11.47,11.47,0,0,0-3.66,9.74A11,11,0,0,0,27.57,44c.29.33.48.34.83.08.17.35.55.51.77.81a.62.62,0,0,0,.25.82,11.71,11.71,0,0,0,14.52-.52Z"/><path class="cls-59" d="M51.45,51.51a.32.32,0,0,1,.22.13L55,55a1,1,0,0,1,.09.13c-.31.32-.63.64-.93,1-.1.1-.16.08-.25,0l-3.4-3.4c-.11-.11-.08-.18,0-.27Z"/><path class="cls-58" d="M46.28,45.7a.36.36,0,0,1,.27.13c.47.47.93,1,1.41,1.41.13.13.13.21,0,.35-.53.56-.52.56-1.07,0-.35-.35-.69-.7-1-1-.16-.15-.15-.24,0-.38A6,6,0,0,0,46.28,45.7Z"/><path class="cls-59" d="M49.28,49.34c-.3.3-.6.6-.89.92-.12.12-.19.1-.29,0s-.59-.41-.61-.68.38-.44.58-.66l.39-.37A2.06,2.06,0,0,1,49.28,49.34Z"/><path class="cls-60" d="M49.28,49.34a2.06,2.06,0,0,0-.82-.81l1-1c.1-.1.16-.11.27,0,.76.65.77.65.08,1.34Z"/><path class="cls-61" d="M50,50.08c.32-.32.62-.68,1-1s.39.19.56.31.39.16.15.4l-1,1A3.32,3.32,0,0,0,50,50.08Z"/><path class="cls-62" d="M50,50.08a3.32,3.32,0,0,1,.7.7c-.3.3-.6.6-.89.91s-.32,0-.38-.12-.59-.25-.33-.59A10.92,10.92,0,0,1,50,50.08Z"/><path class="cls-63" d="M28.4,44.09c-.35.26-.54.25-.83-.08a11,11,0,0,1-2.79-6.41,11.47,11.47,0,0,1,3.66-9.74,11,11,0,0,1,6.8-3.09,11.43,11.43,0,0,1,8.62,2.69l.08.05a11.65,11.65,0,0,1,.53,17.17c-.17.18-.35.35-.53.52a11.71,11.71,0,0,1-14.52.52.62.62,0,0,1-.25-.82.6.6,0,0,1,.82,0,10.73,10.73,0,0,0,5,2,9.45,9.45,0,0,0,3.67-.18h.14a10.3,10.3,0,0,0,7.9-8.14A10.2,10.2,0,0,0,43,28.08,9.45,9.45,0,0,0,38.68,26l-.22-.07A10.71,10.71,0,0,0,25.81,37.8a10,10,0,0,0,2.48,5.5A.58.58,0,0,1,28.4,44.09Z"/><path class="cls-64" d="M38.68,46.71a9.45,9.45,0,0,1-3.67.18,10.73,10.73,0,0,1-5-2,.6.6,0,0,0-.82,0c-.22-.3-.6-.46-.77-.81a.58.58,0,0,0-.11-.79,10,10,0,0,1-2.48-5.5A10.71,10.71,0,0,1,38.46,25.93l.22.07c0,.19.23.21.36.27a10.58,10.58,0,0,1,3.08,2.12,11.3,11.3,0,0,1,2.61,4,11,11,0,0,1,.75,4A11.31,11.31,0,0,1,42.41,44a10.81,10.81,0,0,1-2.91,2.19C39.22,46.37,38.86,46.4,38.68,46.71ZM36.53,37.1h6.95a2.08,2.08,0,0,0,.43,0,.45.45,0,0,0,.37-.49.44.44,0,0,0-.39-.47,1.5,1.5,0,0,0-.47,0c-.27,0-.32-.08-.32-.32,0-.79,0-1.58,0-2.36s-.27-1-1-1c-.92,0-1.84,0-2.76,0-.27,0-.34-.08-.34-.34,0-1.27,0-2.54,0-3.81,0-.72-.27-1-1-1H34.88a.79.79,0,0,0-.89.89c0,.46,0,.93,0,1.39,0,.24-.08.29-.31.29H31c-.77,0-1,.25-1,1,0,1.6,0,3.2,0,4.79,0,.35-.08.45-.43.43-.53,0-.76.14-.76.48s.24.52.78.52Zm1.74,3.14c.24.62.47,1.16.67,1.72a.61.61,0,0,0,.67.44h2.46c.4,0,.62-.18.62-.5s-.22-.51-.61-.51h-2a.31.31,0,0,1-.35-.23c-.3-.8-.61-1.59-.92-2.38-.1-.27-.23-.48-.54-.48s-.43.21-.53.48c-.41,1.15-.84,2.29-1.27,3.44,0,.1,0,.24-.18.32l-1-2.74c-.08-.23-.2-.42-.48-.44a.54.54,0,0,0-.55.36c-.25.48-.54.94-.78,1.42a.41.41,0,0,1-.45.25H31.1c-.39,0-.63.19-.63.5s.23.51.62.51h2.43a.65.65,0,0,0,.65-.39c.15-.29.32-.58.51-.91,0,.12.07.18.09.24l1,2.85c.14.37.4.5.7.38a.62.62,0,0,0,.33-.41C37.28,42.88,37.76,41.6,38.27,40.24Z"/><path class="cls-65" d="M38.68,46.71c.18-.31.54-.34.82-.49A10.81,10.81,0,0,0,42.41,44a11.31,11.31,0,0,0,3.07-7.68,11,11,0,0,0-.75-4,11.3,11.3,0,0,0-2.61-4A10.58,10.58,0,0,0,39,26.27c-.13-.06-.31-.08-.36-.27A9.45,9.45,0,0,1,43,28.08a10.2,10.2,0,0,1,3.71,10.48,10.3,10.3,0,0,1-7.9,8.14Z"/><path class="cls-66" d="M36.53,37.1h-7c-.54,0-.79-.16-.78-.52s.23-.52.76-.48c.35,0,.43-.08.43-.43,0-1.59,0-3.19,0-4.79,0-.75.25-1,1-1h2.73c.23,0,.32-.05.31-.29,0-.46,0-.93,0-1.39a.79.79,0,0,1,.89-.89h3.21c.7,0,1,.27,1,1,0,1.27,0,2.54,0,3.81,0,.26.07.34.34.34.92,0,1.84,0,2.76,0,.69,0,1,.27,1,1s0,1.57,0,2.36c0,.24,0,.35.32.32a1.5,1.5,0,0,1,.47,0,.44.44,0,0,1,.39.47.45.45,0,0,1-.37.49,2.08,2.08,0,0,1-.43,0Zm4-1,1.27,0c.18,0,.24-.06.24-.23q0-1.08,0-2.16c0-.17-.06-.24-.24-.23l-1.28,0-1.3,0c-.17,0-.21.07-.21.22v2.18c0,.16,0,.23.21.23A11.51,11.51,0,0,0,40.58,36.06Zm-8.11-5.15c-.43,0-.87,0-1.31,0-.2,0-.21.11-.21.26V35.8c0,.14,0,.3.21.29l1.31,0,1.31,0c.16,0,.21-.07.21-.23q0-2.37,0-4.74c0-.18-.07-.23-.24-.23C33.33,30.91,32.9,30.91,32.47,30.91Zm4.05,5.16c.4,0,.81,0,1.21,0s.32-.07.32-.32c0-1.54,0-3.08,0-4.62V28.6c0-.13,0-.29-.19-.28a12,12,0,0,0-1.34,0c-.39,0-.79,0-1.18,0s-.34.08-.34.34q0,3.56,0,7.09v.14c0,.14.06.2.2.2Z"/><path class="cls-55" d="M38.27,40.24c-.51,1.36-1,2.64-1.46,3.92a.62.62,0,0,1-.33.41c-.3.12-.56,0-.7-.38l-1-2.85c0-.06-.05-.12-.09-.24-.19.33-.36.62-.51.91a.65.65,0,0,1-.65.39H31.09c-.39,0-.62-.2-.62-.51s.24-.5.63-.5h1.95a.41.41,0,0,0,.45-.25c.24-.48.53-.94.78-1.42a.54.54,0,0,1,.55-.36c.28,0,.4.21.48.44l1,2.74c.14-.08.14-.22.18-.32.43-1.15.86-2.29,1.27-3.44.1-.27.23-.48.53-.48s.44.21.54.48c.31.79.62,1.58.92,2.38a.31.31,0,0,0,.35.23h2c.39,0,.62.19.61.51s-.22.5-.62.5H39.61a.61.61,0,0,1-.67-.44C38.74,41.4,38.51,40.86,38.27,40.24Z"/><path class="cls-60" d="M36.52,28.35a12,12,0,0,1,1.34,0c.22,0,.19.15.19.28v2.56c0,1.54,0,3.08,0,4.62,0,.25-.07.34-.32.32s-.81,0-1.21,0Z"/><path class="cls-59" d="M36.52,28.35v7.72l-1.31,0c-.14,0-.21-.06-.2-.2v-.14q0-3.54,0-7.09c0-.26.07-.35.34-.34S36.13,28.34,36.52,28.35Z"/><path class="cls-67" d="M32.47,36.07l-1.31,0c-.24,0-.21-.15-.21-.29V31.15c0-.15,0-.27.21-.26.44,0,.88,0,1.31,0Z"/><path class="cls-68" d="M32.47,36.07V30.91c.43,0,.86,0,1.28,0,.17,0,.24.05.24.23q0,2.37,0,4.74c0,.16-.05.23-.21.23Z"/><path class="cls-62" d="M40.58,36.06a11.51,11.51,0,0,1-1.31,0c-.16,0-.21-.07-.21-.23V33.68c0-.15,0-.23.21-.22l1.3,0Z"/><path class="cls-61" d="M40.58,36.06V33.48l1.28,0c.18,0,.24.06.24.23q0,1.08,0,2.16c0,.17-.06.24-.24.23Z"/></g><circle class="cls-23" cx="40" cy="40" r="38.52"/><path class="cls-69" d="M30.94,48.17c0-1.84,0-3.67,0-5.5,0-.29-.05-.4-.37-.38-.5,0-1,0-1.52,0s-.66-.09-.66-.64V34.3c0-.66,0-1.32,0-2,0-.28-.08-.33-.33-.33-1.18,0-2.36,0-3.54,0a2.84,2.84,0,0,1-3-3v-4.5a2.85,2.85,0,0,1,3-3h8.6A2.83,2.83,0,0,1,36,24.45c0,.63,0,1.26,0,1.89,0,.35.06.47.45.47,2.86,0,5.73,0,8.59,0a3.75,3.75,0,0,1,3.19,1.46c.21.26.28.05.38-.05l4.15-4.15c.44-.44.54-.44,1,0l1.42,1.42c.41.41.41.54,0,1q-2.94,2.94-5.89,5.87A.84.84,0,0,0,49,33q0,6.12,0,12.22c0,.32.06.44.4.42.58,0,1.16,0,1.73,0s.62.1.62.6,0,1.23,0,1.85c0,.25.08.31.32.31,1.15,0,2.3,0,3.45,0a2.8,2.8,0,0,1,3,3v4.25a2.78,2.78,0,0,1-2.92,2.93H47.12a2.74,2.74,0,0,1-2.39-1.23.48.48,0,0,0-.47-.2H34.74a3.65,3.65,0,0,1-3.74-3,4.69,4.69,0,0,1-.06-.92ZM42.37,34.89a2.1,2.1,0,0,1,.56-1c1.56-1.53,3.09-3.09,4.65-4.62.23-.23.22-.38,0-.61a2.81,2.81,0,0,0-2.16-1.07c-3,0-6.08,0-9.12,0-.21,0-.28.06-.28.27q0,.7,0,1.41a2.79,2.79,0,0,1-2.25,2.66A7.36,7.36,0,0,1,32.1,32c-.31,0-.36.09-.36.38q0,4.38,0,8.76c0,.27.05.37.34.36a17.75,17.75,0,0,1,1.93,0c.39,0,.53-.07.5-.49s.09-.58.54-.58h9.89c.38,0,.54.16.53.52v1.69c0,.65-.07.72-.7.72H35.25c-.71,0-.76,0-.74-.75,0-.28-.1-.33-.34-.32-.69,0-1.37,0-2.05,0-.29,0-.39.05-.38.36,0,2.81,0,5.63,0,8.44,0,.29.05.38.36.38q5.9,0,11.77,0c.3,0,.37-.08.38-.38a2.74,2.74,0,0,1,2.57-2.73,11.42,11.42,0,0,1,1.17,0c.19,0,.25-.05.25-.25,0-.48,0-1,0-1.45,0-.21-.06-.27-.27-.26-.69,0-1.37,0-2,0-.37,0-.48.09-.45.46s-.1.62-.52.62H35c-.37,0-.54-.16-.54-.53,0-.59,0-1.18,0-1.77s.08-.63.62-.63H45a.41.41,0,0,1,.47.43,1.14,1.14,0,0,1,0,.32c0,.24.05.32.3.31.7,0,1.4,0,2.09,0,.29,0,.38-.05.38-.36q0-5.74,0-11.49c0-.09.07-.21-.08-.29-.9.91-1.82,1.82-2.72,2.74a1.89,1.89,0,0,1-1.06.66c-.24,0-.24.15-.16.36a3.71,3.71,0,0,1,.26,1.37c0,.42-.11.55-.55.55H36.05c-.45,0-.58-.15-.56-.58a4.55,4.55,0,0,1,1-2.66,4.79,4.79,0,0,1,1.93-1.39c-1.08-1.34-1.09-2.7-.05-3.65a2.38,2.38,0,0,1,3.27,0c1,1,1,2.34-.09,3.58ZM28.81,31.2c1.44,0,2.87,0,4.3,0a2,2,0,0,0,2.13-2.11c0-1.54,0-3.07,0-4.61a2,2,0,0,0-2.13-2.11c-2.86,0-5.73,0-8.59,0a2,2,0,0,0-2.15,2.17c0,1.48,0,3,0,4.45a2,2,0,0,0,2.19,2.21C26,31.21,27.4,31.2,28.81,31.2ZM51.38,57.72H55.6a2,2,0,0,0,2.12-2.11c0-1.46,0-2.92,0-4.37a2,2,0,0,0-2.05-2.09H47.11A2,2,0,0,0,45,51.23q0,2.19,0,4.38a2,2,0,0,0,2.12,2.11ZM38,52.26h-5.3c-.95,0-.95,0-.95,1a2.84,2.84,0,0,0,3.05,3.06H44.1c.13,0,.19,0,.18-.17-.09-1.15,0-2.3,0-3.45,0-.31-.06-.41-.39-.4C41.9,52.27,39.94,52.26,38,52.26Zm4.74-15.75c.4-.12.73-.24,1.06-.32A2.53,2.53,0,0,0,45,35.44c2.81-2.83,5.63-5.64,8.45-8.47.29-.28.56-.57.86-.84s.14-.24,0-.38a6.71,6.71,0,0,1-.7-.71c-.24-.29-.4-.3-.68,0C50,28,47,31,44,34A5.31,5.31,0,0,0,42.73,36.51ZM40,38.33h3.33c.11,0,.31.07.3-.09a1.65,1.65,0,0,0-.27-.95c-.15-.2-.39,0-.58.07a3.47,3.47,0,0,0-.46.13c-.47.13-.7-.11-.57-.58.08-.29.17-.58.28-.87s0-.37-.2-.51A3.73,3.73,0,0,0,36.36,38c-.06.28,0,.37.31.36ZM29.2,36.75c0,1.47,0,2.94,0,4.41,0,.27.06.35.33.34a10.46,10.46,0,0,1,1.12,0c.22,0,.31-.05.3-.28,0-.42,0-.83,0-1.25,0-2.53,0-5.06,0-7.58,0-.31-.07-.4-.38-.38a7.22,7.22,0,0,1-1,0c-.26,0-.34.07-.33.33C29.21,33.8,29.2,35.28,29.2,36.75ZM40,46.65h3.77c.9,0,.88,0,.91-.89,0-.38-.12-.43-.45-.43-2.65,0-5.3,0-8,0-1,0-1,0-1,1,0,.28.08.35.36.35C37.1,46.64,38.55,46.65,40,46.65Zm0-4.1h3.81c.9,0,.88,0,.9-.9,0-.33-.08-.42-.42-.42h-8c-.92,0-.91,0-.93.94,0,.33.12.38.41.38ZM40,31a1.58,1.58,0,0,0-1.58,1.58A1.61,1.61,0,0,0,40,34.23a1.59,1.59,0,0,0,1.57-1.59A1.57,1.57,0,0,0,40,31ZM51,47.39h0c0-.32.13-.74,0-.93s-.62-.06-1-.06c-.93,0-.93,0-.93.94,0,.32-.11.74.05.93s.62.06.95.07.71.13.87-.06S51,47.69,51,47.39Z"/><path class="cls-43" d="M42.37,34.89l-.82-.41c1.07-1.24,1.1-2.61.09-3.58a2.38,2.38,0,0,0-3.27,0c-1,.95-1,2.31.05,3.65a4.79,4.79,0,0,0-1.93,1.39,4.55,4.55,0,0,0-1,2.66c0,.43.11.58.56.58h7.87c.44,0,.55-.13.55-.55a3.71,3.71,0,0,0-.26-1.37c-.08-.21-.08-.33.16-.36a1.89,1.89,0,0,0,1.06-.66c.9-.92,1.82-1.83,2.72-2.74.15.08.08.2.08.29q0,5.74,0,11.49c0,.31-.09.37-.38.36-.69,0-1.39,0-2.09,0-.25,0-.33-.07-.3-.31a1.14,1.14,0,0,0,0-.32.41.41,0,0,0-.47-.43H35.12c-.54,0-.62.09-.62.63s0,1.18,0,1.77c0,.37.17.53.54.53H45c.42,0,.54-.13.52-.62s.08-.48.45-.46c.68,0,1.36,0,2,0,.21,0,.28,0,.27.26,0,.49,0,1,0,1.45,0,.2-.06.25-.25.25a11.42,11.42,0,0,0-1.17,0,2.74,2.74,0,0,0-2.57,2.73c0,.3-.08.38-.38.38q-5.88,0-11.77,0c-.31,0-.36-.09-.36-.38,0-2.81,0-5.63,0-8.44,0-.31.09-.37.38-.36.68,0,1.36,0,2.05,0,.24,0,.34,0,.34.32,0,.72,0,.75.74.75h9.52c.63,0,.7-.07.7-.72V41c0-.36-.15-.52-.53-.52H35.05c-.45,0-.58.11-.54.58s-.11.51-.5.49a17.75,17.75,0,0,0-1.93,0c-.29,0-.34-.09-.34-.36q0-4.38,0-8.76c0-.29.05-.39.36-.38a7.36,7.36,0,0,0,1.69-.06A2.79,2.79,0,0,0,36,29.28q0-.71,0-1.41c0-.21.07-.27.28-.27,3,0,6.08,0,9.12,0a2.81,2.81,0,0,1,2.16,1.07c.2.23.21.38,0,.61-1.56,1.53-3.09,3.09-4.65,4.62A2.1,2.1,0,0,0,42.37,34.89Z"/><path class="cls-70" d="M28.81,31.2c-1.41,0-2.83,0-4.25,0A2,2,0,0,1,22.37,29c0-1.48,0-3,0-4.45a2,2,0,0,1,2.15-2.17c2.86,0,5.73,0,8.59,0a2,2,0,0,1,2.13,2.11c0,1.54,0,3.07,0,4.61a2,2,0,0,1-2.13,2.11C31.68,31.21,30.25,31.2,28.81,31.2Zm0-3.35H25.38a2.17,2.17,0,0,0-.36,0,.38.38,0,0,0-.34.42.37.37,0,0,0,.35.37,2.17,2.17,0,0,0,.36,0h6.82a3.15,3.15,0,0,0,.44,0,.37.37,0,0,0,.29-.34.36.36,0,0,0-.26-.4,1.37,1.37,0,0,0-.4,0Zm0-2.93H25.16c-.26,0-.46.08-.48.37s.19.42.46.44h7.22c.29,0,.57-.06.58-.4s-.27-.41-.57-.41Z"/><path class="cls-71" d="M51.38,57.72H47.16A2,2,0,0,1,45,55.61q0-2.19,0-4.38a2,2,0,0,1,2.07-2.08h8.55a2,2,0,0,1,2.05,2.09c0,1.45,0,2.91,0,4.37a2,2,0,0,1-2.12,2.11Zm-.05-5.37h3.81a.39.39,0,0,0,0-.78,1.43,1.43,0,0,0-.36,0h-7c-.23,0-.43.05-.5.3s.11.5.49.5Zm0,3c1.19,0,2.38,0,3.57,0,.31,0,.57-.06.57-.41s-.28-.4-.58-.4H47.82c-.29,0-.56,0-.56.42s.29.39.57.39Z"/><path class="cls-43" d="M38,52.26c1.95,0,3.91,0,5.86,0,.33,0,.39.09.39.4,0,1.15-.05,2.3,0,3.45,0,.15-.05.18-.18.17H34.79a2.84,2.84,0,0,1-3.05-3.06c0-1,0-1,.95-1Zm2,1.5H38.55c-.27,0-.46.1-.47.37s.19.43.47.43H41.4c.27,0,.49-.1.49-.41s-.21-.4-.49-.39Z"/><path class="cls-72" d="M42.73,36.51A5.31,5.31,0,0,1,44,34C47,31,50,28,53,25c.28-.28.44-.27.68,0a6.71,6.71,0,0,0,.7.71c.15.14.17.23,0,.38s-.57.56-.86.84c-2.82,2.83-5.64,5.64-8.45,8.47a2.53,2.53,0,0,1-1.25.75C43.46,36.27,43.13,36.39,42.73,36.51Z"/><path class="cls-73" d="M40,38.33H36.67c-.29,0-.37-.08-.31-.36a3.73,3.73,0,0,1,5.47-2.45c.23.14.29.27.2.51s-.2.58-.28.87c-.13.47.1.71.57.58a3.47,3.47,0,0,1,.46-.13c.19,0,.43-.27.58-.07a1.65,1.65,0,0,1,.27.95c0,.16-.19.09-.3.09Z"/><path class="cls-74" d="M40,46.65c-1.45,0-2.9,0-4.34,0-.28,0-.37-.07-.36-.35,0-1,0-1,1-1,2.66,0,5.31,0,8,0,.33,0,.46.05.45.43,0,.89,0,.89-.91.89Z"/><path class="cls-75" d="M40,42.55H35.7c-.29,0-.41-.05-.41-.38,0-.94,0-.94.93-.94h8c.34,0,.43.09.42.42,0,.9,0,.9-.9.9Z"/><path class="cls-76" d="M40,31a1.57,1.57,0,0,1,1.6,1.6A1.59,1.59,0,0,1,40,34.23a1.61,1.61,0,0,1-1.61-1.61A1.58,1.58,0,0,1,40,31Z"/><path class="cls-77" d="M28.83,27.85h3.45a1.37,1.37,0,0,1,.4,0,.36.36,0,0,1,.26.4.37.37,0,0,1-.29.34,3.15,3.15,0,0,1-.44,0H25.39a2.17,2.17,0,0,1-.36,0,.37.37,0,0,1-.35-.37.38.38,0,0,1,.34-.42,2.17,2.17,0,0,1,.36,0Z"/><path class="cls-78" d="M28.81,24.92h3.56c.3,0,.57.05.57.41s-.29.4-.58.4H25.14c-.27,0-.47-.13-.46-.44s.22-.37.48-.37Z"/><path class="cls-79" d="M51.33,52.35H47.76c-.38,0-.57-.2-.49-.5s.27-.3.5-.3h7a1.43,1.43,0,0,1,.36,0,.39.39,0,0,1,0,.78H51.33Z"/><path class="cls-80" d="M51.37,55.31H47.83c-.28,0-.56,0-.57-.39s.27-.42.56-.42h7.11c.3,0,.57.06.58.4s-.26.41-.57.41C53.75,55.3,52.56,55.31,51.37,55.31Z"/><path class="cls-81" d="M40,53.76H41.4c.28,0,.49.08.49.39s-.22.41-.49.41H38.55c-.28,0-.48-.12-.47-.43s.2-.38.47-.37Z"/></svg>