<svg id="Layer_1" data-name="Layer 1" xmlns="http://www.w3.org/2000/svg" viewBox="0 0 80 80"><defs><style>.cls-1{fill:#fbeeee;}.cls-2{fill:#043c59;}.cls-3{fill:#0074fe;}.cls-4{fill:#073f5d;}.cls-5{fill:#f4f6fe;}.cls-6{fill:#95a0c2;}.cls-7{fill:#637398;}.cls-8{fill:#cbd2ea;}.cls-9{fill:#f3f6fe;}.cls-10{fill:#f1f3fc;}.cls-11{fill:#f1f4fe;}.cls-12{fill:#043d5a;}.cls-13{fill:#66769a;}.cls-14{fill:#0073fd;}.cls-15{fill:#f2f5fd;}</style></defs><circle class="cls-1" cx="40" cy="40" r="38.52"/><path class="cls-2" d="M50.54,20.1c.14-.52.3-.66.83-.66h2.44a2,2,0,0,1,2,2,1,1,0,0,0,.67,1.09,4.29,4.29,0,0,1,2.64,4.06q0,10.67,0,21.34a4.57,4.57,0,0,1-4.64,4.56c-3,0-6,0-9,0H45L45.49,54c.54,1.59,1.09,3.17,1.62,4.76.09.26.19.41.49.36a1.38,1.38,0,0,1,.29,0,.67.67,0,1,1,0,1.33H32a.66.66,0,0,1-.63-.68.6.6,0,0,1,.63-.62c.65.1.79-.26.95-.76.62-1.88,1.28-3.75,1.92-5.62l.08-.26H25.63a4.64,4.64,0,0,1-4.87-4.85V26.92a4.61,4.61,0,0,1,3.07-4.55.32.32,0,0,0,.25-.35,6.32,6.32,0,0,1,0-.87,2,2,0,0,1,2-1.71c1.6,0,3.2,0,4.8,0H45.05c.57,0,.73.13.88.66-.14.55-.3.66-.92.66H26.28c-.68,0-.88.21-.88.9,0,1.28,0,2.56,0,3.84,0,.64-.08.56.54.56H54.1c.34,0,.43-.1.43-.44,0-1.35,0-2.7,0-4.05,0-.59-.23-.81-.84-.82H51.37C50.84,20.76,50.67,20.62,50.54,20.1Zm6,24.48a6.88,6.88,0,0,1,.91,0c.35,0,.43-.08.43-.43,0-4.44,0-8.89,0-13.34,0-1.39,0-2.78,0-4.17a3.14,3.14,0,0,0-2-2.9v.82c0,.16,0,.33,0,.49V40.38a2,2,0,0,1-2.22,2.23H26.32a2,2,0,0,1-2.25-2.25V23.72l-.2.08a3.21,3.21,0,0,0-1.78,3q0,8.64,0,17.29c0,.4.08.51.5.51H56.5ZM40,27.38c-4.72,0-9.43,0-14.15,0-.35,0-.42.09-.42.43q0,6.28,0,12.58c0,.7.2.9.91.9h27.3c.7,0,.91-.2.91-.91q0-6.28,0-12.57c0-.34-.08-.43-.43-.43C49.39,27.39,44.67,27.38,40,27.38Zm0,18.54H22.34c-.2,0-.26.08-.25.27v1.53a3.31,3.31,0,0,0,3.5,3.5H54.41a3.26,3.26,0,0,0,3.38-2.88c.09-.64,0-1.3.05-1.94,0-.38-.08-.48-.47-.48Zm5.85,13.21c0-.07,0-.12,0-.17l-2.1-6.18c-.08-.24-.24-.25-.45-.25H36.69a.41.41,0,0,0-.47.34c-.57,1.71-1.16,3.41-1.73,5.12a5.43,5.43,0,0,0-.37,1.14Z"/><path class="cls-3" d="M50.54,20.1c.13.52.3.66.83.66h2.31c.61,0,.84.23.84.82,0,1.35,0,2.7,0,4.05,0,.34-.09.44-.43.44H25.94c-.62,0-.54.08-.54-.56,0-1.28,0-2.56,0-3.84,0-.69.2-.9.88-.9H45c.62,0,.78-.11.92-.66h1.3c.13.55.29.66.94.67s.92-.09,1.07-.67Zm-16.91,4h5.46c.56,0,.86-.22.87-.65s-.29-.67-.89-.67H28.32c-.11,0-.22,0-.33,0a.64.64,0,0,0-.6.67.63.63,0,0,0,.57.65,1.82,1.82,0,0,0,.33,0Zm8.31-.67a1.33,1.33,0,1,0,1.35-1.31A1.32,1.32,0,0,0,41.94,23.4Zm5.28,1.34a1.33,1.33,0,0,0,0-2.65,1.31,1.31,0,0,0-1.34,1.28A1.33,1.33,0,0,0,47.22,24.74Zm4,0a1.33,1.33,0,1,0-1.32-1.33A1.31,1.31,0,0,0,51.21,24.74Z"/><path class="cls-4" d="M49.24,20.1c-.15.58-.29.67-1.07.67s-.81-.12-.94-.67c.14-.56.29-.66,1-.66S49.09,19.53,49.24,20.1Z"/><path class="cls-5" d="M40,27.38c4.71,0,9.43,0,14.14,0,.35,0,.43.09.43.43q0,6.28,0,12.57c0,.71-.21.91-.91.91H26.31c-.71,0-.91-.2-.91-.9q0-6.3,0-12.58c0-.34.07-.43.42-.43C30.53,27.39,35.24,27.38,40,27.38Zm5.62,2H40.17A2,2,0,0,0,38,31.54v6.25A2,2,0,0,0,40.17,40H51a2,2,0,0,0,2.2-2.17V31.54A2,2,0,0,0,51,29.37Zm-12.9,2.86a.68.68,0,0,0-.51-.79.65.65,0,0,0-.79.49c-.15.5-.27,1-.4,1.52-.3,1.18-.61,2.36-.91,3.55a.66.66,0,0,0,.42.86.72.72,0,0,0,.87-.5,2.17,2.17,0,0,1,.07-.24c.24-1,.49-1.91.74-2.87C32.35,33.55,32.53,32.84,32.68,32.23ZM34,32A.68.68,0,0,0,33.43,33c.31.46.6.93.92,1.37a.4.4,0,0,1,0,.55c-.3.41-.58.84-.85,1.27a.67.67,0,1,0,1.11.72c.41-.6.8-1.21,1.21-1.81a.71.71,0,0,0,0-.88l-1.28-1.93A.79.79,0,0,0,34,32ZM28.6,37.31a.67.67,0,0,0,.65-1c-.28-.47-.6-.93-.91-1.38a.34.34,0,0,1,0-.47c.29-.42.57-.84.84-1.27a.67.67,0,0,0-.14-1,.68.68,0,0,0-1,.24c-.41.6-.81,1.21-1.21,1.82a.69.69,0,0,0,0,.84L28.12,37A.68.68,0,0,0,28.6,37.31Z"/><path class="cls-6" d="M40,45.92H57.37c.39,0,.49.1.47.48,0,.64,0,1.3-.05,1.94a3.26,3.26,0,0,1-3.38,2.88H25.59a3.31,3.31,0,0,1-3.5-3.5V46.18c0-.19.05-.29.25-.27H40Zm0,2c-.24,0-.47,0-.7,0a.65.65,0,0,0,0,1.3,10.44,10.44,0,0,0,1.37,0,.67.67,0,0,0,.64-.64.69.69,0,0,0-.66-.66C40.41,47.89,40.2,47.9,40,47.9Z"/><path class="cls-5" d="M56.5,44.58H22.58c-.42,0-.5-.11-.5-.51q0-8.66,0-17.29a3.21,3.21,0,0,1,1.78-3l.2-.08V40.36a2,2,0,0,0,2.25,2.25h27.3a2,2,0,0,0,2.22-2.23V25.07c0-.16,0-.33,0-.49a3.56,3.56,0,0,1,.64,2Q56.52,35.57,56.5,44.58Z"/><path class="cls-7" d="M45.81,59.13H34.12A5.43,5.43,0,0,1,34.49,58c.57-1.71,1.16-3.41,1.73-5.12a.41.41,0,0,1,.47-.34h6.53c.21,0,.37,0,.45.25L45.77,59S45.79,59.06,45.81,59.13Z"/><path class="cls-8" d="M56.5,44.58q0-9,0-18a3.56,3.56,0,0,0-.64-2v-.82a3.14,3.14,0,0,1,2,2.9c0,1.39,0,2.78,0,4.17,0,4.45,0,8.9,0,13.34,0,.35-.08.47-.43.43A6.88,6.88,0,0,0,56.5,44.58Z"/><path class="cls-9" d="M33.63,24.07H28.29a1.82,1.82,0,0,1-.33,0,.63.63,0,0,1-.57-.65.64.64,0,0,1,.6-.67c.11,0,.22,0,.33,0H39.07c.6,0,.89.23.89.67s-.31.65-.87.65H33.63Z"/><path class="cls-10" d="M41.94,23.4a1.33,1.33,0,1,1,1.32,1.34A1.3,1.3,0,0,1,41.94,23.4Z"/><path class="cls-11" d="M47.22,24.74a1.33,1.33,0,0,1-1.3-1.37,1.32,1.32,0,0,1,2.64.08A1.33,1.33,0,0,1,47.22,24.74Z"/><path class="cls-11" d="M51.21,24.74a1.31,1.31,0,0,1-1.32-1.33,1.32,1.32,0,1,1,1.32,1.33Z"/><path class="cls-12" d="M45.58,29.37H51a2,2,0,0,1,2.2,2.17v6.25A2,2,0,0,1,51,40H40.17A2,2,0,0,1,38,37.79V31.54a2,2,0,0,1,2.2-2.17Zm6.2,8.08.09,0V31.56c0-.65-.21-.87-.87-.87H40.17c-.66,0-.87.22-.87.86v5.71c0,.11-.06.24.06.34L41,36A2,2,0,0,1,43.77,36c.21.19.31.17.47,0,.52-.64,1-1.29,1.59-1.9a1.93,1.93,0,0,1,2.87,0c.18.18.35.38.53.58Zm-.73,1.18L47.83,35a.68.68,0,0,0-1.18,0c-.37.44-.74.89-1.1,1.34s-.71.64-.71,1,.4.71.64,1.07c0,0,0,0,0,0a.29.29,0,0,0,.3.17ZM44,38.6l-.71-1.07c-.67-1-.86-1.06-1.73-.2-.42.41-.83.84-1.29,1.3h3.58Z"/><path class="cls-13" d="M32.68,32.23c-.15.61-.33,1.32-.51,2-.25,1-.5,1.91-.74,2.87a2.17,2.17,0,0,0-.07.24.72.72,0,0,1-.87.5.66.66,0,0,1-.42-.86c.3-1.19.61-2.37.91-3.55.13-.51.25-1,.4-1.52a.65.65,0,0,1,.79-.49A.68.68,0,0,1,32.68,32.23Z"/><path class="cls-13" d="M34,32a.79.79,0,0,1,.59.36l1.28,1.93a.71.71,0,0,1,0,.88c-.41.6-.8,1.21-1.21,1.81a.67.67,0,1,1-1.11-.72c.27-.43.55-.86.85-1.27a.4.4,0,0,0,0-.55c-.32-.44-.61-.91-.92-1.37A.68.68,0,0,1,34,32Z"/><path class="cls-13" d="M28.6,37.31a.68.68,0,0,1-.48-.34l-1.26-1.89a.69.69,0,0,1,0-.84c.4-.61.8-1.22,1.21-1.82a.68.68,0,0,1,1-.24.67.67,0,0,1,.14,1c-.27.43-.55.85-.84,1.27a.34.34,0,0,0,0,.47c.31.45.63.91.91,1.38A.67.67,0,0,1,28.6,37.31Z"/><path class="cls-12" d="M40,47.9c.2,0,.41,0,.62,0a.69.69,0,0,1,.66.66.67.67,0,0,1-.64.64,10.44,10.44,0,0,1-1.37,0,.65.65,0,0,1,0-1.3C39.53,47.89,39.76,47.9,40,47.9Z"/><path class="cls-14" d="M51.78,37.45l-2.55-2.86c-.18-.2-.35-.4-.53-.58a1.93,1.93,0,0,0-2.87,0c-.55.61-1.07,1.26-1.59,1.9-.16.21-.26.23-.47,0A2,2,0,0,0,41,36L39.36,37.6c-.12-.1-.06-.23-.06-.34V31.55c0-.64.21-.86.87-.86H51c.66,0,.87.22.87.87v5.86Zm-7.85-4.11a1.33,1.33,0,1,0-1.32,1.32A1.3,1.3,0,0,0,43.93,33.34Z"/><path class="cls-15" d="M51.05,38.63H45.8a.29.29,0,0,1-.3-.17s0,0,0,0c-.24-.36-.65-.72-.64-1.07s.45-.65.71-1,.73-.9,1.1-1.34a.68.68,0,0,1,1.18,0Z"/><path class="cls-15" d="M44,38.6l-.15,0H40.26c.46-.46.87-.89,1.29-1.3.87-.86,1.06-.83,1.73.2Z"/><path class="cls-11" d="M43.93,33.34A1.33,1.33,0,1,1,42.6,32,1.29,1.29,0,0,1,43.93,33.34Z"/></svg>