<svg id="Layer_1" data-name="Layer 1" xmlns="http://www.w3.org/2000/svg" viewBox="0 0 80 80"><defs><style>.cls-1{fill:#fbfadf;}.cls-2{fill:#213241;}.cls-3{fill:#ab9fab;}.cls-4{fill:#e4e5e5;}.cls-5{fill:#87c6fc;}.cls-6{fill:#f9d2a7;}.cls-7{fill:#f9d2a8;}.cls-8{fill:#19cbb7;}.cls-9{fill:#19ccb8;}</style></defs><circle class="cls-1" cx="40" cy="40" r="38.52"/><path class="cls-2" d="M34.8,50.17c1.46,0,2.91,0,4.37,0,.25,0,.34-.07.32-.32a7.06,7.06,0,0,1,0-.92c0-.23-.06-.28-.29-.28-1.32,0-2.64,0-4,0a1.72,1.72,0,0,1-1.38-.54c-.13-.14-.22-.09-.34,0-.39.21-.79.4-1.18.6a.56.56,0,0,1-.76-.1L28.5,45.51a.56.56,0,0,1-.1-.76c.35-.68.69-1.37,1.05-2a.52.52,0,0,0,0-.54,3.28,3.28,0,0,1-.36-.84,1.08,1.08,0,0,0-.93-.87c-.6-.15-1.18-.37-1.78-.56a.6.6,0,0,1-.47-.64q0-2.14,0-4.29a.63.63,0,0,1,.5-.67l2.16-.69a.52.52,0,0,0,.39-.38,3.62,3.62,0,0,1,.37-.91,1,1,0,0,0,0-1.14c-.32-.54-.57-1.13-.88-1.69a.64.64,0,0,1,.13-.85c1-1,2-2,3-3a.65.65,0,0,1,.88-.13c.67.36,1.35.69,2,1a.51.51,0,0,0,.48,0,6.28,6.28,0,0,1,1-.43.9.9,0,0,0,.69-.74c.18-.64.42-1.27.61-1.91a.6.6,0,0,1,.64-.48h4.33a.59.59,0,0,1,.62.46c.23.74.49,1.48.72,2.23a.47.47,0,0,0,.33.34,4.55,4.55,0,0,1,.94.39,1,1,0,0,0,1.11,0c.57-.34,1.17-.61,1.75-.92a.63.63,0,0,1,.8.12Q50,27.16,51.5,28.67a.59.59,0,0,1,.11.76c-.36.7-.71,1.4-1.07,2.09a.47.47,0,0,0,0,.47A5.94,5.94,0,0,1,51,33a.86.86,0,0,0,.68.65c.66.18,1.3.41,2,.62a.61.61,0,0,1,.48.67q0,2.13,0,4.26a.62.62,0,0,1-.49.67c-.72.22-1.44.47-2.16.69A.55.55,0,0,0,51,41a8.64,8.64,0,0,1-.49,1.18.61.61,0,0,0,0,.61c.35.65.67,1.32,1,2a.63.63,0,0,1-.13.82c-1,1-2,2-3,3a.6.6,0,0,1-.82.13l-.46-.23c-.23-.12-.46-.34-.66.07-.08.17-.32.13-.51.13-1.71,0-3.42,0-5.13,0-.27,0-.41,0-.37.35a3.3,3.3,0,0,1,0,.77c0,.31.05.4.39.4,2.81,0,5.62,0,8.43,0a2.42,2.42,0,0,1,.66,0,1.35,1.35,0,0,1,1,1.22c0,.52,0,1.05,0,1.58a.36.36,0,0,0,.25.41,1.82,1.82,0,0,1,1,2.11,1.86,1.86,0,0,1-3.64,0,1.85,1.85,0,0,1,1.08-2.07.31.31,0,0,0,.23-.34c0-.48,0-1,0-1.43,0-.31-.12-.45-.44-.45H40.76c-.22,0-.25.08-.25.27,0,.52,0,1,0,1.54a.38.38,0,0,0,.27.43,1.85,1.85,0,0,1,1,2.06A1.88,1.88,0,0,1,40.05,57a1.86,1.86,0,0,1-1.84-1.34,1.82,1.82,0,0,1,1-2.21.34.34,0,0,0,.24-.38c0-.53,0-1.07,0-1.61,0-.2-.06-.24-.25-.24H30.51c-.31,0-.45.13-.44.44s0,.88,0,1.32a.43.43,0,0,0,.29.49,1.86,1.86,0,1,1-2,3.12,1.84,1.84,0,0,1,.36-3.12.43.43,0,0,0,.3-.47c0-.46,0-.92,0-1.39a1.35,1.35,0,0,1,1.43-1.42C31.92,50.16,33.36,50.17,34.8,50.17ZM31.41,37.1a8.27,8.27,0,0,1,.15-1.57,8.58,8.58,0,1,1,16.58,4.26c-.1.32,0,.37.27.36.72,0,.9.25.67.94l-1.86,5.59c-.18.55-.17.53.34.82a.41.41,0,0,0,.59-.1c.73-.74,1.47-1.47,2.21-2.2a.34.34,0,0,0,.07-.48c-.34-.63-.65-1.28-1-1.92a.71.71,0,0,1,0-.69,11.57,11.57,0,0,0,.77-1.86.72.72,0,0,1,.53-.51c.68-.21,1.36-.45,2.05-.66.22-.06.28-.17.28-.39,0-1.06,0-2.13,0-3.19a.34.34,0,0,0-.28-.39l-2.06-.65a.76.76,0,0,1-.52-.52,11.07,11.07,0,0,0-.75-1.82.71.71,0,0,1,0-.73c.34-.65.66-1.31,1-1.95a.32.32,0,0,0-.07-.44c-.77-.75-1.53-1.51-2.29-2.28a.31.31,0,0,0-.44-.07l-1.95,1a.73.73,0,0,1-.7,0,12.61,12.61,0,0,0-1.86-.78.73.73,0,0,1-.5-.52c-.21-.68-.45-1.35-.65-2a.34.34,0,0,0-.39-.28H38.38a.3.3,0,0,0-.36.27c-.21.67-.45,1.34-.65,2a.77.77,0,0,1-.53.55,11.65,11.65,0,0,0-1.82.76.73.73,0,0,1-.73,0l-2-1a.29.29,0,0,0-.41.07c-.77.77-1.54,1.54-2.32,2.3a.32.32,0,0,0-.05.44c.33.63.64,1.27,1,1.89a.77.77,0,0,1,0,.79,10.37,10.37,0,0,0-.73,1.76.8.8,0,0,1-.59.59l-2,.64a.32.32,0,0,0-.26.36c0,1.08,0,2.15,0,3.23,0,.23.09.32.29.38.68.2,1.35.43,2,.64a.75.75,0,0,1,.55.54,12.06,12.06,0,0,0,.74,1.79.77.77,0,0,1,0,.79c-.33.63-.64,1.27-1,1.89a.34.34,0,0,0,.08.47l1.67,1.64c.27.26.5.71.83.74s.67-.31,1-.45a.39.39,0,0,0,.25-.42c0-1.29,0-2.57,0-3.85a.79.79,0,0,0-.17-.51A8.5,8.5,0,0,1,31.41,37.1Zm11,0a.94.94,0,0,0,.22.07,5.13,5.13,0,0,1,3.45,2.72c.15.3.36.21.57.24S47,40,47,39.86a7.65,7.65,0,0,0,.47-3.64,7.55,7.55,0,1,0-15,2,7.07,7.07,0,0,0,1,2.8,5.36,5.36,0,0,1,4.11-3.87,3.43,3.43,0,1,1,4.8,0Zm.36,10.51h2.75a.3.3,0,0,0,.34-.24c.65-2,1.3-4,2-6,.08-.23,0-.26-.19-.26h-5.5a.29.29,0,0,0-.33.24q-1,3-2,5.94c-.08.23,0,.29.21.29Zm-7.32-8.14c1.63.59,2.15,1.32,2.15,3,0,.73,0,1.46,0,2.2,0,.24.07.31.31.3.44,0,.88,0,1.32,0,.26,0,.36-.08.44-.32.42-1.3.85-2.6,1.28-3.89.19-.57.26-.62.87-.62h3.24a4,4,0,0,0-2.8-2,19.39,19.39,0,0,0-4.24,0A3.83,3.83,0,0,0,35.49,39.49Zm-1.07,4.8V46.8c0,.62.22.83.85.83h2.09c.45,0,1,.19,1.31-.07s.34-.84.49-1.27v0c.08-.19,0-.26-.19-.25H37.3c-.52,0-.69-.17-.69-.68V42.17a1.5,1.5,0,0,0-1.11-1.58c-.64-.23-.67-.22-.88.44a5.29,5.29,0,0,0-.13.54C34.35,42.53,34.47,43.49,34.42,44.29Zm5.63-12a2.38,2.38,0,0,0-2.39,2.36,2.42,2.42,0,0,0,2.39,2.42,2.39,2.39,0,0,0,0-4.78ZM29.55,55.94a.82.82,0,1,0-.84-.84A.83.83,0,0,0,29.55,55.94ZM50.44,54.3a.82.82,0,1,0,0,1.64.84.84,0,0,0,.85-.82A.82.82,0,0,0,50.44,54.3Zm-9.62.83A.79.79,0,0,0,40,54.3a.82.82,0,1,0,.82.83Z"/><path class="cls-3" d="M31.41,37.1a8.5,8.5,0,0,0,1.82,5.26.79.79,0,0,1,.17.51c0,1.28,0,2.56,0,3.85a.39.39,0,0,1-.25.42c-.35.14-.7.47-1,.45s-.56-.48-.83-.74l-1.67-1.64a.34.34,0,0,1-.08-.47c.34-.62.65-1.26,1-1.89a.77.77,0,0,0,0-.79,12.06,12.06,0,0,1-.74-1.79.75.75,0,0,0-.55-.54c-.67-.21-1.34-.44-2-.64-.2-.06-.3-.15-.29-.38,0-1.08,0-2.15,0-3.23a.32.32,0,0,1,.26-.36l2-.64a.8.8,0,0,0,.59-.59,10.37,10.37,0,0,1,.73-1.76.77.77,0,0,0,0-.79c-.34-.62-.65-1.26-1-1.89A.32.32,0,0,1,29.6,29c.78-.76,1.55-1.53,2.32-2.3a.29.29,0,0,1,.41-.07l2,1a.73.73,0,0,0,.73,0,11.65,11.65,0,0,1,1.82-.76.77.77,0,0,0,.53-.55c.2-.68.44-1.35.65-2a.3.3,0,0,1,.36-.27H41.6a.34.34,0,0,1,.39.28c.2.68.44,1.35.65,2a.73.73,0,0,0,.5.52,12.61,12.61,0,0,1,1.86.78.73.73,0,0,0,.7,0l1.95-1a.31.31,0,0,1,.44.07c.76.77,1.52,1.53,2.29,2.28a.32.32,0,0,1,.07.44c-.34.64-.66,1.3-1,1.95a.71.71,0,0,0,0,.73,11.07,11.07,0,0,1,.75,1.82.76.76,0,0,0,.52.52l2.06.65a.34.34,0,0,1,.28.39c0,1.06,0,2.13,0,3.19,0,.22-.06.33-.28.39-.69.21-1.37.45-2.05.66a.72.72,0,0,0-.53.51,11.57,11.57,0,0,1-.77,1.86.71.71,0,0,0,0,.69c.34.64.65,1.29,1,1.92a.34.34,0,0,1-.07.48c-.74.73-1.48,1.46-2.21,2.2a.41.41,0,0,1-.59.1c-.51-.29-.52-.27-.34-.82l1.86-5.59c.23-.69.05-1-.67-.94-.3,0-.37,0-.27-.36a8.58,8.58,0,1,0-16.58-4.26A8.27,8.27,0,0,0,31.41,37.1Z"/><path class="cls-4" d="M42.81,47.63H40.1c-.25,0-.29-.06-.21-.29q1-3,2-5.94a.29.29,0,0,1,.33-.24h5.5c.21,0,.27,0,.19.26-.67,2-1.32,4-2,6a.3.3,0,0,1-.34.24Z"/><path class="cls-5" d="M35.49,39.49a3.83,3.83,0,0,1,2.56-1.36,19.39,19.39,0,0,1,4.24,0,4,4,0,0,1,2.8,2H41.85c-.61,0-.68.05-.87.62-.43,1.29-.86,2.59-1.28,3.89-.08.24-.18.33-.44.32-.44,0-.88,0-1.32,0-.24,0-.31-.06-.31-.3,0-.74,0-1.47,0-2.2C37.64,40.81,37.12,40.08,35.49,39.49Z"/><path class="cls-6" d="M34.42,44.29c0-.8-.07-1.76.07-2.72a5.29,5.29,0,0,1,.13-.54c.21-.66.24-.67.88-.44a1.5,1.5,0,0,1,1.11,1.58v3.15c0,.51.17.68.69.68H39c.21,0,.27.06.19.25v0c-.15.43-.18,1-.49,1.27s-.86.06-1.31.07H35.27c-.63,0-.84-.21-.85-.83Z"/><path class="cls-7" d="M40.05,32.27a2.39,2.39,0,0,1,0,4.78,2.42,2.42,0,0,1-2.39-2.42A2.38,2.38,0,0,1,40.05,32.27Z"/><path class="cls-8" d="M29.55,55.94a.82.82,0,1,1,.84-.83A.82.82,0,0,1,29.55,55.94Z"/><path class="cls-8" d="M50.44,54.3a.82.82,0,0,1,.85.82.84.84,0,0,1-.85.82.82.82,0,1,1,0-1.64Z"/><path class="cls-9" d="M40.82,55.13A.82.82,0,1,1,40,54.3.8.8,0,0,1,40.82,55.13Z"/></svg>