<svg id="Layer_1" data-name="Layer 1" xmlns="http://www.w3.org/2000/svg" viewBox="0 0 80 80"><defs><style>.cls-1{fill:#fbfadf;}.cls-2{fill:#040404;}.cls-3{fill:#dee2e5;}.cls-4{fill:#c8c8c9;}.cls-5{fill:#020303;}.cls-6{fill:#4ad093;}.cls-7{fill:#35b69d;}.cls-8{fill:#1e948d;}.cls-9{fill:#010303;}.cls-10{fill:#626974;}.cls-11{fill:#35b59c;}.cls-12{fill:#4f5763;}.cls-13{fill:#020202;}</style></defs><circle class="cls-1" cx="40" cy="40" r="38.52"/><path class="cls-2" d="M54,39.39c.34.15.37.41.29.74a23.12,23.12,0,0,1-8.67,13.08,31.88,31.88,0,0,1-5,3c-.11.06-.22.1-.33.15h-.58c-1.09-.6-2.21-1.13-3.26-1.8A23.54,23.54,0,0,1,26.2,41.8c-.18-.57-.33-1.15-.48-1.72-.08-.31,0-.58.3-.71s.52.09.63.56a21.8,21.8,0,0,0,6.28,10.8,26.68,26.68,0,0,0,6.89,4.67.45.45,0,0,0,.45,0l.88-.46a22.78,22.78,0,0,0,3.49-2.16.47.47,0,0,0,.27-.19h0a15.3,15.3,0,0,0,2-1.61,21.83,21.83,0,0,0,6.54-11C53.52,39.49,53.63,39.4,54,39.39Z"/><path class="cls-3" d="M44.64,52.77a22.78,22.78,0,0,1-3.49,2.16l-.88.46a.45.45,0,0,1-.45,0,26.68,26.68,0,0,1-6.89-4.67,21.8,21.8,0,0,1-6.28-10.8c-.11-.47-.21-.55-.63-.56a12.88,12.88,0,0,1-.19-1.52.57.57,0,0,0,.36-.72,1.73,1.73,0,0,1,0-.32c-.13-2.16,0-4.33-.07-6.49,0-.26.12-.38.38-.41a6.74,6.74,0,0,0,1.33-.3A5.88,5.88,0,0,0,31.93,25c.06-.32.22-.4.53-.4H46.81a5.69,5.69,0,0,0,.45,1.87c.07.2.22.37.18.6-.08-.14-.16-.27-.23-.41a1.46,1.46,0,0,0-1.36-.85H34.21a1.41,1.41,0,0,0-1.34.82,8.34,8.34,0,0,1-4.44,4.11,1.43,1.43,0,0,0-1,1.4c0,1.54-.06,3.07.08,4.6a19.77,19.77,0,0,0,3.21,9.09,22.68,22.68,0,0,0,8.39,7.59,1.7,1.7,0,0,0,1.78,0A25.57,25.57,0,0,0,45,50.67,21.21,21.21,0,0,0,51.64,41a25.51,25.51,0,0,0,.8-3.35c.12.11.07.25.06.36-.07.57-.15,1.14-.25,1.7a21.33,21.33,0,0,1-3.09,7.79,21,21,0,0,1-2,2.72A13.93,13.93,0,0,1,45.37,52c-.18.15-.43.29-.47.57h0C44.75,52.56,44.64,52.59,44.64,52.77Z"/><path class="cls-2" d="M46.81,24.61H32.46c-.31,0-.47.08-.53.4a5.88,5.88,0,0,1-4.13,4.62,6.74,6.74,0,0,1-1.33.3c-.26,0-.38.15-.38.41,0,2.16-.06,4.33.07,6.49a1.73,1.73,0,0,0,0,.32.57.57,0,0,1-.36.72c-.44-.06-.54-.18-.57-.65-.17-2.32-.07-4.64-.09-7A1.23,1.23,0,0,1,26.39,29a5.58,5.58,0,0,0,2.68-1A4.69,4.69,0,0,0,31,24.79a1.26,1.26,0,0,1,1.33-1.13H47.72A1.23,1.23,0,0,1,49,24.73a5.15,5.15,0,0,0,4.24,4.18c.22,0,.44.06.66.11a1.15,1.15,0,0,1,1,1.09c0,2.4.09,4.8-.08,7.19a.5.5,0,0,1-.5.52.51.51,0,0,1-.43-.66c0-.17,0-.34,0-.51.12-2,0-4.07.06-6.1,0-.58,0-.59-.59-.68a6.38,6.38,0,0,1-3-1.23A5.59,5.59,0,0,1,48.14,25c0-.33-.2-.47-.53-.44A7.06,7.06,0,0,1,46.81,24.61Z"/><path class="cls-4" d="M46.81,24.61a7.06,7.06,0,0,0,.8,0c.33,0,.48.11.53.44a5.59,5.59,0,0,0,2.26,3.61,6.38,6.38,0,0,0,3,1.23c.58.09.6.1.59.68,0,2,.06,4.07-.06,6.1,0,.17,0,.34,0,.51a.51.51,0,0,0,.43.66L54,39.39c-.41,0-.52.1-.62.53a21.83,21.83,0,0,1-6.54,11,15.3,15.3,0,0,1-2,1.61c0-.28.29-.42.47-.57a13.93,13.93,0,0,0,1.74-1.78,21,21,0,0,0,2-2.72,21.33,21.33,0,0,0,3.09-7.79c.1-.56.18-1.13.25-1.7,0-.11.06-.25-.06-.36a3.26,3.26,0,0,1,.07-.7l0,0,0,0c0-.25,0-.51,0-.76.07-1.2,0-2.4,0-3.6a3.41,3.41,0,0,0-.11-1c.15-.21.06-.45.06-.68a.68.68,0,0,0-.56-.67l-.6-.1a5.23,5.23,0,0,1-2.76-1.55c-.13-.13-.22-.33-.45-.32l0-.06c0-.12,0-.21-.16-.2l0-.05c0-.11,0-.21-.14-.2h0c0-.1,0-.2-.13-.2h0c0-.16,0-.31-.21-.33a.1.1,0,0,1-.05-.1c0-.23-.11-.4-.18-.6A5.69,5.69,0,0,1,46.81,24.61Z"/><path class="cls-4" d="M44.64,52.77c0-.18.11-.21.27-.19A.47.47,0,0,1,44.64,52.77Z"/><path class="cls-5" d="M48,27.9,48,28l.16.2,0,.06a8,8,0,0,0,3.22,2.43,2,2,0,0,1,1.09.89,3.41,3.41,0,0,1,.11,1c0,1.2,0,2.4,0,3.6,0,.25,0,.51,0,.76a.07.07,0,0,0,0,.06,3.26,3.26,0,0,0-.07.7,25.51,25.51,0,0,1-.8,3.35A21.21,21.21,0,0,1,45,50.67a25.57,25.57,0,0,1-4.09,2.77,1.7,1.7,0,0,1-1.78,0,22.68,22.68,0,0,1-8.39-7.59,19.77,19.77,0,0,1-3.21-9.09c-.14-1.53-.08-3.06-.08-4.6a1.43,1.43,0,0,1,1-1.4,8.34,8.34,0,0,0,4.44-4.11,1.41,1.41,0,0,1,1.34-.82H45.85a1.46,1.46,0,0,1,1.36.85c.07.14.15.27.23.41a.1.1,0,0,0,.05.1.89.89,0,0,0,.21.33h0a.46.46,0,0,0,.13.2h0Zm-4.73,23,.22-.13a20.94,20.94,0,0,0,5.86-6.67,18.88,18.88,0,0,0,2.31-7.68c.09-1.2,0-2.41.05-3.61,0-1,.07-.93-.84-1.35a9,9,0,0,1-4.42-4.27.59.59,0,0,0-.53-.39c-.42,0-.83,0-1.25,0-1.53,0-3.07,0-4.6,0H34.21a.57.57,0,0,0-.54.38,9.12,9.12,0,0,1-4.85,4.46.62.62,0,0,0-.43.67c0,.94,0,1.89,0,2.84a18.28,18.28,0,0,0,1.74,7.7,21.29,21.29,0,0,0,9.57,9.87.44.44,0,0,0,.33.09.45.45,0,0,0,.3-.07A15.92,15.92,0,0,0,43,51a.09.09,0,0,0,.12-.07Z"/><path class="cls-3" d="M52.5,31.53a2,2,0,0,0-1.09-.89,8,8,0,0,1-3.22-2.43c.23,0,.32.19.45.32a5.23,5.23,0,0,0,2.76,1.55l.6.1a.68.68,0,0,1,.56.67C52.56,31.08,52.65,31.32,52.5,31.53Z"/><path class="cls-3" d="M47.7,27.51a.89.89,0,0,1-.21-.33C47.71,27.2,47.71,27.35,47.7,27.51Z"/><path class="cls-3" d="M47.82,27.7a.46.46,0,0,1-.13-.2C47.85,27.5,47.84,27.6,47.82,27.7Z"/><path class="cls-3" d="M48,27.9l-.14-.2C48,27.69,48,27.79,48,27.9Z"/><path class="cls-3" d="M48.15,28.15,48,28C48.14,27.94,48.16,28,48.15,28.15Z"/><path class="cls-3" d="M52.51,37a.07.07,0,0,1,0-.06l0,0Z"/><path class="cls-6" d="M40,52.76a.44.44,0,0,1-.33-.09,21.29,21.29,0,0,1-9.57-9.87,18.28,18.28,0,0,1-1.74-7.7c0-1,0-1.9,0-2.84a.62.62,0,0,1,.43-.67,9.12,9.12,0,0,0,4.85-4.46.57.57,0,0,1,.54-.38H40V28.5h-.09a4.56,4.56,0,0,0-4.35,3.62,11.93,11.93,0,0,0-.09,2.39c0,.76,0,.76-.75.77h0a1.47,1.47,0,0,0-1.47,1.47c0,2.23,0,4.47,0,6.71a1.44,1.44,0,0,0,1.29,1.44,5.93,5.93,0,0,0,.73,0L40,45Z"/><path class="cls-7" d="M40,28.5V26.76c1.53,0,3.07,0,4.6,0,.11.21.23.41.33.62a9.26,9.26,0,0,0,1.55,2.21,9.14,9.14,0,0,0,3.16,2.11,1,1,0,0,1,.66,1c0,.19,0,.38,0,.57A30.13,30.13,0,0,1,50,38.92a20.16,20.16,0,0,1-2.79,7,24.84,24.84,0,0,1-3.77,4.6c-.1.09-.23.16-.23.33l-.07,0A.13.13,0,0,0,43,51a15.92,15.92,0,0,1-2.71,1.72.45.45,0,0,1-.3.07V45h5.21a1.49,1.49,0,0,0,1.62-1.52q0-3.3,0-6.62a1.48,1.48,0,0,0-1.54-1.5,3.27,3.27,0,0,0-.44,0c-.21,0-.28-.06-.27-.27,0-.62,0-1.24,0-1.86a4.5,4.5,0,0,0-.6-2.35A4.56,4.56,0,0,0,40,28.5Z"/><path class="cls-8" d="M43.23,50.85c0-.17.13-.24.23-.33a24.84,24.84,0,0,0,3.77-4.6,20.16,20.16,0,0,0,2.79-7,30.13,30.13,0,0,0,.31-5.69c0-.19,0-.38,0-.57a1,1,0,0,0-.66-1,9.14,9.14,0,0,1-3.16-2.11A9.26,9.26,0,0,1,45,27.38c-.1-.21-.22-.41-.33-.62.42,0,.83,0,1.25,0a.59.59,0,0,1,.53.39,9,9,0,0,0,4.42,4.27c.91.42.85.34.84,1.35,0,1.2,0,2.41-.05,3.61a18.88,18.88,0,0,1-2.31,7.68,20.94,20.94,0,0,1-5.86,6.67Z"/><path class="cls-8" d="M43,51a.13.13,0,0,1,.12-.07A.09.09,0,0,1,43,51Z"/><path class="cls-9" d="M40,28.5a4.56,4.56,0,0,1,4,2.32,4.5,4.5,0,0,1,.6,2.35c0,.62,0,1.24,0,1.86,0,.21.06.29.27.27a3.27,3.27,0,0,1,.44,0,1.48,1.48,0,0,1,1.54,1.5q0,3.32,0,6.62a1.49,1.49,0,0,1-1.62,1.52H40l-4.76,0a5.93,5.93,0,0,1-.73,0,1.44,1.44,0,0,1-1.29-1.44c0-2.24,0-4.48,0-6.71a1.47,1.47,0,0,1,1.47-1.47h0c.74,0,.73,0,.75-.77a11.93,11.93,0,0,1,.09-2.39,4.56,4.56,0,0,1,4.35-3.62Zm-3.52,6.78H40l3.42,0c.19,0,.23-.07.23-.24,0-.72,0-1.43,0-2.14A3.59,3.59,0,0,0,40,29.47a3.54,3.54,0,0,0-3.51,2.84,15.92,15.92,0,0,0-.07,2.93S36.47,35.29,36.51,35.28ZM44.44,44c.3,0,.6,0,.9,0a.55.55,0,0,0,.58-.58V36.8a.52.52,0,0,0-.47-.56,2.64,2.64,0,0,0-1,0c-.12,0-.25,0-.38,0H34.92c-.55,0-.73.19-.73.73v6.3c0,.6.16.76.76.76h9.11Z"/><path class="cls-10" d="M44.44,44l-.38,0H35c-.6,0-.76-.16-.76-.76v-6.3c0-.54.18-.73.73-.73h9.14c.13,0,.26,0,.38,0a3.31,3.31,0,0,1,.14,1c0,1.76,0,3.51,0,5.27A4.24,4.24,0,0,1,44.44,44Zm-4.86-2.67v.51c0,.35.2.57.47.57s.47-.23.48-.58,0-.51,0-.76a.73.73,0,0,1,.27-.68,1.06,1.06,0,0,0,0-1.54,1.09,1.09,0,0,0-1.57,0,1.06,1.06,0,0,0,.07,1.54.63.63,0,0,1,.27.62A2.81,2.81,0,0,0,39.58,41.31Z"/><path class="cls-11" d="M40,29.47a3.59,3.59,0,0,1,3.64,3.45c0,.71,0,1.42,0,2.14,0,.17,0,.24-.23.24l-3.42,0Z"/><path class="cls-6" d="M40,29.47v5.81H36.51l-.06,0a15.92,15.92,0,0,1,.07-2.93A3.54,3.54,0,0,1,40,29.47Z"/><path class="cls-12" d="M44.44,44a4.24,4.24,0,0,0,.13-1.42c0-1.76,0-3.51,0-5.27a3.31,3.31,0,0,0-.14-1,2.64,2.64,0,0,1,1,0,.52.52,0,0,1,.47.56v6.61a.55.55,0,0,1-.58.58C45,44,44.74,44,44.44,44Z"/><path class="cls-11" d="M36.45,35.24l.06,0S36.45,35.28,36.45,35.24Z"/><path class="cls-13" d="M39.58,41.31a2.81,2.81,0,0,1,0-.29.63.63,0,0,0-.27-.62,1.06,1.06,0,0,1-.07-1.54,1.09,1.09,0,0,1,1.57,0,1.06,1.06,0,0,1,0,1.54.73.73,0,0,0-.27.68c0,.25,0,.51,0,.76s-.2.57-.48.58-.46-.22-.47-.57Z"/></svg>