<svg id="Layer_1" data-name="Layer 1" xmlns="http://www.w3.org/2000/svg" viewBox="0 0 80 80"><defs><style>.cls-1{fill:#fbfadf;}.cls-2{fill:#fbeeee;}.cls-3{fill:#eafbf1;}.cls-4{fill:#020202;}.cls-5{fill:#ace6fe;}.cls-6{fill:#685c78;}.cls-7{fill:#4fb0f3;}.cls-8{fill:#fdd558;}.cls-9{fill:#594f68;}.cls-10{fill:#fd2c5b;}.cls-11{fill:#fdbc54;}.cls-12{fill:#e32652;}.cls-13{fill:#abe5fd;}.cls-14{fill:#81d0f3;}.cls-15{fill:#f62a59;}</style></defs><circle class="cls-1" cx="40" cy="40" r="38.52"/><circle class="cls-2" cx="40" cy="40" r="38.52"/><circle class="cls-3" cx="40" cy="40" r="38.52"/><path class="cls-4" d="M39.6,24.31h.61a0,0,0,0,1,0,0,1.29,1.29,0,0,1,1.1,1.14,1.32,1.32,0,0,1-.75,1.44.23.23,0,0,0-.14.24v2.1c0,.15,0,.19.18.19H43c.18,0,.19-.07.19-.21,0-.33,0-.65,0-1,0-.51.14-.65.65-.65h3.67c.08,0,.19.05.25-.05a.69.69,0,0,0-.21-.68,1.37,1.37,0,0,1,.09-2.44c.07,0,.16,0,.19-.13h.67c0,.08.1.05.16.07a1.35,1.35,0,0,1,.92,1.12,1.16,1.16,0,0,1-.52,1.25.7.7,0,0,0-.38.81c0,.12,0,.25,0,.37,0,.45-.15.6-.61.6H44.83c-.72,0-.71,0-.7.72,0,.15,0,.21.2.2h1.35c.42,0,.51.07.64.46-.14.4-.22.45-.64.46h-1c-.6,0-.59,0-.6.6,0,.27.08.32.32.32h8.91a.55.55,0,0,1,.44.61q0,7.82,0,15.63a.55.55,0,0,1-.44.61H26.69a.47.47,0,0,1-.54-.54c0-.53,0-1.06,0-1.59a.56.56,0,0,1,.44-.63c.41.13.48.22.48.63s0,.59,0,.88.07.34.34.34H52.69c.15,0,.19,0,.19-.19,0-.35,0-.71,0-1.07V32.51c0-.15.07-.32-.22-.32-2.77,0-5.54,0-8.32,0-.18,0-.21.06-.21.22,0,.68,0,1.35,0,2a.3.3,0,0,0,.21.32l1.68.8a.52.52,0,0,1,.34.52v7.34A.53.53,0,0,1,46,44l-.75.35a.53.53,0,0,1-.73-.12c-.09-.38,0-.53.31-.69a3,3,0,0,1,.36-.17c.18-.06.23-.18.23-.37,0-.65,0-1.3,0-2,0-1.32,0-2.65,0-4,0-.22-.05-.27-.26-.16-.39.21-.79.4-1.19.59l-3.42,1.61c-.14.07-.15.17-.15.3v6c0,.26.06.27.27.17L43,44.38c.37-.17.51-.14.76.18a.52.52,0,0,1-.32.64l-3.17,1.51a.59.59,0,0,1-.55,0L33.92,44a.55.55,0,0,1-.35-.55q0-3.63,0-7.28a.58.58,0,0,1,.39-.58l1.63-.77a.32.32,0,0,0,.22-.35c0-.63,0-1.26,0-1.89,0-.26,0-.34-.32-.34q-4.05,0-8.1,0c-.27,0-.34.06-.33.33,0,3.73,0,7.46,0,11.19,0,.41-.09.53-.47.62-.37-.11-.45-.22-.45-.62V32c0-.56.13-.69.68-.69H35.2c.61,0,.6,0,.61-.6,0-.26-.07-.32-.32-.32H26c-.57,0-.72.15-.72.72V48.25c0,.64.13.77.76.77H54c.59,0,.74-.15.74-.74V30.89a.5.5,0,0,0-.52-.52c-.32,0-.63,0-.95,0H48c-.42,0-.5-.06-.64-.46.13-.39.22-.46.64-.46h6.09A1.43,1.43,0,0,1,55.63,31V48.35a1.43,1.43,0,0,1-1.58,1.59H44.27a4.35,4.35,0,0,0,1.54,2.85.39.39,0,0,0,.31.09c.55,0,1.1,0,1.65,0a1.38,1.38,0,1,1,0,2.75H32.15a1.38,1.38,0,1,1,0-2.75c.56,0,1.12,0,1.68,0a.43.43,0,0,0,.32-.09,4.33,4.33,0,0,0,1.52-2.85H25.8a1.4,1.4,0,0,1-1.39-.9s0-.12-.1-.14V30.49s.05,0,.06-.06a1.49,1.49,0,0,1,1.55-1h9.27c.62,0,.61,0,.62-.64,0-.23-.05-.29-.28-.29-1.24,0-2.49,0-3.73,0-.41,0-.57-.16-.57-.57,0-.23,0-.45,0-.68a.39.39,0,0,0-.24-.42,1.28,1.28,0,0,1-.67-1.25,1.34,1.34,0,0,1,.79-1.18c.08,0,.19,0,.23-.12H32a.15.15,0,0,0,0,.06,1.32,1.32,0,0,1,1.05,1.38,1.3,1.3,0,0,1-.74,1.15c-.31.15-.16.4-.16.61s.2.1.31.1c1.22,0,2.44,0,3.66,0,.43,0,.59.16.59.59s0,.7,0,1c0,.15,0,.21.2.21H39.3c.18,0,.22-.05.21-.22,0-.64,0-1.28,0-1.93a.42.42,0,0,0-.25-.45,1.28,1.28,0,0,1-.66-1.25,1.35,1.35,0,0,1,.78-1.16C39.45,24.4,39.56,24.41,39.6,24.31ZM46.88,54.7c.31,0,.63,0,.94,0a.45.45,0,0,0,.48-.44.43.43,0,0,0-.48-.47c-.31,0-.63,0-.94,0H32a.45.45,0,0,0-.38.56c.08.31.32.35.59.35H46.88Zm-3.42-18L44.85,36l-4.77-2.28a.24.24,0,0,0-.23,0l-.92.46-.15,0-3.49,1.67s-.12,0-.13.11l4.66,2.23a.31.31,0,0,0,.28,0Zm0,16.21h1.13a5.32,5.32,0,0,1-1.22-2.79c0-.13-.08-.14-.18-.14H36.79c-.2,0-.21.09-.23.23a5.08,5.08,0,0,1-1.09,2.55s-.1.08,0,.16h8ZM39.51,42.36c0-1,0-2,0-3a.35.35,0,0,0-.23-.37c-1.51-.71-3-1.43-4.52-2.16-.21-.1-.27-.07-.27.17q0,3,0,5.94a.32.32,0,0,0,.22.34l4.52,2.16c.23.11.29.08.28-.18C39.5,44.31,39.51,43.33,39.51,42.36Zm-2.79-8.14c.83-.39,1.59-.79,2.39-1.12a.61.61,0,0,0,.41-.72c0-.15-.06-.18-.2-.18H36.91c-.14,0-.19,0-.19.18C36.73,33,36.72,33.58,36.72,34.22Zm6.5,0c0-.62,0-1.2,0-1.77,0-.2,0-.26-.25-.25H40.74c-.1,0-.3-.1-.3.08s-.15.51.11.64C41.42,33.37,42.3,33.78,43.22,34.22Zm-5.11-2.94h.73c.68,0,.68,0,.66-.68,0-.19-.06-.24-.25-.24H37.39c-.7,0-.69,0-.67.69,0,.18.06.23.23.23Zm3.73,0h.73c.66,0,.65,0,.65-.65,0-.23-.08-.27-.28-.27H41.11c-.71,0-.7,0-.67.7,0,.18.07.22.24.22ZM40,26.14a.46.46,0,0,0,0-.91.46.46,0,0,0,0,.91Zm-8.26,0a.46.46,0,0,0,0-.91.45.45,0,0,0-.45.45A.47.47,0,0,0,31.7,26.14Zm17-.45a.47.47,0,0,0-.44-.46.46.46,0,0,0,0,.91A.46.46,0,0,0,48.71,25.69Z"/><path class="cls-5" d="M44.55,44.18a.53.53,0,0,0,.73.12L46,44a.53.53,0,0,0,.33-.53V36.08a.52.52,0,0,0-.34-.52l-1.68-.8a.3.3,0,0,1-.21-.32c0-.67,0-1.34,0-2,0-.16,0-.22.21-.22,2.78,0,5.55,0,8.32,0,.29,0,.22.17.22.32V45.93c0,.36,0,.72,0,1.07,0,.15,0,.21-.19.19H27.4c-.27,0-.37,0-.34-.34s0-.59,0-.88-.07-.5-.48-.63v-1c.38-.09.47-.21.47-.62,0-3.73,0-7.46,0-11.19,0-.27.06-.33.33-.33q4,0,8.1,0c.28,0,.33.08.32.34,0,.63,0,1.26,0,1.89a.32.32,0,0,1-.22.35L34,35.54a.58.58,0,0,0-.39.58q0,3.65,0,7.28a.55.55,0,0,0,.35.55l5.78,2.76a.59.59,0,0,0,.55,0l3.17-1.51a.52.52,0,0,0,.32-.64l.33-.19Z"/><path class="cls-6" d="M26.59,44.33v1a.56.56,0,0,0-.44.63c0,.53,0,1.06,0,1.59a.47.47,0,0,0,.54.54H53.36a4.53,4.53,0,0,1-.12.89H26c-.63,0-.76-.13-.76-.77V31.09c0-.57.15-.72.72-.72h9.54c.25,0,.33.06.32.32,0,.6,0,.6-.61.6H26.82c-.55,0-.68.13-.68.69V43.71C26.14,44.11,26.22,44.22,26.59,44.33Z"/><path class="cls-7" d="M39.51,42.36c0,1,0,2,0,2.93,0,.26,0,.29-.28.18l-4.52-2.16a.32.32,0,0,1-.22-.34q0-3,0-5.94c0-.24.06-.27.27-.17,1.51.73,3,1.45,4.52,2.16a.35.35,0,0,1,.23.37C39.5,40.38,39.51,41.37,39.51,42.36Z"/><path class="cls-8" d="M44.07,44.37l-.33.19c-.25-.32-.39-.35-.76-.18l-2.28,1.1c-.21.1-.27.09-.27-.17v-6c0-.13,0-.23.15-.3L44,37.45c.11.09.07.21.07.32Z"/><path class="cls-5" d="M43.45,52.87h-8c-.05-.08,0-.12,0-.16a5.08,5.08,0,0,0,1.09-2.55c0-.14,0-.24.23-.23h5.32a3,3,0,0,0,0,.42A5.22,5.22,0,0,0,43.45,52.87Z"/><path class="cls-9" d="M53.24,49a4.53,4.53,0,0,0,.12-.89.55.55,0,0,0,.44-.61q0-7.82,0-15.63a.55.55,0,0,0-.44-.61,4.53,4.53,0,0,0-.12-.89c.32,0,.63,0,.95,0a.5.5,0,0,1,.52.52V48.28c0,.59-.15.74-.74.74Z"/><path class="cls-10" d="M43.46,36.66,40.1,38.28a.31.31,0,0,1-.28,0L35.16,36c0-.08.08-.09.13-.11l3.49-1.67.15,0c0,.16.15.18.26.23l4,2C43.29,36.49,43.44,36.51,43.46,36.66Z"/><path class="cls-6" d="M46.88,54.7H32.24c-.27,0-.51,0-.59-.35A.45.45,0,0,1,32,53.8H46.88A1.91,1.91,0,0,1,46.88,54.7Z"/><path class="cls-6" d="M53.24,30.38a4.53,4.53,0,0,1,.12.89H44.45c-.24,0-.33-.05-.32-.32,0-.6,0-.6.6-.6h1c.42,0,.5-.06.64-.46h1c.14.4.22.45.64.46Z"/><path class="cls-11" d="M44.07,44.37v-6.6c0-.11,0-.23-.07-.32.4-.19.8-.38,1.19-.59.21-.11.26-.06.26.16,0,1.32,0,2.65,0,4,0,.66,0,1.31,0,2,0,.19-.05.31-.23.37a3,3,0,0,0-.36.17c-.34.16-.4.31-.31.69Z"/><path class="cls-12" d="M43.46,36.66c0-.15-.17-.17-.27-.22l-4-2c-.11,0-.25-.07-.26-.23l.92-.46a.24.24,0,0,1,.23,0L44.85,36Z"/><path class="cls-13" d="M36.72,34.22c0-.64,0-1.24,0-1.84,0-.15.05-.18.19-.18h2.41c.14,0,.18,0,.2.18a.61.61,0,0,1-.41.72C38.31,33.43,37.55,33.83,36.72,34.22Z"/><path class="cls-13" d="M43.22,34.22c-.92-.44-1.8-.85-2.67-1.29-.26-.13-.1-.42-.11-.64s.2-.08.3-.08H43c.2,0,.26,0,.25.25C43.21,33,43.22,33.6,43.22,34.22Z"/><path class="cls-14" d="M43.45,52.87a5.22,5.22,0,0,1-1.31-2.5,3,3,0,0,1,0-.42h1.07c.1,0,.17,0,.18.14a5.32,5.32,0,0,0,1.22,2.79Z"/><path class="cls-6" d="M38.11,31.28H37c-.17,0-.23-.05-.23-.23,0-.69,0-.69.67-.69h1.86c.19,0,.25.05.25.24,0,.68,0,.68-.66.68Z"/><path class="cls-6" d="M41.84,31.28H40.68c-.17,0-.24,0-.24-.22,0-.7,0-.7.67-.7h1.83c.2,0,.28,0,.28.27,0,.65,0,.65-.65.65Z"/><path class="cls-9" d="M46.88,54.7a1.91,1.91,0,0,0,0-.89c.31,0,.63,0,.94,0a.43.43,0,0,1,.48.47.45.45,0,0,1-.48.44C47.51,54.72,47.19,54.7,46.88,54.7Z"/><path class="cls-15" d="M40,26.14a.46.46,0,0,1,0-.91.46.46,0,0,1,0,.91Z"/><path class="cls-15" d="M31.7,26.14a.47.47,0,0,1-.47-.46.45.45,0,0,1,.45-.45.46.46,0,0,1,0,.91Z"/><path class="cls-15" d="M48.71,25.69a.46.46,0,0,1-.48.45.46.46,0,0,1,0-.91A.47.47,0,0,1,48.71,25.69Z"/></svg>