<svg id="Layer_1" data-name="Layer 1" xmlns="http://www.w3.org/2000/svg" viewBox="0 0 80 80"><defs><style>.cls-1{fill:#fbfadf;}.cls-2{fill:#fbeeee;}.cls-3{fill:#040303;}.cls-4{fill:#030303;}.cls-5{fill:#f4dacb;}.cls-6{fill:#cdcdd2;}.cls-7{fill:#efc9ba;}.cls-8{fill:#ecc7b8;}.cls-9{fill:#89c8fc;}.cls-10{fill:#fb636e;}.cls-11{fill:#5fb4fb;}.cls-12{fill:#f64653;}.cls-13{fill:#060606;}.cls-14{fill:#040202;}.cls-15{fill:#eaecee;}.cls-16{fill:#c4c4c8;}</style></defs><circle class="cls-1" cx="40" cy="40" r="38.52"/><circle class="cls-2" cx="40" cy="40" r="38.52"/><path class="cls-3" d="M43.75,48a2.38,2.38,0,0,0,.91-.38l5.65-3.28a5.66,5.66,0,0,1,2.85-.95,2.28,2.28,0,0,1,2.13,3.34,2.05,2.05,0,0,1-.8.9L44,54.06a4.48,4.48,0,0,1-3.62.48l-7-1.87a1.81,1.81,0,0,0-1.23.41c-.07.09,0,.15,0,.21.13.24.27.48.39.72a1.36,1.36,0,0,1-.48,1.8c-.57.36-1.16.69-1.75,1a1.38,1.38,0,0,1-1.91-.67c-1.06-1.85-2.1-3.7-3.15-5.56l-1.5-2.64a1.41,1.41,0,0,1,.58-2.09L25.88,45a1.4,1.4,0,0,1,2,.54c.12.2.19.54.38.57s.41-.2.62-.32l3.82-2.2a6.12,6.12,0,0,1,2.16-.8,3.84,3.84,0,0,1,1.75.19c1.61.55,3.18,1.18,4.84,1.57l.7.16A2.2,2.2,0,0,1,43.75,48Zm-1-.47a1.08,1.08,0,0,0-.66-1.67c-.25-.07-.51-.12-.76-.17-1-.21-2-.57-2.92-.85-.59-.22-1.2-.42-1.78-.67a3.21,3.21,0,0,0-3,.22c-1.57.87-3.12,1.78-4.68,2.67-.13.08-.19.13-.1.29.46.76.89,1.53,1.33,2.3s.89,1.57,1.31,2.36c.09.16.17.13.29.06s.48-.27.71-.42a1,1,0,0,1,.9-.12l7.16,1.93A3.69,3.69,0,0,0,43.66,53q5.07-3.15,10.16-6.26a1.23,1.23,0,0,0,.56-1.45,1.09,1.09,0,0,0-1.19-.83,2.6,2.6,0,0,0-.61.07,6.55,6.55,0,0,0-1.84.8c-1.93,1.12-3.86,2.25-5.8,3.36a4.06,4.06,0,0,1-2.61.47A35.2,35.2,0,0,1,37.59,48c-.43-.12-.53-.39-.37-.86A.69.69,0,0,1,38,47c1.19.32,2.36.7,3.56.93A1,1,0,0,0,42.73,47.52Zm-11,7.08a1.65,1.65,0,0,0-.09-.21L27,46.17a.37.37,0,0,0-.59-.16c-.45.27-.91.52-1.36.78s-.36.3-.17.64c.29.51.58,1,.86,1.52l3.74,6.6c.2.36.3.39.65.2L31.46,55A.37.37,0,0,0,31.7,54.6Z"/><path class="cls-4" d="M51.18,38.47H49.82c-.21,0-.29.05-.32.27A5.73,5.73,0,0,1,38.18,39c-.08-.49-.08-.48-.57-.49a16.46,16.46,0,0,1-2.53-.07,4.52,4.52,0,0,1-1.55-8.33.5.5,0,0,0,.29-.47A6.92,6.92,0,0,1,41.1,23a6.58,6.58,0,0,1,3.95,1.51.53.53,0,0,0,.55.12,6.27,6.27,0,0,1,7.66,4.83c0,.23.19.29.35.36A4.55,4.55,0,0,1,53.76,38,4.8,4.8,0,0,1,51.18,38.47Zm-5-4.48-.08-.06a4.43,4.43,0,0,0-4.41-.13,4.63,4.63,0,0,0,1.7,8.75,4,4,0,0,0,2.84-.73.11.11,0,0,0,.14-.07h0l.12,0A4.55,4.55,0,0,0,48.37,37a4.29,4.29,0,0,0-2-2.95h0a.15.15,0,0,0-.13-.09Zm-8.41-9.11A5.65,5.65,0,0,0,34.92,30a.86.86,0,0,1-.55.9,3.41,3.41,0,0,0,.83,6.43,18.25,18.25,0,0,0,2.77.07c.12,0,.15,0,.16-.16s0-.22,0-.34a5.74,5.74,0,0,1,11.32.27c0,.16.07.24.25.24.78,0,1.56,0,2.33,0a3.12,3.12,0,0,0,2.48-1.43,1.39,1.39,0,0,0,.28-.43,3.41,3.41,0,0,0-2-4.79.79.79,0,0,1-.64-.8,1.38,1.38,0,0,0,0-.2,5.17,5.17,0,0,0-6.68-3.92.79.79,0,0,1-.87-.19A5.19,5.19,0,0,0,43,24.51,5.62,5.62,0,0,0,37.81,24.88Z"/><path class="cls-5" d="M37.22,47.16c-.16.47-.06.74.37.86a35.2,35.2,0,0,0,4.74,1.15,4.06,4.06,0,0,0,2.61-.47c1.94-1.11,3.87-2.24,5.8-3.36a6.55,6.55,0,0,1,1.84-.8,2.6,2.6,0,0,1,.61-.07,1.09,1.09,0,0,1,1.19.83,1.23,1.23,0,0,1-.56,1.45Q48.74,49.87,43.66,53a3.69,3.69,0,0,1-3.08.44l-7.16-1.93a1,1,0,0,0-.9.12c-.23.15-.47.27-.71.42s-.2.1-.29-.06c-.42-.79-.87-1.58-1.31-2.36l.55-.29,3.69-2.13,3.72-2.15c.09,0,.22-.09.22-.24,1,.28,1.92.64,2.92.85.25,0,.51.1.76.17a1.08,1.08,0,0,1,.66,1.67l-.13,0-4.37-1.18c-.47-.13-.78,0-.95.33A1.49,1.49,0,0,0,37.22,47.16Z"/><path class="cls-6" d="M31.7,54.6a.37.37,0,0,1-.24.37l-1.37.78c-.35.19-.45.16-.65-.2L25.7,49c-.28-.51-.57-1-.86-1.52-.19-.34-.15-.45.17-.64s.91-.51,1.36-.78a.37.37,0,0,1,.59.16l4.65,8.22A1.65,1.65,0,0,1,31.7,54.6Zm-4.75-7a.58.58,0,0,0-.55-.59.61.61,0,0,0-.61.57.58.58,0,0,0,.56.58A.57.57,0,0,0,27,47.64Z"/><path class="cls-7" d="M38.39,44.83c0,.15-.13.19-.22.24l-3.72,2.15-3.69,2.13-.55.29c-.44-.77-.87-1.54-1.33-2.3-.09-.16,0-.21.1-.29,1.56-.89,3.11-1.8,4.68-2.67a3.21,3.21,0,0,1,3-.22C37.19,44.41,37.8,44.61,38.39,44.83Z"/><path class="cls-8" d="M37.22,47.16a1.49,1.49,0,0,1,.06-.51c.17-.35.48-.46.95-.33L42.6,47.5l.13,0a1,1,0,0,1-1.17.41c-1.2-.23-2.37-.61-3.56-.93A.69.69,0,0,0,37.22,47.16Z"/><path class="cls-9" d="M54.56,35.92a3.12,3.12,0,0,1-2.48,1.43c-.77.06-1.55,0-2.33,0-.18,0-.22-.08-.25-.24a5.74,5.74,0,0,0-11.32-.27c0,.12,0,.23,0,.34s0,.17-.16.16a18.25,18.25,0,0,1-2.77-.07,3.41,3.41,0,0,1-.83-6.43.86.86,0,0,0,.55-.9,5.65,5.65,0,0,1,2.89-5.09,10.37,10.37,0,0,1,1.93-.21,6.15,6.15,0,0,1,3.93,1.49.66.66,0,0,0,.71.18,5,5,0,0,1,2.67-.12,5.63,5.63,0,0,1,4.54,4.57.71.71,0,0,0,.5.6,4,4,0,0,1,2.3,2.38A4.36,4.36,0,0,1,54.56,35.92Z"/><path class="cls-10" d="M46.27,41.82a4,4,0,0,1-2.84.73,4.63,4.63,0,0,1-1.7-8.75,4.43,4.43,0,0,1,4.41.13l.08.06h0c0,.08.06.09.13.09h0c0,.11,0,.17.11.24a5.22,5.22,0,0,1,.26,7,1,1,0,0,0-.31.47h0A.13.13,0,0,0,46.27,41.82Zm-4.71-3.89v1.92c0,.91.68,1.3,1.48.84l3.31-1.91a.9.9,0,0,0,0-1.7L43,35.15a.9.9,0,0,0-1.45.83C41.55,36.63,41.56,37.28,41.56,37.93Z"/><path class="cls-11" d="M54.56,35.92a4.36,4.36,0,0,0-.17-2.15,4,4,0,0,0-2.3-2.38.71.71,0,0,1-.5-.6,5.63,5.63,0,0,0-4.54-4.57,5,5,0,0,0-2.67.12.66.66,0,0,1-.71-.18,6.15,6.15,0,0,0-3.93-1.49,10.37,10.37,0,0,0-1.93.21A5.62,5.62,0,0,1,43,24.51a5.19,5.19,0,0,1,1.69,1.08.79.79,0,0,0,.87.19A5.17,5.17,0,0,1,52.2,29.7a1.38,1.38,0,0,1,0,.2.79.79,0,0,0,.64.8,3.41,3.41,0,0,1,2,4.79A1.39,1.39,0,0,1,54.56,35.92Z"/><path class="cls-12" d="M46.41,41.75a1,1,0,0,1,.31-.47,5.22,5.22,0,0,0-.26-7c-.06-.07-.13-.13-.11-.24a4.29,4.29,0,0,1,2,2.95,4.55,4.55,0,0,1-1.84,4.69Z"/><path class="cls-12" d="M46.35,34.07c-.07,0-.12,0-.13-.09A.15.15,0,0,1,46.35,34.07Z"/><path class="cls-12" d="M46.27,41.82a.13.13,0,0,1,.14-.07A.11.11,0,0,1,46.27,41.82Z"/><path class="cls-12" d="M46.22,34l-.08-.06Z"/><path class="cls-13" d="M27,47.64a.57.57,0,0,1-.6.56.58.58,0,0,1-.56-.58.61.61,0,0,1,.61-.57A.58.58,0,0,1,27,47.64Z"/><path class="cls-14" d="M41.56,37.93c0-.65,0-1.3,0-2A.9.9,0,0,1,43,35.15l3.35,1.93a.9.9,0,0,1,0,1.7L43,40.69c-.8.46-1.48.07-1.48-.84Zm1.11-1.25v3l2.5-1.47.47-.25-3-1.71Z"/><path class="cls-15" d="M45.17,38.18l-2.5,1.47v-3a15.56,15.56,0,0,1,1.74,1C44.68,37.81,45,37.88,45.17,38.18Z"/><path class="cls-16" d="M45.17,38.18c-.16-.3-.49-.37-.76-.52a15.56,15.56,0,0,0-1.74-1v-.46l3,1.71Z"/></svg>