<svg id="Layer_1" data-name="Layer 1" xmlns="http://www.w3.org/2000/svg" viewBox="0 0 80 80"><defs><style>.cls-1{fill:#5e1f18;}.cls-2{fill:#8c3123;}.cls-3{fill:#e05243;}.cls-4{fill:#f2b0a9;}</style></defs><path class="cls-1" d="M48.31,33.32l14.84-1.58,7.69,1.59,0,0-14.18.85-8.4-.87Z"/><path class="cls-2" d="M48.29,33.33l14.85-1.16.1-.14V13.71l-.1-.21L48.29,17.36Z"/><path class="cls-3" d="M70.87,33.35l-7.73-1.18V13.5l7.73,3.87Z"/><path class="cls-4" d="M48.29,46.52l.22.15,14.63,1,7.46-1,.27-.14-14.18-.87Z"/><path class="cls-2" d="M48.29,46.52l14.85,1.11,0,.06,0,18.54,0,.09L48.29,62.49Z"/><path class="cls-3" d="M70.87,46.53l-7.73,1.1V66.32l7.73-3.84Z"/><path class="cls-1" d="M29,33.31,14.35,32.05,6.73,33.31l0,0,14.18.85,8.24-.85Z"/><path class="cls-2" d="M6.69,33.35l7.66-1.12.22-.16V13.72l-.22-.22L6.69,17.37Z"/><path class="cls-3" d="M29.11,33.35,14.35,32.23V13.5l14.76,3.86Z"/><path class="cls-4" d="M29.11,46.53l-.34.24L14.35,47.86,6.93,46.77l-.25-.24,14.19-.87Z"/><path class="cls-2" d="M6.68,46.53l7.67,1.09.19.23,0,18.14-.21.33L6.69,62.48Z"/><path class="cls-3" d="M29.11,46.53,14.35,47.62v18.7l14.76-3.83Z"/><path class="cls-4" d="M54.1,48.91,38.78,47.4,23.3,48.91l.22.19L38.7,51.51,53.88,49.1Z"/><path class="cls-2" d="M23.3,48.91l15.4,2.26.16.21,0,26.82-.18.29-15.4-7.7Z"/><path class="cls-3" d="M54.1,48.91,38.7,51.17V78.49l15.4-7.7Z"/><path class="cls-1" d="M38.78,32.43,23.3,30.94l0,0L38.7,28.54l15.35,2.38.05,0Z"/><path class="cls-2" d="M23.3,30.94,38.7,28.7l.08-.07,0-27.23,0,0L23.3,9.06Z"/><path class="cls-3" d="M54.1,30.94,38.7,28.7V1.36l15.4,7.7Z"/></svg>