<svg id="Layer_1" data-name="Layer 1" xmlns="http://www.w3.org/2000/svg" viewBox="0 0 80 80"><defs><style>.cls-1{fill:#00acd2;}.cls-2{fill:#c8e9eb;}.cls-3{fill:#662d91;}</style></defs><path class="cls-1" d="M61.34,10.22C52.42,2.52,32.7-1.29,17.92,9.76,4.06,19.05,3.37,36,3.37,36c2.36,9.3,11.73,18.21,29.79,13.87C31,37.41,35.2,5.8,61.34,10.22Z"/><path class="cls-2" d="M52.05,40.43C42.3,48.53,12.61,60.88,3.37,36,1.16,47.61,7.29,66.86,24.24,74.14c15,7.36,30.6-1.17,30.6-1.17,6.87-6.69,10-19.07-2.79-32.54"/><path class="cls-3" d="M34.43,29.08C46.32,33.48,71.73,52.55,54.84,73,66,69.1,79,54.28,76.82,36,75.71,19.31,61.34,10.22,61.34,10.22c-9.23-2.6-21.64,1-26.91,18.86"/></svg>