<svg id="Layer_1" data-name="Layer 1" xmlns="http://www.w3.org/2000/svg" viewBox="0 0 80 80"><defs><style>.cls-1{fill:#54b848;}</style></defs><path class="cls-1" d="M22.58,2.46A21,21,0,0,0,1.67,23.37V57.44a21,21,0,0,0,20.91,20.9H57.4a21,21,0,0,0,20.91-20.9V54.77a7,7,0,0,0-14,0v2.67a6.89,6.89,0,0,1-6.89,6.88H22.63a6.89,6.89,0,0,1-6.89-6.88V23.62a6.87,6.87,0,0,1,6.89-6.89H63.38c8.6,0,16.08,6.27,8.34,17.88-.1.1-.45.57-.55.67,7-6.18,8.59-14.17,5.73-21.21S66.5,2.46,57.45,2.46Z"/><path class="cls-1" d="M78.18,57.54V54.87a7,7,0,0,0-14,0v2.67a6.86,6.86,0,0,1-6.89,6.88H22.5a6.9,6.9,0,0,1-6.89-6.88V23.72a6.9,6.9,0,0,1,6.89-6.89H63.25c8.59,0,15.78,6.64,8.09,18.24,6.79-6.18,8.29-14,5.43-20.9C73.8,7,66.37,2.56,57.32,2.56H22.55A20.93,20.93,0,0,0,1.64,23.47V57.54a21,21,0,0,0,20.91,20.9H57.37A20.9,20.9,0,0,0,78.18,57.54Z"/><path class="cls-1" d="M63.28,16.73H59.61A4.55,4.55,0,0,1,63,19.45,4.34,4.34,0,0,1,61.67,25l-20,14.67-6-7.79a7,7,0,1,0-11.1,8.54l10.2,13.22A7,7,0,0,0,44.44,55L67.6,38.09c.3-.2,3.32-2.56,3.57-2.81l.3-.3C79.31,23.47,72.26,16.11,63.28,16.73Z"/></svg>