<svg id="Layer_1" data-name="Layer 1" xmlns="http://www.w3.org/2000/svg" viewBox="0 0 100 100"><defs><style>.cls-1{fill:#fc7754;stroke:#fc7754;stroke-miterlimit:10;stroke-width:1.5px;}</style></defs><path class="cls-1" d="M49.89,97.26H36.71c-1.8,0-2.58-.79-2.59-2.61,0-1,0-1.92,0-2.87,0-.73-.21-.86-.88-.86-6.41,0-12.81,0-19.22,0-.61,0-1.24,0-1.85,0a2,2,0,0,1-2-1.74c0-3.14-.41-6.32.26-9.43a13.22,13.22,0,0,1,7.44-9.4c.61-.3.67-.45.23-1a9.76,9.76,0,0,1-.95-11.19,10.08,10.08,0,0,1,18.53,2.69,9.52,9.52,0,0,1-2,8.52c-.41.5-.41.67.2,1a13.27,13.27,0,0,1,6.37,6.24c.3.62.57.82,1.13.35l.08,0c1.08-.57,1.08-.57.35-1.55a9.82,9.82,0,0,1-.5-11.07,10.15,10.15,0,0,1,10.37-4.64,10,10,0,0,1,8.06,7.76,9.59,9.59,0,0,1-2.07,8.34c-.42.5-.4.68.21,1,1.26.57,1.24.6,1.94-.63a13.49,13.49,0,0,1,6.06-5.68c.63-.3.65-.47.21-1A9.75,9.75,0,0,1,65.28,58a10.11,10.11,0,0,1,10.6-4.67,10,10,0,0,1,8,8.27,9.57,9.57,0,0,1-2.18,7.8c-.44.52-.35.65.21.94a13.37,13.37,0,0,1,7.79,12.31c.06,1.95,0,3.9,0,5.85a2.16,2.16,0,0,1-2.46,2.44c-6.84,0-13.68,0-20.51,0-.79,0-1.11.14-1,1a27.46,27.46,0,0,1,0,2.87,2.19,2.19,0,0,1-2.44,2.47Zm0-2.79c4.08,0,8.16,0,12.24,0,.56,0,.82-.08.8-.74,0-1.76,0-3.52,0-5.28a10.9,10.9,0,0,0-7.85-9.94,2,2,0,0,0-1.33.1,9.71,9.71,0,0,1-7.66,0,1.81,1.81,0,0,0-1.33-.06,10.64,10.64,0,0,0-7.64,8.59c-.4,2.11-.08,4.26-.2,6.39,0,.75.15,1,1,1C41.85,94.45,45.87,94.47,49.89,94.47ZM23.5,88.15c3.25,0,6.49,0,9.74,0,.61,0,.92-.07,1-.8a13.16,13.16,0,0,1,3.68-7.81.85.85,0,0,0,.17-1.07,10.85,10.85,0,0,0-7.19-6.32,1.47,1.47,0,0,0-1.07.09,9.84,9.84,0,0,1-7.75,0,1.89,1.89,0,0,0-1.42-.05,10.64,10.64,0,0,0-7.52,8.29c-.46,2.19-.11,4.44-.23,6.66,0,.75.14,1,.94,1C17.07,88.12,20.29,88.15,23.5,88.15Zm52.79,0c3.28,0,6.56,0,9.84,0,.59,0,.8-.14.78-.77,0-1.76,0-3.52,0-5.28a10.8,10.8,0,0,0-7.77-9.9,1.8,1.8,0,0,0-1.25,0,9.79,9.79,0,0,1-7.92,0,1.38,1.38,0,0,0-1-.07,10.84,10.84,0,0,0-7.24,6.39.77.77,0,0,0,.18,1,13.38,13.38,0,0,1,3.71,7.91c.07.61.3.73.86.72C69.74,88.14,73,88.15,76.29,88.15ZM25.92,56a7.06,7.06,0,0,0-7.24,7.09A7.21,7.21,0,0,0,26,70.29a7.32,7.32,0,0,0,7.24-7.21A7.17,7.17,0,0,0,25.92,56Zm48,0a7.18,7.18,0,0,0-7.29,7.08,7.31,7.31,0,0,0,7.22,7.23,7.22,7.22,0,0,0,7.29-7.1A7.07,7.07,0,0,0,73.92,56Zm-24,6.32a7.12,7.12,0,0,0-7.26,7.09,7.26,7.26,0,0,0,14.51,0A7.13,7.13,0,0,0,49.92,62.3Z"/><path class="cls-1" d="M36.38,16.55c6-4.3,12.25-5.66,19.06-3.92a21.17,21.17,0,0,1,12.31,8.54,21.86,21.86,0,0,1-30.7,30.31A22.19,22.19,0,0,1,32.6,20.25c-1.61,0-3.05,0-4.48,0a2.18,2.18,0,0,1-1.73-.71c-2.33-2.36-4.67-4.69-7-7a1.47,1.47,0,0,1,1.14-2.67c1.61.06,3.22.07,4.82.16.64,0,.86-.12.82-.79C26.06,7.61,26,6,26,4.4a1.54,1.54,0,0,1,.84-1.7c.76-.35,1.29,0,1.81.53q3.5,3.53,7,7A2.21,2.21,0,0,1,36.39,12C36.36,13.4,36.38,14.84,36.38,16.55ZM47.71,48.27c-2.38,0-6.21-1.81-9.08-5.39a14.26,14.26,0,0,1-.37-17.72c.33-.47.38-.75-.07-1.16a24.3,24.3,0,0,1-2-2c-.55-.64-.86-.51-1.32.11a18.47,18.47,0,0,0-3.68,15c1.39,7.29,5.67,12.33,12.67,14.7,7.16,2.43,13.73.9,19.23-4.27a18.13,18.13,0,0,0,5.82-15.4A18.29,18.29,0,0,0,62.7,19.67a18.53,18.53,0,0,0-14.32-4.88,18.93,18.93,0,0,0-10.44,4.13c-.44.34-.41.56,0,.91a27.91,27.91,0,0,1,2,2c.5.58.87.62,1.52.15a14,14,0,0,1,11.16-2.51,14.57,14.57,0,0,1,11.74,15.8C63.65,42.6,57.35,48.26,47.71,48.27ZM42.66,24.63c.85.82,1.72,1.61,2.52,2.47a.94.94,0,0,0,1.39.21,7.24,7.24,0,0,1,8.07.9,7.3,7.3,0,1,1-11.16,2.15c.29-.54.28-.84-.17-1.24a27.74,27.74,0,0,1-2.1-2.1c-.43-.47-.64-.37-1,.1a11.52,11.52,0,0,0-2,8A11.74,11.74,0,1,0,61.2,30.55C59,22.6,48.91,19.34,42.66,24.63ZM23.82,12.81a1.07,1.07,0,0,0,.46.63l3.79,3.8a.77.77,0,0,0,.59.21c1.48.05,3,.09,4.44.17.56,0,.69-.21.66-.71a15.28,15.28,0,0,1,0-2,5.11,5.11,0,0,0-2.13-4.77A29.34,29.34,0,0,1,29,7.5V11c0,1.37-.4,1.78-1.74,1.78Zm24,17c1.05,1,2,1.9,3,2.83a1.45,1.45,0,0,1,.16,2.07,1.37,1.37,0,0,1-2.11-.1c-.73-.71-1.44-1.45-2.17-2.16-.21-.21-.4-.61-.71-.51s-.35.56-.42.87a4.52,4.52,0,0,0,7.91,3.82,4.5,4.5,0,0,0-5.62-6.82Z"/></svg>