<svg id="Layer_1" data-name="Layer 1" xmlns="http://www.w3.org/2000/svg" viewBox="0 0 80 80"><defs><style>.cls-1{fill:#ffb300;stroke:#ffb300;stroke-miterlimit:10;}</style></defs><path class="cls-1" d="M73.36,53.22a1.5,1.5,0,0,1-1.44.65c-2,0-4,0-6.09,0v5.78a4.39,4.39,0,0,1-1.23,3.19,1,1,0,0,1-1.43.19.94.94,0,0,1,0-1.44,3.12,3.12,0,0,0,.75-2.21q0-20.92,0-41.86c0-1.94-1-2.9-2.93-2.9H22.65a1,1,0,0,1-1-.95,1,1,0,0,1,1-1c.56,0,1.12,0,1.69,0l.54,0V11.34c0-1.51,0-3,0-4.55a1.49,1.49,0,0,1,.66-1.44h.65a1.38,1.38,0,0,1,.67,1.36c0,.93,0,1.86,0,2.79v3.12H32v-.73c0-1.73,0-3.46,0-5.19a1.36,1.36,0,0,1,.68-1.35h.65a1.54,1.54,0,0,1,.65,1.45c0,1.65,0,3.29,0,4.94v.87h5.14v-.74c0-1.73,0-3.46,0-5.19a1.3,1.3,0,0,1,.73-1.33h.52a1.33,1.33,0,0,1,.73,1.33c0,1.75,0,3.51,0,5.26,0,.23,0,.45,0,.67h5.1c0-2,0-3.89,0-5.81a1.58,1.58,0,0,1,.65-1.45h.65a1.34,1.34,0,0,1,.68,1.35c0,1,0,2,0,3.05V12.6h5.17c0-2,0-3.91,0-5.83A1.45,1.45,0,0,1,54,5.35h.65a1.48,1.48,0,0,1,.65,1.44c0,1.34,0,2.69,0,4v1.83c2,0,3.94,0,5.86,0a4.43,4.43,0,0,1,4.57,3.46,6.68,6.68,0,0,1,.13,1.48c0,1.92,0,3.84,0,5.83h.76c1.78,0,3.55,0,5.33,0a1.51,1.51,0,0,1,1.44.66v.65A1.37,1.37,0,0,1,72,25.4c-1,0-2,0-3,0H65.87v5.17h.74c1.79,0,3.59,0,5.39,0a1.38,1.38,0,0,1,1.36.68v.65a1.52,1.52,0,0,1-1.45.65c-1.06,0-2.12,0-3.18,0H65.89v5.14h.76c1.77,0,3.55,0,5.32,0a1.31,1.31,0,0,1,1.39.73v.52a1.34,1.34,0,0,1-1.39.73c-1.8,0-3.59,0-5.39,0-.23,0-.46,0-.69,0v5.1c2,0,4,0,6,0a1.58,1.58,0,0,1,1.45.65v.65a1.36,1.36,0,0,1-1.36.68c-1.82,0-3.64,0-5.46,0-.23,0-.45,0-.67,0V51.9h.73c1.8,0,3.6,0,5.4,0a1.41,1.41,0,0,1,1.36.67Z"/><path class="cls-1" d="M23.64,38.38c0-4.26.05-8.54,0-12.8A3.36,3.36,0,0,1,27.21,22c8.56,0,17.12,0,25.68,0,2.34,0,3.58,1.23,3.58,3.56,0,8.58,0,17.16,0,25.74a3.36,3.36,0,0,1-3.59,3.59c-8.57,0-17.13,0-25.69,0-2.34,0-3.58-1.23-3.58-3.56Zm2-8.42c0,.19,0,.28,0,.36V51.59c0,.87.44,1.3,1.34,1.32,1.13,0,2.25,0,3.38,0a1.27,1.27,0,0,0,.33-.09c0-1.1,0-2.19,0-3.27a1.12,1.12,0,0,0-.6-1.14,3.75,3.75,0,0,1-1.12-5.2A3.81,3.81,0,0,1,35.52,47a3.94,3.94,0,0,1-2.87,2v3.81h6.47V39.72H35.63c-1,0-1.31-.31-1.32-1.32,0-1.76,0-3.51,0-5.27a.84.84,0,0,0-.31-.6,4.26,4.26,0,0,1-2.22-2.18c-.08-.16-.29-.37-.44-.37C29.45,30,27.57,30,25.64,30ZM47,24l-.47,0H27.12c-.22,0-.49,0-.63.09-.32.24-.79.55-.82.87a28.38,28.38,0,0,0,0,3.07c1.81,0,3.56,0,5.31,0a.67.67,0,0,0,.77-.55,4,4,0,0,1,7.74.78,3.94,3.94,0,0,1-2.77,4.37.52.52,0,0,0-.42.6c0,1.39,0,2.77,0,4.16a3.63,3.63,0,0,0,.07.39c2.29,0,4.54,0,6.79,0,.16,0,.39-.22.46-.39a4.46,4.46,0,0,1,1.59-2.24,17.85,17.85,0,0,1,1.84-1Zm7.47,22.69c0-.23,0-.4,0-.57q0-10.29,0-20.6c0-.13,0-.26,0-.39,0-.62-.37-1.08-1-1.1C52,24,50.55,24,49,24V34.2c.19.07.38.12.56.2a4.47,4.47,0,0,1,3,4.08,4.38,4.38,0,0,1-2.37,4.3,4.6,4.6,0,0,1-6.63-2.56c-.07-.18-.22-.47-.34-.47-.71,0-1.41,0-2.11,0v7Zm-13.33,6.2.53,0H53a2.67,2.67,0,0,0,.64-.08,1,1,0,0,0,.85-.94c0-1,0-2.11,0-3.19H41.16ZM48,41.41a2.68,2.68,0,0,0,2.67-2.64A2.72,2.72,0,0,0,48,36.07a2.67,2.67,0,0,0-2.65,2.65A2.64,2.64,0,0,0,48,41.41ZM35.49,30.85a2.07,2.07,0,0,0,2.06-2.07,2.11,2.11,0,0,0-2.08-2.06,2.07,2.07,0,0,0,0,4.13ZM32.16,47.11a1.86,1.86,0,1,0-1.86-1.86A1.87,1.87,0,0,0,32.16,47.11Z"/><path class="cls-1" d="M24.84,64.23H19a4.46,4.46,0,0,1-4.29-2.51,1,1,0,0,1,.32-1.47,1,1,0,0,1,1.39.53,2.75,2.75,0,0,0,2.73,1.49c3.51,0,7,0,10.54,0H59.43a5.84,5.84,0,0,1,.84,0,.94.94,0,0,1,.1,1.84,5.05,5.05,0,0,1-1,.08H55.27v6.18c0,.15,0,.31,0,.46a1,1,0,0,1-1,1.07,1,1,0,0,1-1-1.1c0-1.93,0-3.86,0-5.78v-.77H48.14v6.33c0,.86-.37,1.34-1,1.32s-1-.48-1-1.31c0-2.09,0-4.19,0-6.35H41v6.18c0,.26.05.59-.09.76s-.59.66-.89.66-.67-.37-.9-.66-.08-.5-.08-.75c0-1.83,0-3.65,0-5.47v-.73H33.93V70.5a3,3,0,0,1,0,.52,1,1,0,0,1-1,.91A1,1,0,0,1,32,70.88c0-1.95,0-3.9,0-5.85v-.75H26.8v6.3c0,.88-.34,1.35-1,1.36s-1-.48-1-1.39V64.23Z"/><path class="cls-1" d="M14.29,53.86H7.84a1,1,0,0,1-1.08-1c0-.57.45-1,1.15-1h6.33V46.73H8c-.77,0-1.21-.36-1.23-.95s.46-1,1.26-1h6.22V39.63H12.79c-1.65,0-3.3,0-4.94,0a1,1,0,0,1-1.08-.9.89.89,0,0,1,.75-1,3.34,3.34,0,0,1,.77-.06h6V32.52h-6a5.76,5.76,0,0,1-.59,0,1,1,0,0,1-.94-1,1,1,0,0,1,1-.95h6.46V25.42c-.22,0-.45,0-.68,0H7.85a1,1,0,1,1-.08-1.95,4.47,4.47,0,0,1,.52,0h6V22.3c0-1.71,0-3.42,0-5.13a4.41,4.41,0,0,1,4.1-4.48,1,1,0,0,1,1.22.8,1,1,0,0,1-.9,1.12c-1.83.35-2.47,1.12-2.47,3v39a5.08,5.08,0,0,1,0,.78.94.94,0,0,1-1,.85.91.91,0,0,1-.88-.95C14.27,56.13,14.29,55.05,14.29,53.86Z"/></svg>