<svg id="Layer_1" data-name="Layer 1" xmlns="http://www.w3.org/2000/svg" viewBox="0 0 80 80"><defs><style>.cls-1{fill:#ffc24a;}.cls-2{fill:#ffa712;}.cls-2,.cls-4{fill-rule:evenodd;}.cls-3{fill:#f4bd62;}.cls-4{fill:#ffa50e;}.cls-5{fill:#f6820c;}.cls-6{fill:#fde068;}.cls-7{fill:#fcca3f;}.cls-8{fill:#eeab37;}</style></defs><path class="cls-1" d="M11.89,63.71l.47-.66,22.1-41.94,0-.44L24.76,2.37a1.81,1.81,0,0,0-3.38.57Z"/><path id="path-1" class="cls-2" d="M12.17,63.21l.35-.69L34.39,21,24.67,2.64a1.64,1.64,0,0,0-3.12.57Z"/><path id="path-1-2" data-name="path-1" d="M12.17,63.21l.35-.69L34.39,21,24.67,2.64a1.64,1.64,0,0,0-3.12.57Z"/><path class="cls-3" d="M41.61,34.51l7.25-7.43L41.61,13.23a1.88,1.88,0,0,0-3.3,0l-3.87,7.4v.62Z"/><path id="path-3" class="cls-4" d="M41.48,34.2,48.53,27,41.48,13.55a1.63,1.63,0,0,0-3-.13l-3.9,7.51-.11.38Z"/><path id="path-3-2" data-name="path-3" d="M41.48,34.2,48.53,27,41.48,13.55a1.63,1.63,0,0,0-3-.13l-3.9,7.51-.11.38Z"/><polygon class="cls-5" points="11.89 63.71 12.1 63.49 12.87 63.18 41.15 35 41.51 34.03 34.46 20.59 11.89 63.71"/><path class="cls-6" d="M42.51,77.92l25.6-14.28-7.31-45a1.75,1.75,0,0,0-3-1l-45.95,46L37.34,77.92a5.34,5.34,0,0,0,5.17,0"/><path class="cls-7" d="M67.88,63.52,60.63,18.85a1.54,1.54,0,0,0-2.67-1L12.17,63.62,37.34,77.69a5.28,5.28,0,0,0,5.14,0Z"/><path class="cls-8" d="M42.51,77.5a5.34,5.34,0,0,1-5.17,0l-25.25-14-.2.22L37.34,77.92a5.34,5.34,0,0,0,5.17,0l25.6-14.28-.06-.38Z"/></svg>