<svg id="Layer_1" data-name="Layer 1" xmlns="http://www.w3.org/2000/svg" viewBox="0 0 80 80"><defs><style>.cls-1{fill:#00678c;fill-rule:evenodd;}.cls-2{fill:#ffb300;stroke:#ffb300;stroke-miterlimit:10;stroke-width:0.75px;}</style></defs><path class="cls-1" d="M86-10.37A22.38,22.38,0,0,0,76.65-9c-.72.3-1.88.3-2,1.21.39.38.43,1,.77,1.53A11.22,11.22,0,0,0,78-3.36l3.09,2.21c1.88,1.15,4,1.83,5.84,3C88,2.5,89,3.37,90.08,4.09c.55.38.87,1,1.55,1.25V5.19c-.34-.43-.43-1.05-.77-1.54L89.41,2.26a22.69,22.69,0,0,0-5-4.85c-1.54-1.06-4.93-2.5-5.55-4.27L78.73-7a20.9,20.9,0,0,0,3.33-.77c1.65-.43,3.14-.34,4.83-.77l2.33-.67v-.43c-.87-.86-1.5-2-2.42-2.83a63.72,63.72,0,0,0-8-5.91c-1.5-1-3.44-1.59-5-2.4-.58-.29-1.55-.43-1.88-.91a19,19,0,0,1-2-3.7l-4-8.36a52,52,0,0,0-2.46-5.47c-5-8.17-10.39-13.11-18.71-18a23.63,23.63,0,0,0-6.17-2L35-59.32A18.58,18.58,0,0,1,32.78-61c-2.75-1.73-9.86-5.47-11.89-.54-1.3,3.12,1.94,6.2,3,7.78a22.92,22.92,0,0,1,2.46,3.6c.33.82.43,1.68.77,2.55a58.12,58.12,0,0,0,2.52,6.44,25.36,25.36,0,0,0,1.78,3c.39.54,1.07.77,1.21,1.64-.68,1-.72,2.4-1.11,3.6C29.82-27.53,30.5-20.81,33-16.81,33.74-15.61,35.56-13,38-14c2.17-.87,1.69-3.6,2.32-6,.14-.58,0-1,.33-1.35v.11l2,4A27.06,27.06,0,0,0,49-10.8c1.16.87,2.07,2.36,3.52,2.88v-.14h-.09a5.36,5.36,0,0,0-1.11-1,24.17,24.17,0,0,1-2.52-2.88,62.37,62.37,0,0,1-5.41-8.74c-.77-1.49-1.45-3.13-2.08-4.62C41-25.83,41-26.7,40.5-27a17.72,17.72,0,0,0-2.32,3.26c-.92,2.07-1,4.61-1.35,7.25-.2,0-.11,0-.2.11-1.54-.38-2.07-2-2.65-3.31a20.62,20.62,0,0,1-.44-12.82c.34-1,1.79-4.18,1.21-5.14-.29-.92-1.26-1.44-1.79-2.17a19.38,19.38,0,0,1-1.74-3.07c-1.16-2.69-1.74-5.67-3-8.36a26.9,26.9,0,0,0-2.42-3.69,24,24,0,0,1-2.66-3.75c-.24-.54-.58-1.39-.19-2a.74.74,0,0,1,.67-.62c.63-.54,2.42.14,3.05.43a24.56,24.56,0,0,1,4.78,2.4c.68.48,1.41,1.39,2.28,1.63h1c1.55.34,3.29.11,4.73.54a30.87,30.87,0,0,1,7,3.32A42.69,42.69,0,0,1,61.52-36.52c.58,1.11.82,2.11,1.36,3.27,1,2.35,2.27,4.75,3.28,7.06a31.89,31.89,0,0,0,3.43,6.44c.73,1,3.63,1.53,4.93,2.06a34.23,34.23,0,0,1,3.34,1.35c1.64,1,3.28,2.16,4.83,3.26.77.58,3.19,1.78,3.33,2.74ZM36.74-52.1a7.4,7.4,0,0,0-2,.24v.1h.1a14.94,14.94,0,0,0,1.55,2l1.11,2.31.09-.11a2.7,2.7,0,0,0,1-2.4,10.43,10.43,0,0,1-.58-1c-.29-.48-.92-.72-1.31-1.1Z"/><path class="cls-2" d="M40.1,40.93a41.11,41.11,0,0,1,6,0c4.89.74,8,4.12,9.14,9.39.71,3.42.05,5.15-3,6.92-8.46,5-16.88,4.81-25.16-.46a5,5,0,0,1-2.38-5.91,19.39,19.39,0,0,1,1.36-4.15A10,10,0,0,1,35,40.85c1.71-.12,3.43,0,5.15,0Zm-.05,1.61v-.15c-1.32,0-2.65,0-4,0-4.71.07-7.81,2.34-9.27,6.82a20.82,20.82,0,0,0-.59,2.6,3.23,3.23,0,0,0,1.37,3.37c7,5.33,17.9,5.33,24.85,0a3.13,3.13,0,0,0,1.32-3.38,24.13,24.13,0,0,0-1.5-4.66,7.83,7.83,0,0,0-6.65-4.58C43.77,42.41,41.9,42.54,40.05,42.54Z"/><path class="cls-2" d="M40,38.12a9.48,9.48,0,1,1,9.52-9.42A9.43,9.43,0,0,1,40,38.12ZM40,20.8a7.86,7.86,0,1,0,7.84,7.83A7.86,7.86,0,0,0,40,20.8Z"/><path class="cls-2" d="M19.06,40.83c-2,0-4.07,0-6.1,0a1.06,1.06,0,0,0-1.16.66,3.14,3.14,0,0,1-3.7,1.64,3.23,3.23,0,0,1,0-6.24A3.16,3.16,0,0,1,11.8,38.5a1.07,1.07,0,0,0,1.15.67c3.93,0,7.85,0,11.78,0h.75c.6,0,1.17.21,1,.88a1.33,1.33,0,0,1-1,.75c-1.81.08-3.64,0-5.45,0ZM10.55,40a1.61,1.61,0,0,0-1.68-1.55A1.58,1.58,0,0,0,9,41.58,1.61,1.61,0,0,0,10.55,40Z"/><path class="cls-2" d="M60.87,39.16c2,0,4.07,0,6.1,0a1.15,1.15,0,0,0,1.25-.7,3.13,3.13,0,0,1,3.61-1.62,3.24,3.24,0,0,1,0,6.28,3.11,3.11,0,0,1-3.63-1.57,1.21,1.21,0,0,0-1.33-.74c-3.82,0-7.64,0-11.46,0h-.64c-.62,0-1.34,0-1.36-.81s.68-.87,1.32-.86ZM72.63,40A1.57,1.57,0,0,0,71,38.41a1.59,1.59,0,1,0,0,3.17A1.56,1.56,0,0,0,72.63,40Z"/><path class="cls-2" d="M14.88,17.71a3,3,0,0,1,2-2.59,3,3,0,0,1,3.38.56A2.91,2.91,0,0,1,21.18,19a1.19,1.19,0,0,0,.4,1.45c2,2,4,4,6.06,6,.47.46,1.05,1,.39,1.61s-1.09,0-1.53-.41c-2-2.05-4.09-4.08-6.12-6.14A1.13,1.13,0,0,0,19,21.17C16.91,21.85,14.84,20.24,14.88,17.71Zm4.79.43A1.55,1.55,0,0,0,18.1,16.5,1.61,1.61,0,0,0,16.5,18,1.57,1.57,0,0,0,18,19.66,1.53,1.53,0,0,0,19.67,18.14Z"/><path class="cls-2" d="M59.15,19.93c-1.37-2.88.77-5.22,2.88-5.07a3.14,3.14,0,0,1,2.83,1.95,3.05,3.05,0,0,1-.53,3.4,2.88,2.88,0,0,1-3.27,1,1.26,1.26,0,0,0-1.54.43c-1.89,1.94-3.82,3.84-5.74,5.76-.15.15-.28.39-.46.44-.45.13-1.08.41-1.36.21-.54-.38-.23-.93.19-1.35,2.05-2,4.08-4.09,6.13-6.12A7.42,7.42,0,0,1,59.15,19.93Zm2.77-3.43A1.55,1.55,0,0,0,60.33,18a1.51,1.51,0,0,0,1.55,1.65,1.55,1.55,0,0,0,1.61-1.49A1.6,1.6,0,0,0,61.92,16.5Z"/><path class="cls-2" d="M40,5.7A3.2,3.2,0,0,1,43.1,8.06a3.06,3.06,0,0,1-1.4,3.6,1.37,1.37,0,0,0-.87,1.58c.05.49,0,1,0,1.49S40.73,16,40,15.94s-.82-.65-.81-1.26c0-.17,0-.35,0-.53.08-1.15.09-2.11-1.24-2.8-1.17-.6-1.42-2.23-1-3.53A3.21,3.21,0,0,1,40,5.7Zm1.56,3.2A1.58,1.58,0,0,0,38.42,9a1.58,1.58,0,1,0,3.16-.09Z"/><path class="cls-2" d="M43.48,70.94a3.75,3.75,0,0,1-2.92,3.31,3.26,3.26,0,0,1-3.55-2,3.06,3.06,0,0,1,1.24-3.92,1.52,1.52,0,0,0,.92-1.77,3.75,3.75,0,0,1,0-1.38c.14-.44.47-1.08.79-1.13.74-.11.87.54.86,1.17,0,.25,0,.5,0,.75A2.3,2.3,0,0,0,42,68.62C42.72,69,43,70.14,43.48,70.94Zm-1.9.09a1.58,1.58,0,1,0-3.16,0,1.58,1.58,0,0,0,3.16,0Z"/><path class="cls-2" d="M65.12,62.23a3.23,3.23,0,0,1-5.28,2.15,2.89,2.89,0,0,1-1.05-3.25,1.29,1.29,0,0,0-.45-1.64,2.4,2.4,0,0,1-.81-.84,3.51,3.51,0,0,1-.07-1.22,8.4,8.4,0,0,1,1.23.12c.18,0,.32.27.46.44a1.85,1.85,0,0,0,2.23.76C63.28,58.2,65.15,59.93,65.12,62.23Zm-3.27-1.9a1.51,1.51,0,0,0-1.52,1.57A1.57,1.57,0,0,0,62,63.51a1.64,1.64,0,0,0,1.55-1.6A1.57,1.57,0,0,0,61.85,60.33Z"/><path class="cls-2" d="M17.72,65.13a3.26,3.26,0,0,1-2.11-5.29,2.91,2.91,0,0,1,3.26-1.05,1.3,1.3,0,0,0,1.63-.44,3.1,3.1,0,0,1,.93-.88,3.09,3.09,0,0,1,1.14,0c0,.39,0,.78,0,1.16,0,.09-.14.17-.22.23a2.52,2.52,0,0,0-1.05,2.86C21.67,63.52,20,65.15,17.72,65.13Zm.33-4.8a1.55,1.55,0,0,0-1.54,1.57,1.61,1.61,0,0,0,1.64,1.6,1.58,1.58,0,0,0,1.52-1.7A1.51,1.51,0,0,0,18.05,60.33Z"/></svg>