<svg id="Layer_1" data-name="Layer 1" xmlns="http://www.w3.org/2000/svg" xmlns:xlink="http://www.w3.org/1999/xlink" viewBox="0 0 80 80"><defs><style>.cls-1{fill:#00678c;fill-rule:evenodd;}.cls-2{fill:#47c5fb;}.cls-3{fill:#00569e;}.cls-4{fill:#00b5f8;}.cls-5{fill-opacity:0.8;fill:url(#linear-gradient);}</style><linearGradient id="linear-gradient" x1="-497.35" y1="581.28" x2="-497.28" y2="581.25" gradientTransform="matrix(112.53, 0, 0, -112.53, 56004.43, 65474.04)" gradientUnits="userSpaceOnUse"><stop offset="0"/><stop offset="1" stop-opacity="0"/></linearGradient></defs><path class="cls-1" d="M86-10.37A22.38,22.38,0,0,0,76.65-9c-.72.3-1.88.3-2,1.21.39.38.43,1,.77,1.53A11.22,11.22,0,0,0,78-3.36l3.09,2.21c1.88,1.15,4,1.83,5.84,3C88,2.5,89,3.37,90.08,4.09c.55.38.87,1,1.55,1.25V5.19c-.34-.43-.43-1.05-.77-1.54L89.41,2.26a22.69,22.69,0,0,0-5-4.85c-1.54-1.06-4.93-2.5-5.55-4.27L78.73-7a20.9,20.9,0,0,0,3.33-.77c1.65-.43,3.14-.34,4.83-.77l2.33-.67v-.43c-.87-.86-1.5-2-2.42-2.83a63.72,63.72,0,0,0-8-5.91c-1.5-1-3.44-1.59-5-2.4-.58-.29-1.55-.43-1.88-.91a19,19,0,0,1-2-3.7l-4-8.36a52,52,0,0,0-2.46-5.47c-5-8.17-10.39-13.11-18.71-18a23.63,23.63,0,0,0-6.17-2L35-59.32A18.58,18.58,0,0,1,32.78-61c-2.75-1.73-9.86-5.47-11.89-.54-1.3,3.12,1.94,6.2,3,7.78a22.92,22.92,0,0,1,2.46,3.6c.33.82.43,1.68.77,2.55a58.12,58.12,0,0,0,2.52,6.44,25.36,25.36,0,0,0,1.78,3c.39.54,1.07.77,1.21,1.64-.68,1-.72,2.4-1.11,3.6C29.82-27.53,30.5-20.81,33-16.81,33.74-15.61,35.56-13,38-14c2.17-.87,1.69-3.6,2.32-6,.14-.58,0-1,.33-1.35v.11l2,4A27.06,27.06,0,0,0,49-10.8c1.16.87,2.07,2.36,3.52,2.88v-.14h-.09a5.36,5.36,0,0,0-1.11-1,24.17,24.17,0,0,1-2.52-2.88,62.37,62.37,0,0,1-5.41-8.74c-.77-1.49-1.45-3.13-2.08-4.62C41-25.83,41-26.7,40.5-27a17.72,17.72,0,0,0-2.32,3.26c-.92,2.07-1,4.61-1.35,7.25-.2,0-.11,0-.2.11-1.54-.38-2.07-2-2.65-3.31a20.62,20.62,0,0,1-.44-12.82c.34-1,1.79-4.18,1.21-5.14-.29-.92-1.26-1.44-1.79-2.17a19.38,19.38,0,0,1-1.74-3.07c-1.16-2.69-1.74-5.67-3-8.36a26.9,26.9,0,0,0-2.42-3.69,24,24,0,0,1-2.66-3.75c-.24-.54-.58-1.39-.19-2a.74.74,0,0,1,.67-.62c.63-.54,2.42.14,3.05.43a24.56,24.56,0,0,1,4.78,2.4c.68.48,1.41,1.39,2.28,1.63h1c1.55.34,3.29.11,4.73.54a30.87,30.87,0,0,1,7,3.32A42.69,42.69,0,0,1,61.52-36.52c.58,1.11.82,2.11,1.36,3.27,1,2.35,2.27,4.75,3.28,7.06a31.89,31.89,0,0,0,3.43,6.44c.73,1,3.63,1.53,4.93,2.06a34.23,34.23,0,0,1,3.34,1.35c1.64,1,3.28,2.16,4.83,3.26.77.58,3.19,1.78,3.33,2.74ZM36.74-52.1a7.4,7.4,0,0,0-2,.24v.1h.1a14.94,14.94,0,0,0,1.55,2l1.11,2.31.09-.11a2.7,2.7,0,0,0,1-2.4,10.43,10.43,0,0,1-.58-1c-.29-.48-.92-.72-1.31-1.1Z"/><polygon class="cls-2" points="47.55 0.19 7.91 39.84 20.18 52.11 72.09 0.19 47.55 0.19"/><polygon class="cls-2" points="47.27 36.75 26.05 57.98 38.37 70.48 50.61 58.23 72.09 36.75 47.27 36.75"/><polygon class="cls-3" points="38.37 70.48 47.69 79.81 72.09 79.81 50.61 58.23 38.37 70.48"/><polygon class="cls-4" points="25.91 58.12 38.18 45.85 50.61 58.23 38.37 70.48 25.91 58.12"/><polygon class="cls-5" points="38.37 70.48 48.56 67.1 49.58 59.27 38.37 70.48"/></svg>