<svg id="Layer_1" data-name="Layer 1" xmlns="http://www.w3.org/2000/svg" viewBox="0 0 246 160"><defs><style>.cls-1{fill:#231f20;}.cls-2{fill:#ee3226;}</style></defs><path class="cls-1" d="M158.85,88.52h-6.61v-27H173.5s3.9-.14,6.37,2.31c0,0,2.53,2.11,2.53,7.27V88.51h-6.59V70.68s.08-1.82-.54-2.46a2.11,2.11,0,0,0-1.59-.69H158.84v21Zm28.15,0V61.56h26.53v6h-20v4.59h13.87v5.79H193.57v4.6h20.08v6H187Zm-46.28,0V61.56h6.58v27h-6.58Zm84-22.65v0ZM223,88.51v-21h-6.22v-6h24.72v6H229.59v21ZM120.67,65.86v0ZM119,88.51v-21h-6.22v-6h24.72v6H125.56v21ZM99.12,72.12a8.22,8.22,0,0,0,3-.24,1.42,1.42,0,0,0,.69-1.17V68.94a1.39,1.39,0,0,0-.69-1.17c-.51-.28-1.38-.23-3.44-.23H85.81v4.58H99.12Zm3.55,16.39v-9.2a1.34,1.34,0,0,0-.69-1.17,7.27,7.27,0,0,0-2.62-.23H85.81v10.6H79.23V61.56H99.78c3.54,0,6,.53,7.68,2.17s1.88,3.9,1.89,6.2v1.92a6.4,6.4,0,0,1-2.23,4.77l.25.12a2.46,2.46,0,0,1,.77.59,4.85,4.85,0,0,1,.92,3.47v7.72h-6.39Zm-99.56-27v27H9.7V77.91H29.64V72.12H9.7V67.54H32.88v-6H3.11Z"/><path class="cls-1" d="M239.29,83.75V85h1.15c.31,0,.61-.08.66-.54.07-.62-.38-.69-.66-.69Zm-.47-.41h1.61c.56,0,1.1.1,1.14.92a.88.88,0,0,1-.47.89c.37.24.38.3.44.92s0,.55.17.86h-.55l-.08-.45c-.07-.43.13-1.09-.61-1.09h-1.18v1.54h-.47V83.34Zm1.21-1a2.88,2.88,0,1,0,2.9,2.88,2.87,2.87,0,0,0-2.9-2.88m0,6.14a3.26,3.26,0,1,1,3.26-3.26A3.26,3.26,0,0,1,240,88.49"/><path class="cls-2" d="M70.17,88.78c2.14-.72,3.81-3.19,4.21-6.28v-.9h-11v7.18Zm4.21-20.35v-.81c-.42-3.23-2.21-5.77-4.49-6.37H63.41v7.18ZM35.79,81.6v.89c.39,3.1,2.06,5.57,4.2,6.29h6.73V81.6Zm4.48-20.35c-2.27.6-4.07,3.15-4.48,6.39v.8H46.72V61.25ZM74.39,71.43h-11v7.18h11ZM49.71,88.79H60.44V81.61H49.71ZM60.44,61.25H49.71v7.18H60.44ZM35.8,78.61H46.73V71.42H35.8v7.19Z"/></svg>