<svg id="Layer_1" data-name="Layer 1" xmlns="http://www.w3.org/2000/svg" viewBox="0 0 80 80"><defs><style>.cls-1{fill:#ffb300;}</style></defs><path class="cls-1" d="M69.23,33.2c.71,0,1.32,0,1.93.11a6.15,6.15,0,0,1,5.62,6c0,4.25.06,8.5,0,12.75a9.71,9.71,0,0,1-7.65,9.24,1.41,1.41,0,0,0-1.2,1A21.66,21.66,0,0,1,47.75,76.75q-1.91,0-3.81,0a2.85,2.85,0,1,1,0-5.67c2.53,0,5.08.17,7.57-.52a15.93,15.93,0,0,0,10.2-8.16c.12-.22.21-.46.33-.74-.55-.11-1-.18-1.51-.31a6,6,0,0,1-4.52-5.68c-.06-5.5-.07-11,0-16.48a6.08,6.08,0,0,1,5.56-5.88c.61-.06,1.23-.07,2-.11,0-8.6-3.2-15.58-10.33-20.35C45,7.31,36.16,7.08,27.62,12.22c-7.76,4.66-11.32,11.88-11.34,21,.72,0,1.33.06,1.93.11a6.08,6.08,0,0,1,5.61,5.93q.09,8.19,0,16.39A6,6,0,0,1,18,61.53a36.58,36.58,0,0,1-7.33-.22,9.32,9.32,0,0,1-7.63-9.16c-.05-4.17,0-8.33,0-12.49a6.24,6.24,0,0,1,6.11-6.4c.44,0,.88,0,1.41,0,0-10.17,3.87-18.43,12-24.52a28.14,28.14,0,0,1,19-5.66,28.4,28.4,0,0,1,19.95,9.47A28.87,28.87,0,0,1,69.23,33.2ZM18.17,47.46c0-2.5,0-5,0-7.52,0-.77-.29-1-1-1-2.42,0-4.83,0-7.25,0-1.06,0-1.16.1-1.16,1.17,0,3.86,0,7.72,0,11.58a4,4,0,0,0,4.18,4.25c1.41,0,2.83,0,4.24,0,.77,0,1-.28,1-1C18.15,52.42,18.17,49.94,18.17,47.46Zm43.52,0c0,2.5,0,5,0,7.52,0,.73.27,1,1,1,1.47,0,2.94,0,4.42,0a4.1,4.1,0,0,0,4-4.19c0-3.92,0-7.84,0-11.76,0-.78-.29-1.05-1-1-2.45,0-4.9,0-7.34,0-.8,0-1.1.28-1.09,1.09C61.71,42.47,61.69,45,61.69,47.43Z"/></svg>