<svg id="Layer_1" data-name="Layer 1" xmlns="http://www.w3.org/2000/svg" viewBox="0 0 80 80"><defs><style>.cls-1{fill:#e24329;}.cls-2{fill:#fc6d26;}.cls-3{fill:#fca326;}</style></defs><path class="cls-1" d="M77.43,33.12l-.08-.24L66.74,5.32A2.81,2.81,0,0,0,65.68,4a2.32,2.32,0,0,0-1.63-.4,3,3,0,0,0-1.63.57,2.14,2.14,0,0,0-.89,1.38l-7.1,21.77H25.57L18.47,5.56a3.11,3.11,0,0,0-.89-1.38,2.8,2.8,0,0,0-1.64-.57,2.91,2.91,0,0,0-1.63.4,2.44,2.44,0,0,0-1.06,1.31L2.65,32.8,2.57,33A19.48,19.48,0,0,0,9.09,55.63h0l.09.08,16.06,12,7.91,6L38,77.4a3.17,3.17,0,0,0,3.91,0l4.82-3.67,7.91-6L70.74,55.63h.08A19.24,19.24,0,0,0,77.43,33.12Z"/><path class="cls-2" d="M77.43,33.12l-.08-.24a35.55,35.55,0,0,0-14.19,6.36c-.08,0-12.56,9.46-23.16,17.45,7.91,6,14.76,11.17,14.76,11.17L70.9,55.79H71A19.7,19.7,0,0,0,77.43,33.12Z"/><path class="cls-3" d="M25.24,67.86l7.91,6L38,77.56a3.17,3.17,0,0,0,3.91,0l4.82-3.67,7.91-6s-6.85-5.22-14.76-11.17C32.09,62.64,25.24,67.86,25.24,67.86Z"/><path class="cls-2" d="M16.84,39.16A35.55,35.55,0,0,0,2.65,32.8L2.57,33A19.48,19.48,0,0,0,9.09,55.63h0l.09.08,16.06,12S32.09,62.48,40,56.53C29.4,48.7,16.92,39.24,16.84,39.16Z"/></svg>