<svg id="Layer_1" data-name="Layer 1" xmlns="http://www.w3.org/2000/svg" viewBox="0 0 80 80"><defs><style>.cls-1{fill:#0092ff;stroke:#0092ff;stroke-miterlimit:10;}</style></defs><path class="cls-1" d="M72.65,42.7c-.19,1.27-.32,2.56-.57,3.82a31,31,0,0,1-8.19,15.39A35.17,35.17,0,0,1,52,70.17l-.6.25c.61.27,1.12.49,1.62.73.69.33.92.82.65,1.43a1,1,0,0,1-1.48.5c-1.32-.57-2.64-1.15-4-1.75a1.05,1.05,0,0,1-.51-1.7C48.45,68.41,49.24,67.2,50,66a1.05,1.05,0,1,1,1.76,1.14c-.19.32-.4.62-.59.93l.1.14c1.22-.63,2.46-1.2,3.63-1.9a31.14,31.14,0,0,0,14.43-17.8A27.26,27.26,0,0,0,68.84,31c-.08-.24-.18-.48-.26-.72a1.06,1.06,0,0,1,.64-1.44,1,1,0,0,1,1.34.75,38.18,38.18,0,0,1,1.18,3.82c.35,1.63.54,3.3.8,5,0,.21.07.41.11.62Z"/><path class="cls-1" d="M25.29,50c-.59-1.55-1.11-3-1.66-4.34a.69.69,0,0,0-.47-.35c-.55,0-1.11,0-1.66,0a2.45,2.45,0,0,1-2.45-2.42c0-1.19,0-2.38,0-3.56a2.42,2.42,0,0,1,2.44-2.41h1.89c.45-1.11.86-2.22,1.35-3.29.58-1.24.61-1.23-.37-2.21-1.46-1.45-1.45-2.76,0-4.21.7-.68,1.39-1.37,2.12-2a2.45,2.45,0,0,1,3.54.07c.47.45.9.95,1.23,1.3,1.58-.59,3-1.12,4.41-1.68a.61.61,0,0,0,.32-.43c0-.55,0-1.11,0-1.66a2.46,2.46,0,0,1,2.57-2.56h3.24a2.4,2.4,0,0,1,2.51,2.41c0,.7-.18,1.56.15,2s1.22.47,1.84.73c.83.36,1.65.77,2.69,1.26.33-.39.72-.9,1.16-1.34a2.43,2.43,0,0,1,3.48-.08c.86.82,1.69,1.67,2.48,2.56a2.45,2.45,0,0,1-.1,3.49c-.37.38-.77.74-1.11,1.14a.59.59,0,0,0-.14.51c.31.72.7,1.41,1,2.13s.5,1.44.76,2.2c.67,0,1.34,0,2,0a2.44,2.44,0,0,1,2.51,2.48c0,1.14,0,2.29,0,3.43a2.44,2.44,0,0,1-2.47,2.46c-.63,0-1.42-.19-1.85.11s-.46,1.13-.71,1.71a20.61,20.61,0,0,1-1,2.17.6.6,0,0,0,.15.91,10.92,10.92,0,0,1,.9.9,2.4,2.4,0,0,1,.14,3.43,32.8,32.8,0,0,1-2.75,2.65,2.45,2.45,0,0,1-3.3-.15c-.38-.37-.77-.74-1.12-1.13a.55.55,0,0,0-.76-.13c-1.23.54-2.5,1-3.74,1.55a.76.76,0,0,0-.4.51,14.18,14.18,0,0,0,0,1.46,2.46,2.46,0,0,1-2.64,2.61c-1.25,0-2.5,0-3.75-.11a2.2,2.2,0,0,1-2-2.11,16.45,16.45,0,0,1,0-1.72c0-.36-.12-.5-.45-.63-1.24-.48-2.47-1-3.68-1.55-.3-.13-.48-.16-.71.1s-.68.7-1,1a2.41,2.41,0,0,1-3.43.08c-.9-.84-1.76-1.73-2.58-2.65a2.45,2.45,0,0,1,.13-3.4C24.43,50.75,24.93,50.29,25.29,50ZM39.87,60.1H41.4c.43,0,.6-.18.59-.62,0-.85,0-1.7,0-2.55a1,1,0,0,1,.9-1.13,14.89,14.89,0,0,0,5.28-2.12,1.08,1.08,0,0,1,1.49.18c.57.58,1.16,1.12,1.7,1.72.39.42.68.39,1,0,.64-.65,1.29-1.29,2-1.9.39-.35.42-.63,0-1-.56-.52-1.09-1.07-1.62-1.62a1.08,1.08,0,0,1-.16-1.59,15.59,15.59,0,0,0,2.12-5c.17-.76.52-1,1.31-1s1.53,0,2.29,0c.46,0,.67-.14.66-.62,0-1,0-2,0-2.92,0-.46-.19-.66-.65-.65-.87,0-1.74,0-2.61,0a1,1,0,0,1-1.15-.94,14.57,14.57,0,0,0-2.05-5.11,1.12,1.12,0,0,1,.21-1.69c.55-.56,1.1-1.12,1.67-1.66.33-.31.37-.56,0-.9-.7-.69-1.38-1.39-2-2.11a.53.53,0,0,0-.9,0c-.54.57-1.1,1.12-1.66,1.67a1.05,1.05,0,0,1-1.54.19,16,16,0,0,0-5.12-2.17,1.08,1.08,0,0,1-1-1.22c0-.83,0-1.66,0-2.48,0-.43-.11-.63-.57-.62-1,0-2,0-2.93,0-.42,0-.61.16-.6.61,0,.87,0,1.74,0,2.61a1.07,1.07,0,0,1-.93,1.18A15,15,0,0,0,32,28.71a1.05,1.05,0,0,1-1.54-.17c-.59-.57-1.18-1.15-1.75-1.75a.54.54,0,0,0-.91,0c-.69.69-1.39,1.37-2.11,2-.36.33-.3.59,0,.89q.82.8,1.62,1.62A1.1,1.1,0,0,1,27.49,33a15.36,15.36,0,0,0-2.09,4.95,1.13,1.13,0,0,1-1.3,1H21.75c-.42,0-.63.14-.62.59,0,1,0,2,0,3,0,.43.18.61.61.6.85,0,1.7,0,2.55,0a1.07,1.07,0,0,1,1.16.95,14.53,14.53,0,0,0,2.11,5.21,1.08,1.08,0,0,1-.18,1.49c-.59.59-1.15,1.19-1.76,1.75-.37.34-.35.61,0,.95.68.67,1.35,1.36,2,2.06.35.38.62.33.95,0,.54-.57,1.11-1.11,1.66-1.66a1.07,1.07,0,0,1,1.49-.17,15.57,15.57,0,0,0,5.12,2.18,1,1,0,0,1,1,1.22c0,.74,0,1.49,0,2.23,0,.57.16.83.76.78C39,60.07,39.43,60.1,39.87,60.1Z"/><path class="cls-1" d="M12.61,31.43C12,33.24,11.43,35,10.93,36.87a21.28,21.28,0,0,0,.47,11.68c3,10.38,9.82,17.2,20,20.63a28.54,28.54,0,0,0,9.4,1.39c.3,0,.59,0,.89,0a1,1,0,0,1,1.06,1,1,1,0,0,1-1,1,50.41,50.41,0,0,1-5.08-.19,31.32,31.32,0,0,1-16.49-6.9,31.62,31.62,0,0,1-11.58-20,25.91,25.91,0,0,1,1.76-13.82l.32-.92c-.57.28-1,.51-1.49.72a1.07,1.07,0,0,1-1.58-.39c-.28-.57,0-1.13.66-1.49C9.49,29,10.74,28.37,12,27.76a1.09,1.09,0,0,1,1.7.6c.61,1.33,1.21,2.66,1.8,4a1,1,0,0,1-.47,1.5,1,1,0,0,1-1.44-.64c-.28-.59-.54-1.18-.81-1.77Z"/><path class="cls-1" d="M65.56,23.62A30,30,0,0,0,59.84,18a32.28,32.28,0,0,0-16-6.57A29.3,29.3,0,0,0,21.32,18a61.21,61.21,0,0,0-4.49,4.48,2.23,2.23,0,0,1-.74.57A.92.92,0,0,1,15,22.68a1,1,0,0,1,.1-1.34c1.13-1.25,2.22-2.57,3.46-3.72a31.54,31.54,0,0,1,19-8.38A33.18,33.18,0,0,1,57.66,14a34.49,34.49,0,0,1,8.89,7.45c0-.52,0-.88,0-1.24a1.09,1.09,0,0,1,1.07-1.18,1.07,1.07,0,0,1,1,1.14c0,1.46,0,2.93,0,4.39a1.11,1.11,0,0,1-1.19,1.15c-1.57,0-3.14,0-4.71,0a1,1,0,0,1-1.13-1.1,1.06,1.06,0,0,1,1.16-1C63.68,23.61,64.55,23.62,65.56,23.62Z"/><path class="cls-1" d="M30.59,41.26a9.43,9.43,0,0,1,9.54-9.32,3.68,3.68,0,0,1,.82.11.93.93,0,0,1,.75,1,.88.88,0,0,1-.8.92c-.63.1-1.27.09-1.89.19a7.29,7.29,0,0,0-6.18,5.78,7.14,7.14,0,0,0,3.54,7.55,7.56,7.56,0,0,0,8.52-.72,7.08,7.08,0,0,0,1.88-8.63c-.21-.47-.34-.95.06-1.29a1.34,1.34,0,0,1,1.06-.32,1.51,1.51,0,0,1,.81.8,9.22,9.22,0,0,1-4.31,12.26,9.52,9.52,0,0,1-13.67-6.91C30.64,42.2,30.63,41.73,30.59,41.26Z"/><path class="cls-1" d="M46.16,34.45a1.06,1.06,0,0,1-1.56,1,10.67,10.67,0,0,1-1.07-.67,1,1,0,0,1-.32-1.36,1,1,0,0,1,1.3-.44,6.32,6.32,0,0,1,1.29.8A1.7,1.7,0,0,1,46.16,34.45Z"/></svg>