<svg id="Layer_1" data-name="Layer 1" xmlns="http://www.w3.org/2000/svg" viewBox="0 0 80 80"><defs><style>.cls-1{fill:#f0db4f;}.cls-2{fill:#323330;}</style></defs><path class="cls-1" d="M3.36,2.61H76.64V75.9H3.36Z"/><path class="cls-2" d="M70.65,58.42c-.54-3.35-2.72-6.15-9.18-8.77-2.24-1-4.74-1.77-5.49-3.47A3.81,3.81,0,0,1,55.85,44c.48-1.94,2.8-2.55,4.64-2a5.14,5.14,0,0,1,3,2.76c3.16-2,3.16-2,5.36-3.44A13.55,13.55,0,0,0,67.06,39c-1.9-2.12-4.49-3.21-8.63-3.13l-2.16.28a9.83,9.83,0,0,0-5.2,3.06C47.6,43.14,48.59,50,52.81,52.86,57,56,63.08,56.7,63.86,59.61c.76,3.58-2.63,4.74-6,4.32-2.48-.51-3.86-1.77-5.35-4.06L47,63.08a12.33,12.33,0,0,0,2.5,3.39c5.3,5.38,18.59,5.12,21-3A10.06,10.06,0,0,0,70.65,58.42ZM43.2,36.29H36.34c0,5.92,0,11.8,0,17.72,0,3.77.2,7.23-.41,8.29-1,2.08-3.6,1.82-4.79,1.42a5.91,5.91,0,0,1-2.53-2.63,3.67,3.67,0,0,0-.39-.63l-5.57,3.42a11,11,0,0,0,4,4.62,13.3,13.3,0,0,0,9.79,1.21A8.69,8.69,0,0,0,42,65.38C43.55,62.5,43.21,59,43.2,55.16c0-6.28,0-12.56,0-18.87Z"/></svg>