<svg id="Layer_1" data-name="Layer 1" xmlns="http://www.w3.org/2000/svg" viewBox="0 0 80 80"><defs><style>.cls-1{fill:#d33833;}.cls-2{fill:#ef3d3a;}.cls-3{fill:#231f20;}.cls-4{fill:#f0d6b7;}.cls-5{fill:#335061;}.cls-6{fill:#6d6b6d;}.cls-7{fill:#dcd9d8;}.cls-8{fill:#f7e4cd;}.cls-9{fill:#49728b;}.cls-10{fill:#fff;}.cls-11{stroke:#d33833;stroke-miterlimit:7.67;stroke-width:3.84px;}.cls-12{fill:#81b0c4;}.cls-13{fill:#1d1919;}</style></defs><path class="cls-1" d="M67.67,38.76c0,15.24-12.09,27.61-27,27.61s-27-12.37-27-27.61,12.08-27.62,27-27.62,27,12.37,27,27.62"/><path class="cls-2" d="M14.77,45.6S12.81,16.8,39.36,16l-1.85-3.09-14.4,4.84L19,22.44,15.4,29.32l-2.05,8L14,42.7"/><path class="cls-3" d="M22.17,19.92a27.09,27.09,0,0,0-7.66,18.95h0a27.08,27.08,0,0,0,7.66,18.94h0a25.73,25.73,0,0,0,18.49,7.85h0a25.73,25.73,0,0,0,18.5-7.85h0a27.08,27.08,0,0,0,7.66-18.94h0a27.09,27.09,0,0,0-7.66-18.95h0a25.81,25.81,0,0,0-18.5-7.85h0a25.78,25.78,0,0,0-18.49,7.85ZM21,59a28.67,28.67,0,0,1-8.14-20.1h0A28.76,28.76,0,0,1,21,18.74h0A27.52,27.52,0,0,1,40.66,10.4h0a27.49,27.49,0,0,1,19.69,8.34h0A28.66,28.66,0,0,1,68.5,38.87h0A28.64,28.64,0,0,1,60.35,59h0a27.41,27.41,0,0,1-19.69,8.34h0A27.44,27.44,0,0,1,21,59Z"/><path class="cls-4" d="M52,38.91l-4.11.61-5.56.63-3.59.09-3.51-.11-2.68-.83-2.37-2.57-1.85-5.25-.42-1.13-2.46-.83-1.43-2.37-1-3.4,1.13-3,2.68-.93,2.16,1,1,2.27,1.25-.2.41-.52L31.26,20l-.11-3,.61-4.12,0-2.35,1.88-3L36.9,5.19l5.75-2.46L49,3.67l5.55,4,2.57,4.12,1.66,3,.41,7.4L58,28.56l-2.26,5.67-2.14,3"/><path class="cls-5" d="M48.55,56.7l-14.7.61v2.46l1.24,8.65-.61.72L24.2,65.63l-.72-1.24-1-11.63-2.42-7-.52-1.65,8.23-5.67,2.57-1,2.26,2.79,2,1.74,2.27.72,1,.3,1.24,5.36L40,49.49l2.38-.82-1.66,3.2,8.93,4.22-1.11.61"/><path class="cls-6" d="M24.15,20.81l2.68-.94,2.16,1,1,2.26,1.25-.2.3-1.24L31,19.35l.61-5.66L31,10.59l1.85-2.15,4-3.18L35.76,3.71,30.1,6.5,27.73,8.35,26.4,11.22l-2,2.79-.61,3.29.41,3.51"/><path class="cls-7" d="M28.38,11.14s1.55-3.81,7.71-5.67.31-1.32.31-1.32L29.71,6.72,27.14,9.29l-1.13,2,2.37-.19"/><path class="cls-7" d="M25.29,20.09s-2.16-7.21,6.07-8.23l-.3-1.25L25.4,11.94,23.74,17.3l.41,3.51,1.14-.72"/><path class="cls-8" d="M28.58,29.65l1.35-1.31a.88.88,0,0,1,.72.79c.1.72.41,7.21,4.83,10.69.41.33-3.29-.52-3.29-.52L28.9,34.16"/><path class="cls-8" d="M47.5,27.69s.24-3.11,1.09-2.87a1.17,1.17,0,0,1,.85,1.09s-2,1.3-1.94,1.78"/><path class="cls-8" d="M56,16.28s-1.7.35-1.85,1.85,1.85.3,2.16.2"/><path class="cls-8" d="M43.61,16.39s-2.27.3-2.27,1.74,2.57,1.33,3.29.72"/><path class="cls-8" d="M29.62,23.07s-3.9-2.37-4.31-.11-1.33,3.9.61,6.28l-1.33-.42-1.24-3.18-.41-3.09,2.37-2.46,2.68.2,1.54,1.24.09,1.54"/><path class="cls-8" d="M31.47,16.58s1.75-9.06,10.59-10.8c7.27-1.44,11.11.3,12.54,2,0,0-6.49-7.71-12.65-5.36S31.26,9.07,31.36,11.83a47,47,0,0,1,.11,4.75"/><path class="cls-8" d="M55.32,8.76s-3-.11-3.09,2.57a2.12,2.12,0,0,0,.2.83s2.37-2.68,3.81-1.24"/><path class="cls-8" d="M42.28,12.44s-.53-4.09-4-1.72c-2.27,1.55-2.05,3.71-1.66,4.12s.31,1.24.61.68.22-2.42,1.35-2.94,3-1.09,3.71-.14"/><path class="cls-9" d="M32.61,40.24l-9.67,4.31s4,15.94,2,20.89l-1.44-.52-.11-6.08-2.68-11.5-1.13-3.18,10.08-6.8,3,2.88"/><path class="cls-9" d="M33.59,49.06,35,50.74V56.9H33.32s-.19-4.31-.19-4.84.19-2.37.19-2.37"/><path class="cls-9" d="M33.63,57.84,29,58l1.33.94,3.29.52"/><path class="cls-5" d="M49.46,56.81l3.82-.11.93,9.46-3.9.52-.85-9.87"/><path class="cls-5" d="M50.49,56.81l5.75-.3s2.37-6,2.37-6.28,2-8.64,2-8.64L56,36.75l-.94-.83-2.46,2.47V48l-2.13,8.86"/><path class="cls-9" d="M53.06,56.09l-3.6.72L50,59.69c1.33.61,3.59-1,3.59-1"/><path class="cls-9" d="M53.17,38.08l7.21,5.36L60.57,41l-5.44-5-2,2.13"/><path class="cls-10" d="M37.2,77.07l-2.13-8.65L34,62l-.17-4.73,9.64-.52h6l-.54,10.8.94,8.35-.11,1.54-7.82.61-4.73-1"/><path class="cls-7" d="M48.14,56.7s-.53,10.7,1,18.32a19.48,19.48,0,0,1-7.6,2.46l8.64-.3,1-.61L50,59.71l-.33-3.62"/><path class="cls-10" d="M54.37,65.35l4-1.13L66,63.8l1.14-3.5-2-6.08-2.37-.3-3.29,1-3.14,1.55-1.68-.31-1.3.52"/><path class="cls-7" d="M54.3,63.28a14.73,14.73,0,0,1,3.09-1.13l-1.13-5.66L57.59,56s.94,5.36.94,6c0,0,5.75.31,6.27.31a9.36,9.36,0,0,0,.93-4.84l1.14,3.29L67,62.54,65.32,65l-1.85.42-3.09-.11-1-1.33-3.59.52-1.13.42"/><path class="cls-10" d="M50.25,56,48,50.23l-2.37-3.39s.52-1.44,1.24-1.44h2.37l2.27.83L51.29,50l-1,5.94"/><path class="cls-7" d="M50.71,54s-2.88-5.55-2.88-6.38c0,0,.52-1.24,1.24-.93s2.27,1.13,2.27,1.13v-2l-3.51-.72-2.37.3,4,9.5.83.11"/><path class="cls-10" d="M38.12,40.46l-2.86-.31-2.68-.83v.94l1.31,1.44L38,43.55"/><path class="cls-7" d="M33.52,40.76s3.18,1.33,4.23,1L37.86,43,35,42.42l-1.74-1.25.28-.41"/><path class="cls-1" d="M54.37,45.75a18.91,18.91,0,0,1-4.71-.66c.09-.56-.09-1.11.07-1.52a3.68,3.68,0,0,1,1.61-.35A2.74,2.74,0,0,0,49.55,43a2.81,2.81,0,0,0-.3-.94c1-.35,3.29-2.64,4.59-1.9.63.37.9,2.42.94,3.45a3.69,3.69,0,0,1-.41,2.11"/><path class="cls-11" d="M54.37,45.75a18.91,18.91,0,0,1-4.71-.66c.09-.56-.09-1.11.07-1.52a3.68,3.68,0,0,1,1.61-.35A2.74,2.74,0,0,0,49.55,43a2.81,2.81,0,0,0-.3-.94c1-.35,3.29-2.64,4.59-1.9.63.37.9,2.42.94,3.45a3.69,3.69,0,0,1-.41,2.11Z"/><path class="cls-1" d="M46,42.89a2.61,2.61,0,0,1,0,.4c-.54.35-1.41.35-2,.65a5.67,5.67,0,0,1,2.17.54c0,.33,0,.68,0,1-1,.67-1.92,1.7-3.09,2.35a8.09,8.09,0,0,1-3.1.94c-.32-.09-.37-.51-.5-.9a13.29,13.29,0,0,1-1-3.44c-.06-1.59-.24-4.27,1.48-3.94A14.91,14.91,0,0,1,44,42a4,4,0,0,0,2,.91"/><path class="cls-11" d="M46,42.89a2.61,2.61,0,0,1,0,.4c-.54.35-1.41.35-2,.65a5.67,5.67,0,0,1,2.17.54c0,.33,0,.68,0,1-1,.67-1.92,1.7-3.09,2.35a8.09,8.09,0,0,1-3.1.94c-.32-.09-.37-.51-.5-.9a13.29,13.29,0,0,1-1-3.44c-.06-1.59-.24-4.27,1.48-3.94A14.91,14.91,0,0,1,44,42a4,4,0,0,0,2,.91Z"/><path class="cls-1" d="M47,44.79a6.18,6.18,0,0,1-.26-1.87c2.33-1.55,2.75,2.65.26,1.87"/><path class="cls-11" d="M47,44.79a6.18,6.18,0,0,1-.26-1.87c2.33-1.55,2.75,2.65.26,1.87Z"/><path class="cls-2" d="M50.36,45.49s-.72-1-.2-1.33,1,0,1.33-.52,0-.83.11-1.44.61-.72,1.13-.83,2-.31,2.16.2l-.61-1.86L53,39.3l-3.9,2.27-.2,1.13V45"/><path class="cls-2" d="M39.55,48.88l-.39-4.81c-.22-2.4.57-2,2.66-2a5.35,5.35,0,0,1,2.07.61c.56,1.15-.94.89.65,1.76,1.33.72,3.7-.43,3.16-2.07-.3-.37-1.57-.11-2-.34L43.26,40.8c-1-.52-3.38-1.3-4.47-.56C36,42.11,39,46.82,40,48.78"/><path class="cls-3" d="M42.28,12.44c-2.81-.65-4.21,1.18-5.06,3.08-.76-.18-.45-1.22-.26-1.75.5-1.37,2.53-3.22,4.18-3,.7.09,1.66.74,1.14,1.63"/><path class="cls-3" d="M55.93,15.62h.13a29.5,29.5,0,0,0,2,3.88c-.55,1.26-4.06,2.35-4,.13.76-.32,2.07-.06,2.74-.5a7.76,7.76,0,0,1-.85-3.51"/><path class="cls-3" d="M43.69,15.67c.61,1.11.81,2.26,1.66,3.09.39.37,1.13.83.76,1.87a2.43,2.43,0,0,1-1.09.9c-1.33.39-4.44.08-3.4-1.59,1.11,0,2.6.72,3.42-.09-.63-1-1.76-3-1.35-4.18"/><path class="cls-3" d="M55.43,26.86c-2,1.29-4.24,2.7-7.56,2.38a2.24,2.24,0,0,1-.28-2.88c.35.61.13,1.75,1.13,1.92,1.88.33,4.06-1.15,5.41-1.66.82-1.41-.07-1.91-.83-2.83-1.55-1.85-3.6-4.16-3.53-6.92.63-.46.67.69.76.89a26.26,26.26,0,0,0,4.29,5.9c.37.39,1,.79,1,1.05.19.74-.5,1.65-.42,2.15"/><path class="cls-3" d="M28.9,25.51c-.63-.37-.78-1.94-1.52-2-1.07-.06-.87,2-.87,3.29-.72-.65-.85-2.7-.33-3.75-.61-.3-.87.33-1.22.55.46-3.16,4.64-1.46,3.94,1.89"/><path class="cls-3" d="M56.7,28.19c-.94,1.79-2.27,3.75-5,3.81a6,6,0,0,1,0-1.8c2.11-.22,3.42-1.29,5-2"/><path class="cls-3" d="M43.54,29.35c1.74.91,5,1,7.36,1a7.9,7.9,0,0,1,.13,1.8c-3.07.13-6.68-.63-7.49-2.76"/><path class="cls-3" d="M43.21,31.05c1.22,3,5.38,2.7,8.89,2.61a1.76,1.76,0,0,1-.91,1c-1.14.46-4.23.81-5.8,0a8.11,8.11,0,0,1-2.18-2.42c-.24-.32-1.54-1.17,0-1.19"/><path class="cls-12" d="M55.28,47.84a61.56,61.56,0,0,1-4.47,7.08,34.58,34.58,0,0,0,1.12-8.21,2.57,2.57,0,0,1,3.35,1.13"/><path class="cls-3" d="M62.93,56.59c-1.59.33-2.71,1.88-4.27,1.77.87-1.2,2.35-1.72,4.27-1.77"/><path class="cls-3" d="M63.62,59.08a23.91,23.91,0,0,1-4.14.24c.64-1,3-.61,4.14-.24"/><path class="cls-3" d="M64.08,61.23c-1.46,0-3.27,0-4.66-.1.83-.9,3.72-.33,4.66.1"/><path class="cls-7" d="M52.54,67.12c.21,1.82.93,3.68.85,5.68a6.24,6.24,0,0,1-2.36.5c-.06-1.7-.3-4.31-.24-6,.53.05,1.31-.37,1.75-.23"/><path class="cls-4" d="M50.18,40.11c-.74.48-1.35,1.06-2.07,1.59a4.49,4.49,0,0,1-3.55-1c0-.06.13,0,.13-.13,1.68.74,3.82-.3,5.49-.45"/><path class="cls-12" d="M41.43,51.5c.45-2,2.26-3,3.9-4.12,1.67,2.14,2.7,4.88,3.83,7.54a38.7,38.7,0,0,1-7.73-3.42"/><path class="cls-3" d="M50.79,67.38C50.73,69,51,71.6,51,73.32a6.24,6.24,0,0,0,2.36-.5c.08-2-.64-3.85-.85-5.68-.44-.16-1.22.26-1.75.24ZM34,58.14A85,85,0,0,0,37.62,76a23.45,23.45,0,0,0,13,.24c-.68-3.27-.4-7.25-.79-10.76-.3-2.63-.15-5.27-.56-8-4.51-.94-10.87-.22-15.27.61Zm16.33-.57c0,2.81.13,5.6.35,8.41a26,26,0,0,0,2.81-.5c-.32-2.7-.28-5.77-1-8.17a7.24,7.24,0,0,0-2.2.26Zm5.47-.45a7.68,7.68,0,0,0-1.59,0c.24,2.28.79,4.81,1,7.23.76,0,1.18-.35,1.81-.46,0-2.11-.18-5-1.2-6.77Zm8.3,7.58c1.61-.39,2.61-2.35,2.16-4.38-.31-1.35-.83-3.92-1.42-4.79-.41-.63-1.57-1.48-2.5-.9-1.51,1-4.14,1.25-5.23,2.4A37.84,37.84,0,0,1,58,63.65c1.88.11,4.16-.52,5.73.15-1.09.35-2.48.35-3.42.88a7.27,7.27,0,0,0,3.75,0ZM49.14,54.92C48,52.26,47,49.52,45.3,47.38c-1.63,1.09-3.42,2.14-3.89,4.12a39.74,39.74,0,0,0,7.73,3.42Zm2.79-8.21a34.58,34.58,0,0,1-1.12,8.21,63.34,63.34,0,0,0,4.47-7.08,2.57,2.57,0,0,0-3.35-1.13ZM48.77,45.6c-.63-.07-1.18.74-2,.39l-.56.65c1.83,2.22,2.68,5.36,4.09,8,.76-2.5.68-5.23.85-8-1,0-1.63-1-2.37-1Zm-2-2.68A6.18,6.18,0,0,0,47,44.79c2.49.78,2.07-3.42-.26-1.87ZM44,42a14.91,14.91,0,0,0-4.08-1.48c-1.72-.33-1.54,2.35-1.48,3.94a13.41,13.41,0,0,0,1,3.44c.13.4.18.81.5.9a8.16,8.16,0,0,0,3.1-.94,31.69,31.69,0,0,0,3.09-2.35c0-.33,0-.68,0-1A5.24,5.24,0,0,0,44,44c.58-.3,1.48-.3,2-.65a2.55,2.55,0,0,1,0-.39A4.53,4.53,0,0,1,44,42ZM33.74,40.15c-.89.91,2.5,2.13,3.57,2.2,0-.57.33-1.11.26-1.52-1.28-.22-3-.07-3.83-.68Zm11,.41c0,.09-.11.07-.13.13a4.51,4.51,0,0,0,3.55,1c.69-.5,1.32-1.11,2.06-1.59-1.69.15-3.83,1.19-5.48.45Zm10.06,3c0-1-.31-3.07-.94-3.44-1.3-.76-3.61,1.55-4.59,1.9a2.83,2.83,0,0,1,.3.93,2.79,2.79,0,0,1,1.79.2,3.42,3.42,0,0,0-1.61.35c-.13.41,0,1-.07,1.52a20.41,20.41,0,0,0,4.71.66,3.64,3.64,0,0,0,.41-2.12ZM32.24,41c-.29-.19-2.18-2.66-2.44-2.55a39.88,39.88,0,0,0-9.48,5.91c2.72,5.85,3.83,13,4,19.93,3.12,1.45,5.86,3.57,10.11,3.79-.5-3.47-.94-6.58-1.22-9.85-1.07-.46-2.59,0-3.6-.13,0-1.2,1.53-.52,1.66-1.33.09-.61-.85-.65-.55-1.61.79.28,1.2.91,2,1.15.76-1.65,0-4.59.11-6,0-.26.13-1.43.72-1.24s0,3.16,0,4.47-.15,2.37.35,3.13a118.23,118.23,0,0,1,12.7-1,29.06,29.06,0,0,1-3.4-1.53c-.7-.39-2.85-1.19-3.05-1.85-.33-1,.83-1.59,1-2.48-2.07,1.13-2.46-1.09-3-2.64a22.42,22.42,0,0,1-.81-3.29A40.67,40.67,0,0,1,32.24,41ZM53,38.76c2.85-1.38,3.38,5.16,2.24,7.27.18.63.77.87,1,1.44-1.59,2.85-3.36,5.51-5,8.32,1.2-.76,2.94-.13,4.35-.7.53-.19.9-1.39,1.29-2.35a49.72,49.72,0,0,0,2.72-8.41A9.67,9.67,0,0,0,59.94,42c-.13-.91-1.35-1.59-2-2.13-1.16-1-1.87-1.94-3.09-2.92-.46.72-1.51,1.2-1.9,1.79ZM25.72,13.47c-1.35,1.5-1.06,4.29-.91,6.29,2.46-1.54,5.7.13,5.68,2.75,1.18,0,.44-1.46.22-2.4-.7-3,1.18-6.29.09-9.06a7.38,7.38,0,0,0-5.08,2.42Zm9.72-8.69c-3.07.87-7,3.11-8.28,5.88,1-.15,1.66-.63,2.61-.7A6.58,6.58,0,0,0,31,10c.83-.22,1.54-2.1,2.18-2.79s1.35-1,1.85-1.59c.32-.16.8-.16.82-.63-.13-.16-.28-.27-.45-.22Zm16,.83c-3.21-1.81-8.61-3.16-12-1.46C36.7,5.52,33,7.78,31.73,10.64c1.18,2.76-.34,5.29-.45,8.1-.05,1.5.69,2.79.76,4.42-.41.68-1.63.74-2.48.7-.29-1.44-.79-3.05-2.27-3.23a3.42,3.42,0,0,0-3.72,3.31c-.11,2.14,1.63,5.67,4.11,5.43,1-.09,1.2-1.05,2.25-1.05.56,1.14-.87,1.48-1,2.29A5.66,5.66,0,0,0,29.12,32a19.78,19.78,0,0,0,2.44,5.68c1.26,1.81,3.72,2.07,6.38,2.24.48-1,2.22-.93,3.36-.67a11.08,11.08,0,0,1-3.68-3c-1.2-1.33-2.42-2.74-2.49-4.48,2.29,3.15,4.16,5.92,8.3,7.31,3.14,1,6.8-.47,9.21-2.17A10.7,10.7,0,0,0,55,34.09c2.66-3.83,3.9-9.27,3.64-14.57-.11-2.17-.11-4.35-.85-5.81s-3.35-2.92-4.88-1.53c-.28-1.5,1.27-2.41,3.07-1.87-1.28-1.68-2.63-3.66-4.48-4.7Zm6,49.24c2.51-1.24,7.17-3.33,8.72,0a25.37,25.37,0,0,1,1.54,4.6c.42,1.78-.45,5.57-2.31,6.16a11.08,11.08,0,0,1-5.48.11,3.14,3.14,0,0,1-.68-.87,7.64,7.64,0,0,0-3.81.65c.11,1-.59,1.2-1.26,1.42-.48,1.94,1,4.46.63,6.21-.24,1.26-1.79,1.46-2.92,1.67A8.64,8.64,0,0,0,52,76.68a2.81,2.81,0,0,1-2.53,1.63c-3.63.44-9.15.63-12.63-.63-1-2.4-1.74-5.29-2.55-8C30.86,70,28.1,68.2,25.51,67c-.9-.41-2.14-.65-2.49-1.37a12.78,12.78,0,0,1-.28-3.26,50.36,50.36,0,0,0-1.22-9.57C21.15,51.3,20.47,50,20,48.6a29.2,29.2,0,0,1-1.38-4.25c-.28-1.93,1.55-2,2.71-2.89a60.85,60.85,0,0,1,5.18-3.2,11.18,11.18,0,0,0,2.53-1.64c.39-.8-.68-1.94-1-2.57a7.79,7.79,0,0,1-.77-2.83,5.47,5.47,0,0,1-3.63-2.33c-1.24-1.83-2.12-5.21-1-7.75.09-.2.5-.61.57-.92A10.11,10.11,0,0,0,23,18.15c-.11-3.33.56-6.21,2.81-7.21C26.7,7.3,30,6.11,33,4.3a22.61,22.61,0,0,1,3.73-1.59C41.45,1,48.66,1.31,52.56,4.25a20.82,20.82,0,0,1,5.22,5.8c2.51,5,2.31,13.46.57,19.6a21,21,0,0,1-1,3c-.33.7-1.35,2.07-1.25,2.68s2.36,2.31,2.84,2.76c.85.83,2.48,1.92,2.61,3a10.1,10.1,0,0,1-.81,3.7c-1,3.57-2.09,6.86-3.29,10.06Z"/><path class="cls-8" d="M40.75,30.11c.13-.18.87-.46,1.92,0,0,0-1.24.2-1.13,2.27L41,32.31s-.52-1.85-.26-2.2"/><path class="cls-13" d="M49.77,47.8a.57.57,0,1,1-.57-.57.56.56,0,0,1,.57.57"/><path class="cls-13" d="M50.34,50.43a.58.58,0,0,1-.57.57.58.58,0,0,1-.57-.57.58.58,0,0,1,.57-.57.55.55,0,0,1,.57.57"/></svg>