<?xml version="1.0" encoding="utf-8"?>
<!-- Generator: Adobe Illustrator 25.2.1, SVG Export Plug-In . SVG Version: 6.00 Build 0)  -->
<svg version="1.1" id="Layer_1" xmlns="http://www.w3.org/2000/svg" xmlns:xlink="http://www.w3.org/1999/xlink" x="0px" y="0px"
	 viewBox="0 0 80 80" style="enable-background:new 0 0 80 80;" xml:space="preserve">
<style type="text/css">
	.st0{fill:#FF2D20;}
</style>
<path class="st0" d="M78.3,18.4c0,0.1,0,0.2,0,0.3v16.9c0,0.4-0.2,0.9-0.6,1.1l-14.2,8.2v16.2c0,0.4-0.2,0.8-0.6,1.1L33.2,79.3
	c-0.1,0-0.1,0.1-0.2,0.1h-0.1c-0.2,0-0.4,0-0.6,0l-0.1,0c-0.1,0-0.1,0-0.2-0.1L2.2,62.2c-0.4-0.2-0.6-0.6-0.6-1.1V10.3
	c0-0.1,0-0.2,0-0.3c0,0,0-0.1,0-0.1c0-0.1,0-0.1,0.1-0.2c0,0,0.1-0.1,0.1-0.1c0-0.1,0.1-0.1,0.1-0.1c0,0,0.1-0.1,0.1-0.1
	c0,0,0.1-0.1,0.1-0.1l0,0l14.9-8.6c0.4-0.2,0.9-0.2,1.2,0l14.8,8.6l0,0c0,0,0.1,0.1,0.1,0.1l0.1,0.1l0.1,0.2c0,0,0.1,0.1,0.1,0.1
	c0,0.1,0.1,0.1,0.1,0.2l0,0.1c0,0.1,0,0.2,0,0.3v31.8l12.4-7.1V18.7c0-0.1,0-0.2,0-0.3l0-0.1c0-0.1,0-0.1,0.1-0.2l0.1-0.1
	c0,0,0.1-0.1,0.1-0.1l0.1-0.1l0.1-0.1l0,0l14.8-8.6c0.4-0.2,0.9-0.2,1.2,0l15,8.5l0.1,0.1c0,0,0.1,0.1,0.1,0.1c0,0,0.1,0.1,0.1,0.1
	c0,0,0.1,0.1,0.1,0.1c0,0.1,0.1,0.1,0.1,0.2C78.3,18.3,78.3,18.4,78.3,18.4z M75.9,35V20.8l-5.2,3l-7.2,4.1v14.1L75.9,35L75.9,35z
	 M61,60.4V46.3l-7.1,4L33.8,61.9v14.2L61,60.4z M4.1,12.4v48l27.2,15.7V61.9l-14.2-8.1l0,0c0,0-0.1-0.1-0.1-0.1c0,0-0.1-0.1-0.1-0.1
	l0,0c0,0-0.1-0.1-0.1-0.1c0,0-0.1-0.1-0.1-0.1l0,0c0,0,0-0.1-0.1-0.2c0,0,0-0.1-0.1-0.1l0,0c0-0.1,0-0.1,0-0.2c0,0,0-0.1,0-0.1l0,0
	V19.5l-7.2-4.1L4.1,12.4L4.1,12.4z M17.7,3.2L5.3,10.3l12.4,7.1l12.4-7.1L17.7,3.2L17.7,3.2z M24.1,47.6l7.2-4.1V12.4l-5.2,3
	l-7.2,4.1v31.1L24.1,47.6z M62.3,11.6l-12.4,7.1l12.4,7.1l12.4-7.1L62.3,11.6z M61,28l-7.2-4.1l-5.2-3v14.1l7.2,4.1l5.2,3L61,28z
	 M32.6,59.7l18.2-10.4l9.1-5.2L47.4,37l-14.2,8.2l-13,7.5L32.6,59.7z"/>
</svg>
