<svg id="Layer_1" data-name="Layer 1" xmlns="http://www.w3.org/2000/svg" viewBox="0 0 100 100"><defs><style>.cls-1{fill:#fc7754;stroke:#fc7754;stroke-miterlimit:10;stroke-width:2px;}</style></defs><path class="cls-1" d="M35.33,97.65a2.56,2.56,0,0,1-1.6-2.72c.06-1.82,0-3.63,0-5.45,0-2,.7-2.72,2.71-2.73h1.13c0-1.6,0-3.15,0-4.7,0-.25-.32-.5-.52-.73-4.11-4.77-7.12-10.12-8-16.41a64.52,64.52,0,0,1-.59-9c0-5,.19-10,.25-15,.06-4.68,4.34-7.21,8.46-5l.32.13a5.37,5.37,0,0,1,8.62-3.64,5.52,5.52,0,0,1,8.71-2.5,5.84,5.84,0,0,1,11.37,1.77c0,2.25,0,4.49,0,6.73,5.75,2.36,7.7,7.13,8.11,12.78.48,6.51-1,12.74-2.78,19a31.41,31.41,0,0,1-6.34,11.74,2.17,2.17,0,0,0-.45,1.23c-.06,1.16,0,2.33,0,3.65.58,0,1.12,0,1.66,0a2,2,0,0,1,2.11,2c.06,2.3,0,4.61,0,6.91a2.24,2.24,0,0,1-1.55,2Zm-4.6-45.11a50.93,50.93,0,0,0,.61,13.21A30,30,0,0,0,38.77,80a3.64,3.64,0,0,1,1.09,2.88c-.09,1.28,0,2.57,0,3.87H62.43c0-1.41-.08-2.76,0-4.09a3.74,3.74,0,0,1,.76-1.89,27.79,27.79,0,0,0,5.42-9c.84-2.66,1.6-5.35,2.23-8.07,1.07-4.69,1.8-9.43,1-14.26C71.31,46,70,43.1,66.94,41.3a4.42,4.42,0,0,0-2.15-.68c-2.86,0-5.72.08-8.57.16a25.55,25.55,0,0,0-3.4.21,1.72,1.72,0,0,0-1.45,2.39,4,4,0,0,0,.87,1.69,20.55,20.55,0,0,0,3.35,2.85,26,26,0,0,0,10.25,3.39c.61.09,1.17.22,1.28.95s-.33,1.05-.87,1.35a33.15,33.15,0,0,0-9.63,8.07c-1.7,2.06-3.12,4.34-4.73,6.47a1.84,1.84,0,0,1-1.23.68c-.28,0-.77-.45-.85-.78a1.83,1.83,0,0,1,.32-1.18,44.22,44.22,0,0,1,6.47-8.49c.58-.59,1.22-1.1,1.81-1.63l-2.54-1.69a5.51,5.51,0,0,1-9.67-.82c-3.42,2.12-5.78,1.56-8.38-1.92A5.61,5.61,0,0,1,30.73,52.54ZM66.21,89H36v6.35h30.2ZM39.7,43.39h0c0,2.21,0,4.43,0,6.64a3.06,3.06,0,1,0,6.12,0c0-4.45,0-8.91,0-13.37a4,4,0,0,0-.63-2,3,3,0,0,0-5.45,1.66C39.67,38.72,39.7,41.05,39.7,43.39Zm14.81-4.85c0-1.52,0-3,0-4.46a3.23,3.23,0,0,0-6.45.08q0,9,0,18a3,3,0,0,0,2.5,3.07c1.68.3,3.34-.41,3.69-1.83A10.85,10.85,0,0,0,54.33,50c0-.31-.62-.6-1-.86-1.83-1.26-3.45-2.68-4.07-4.93a4.06,4.06,0,0,1,3.54-5.49C53.34,38.65,53.86,38.61,54.51,38.54ZM37.39,44.47h0c0-1.32,0-2.64,0-4a3.17,3.17,0,0,0-3.18-3.24,3.21,3.21,0,0,0-3.31,3.22c0,2.64,0,5.29,0,7.93a3.09,3.09,0,0,0,3.29,3,3,3,0,0,0,3.18-3C37.42,47.11,37.39,45.79,37.39,44.47Zm26.53-6.06c0-2.46.06-4.74,0-7a3.29,3.29,0,0,0-3.3-3.19c-2-.1-3.64,1-3.76,2.75-.18,2.49-.05,5-.05,7.45ZM56.81,51.16a3.28,3.28,0,0,0,1.91,3.16c1.8,1,2.82-.35,4-1.21Z"/><path class="cls-1" d="M44.14,22.84c.22-1.54.42-3.25.72-4.94a1.86,1.86,0,0,0-.6-1.87q-1.75-1.7-3.38-3.53a1.68,1.68,0,0,1-.44-1.35,1.77,1.77,0,0,1,1.18-.79c1.71-.37,3.45-.61,5.16-1a1.57,1.57,0,0,0,.94-.7c.85-1.46,1.59-3,2.45-4.43.27-.44.82-1,1.23-1s1,.59,1.22,1c.82,1.37,1.56,2.78,2.28,4.21a1.56,1.56,0,0,0,1.31.95c1.67.24,3.34.54,5,.91a1.69,1.69,0,0,1,1.15.84,1.7,1.7,0,0,1-.48,1.34c-1.12,1.26-2.3,2.48-3.51,3.66a1.53,1.53,0,0,0-.48,1.47c.25,1.61.5,3.22.65,4.84a2.38,2.38,0,0,1-.38,1.58c-.44.55-1.06.15-1.59-.1-1.52-.74-3-1.51-4.56-2.19a1.71,1.71,0,0,0-1.26,0c-1.66.71-3.29,1.51-4.93,2.27C44.77,24.55,44.11,24.12,44.14,22.84ZM51.36,6.59C50.61,8,49.92,9.2,49.28,10.45a1.77,1.77,0,0,1-1.41,1c-1.37.21-2.73.48-4.1.73l-.24.37c1,.85,1.92,1.72,2.91,2.55a2,2,0,0,1,.7,2c-.2,1.33-.34,2.67-.54,4.16,1.38-.66,2.63-1.22,3.84-1.87a1.87,1.87,0,0,1,1.91,0c1.21.63,2.45,1.19,3.81,1.85a31.58,31.58,0,0,0-.45-3.16,3.16,3.16,0,0,1,1.11-3.58,25.87,25.87,0,0,0,2.28-2.36c-1.51-.28-2.8-.56-4.11-.73a2,2,0,0,1-1.62-1.17C52.76,9.11,52.08,7.92,51.36,6.59Z"/><path class="cls-1" d="M12,34.1c.41.18.67.26.91.4l6.78,3.91c.66.39,1.08.88.64,1.65s-1,.63-1.67.28l-7-4a1,1,0,0,1-.54-1.31A4.23,4.23,0,0,1,12,34.1Z"/><path class="cls-1" d="M91.64,35.66a2.53,2.53,0,0,1-.63.68c-2.33,1.37-4.67,2.7-7,4-.61.35-1.2.36-1.58-.32s0-1.22.58-1.59c2.28-1.33,4.55-2.68,6.84-4C90.76,34,91.68,34.44,91.64,35.66Z"/><path class="cls-1" d="M29.07,17.83a2.49,2.49,0,0,1,.72.63c1.38,2.35,2.73,4.72,4.08,7.09A1.1,1.1,0,1,1,32,26.67c-1.4-2.38-2.78-4.77-4.11-7.18C27.39,18.66,28,17.78,29.07,17.83Z"/><path class="cls-1" d="M68.6,26.35a9.9,9.9,0,0,1,.37-.93c1.3-2.28,2.62-4.56,3.92-6.85A1.11,1.11,0,0,1,74.48,18c.64.31.77,1,.33,1.74-1.31,2.28-2.64,4.56-4,6.83-.3.52-.72.93-1.34.66A3.79,3.79,0,0,1,68.6,26.35Z"/><path class="cls-1" d="M61.67,91.05c.52,0,1,0,1.56,0a1,1,0,0,1,1.09,1.11,1,1,0,0,1-1.09,1.09c-1.19,0-2.38,0-3.57,0a1,1,0,0,1-1.08-1c0-.75.46-1,1.08-1.13S61,91,61.66,91Z"/></svg>