<svg id="Layer_1" data-name="Layer 1" xmlns="http://www.w3.org/2000/svg" viewBox="0 0 80 80"><defs><style>.cls-1{fill:#680468;}.cls-2{fill:#6a076a;}</style></defs><path class="cls-1" d="M73.34,59.42c0,3.64,0,7.28,0,10.92,0,2-.63,3.63-2.84,4s-3.54.45-3.7-2.63A62.35,62.35,0,0,0,9.86,13c-.85-.08-1.7-.19-2.55-.28-1.59-.16-3.59.41-3.35-2.44.22-2.47,1-4.17,3.77-4.45,16.68-1.68,32,1.09,44.68,13A103.3,103.3,0,0,1,63,29.88C71.82,41,73.34,45.37,73.34,59.42Z"/><path class="cls-1" d="M50.64,74.48a12.26,12.26,0,0,0-1.82,0c-2.87.44-3.88-.48-4.09-3.61C43.45,52,27.34,36.37,7.21,34.48c-2.39-.23-3.3-.67-3.28-3.29.06-8.91-.05-8.91,9-7.32,23.19,4.09,40,21.28,43.44,44.5.08.47.12,1,.16,1.44.39,4.67.39,4.67-4.4,4.67Z"/><path class="cls-1" d="M20.25,74.48c-4,0-8.06,0-12.09,0-2.75,0-4.11-1.38-4.13-4C4,62.63,4,54.74,4,46.86c0-1.7.82-1.91,2.28-1.93C19.79,44.77,34.13,58.45,34.65,72c.07,1.84-.29,2.61-2.32,2.53C28.31,74.38,24.28,74.48,20.25,74.48Z"/><path class="cls-2" d="M73.32,25.1C67.22,18,60.89,11.57,52.19,5.91c6.8,0,12.54-.1,18.27.07a3.07,3.07,0,0,1,2.83,3.3C73.37,14.55,73.32,19.83,73.32,25.1Z"/></svg>