<?xml version="1.0" encoding="utf-8"?>
<!-- Generator: Adobe Illustrator 25.2.1, SVG Export Plug-In . SVG Version: 6.00 Build 0)  -->
<svg version="1.1" id="Layer_1" xmlns="http://www.w3.org/2000/svg" xmlns:xlink="http://www.w3.org/1999/xlink" x="0px" y="0px"
	 viewBox="0 0 80 80" style="enable-background:new 0 0 80 80;" xml:space="preserve">
<style type="text/css">
	.st0{fill:#66A060;}
</style>
<path class="st0" d="M56.3,35.3c-0.5-3.3-3.3-5.7-6.7-5.6c-6,0-10.1,0.8-10.1,4.1s11.7,3.3,16.1,4.6c4.4,1.3,8.4,4.7,6.4,10.7
	c-2,6-7.9,6.7-17.3,6.7s-11.4-7.7-11.4-10.7h5.2c0,0-0.7,4.7,5.5,5.5c6.1,0.8,12,1.2,12.8-3.5c1.1-6.3-19.9-3.1-21.7-9.3
	c-1.6-5.2-0.7-12,9.8-13.1c10.5-1.1,16.2,3.6,16.2,10.5L56.3,35.3z"/>
<path class="st0" d="M5.8,59.8l11.6,6.7c4.2,2.4,9.5,1,11.9-3.2c0.8-1.3,1.2-2.8,1.2-4.4V25.6h-4.7v31.9c0,2.6-2.2,4.8-4.8,4.8
	c-0.8,0-1.6-0.2-2.4-0.6L10.5,57V23L40,6l29.5,17V57L40,74.1l-8.5-4.9l-5.6,2.2L40,79.5l34.2-19.7V20.3L40,0.5L5.8,20.3L5.8,59.8z"
	/>
</svg>
