<svg id="Layer_1" data-name="Layer 1" xmlns="http://www.w3.org/2000/svg" viewBox="0 0 80 80"><defs><style>.cls-1{fill:#f1592a;}</style></defs><path class="cls-1" d="M39.89,78.77C19.07,78.77,1.4,61.18,1.24,40.2A38.24,38.24,0,0,1,12.4,12.94,38.86,38.86,0,0,1,40,1.23,38.3,38.3,0,0,1,67.18,12.52,38.35,38.35,0,0,1,78.76,39.63,38.94,38.94,0,0,1,40.19,78.75ZM40,3.29A36.83,36.83,0,0,0,13.86,14.4,36.18,36.18,0,0,0,3.26,40.21c.15,19.86,16.89,36.52,36.61,36.52h.26A36.93,36.93,0,0,0,76.72,39.66,36.3,36.3,0,0,0,65.74,14,36.11,36.11,0,0,0,40,3.28ZM9.92,51.35V28.7h5.51v2H12.5V49.36h2.93v2ZM28.63,39.8c0,4.13-2.5,6.48-5.9,6.48S17.07,43.63,17.07,40c0-3.78,2.37-6.45,5.84-6.45s5.71,2.78,5.71,6.24ZM19.44,40c0,2.51,1.26,4.49,3.42,4.49s3.4-2,3.4-4.58c0-2.32-1.15-4.51-3.4-4.51S19.42,37.5,19.42,40Zm11.1-6a18.83,18.83,0,0,1,3.27-.28,5.81,5.81,0,0,1,3.53.78,2.59,2.59,0,0,1,1.28,2.3,2.86,2.86,0,0,1-2,2.67,3.11,3.11,0,0,1,2.49,3A3.21,3.21,0,0,1,37.89,45c-.87.78-2.32,1.15-4.57,1.15A23.22,23.22,0,0,1,30.56,46Zm2.23,4.86h1.15c1.55,0,2.43-.73,2.43-1.78s-.88-1.68-2.31-1.68a5.52,5.52,0,0,0-1.28.09Zm0,5.66a11.84,11.84,0,0,0,1.19.05c1.44,0,2.72-.55,2.72-2s-1.24-2-2.79-2H32.77ZM43.51,33.82h2.24v8c0,3.39-1.64,4.53-4.06,4.53a6.51,6.51,0,0,1-1.9-.31l.28-1.8a5,5,0,0,0,1.39.22c1.28,0,2-.58,2-2.72Zm8.64,6.67V42H47.48V40.49ZM63,45.76a7.68,7.68,0,0,1-3.18.55c-3.9,0-6.28-2.44-6.28-6.19a6.18,6.18,0,0,1,5.85-6.5,4.45,4.45,0,0,1,.73,0,7,7,0,0,1,3,.55L62.69,36a6,6,0,0,0-2.41-.46C57.77,35.49,56,37.06,56,40c0,2.7,1.59,4.44,4.29,4.44A6.16,6.16,0,0,0,62.7,44Zm7.06-17.12V51.35H64.58v-2H67.5V30.67H64.56v-2Z"/></svg>