<svg id="Layer_1" data-name="Layer 1" xmlns="http://www.w3.org/2000/svg" xmlns:xlink="http://www.w3.org/1999/xlink" viewBox="0 0 80 80"><defs><style>.cls-1{fill:url(#radial-gradient);}.cls-2{fill:#fff;stroke:#000;stroke-miterlimit:10;stroke-width:2px;}</style><radialGradient id="radial-gradient" cx="40" cy="40.4" r="37.15" gradientUnits="userSpaceOnUse"><stop offset="0" stop-color="#346eb3"/><stop offset="1" stop-color="#0b61ab"/></radialGradient></defs><circle class="cls-1" cx="40" cy="40.4" r="37.15"/><path class="cls-2" d="M32.05,3,46.74,23.62a1.43,1.43,0,0,1-.59,2.13l-2.24,1a1.43,1.43,0,0,0-.53,2.2L54.12,42.34a1.42,1.42,0,0,1-.64,2.24l-2.36.83a1.43,1.43,0,0,0-.66,2.21L63.25,64.46a1.43,1.43,0,0,1-1.82,2.12L27.71,48.21a1.43,1.43,0,0,1-.27-2.32l2.26-2a1.43,1.43,0,0,0-.14-2.24l-14-9.71a1.43,1.43,0,0,1,0-2.35l.75-.53a1.43,1.43,0,0,0,.05-2.31L3.44,17a1.44,1.44,0,0,1,.28-2.45L30.3,2.57A1.44,1.44,0,0,1,32.05,3Z"/></svg>