<?xml version="1.0" encoding="utf-8"?>
<!-- Generator: Adobe Illustrator 25.2.1, SVG Export Plug-In . SVG Version: 6.00 Build 0)  -->
<svg version="1.1" id="Layer_1" xmlns="http://www.w3.org/2000/svg" xmlns:xlink="http://www.w3.org/1999/xlink" x="0px" y="0px"
	 viewBox="0 0 80 80" style="enable-background:new 0 0 80 80;" xml:space="preserve">
<style type="text/css">
	.st0{fill:url(#SVGID_1_);}
	.st1{fill:#6181B6;}
	.st2{fill:#FFFFFF;}
	.st3{fill:#000004;}
</style>
<radialGradient id="SVGID_1_" cx="2581.6914" cy="148.1302" r="113.4545" gradientTransform="matrix(0.46 0 0 0.46 -1169.75 -41.71)" gradientUnits="userSpaceOnUse">
	<stop  offset="0" style="stop-color:#FFFFFF"/>
	<stop  offset="0.5" style="stop-color:#4C6B97"/>
	<stop  offset="1" style="stop-color:#231F20"/>
</radialGradient>
<ellipse class="st0" cx="40" cy="40" rx="40" ry="21"/>
<ellipse class="st1" cx="40" cy="40" rx="38.4" ry="19.5"/>
<path class="st2" d="M47.8,46.3l1.9-9.8c0.4-2.2,0.1-3.9-1.1-4.9s-3-1.5-5.7-1.5h-3.3l0.9-4.8c0-0.2,0-0.4-0.1-0.5
	c-0.1-0.1-0.3-0.2-0.5-0.2h-4.6c-0.3,0-0.6,0.2-0.6,0.5l-2,10.4c-0.1-1.1-0.6-2.2-1.4-3c-1.3-1.5-3.5-2.3-6.3-2.3h-8.8
	c-0.3,0-0.6,0.2-0.6,0.5l-4.1,21.1c0,0.2,0,0.4,0.1,0.5c0.1,0.1,0.3,0.2,0.5,0.2h4.6c0.3,0,0.6-0.2,0.6-0.5l1-5.1h3.4
	c1.5,0,3-0.1,4.5-0.6c1.2-0.4,2.3-1.1,3.2-2c0.8-0.7,1.4-1.5,1.9-2.4l-0.8,4.2c0,0.2,0,0.4,0.1,0.5c0.1,0.1,0.3,0.2,0.5,0.2h4.6
	c0.3,0,0.6-0.2,0.6-0.5l2.3-11.6h3.1c1.3,0,1.7,0.3,1.8,0.4c0.1,0.1,0.3,0.5,0.1,1.6l-1.8,9.4c0,0.2,0,0.4,0.1,0.5
	c0.1,0.1,0.3,0.2,0.5,0.2h4.7C47.5,46.8,47.7,46.6,47.8,46.3z M26.7,38.2c-0.1,1.2-0.7,2.3-1.6,3.1c-1.1,0.7-2.4,1-3.7,0.9h-2
	l1.5-7.6h2.6c1.9,0,2.7,0.4,3,0.8C26.8,35.9,26.9,36.9,26.7,38.2z"/>
<path class="st2" d="M67.3,32.4c-1.3-1.5-3.4-2.3-6.3-2.3h-8.9c-0.3,0-0.6,0.2-0.6,0.5l-4.1,21.1c0,0.2,0,0.4,0.1,0.5
	c0.1,0.1,0.3,0.2,0.5,0.2h4.6c0.3,0,0.6-0.2,0.6-0.5l1-5.1h3.4c1.5,0,3-0.2,4.5-0.6c1.2-0.4,2.3-1.1,3.3-2c0.8-0.7,1.5-1.6,2-2.5
	c0.5-0.9,0.9-1.9,1.1-3C69,36.1,68.6,33.9,67.3,32.4z M62.5,38.2c-0.1,1.2-0.7,2.3-1.6,3.1c-1.1,0.7-2.4,1-3.7,0.9h-2l1.5-7.6h2.6
	c1.9,0,2.7,0.4,3,0.8C62.7,35.9,62.8,36.9,62.5,38.2z"/>
<path class="st3" d="M23.4,34c1.7,0,2.9,0.3,3.5,1c0.6,0.7,0.7,1.8,0.4,3.3c-0.2,1.4-0.8,2.6-1.8,3.5c-1.2,0.8-2.7,1.1-4.1,1h-2.8
	l1.7-8.8H23.4z M12.2,51.8h4.6l1.1-5.6h3.9c1.4,0,2.9-0.2,4.3-0.6c1.1-0.4,2.2-1,3.1-1.8c0.7-0.7,1.4-1.5,1.9-2.3
	c0.5-0.9,0.8-1.8,1-2.8c0.5-2.5,0.1-4.4-1.1-5.8c-1.2-1.4-3.2-2.1-5.8-2.1h-8.8L12.2,51.8z"/>
<path class="st3" d="M35.4,25.1H40l-1.1,5.6h4c2.6,0,4.3,0.4,5.3,1.3c1,0.9,1.3,2.3,0.9,4.3l-1.9,9.8h-4.6l1.8-9.3
	c0.2-1.1,0.1-1.8-0.2-2.1c-0.7-0.5-1.5-0.7-2.3-0.6h-3.7l-2.3,12.1h-4.6L35.4,25.1z"/>
<path class="st3" d="M59.2,34c1.8,0,2.9,0.3,3.5,1c0.6,0.7,0.7,1.8,0.4,3.3c-0.2,1.4-0.8,2.6-1.8,3.5c-1.2,0.8-2.7,1.1-4.1,1h-2.8
	l1.7-8.8L59.2,34z M48,51.8h4.6l1.1-5.6h3.9c1.4,0,2.9-0.2,4.3-0.6c1.1-0.4,2.2-1,3.1-1.8c0.7-0.7,1.4-1.5,1.9-2.3
	c0.5-0.9,0.8-1.8,1-2.8c0.5-2.5,0.1-4.4-1.1-5.8c-1.2-1.4-3.2-2.1-5.8-2.1h-8.8L48,51.8z"/>
</svg>
