<svg id="Layer_1" data-name="Layer 1" xmlns="http://www.w3.org/2000/svg" xmlns:xlink="http://www.w3.org/1999/xlink" viewBox="0 0 80 80"><defs><style>.cls-1{fill:#fff;}.cls-2{mask:url(#mask);}.cls-3{fill:url(#linear-gradient);}.cls-4{fill:url(#linear-gradient-2);}.cls-5{fill:url(#linear-gradient-3);}</style><mask id="mask" x="12.64" y="1.29" width="58.13" height="77.5" maskUnits="userSpaceOnUse"><g id="prefix_a" data-name="prefix  a"><path class="cls-1" d="M67.53,1.29a3.23,3.23,0,0,1,3.24,3.23v71a3.24,3.24,0,0,1-3.24,3.23H15.87a3.23,3.23,0,0,1-3.23-3.23V43.27A3.22,3.22,0,0,1,15.87,40H28.38V23.89a3.23,3.23,0,0,1,3.23-3.23H44.12V4.52a3.23,3.23,0,0,1,3.24-3.23Z"/></g></mask><linearGradient id="linear-gradient" x1="39.71" y1="80.73" x2="73.11" y2="7.72" gradientTransform="matrix(1, 0, 0, -1, 0, 82)" gradientUnits="userSpaceOnUse"><stop offset="0" stop-color="#e6ad10"/><stop offset="1" stop-color="#c87e0e"/></linearGradient><linearGradient id="linear-gradient-2" x1="26.92" y1="60.61" x2="55.05" y2="4.34" gradientTransform="matrix(1, 0, 0, -1, 0, 82)" gradientUnits="userSpaceOnUse"><stop offset="0" stop-color="#f6d751"/><stop offset="1" stop-color="#e6ad10"/></linearGradient><linearGradient id="linear-gradient-3" x1="17.26" y1="43.85" x2="32.75" y2="5.99" gradientTransform="matrix(1, 0, 0, -1, 0, 82)" gradientUnits="userSpaceOnUse"><stop offset="0" stop-color="#f9e589"/><stop offset="1" stop-color="#f6d751"/></linearGradient></defs><g class="cls-2"><path class="cls-3" d="M70.77,4.52v71a3.24,3.24,0,0,1-3.24,3.23H47.36a3.24,3.24,0,0,1-3.24-3.23v-71a3.23,3.23,0,0,1,3.24-3.23H67.53A3.23,3.23,0,0,1,70.77,4.52Z"/><path class="cls-4" d="M55,23.89v54.9H28.38V23.89a3.23,3.23,0,0,1,3.23-3.23H51.79A3.23,3.23,0,0,1,55,23.89Z"/><path class="cls-5" d="M12.64,43.27V75.56a3.23,3.23,0,0,0,3.23,3.23H39.28V43.27A3.23,3.23,0,0,0,36.05,40H15.87A3.22,3.22,0,0,0,12.64,43.27Z"/></g></svg>