<svg id="Layer_1" data-name="Layer 1" xmlns="http://www.w3.org/2000/svg" viewBox="0 0 80 80"><defs><style>.cls-1{fill:#fc7754;stroke:#fc7754;stroke-miterlimit:10;}</style></defs><path class="cls-1" d="M31.23,4a16.1,16.1,0,0,1,2.47.88A7.06,7.06,0,0,1,37,13.92c-.07.17-.12.35-.19.54a2.56,2.56,0,0,0,.27.23l7.48,5.62c3.59-2.74,7-2.61,10.43.44,2.26-1.41,4.54-2.83,6.81-4.28.13-.08.15-.49.09-.7a7.19,7.19,0,1,1,8.51,4.76,6.92,6.92,0,0,1-6.61-1.79l-.44-.38c-2.28,1.42-4.53,2.84-6.8,4.24-.37.23-.26.47-.17.77a6.91,6.91,0,0,1-1.42,6.89,6.78,6.78,0,0,1-6.82,2.33,6.88,6.88,0,0,1-5.36-4.74,7.06,7.06,0,0,1,.39-5.56l-1-.77c-2.1-1.57-4.2-3.14-6.28-4.73a.72.72,0,0,0-1.07,0,6.89,6.89,0,0,1-7.51.85c-.34-.15-.58-.27-.9.11-3.16,3.79-6.35,7.57-9.52,11.35-.06.07-.1.15,0,.18a25.82,25.82,0,0,1,1.31,3.35,7.15,7.15,0,1,1-14,2.71A4,4,0,0,0,4,34.88V33.2c0-.09.09-.17.11-.25a7.1,7.1,0,0,1,10.17-5.43.68.68,0,0,0,1-.24q4.59-5.51,9.22-11a.68.68,0,0,0,.06-1A7.06,7.06,0,0,1,26.69,5,16.36,16.36,0,0,1,29.4,4Zm32.7,9.57a4.75,4.75,0,0,0,4.72,4.8,4.79,4.79,0,1,0-4.72-4.8ZM30.33,16a4.79,4.79,0,1,0-4.75-4.77A4.74,4.74,0,0,0,30.33,16Zm24,9.59a4.78,4.78,0,0,0-9.56,0,4.78,4.78,0,1,0,9.56,0Zm-38.35,8.4a4.78,4.78,0,1,0-4.74,4.79A4.8,4.8,0,0,0,15.94,33.94Z"/><path class="cls-1" d="M4,58.48c.46-1.4,1.25-2.71,2.8-2.8a74.15,74.15,0,0,1,8.82,0,3.11,3.11,0,0,1,2.71,3.2c.06,2.55,0,5.11,0,7.66v7.66c0,1.34-.36,1.68-1.72,1.68-3.65,0-7.31,0-11,0A1.74,1.74,0,0,1,4,75.06Zm11.93,15c0-.18,0-.3,0-.41,0-4.56,0-9.12,0-13.68,0-1-.44-1.46-1.53-1.46H8c-1.28,0-1.67.39-1.67,1.68V72.8c0,.23,0,.45,0,.68Z"/><path class="cls-1" d="M61.51,57.13V40.35a3.61,3.61,0,0,1,2.62-3.84,2.18,2.18,0,0,1,.62-.11c2.62,0,5.24-.08,7.85,0a3.44,3.44,0,0,1,3.28,3.4c0,.23,0,.47,0,.7V74.07c0,1.49-.34,1.83-1.8,1.84H63.21c-1.33,0-1.7-.36-1.7-1.71Zm12,16.35V40.38c0-1.23-.41-1.63-1.66-1.63H65.66c-1.41,0-1.74.33-1.74,1.73v33Z"/><path class="cls-1" d="M23.16,58.35q0-7.83,0-15.67a3.58,3.58,0,0,1,2.68-3.79,5.29,5.29,0,0,1,1.32-.14h6.32c2.63,0,4,1.45,4,4.1V74.11c0,1.44-.35,1.79-1.77,1.8H25c-1.48,0-1.8-.33-1.8-1.83Zm2.41,15.1h9.55c0-.17,0-.29,0-.4V42.7c0-1.11-.42-1.54-1.53-1.55H27.37c-1.5,0-1.8.3-1.8,1.81q0,14.85,0,29.71Z"/><path class="cls-1" d="M56.7,61.93V74.15c0,1.41-.34,1.75-1.72,1.75H44c-1.3,0-1.69-.38-1.69-1.66q0-12.15,0-24.3a3.63,3.63,0,0,1,4-4c2.18,0,4.35,0,6.53,0a3.59,3.59,0,0,1,3.89,3.9C56.71,53.87,56.7,57.9,56.7,61.93ZM54.26,73.49c0-.21,0-.35,0-.49V49.84c0-1.11-.41-1.49-1.55-1.49H46.5c-1.43,0-1.78.34-1.78,1.77V73.49Z"/></svg>