<svg id="Layer_1" data-name="Layer 1" xmlns="http://www.w3.org/2000/svg" viewBox="0 0 80 80"><defs><style>.cls-1{fill:#75a928;}.cls-2{fill:#bc1142;}</style></defs><path d="M28,2a2.12,2.12,0,0,0-1.23.5,2.8,2.8,0,0,0-3.14.3c-1.49-.19-2,.2-2.34.67-.33,0-2.44-.34-3.41,1.11-2.44-.29-3.21,1.43-2.33,3-.5.77-1,1.53.15,3-.42.82-.16,1.7.81,2.78A2.34,2.34,0,0,0,17.7,16c-.17,1.58,1.44,2.49,1.92,2.82.19.91.57,1.78,2.42,2.26.3,1.37,1.41,1.6,2.48,1.89C21,25.06,17.94,27.77,18,34.41l-.52.93a11.25,11.25,0,0,0-2,16.86A30.73,30.73,0,0,0,17,57.27a12.35,12.35,0,0,0,7.7,9.86,26.35,26.35,0,0,0,7.38,4.19,12.21,12.21,0,0,0,9.06,4.06s6.34-1.12,9.2-4.06a26.14,26.14,0,0,0,7.37-4.19,12.34,12.34,0,0,0,7.71-9.86A31.71,31.71,0,0,0,67,52.2a11.26,11.26,0,0,0-2-16.86l-.52-.93c0-6.64-3-9.35-6.56-11.41,1.07-.29,2.18-.53,2.48-1.89,1.84-.48,2.23-1.35,2.41-2.26.48-.33,2.09-1.24,1.92-2.82a2.33,2.33,0,0,0,1.15-2.59c1-1.08,1.23-2,.82-2.78,1.16-1.47.65-2.23.15-3,.87-1.61.1-3.33-2.34-3-1-1.45-3.08-1.12-3.41-1.11-.36-.47-.85-.86-2.33-.67a2.81,2.81,0,0,0-3.15-.3c-1.32-1-2.19-.2-3.19.11-1.59-.52-2,.2-2.74.49-1.74-.37-2.27.43-3.1,1.27l-1,0c-2.63,1.55-3.93,4.7-4.39,6.32-.47-1.62-1.77-4.77-4.39-6.32l-1,0c-.84-.84-1.37-1.64-3.11-1.27-.78-.29-1.14-1-2.74-.49A6.29,6.29,0,0,0,28,2L22.48,20"/><path class="cls-1" d="M22.81,8.84c7,3.59,11,6.5,13.23,9-1.13,4.55-7.06,4.76-9.23,4.63a1.59,1.59,0,0,0,1-.83c-.54-.39-2.47,0-3.82-.8a1.26,1.26,0,0,0,1-.59,11,11,0,0,1-3.44-1.43,1.91,1.91,0,0,0,1.4-.29,13.49,13.49,0,0,1-3.29-2c.59,0,1.22,0,1.4-.23a12.45,12.45,0,0,1-2.64-2.14c.82.1,1.17,0,1.37-.13a10.4,10.4,0,0,1-2.26-2.49,1.66,1.66,0,0,0,1.57,0c-.27-.6-1.41-1-2.07-2.37.64.07,1.32.14,1.46,0a6.93,6.93,0,0,0-1.32-2.61,23.11,23.11,0,0,0,3.38-.11l-.86-.87a6.79,6.79,0,0,1,3.73.37c.45-.35,0-.8-.56-1.26a13.57,13.57,0,0,1,3.12.78c.49-.45-.33-.9-.73-1.35A7.88,7.88,0,0,1,28.46,5.3c.54-.51,0-1-.33-1.4a7.91,7.91,0,0,1,2.74,1.76c.25-.33.62-.58.17-1.37a6.87,6.87,0,0,1,2.19,1.9c.58-.37.34-.88.35-1.35A21.83,21.83,0,0,1,36,7.32a2.11,2.11,0,0,0,.41-1.09c2.34,2.28,5.66,8,.85,10.28a45.26,45.26,0,0,0-14.4-7.67h0m37,0c-7,3.59-11,6.5-13.23,9,1.14,4.55,7.06,4.76,9.23,4.63a1.59,1.59,0,0,1-.95-.83c.55-.39,2.47,0,3.82-.8a1.26,1.26,0,0,1-1-.59,11.2,11.2,0,0,0,3.45-1.43,1.93,1.93,0,0,1-1.41-.29,13.55,13.55,0,0,0,3.3-2c-.59,0-1.23,0-1.41-.23a12.78,12.78,0,0,0,2.65-2.14c-.83.1-1.18,0-1.37-.13a10.84,10.84,0,0,0,2.26-2.49,1.68,1.68,0,0,1-1.58,0c.27-.6,1.42-1,2.08-2.37-.65.07-1.33.14-1.47,0a6.85,6.85,0,0,1,1.32-2.61,22.85,22.85,0,0,1-3.37-.11l.85-.87a6.79,6.79,0,0,0-3.73.37c-.45-.35,0-.8.56-1.26a13.48,13.48,0,0,0-3.11.78c-.5-.45.32-.9.72-1.35A7.88,7.88,0,0,0,54.11,5.3c-.54-.51,0-1,.33-1.4A7.91,7.91,0,0,0,51.7,5.66a1,1,0,0,1-.17-1.38,7,7,0,0,0-2.18,1.91c-.59-.37-.35-.88-.36-1.35a22.75,22.75,0,0,0-2.37,2.48,2,2,0,0,1-.4-1.09c-2.35,2.28-5.67,8-.86,10.28a45.26,45.26,0,0,1,14.4-7.67h0"/><path class="cls-2" d="M49.72,55.19c0,4.25-3.69,7.71-8.3,7.74S33.06,59.52,33,55.28v-.09c0-4.24,3.69-7.7,8.29-7.73s8.36,3.41,8.39,7.65v.08m-13.17-22c3.46,2.27,4.08,7.4,1.39,11.47S30.27,50.22,26.82,48s-4.08-7.4-1.39-11.46S33.1,31,36.55,33.22m9.33-.41c-3.46,2.27-4.08,7.4-1.39,11.47s7.67,5.53,11.12,3.26,4.08-7.4,1.39-11.46-7.66-5.53-11.12-3.27m-26.6,4.12C23,35.92,20.54,52.36,17.5,51c-3.34-2.68-4.41-10.55,1.78-14.08m43.12-.21c-3.73-1-1.26,15.44,1.77,14.09,3.34-2.69,4.42-10.55-1.77-14.09M49.72,24.48c6.44-1.09,11.8,2.74,11.58,9.72-.21,2.68-13.95-9.32-11.58-9.72m-17.79-.2C25.49,23.19,20.13,27,20.35,34c.21,2.67,13.95-9.33,11.58-9.72m9.25-1.63c-3.84-.1-7.53,2.85-7.54,4.56,0,2.08,3,4.21,7.57,4.27s7.57-1.71,7.59-3.86c0-2.43-4.21-5-7.62-5h0m.23,42.66c3.35-.14,7.85,1.08,7.86,2.71s-4.08,5.15-8.08,5.08c-4.14.18-8.2-3.4-8.15-4.64-.06-1.81,5-3.23,8.37-3.15M29,55.68c2.38,2.87,3.47,7.92,1.48,9.41-1.88,1.14-6.46.67-9.71-4-2.19-3.92-1.91-7.91-.37-9.08,2.3-1.4,5.86.49,8.6,3.67h0m24.27-.91c-2.58,3-4,8.54-2.13,10.31,1.8,1.38,6.63,1.19,10.2-3.76C64,58,63.1,52.43,61.62,51c-2.2-1.7-5.35.47-8.31,3.81h0"/></svg>