<svg xmlns="http://www.w3.org/2000/svg" viewBox="0 0 150 150"><title>react-logo</title><path d="M125.79,52.21q-3.36-1.33-7.07-2.46-3.25-1-6.72-1.82a146.3,146.3,0,0,0-19.51-3.21c-3-.3-6.06-.52-9.17-.66-2.74-.13-5.51-.19-8.31-.19s-5.57.06-8.32.19c-3.11.14-6.17.36-9.17.66A146.26,146.26,0,0,0,38,47.94q-3.47.83-6.72,1.82-3.7,1.13-7.07,2.46C9.57,58,1.5,66.09,1.5,75S9.57,92,24.21,97.79q3.36,1.33,7.07,2.46,3.25,1,6.72,1.82a146.26,146.26,0,0,0,19.52,3.22c3,.3,6.06.52,9.17.66,2.74.13,5.51.19,8.31.19s5.57-.06,8.31-.19q4.66-.21,9.17-.66A145.85,145.85,0,0,0,112,102.06q3.47-.83,6.72-1.82c2.46-.75,4.83-1.57,7.07-2.45C140.44,92,148.5,83.91,148.5,75S140.44,58,125.79,52.21Zm11.35,31c-3.16,3-8,5.75-13.91,8.1q-3,1.18-6.3,2.2t-6.71,1.82c-4,.95-8.2,1.73-12.58,2.33q-4.39.61-9,1c-4.44.36-9,.53-13.65.53S65.8,99,61.35,98.63c-3.06-.24-6.07-.57-9-1-4.39-.6-8.6-1.38-12.58-2.33q-3.48-.83-6.71-1.82t-6.3-2.2C20.83,89,16,86.17,12.86,83.22c-2.92-2.72-4.4-5.49-4.4-8.22s1.48-5.49,4.4-8.22c3.16-3,8-5.75,13.91-8.1q3-1.18,6.3-2.2t6.71-1.82c4-.95,8.2-1.73,12.58-2.33,2.92-.4,5.93-.73,9-1,4.44-.35,9-.53,13.65-.53s9.21.18,13.65.53q4.6.36,9,1c4.39.6,8.6,1.38,12.58,2.33q3.48.83,6.71,1.82t6.3,2.2c5.94,2.35,10.75,5.14,13.91,8.1,2.92,2.72,4.4,5.49,4.4,8.22S140.06,80.49,137.14,83.22Z" style="fill:#5adafd"/><path d="M69.46,130.39q2.82-2.25,5.65-4.91,2.47-2.32,4.93-4.92a146.3,146.3,0,0,0,12.51-15.32q2.63-3.68,5.14-7.62Q99.9,94.15,102,90.5t4-7.31c1.43-2.76,2.76-5.53,4-8.28a146.26,146.26,0,0,0,6.93-18.52q1-3.42,1.77-6.74c.58-2.51,1-5,1.39-7.35,2.28-15.58-.72-26.6-8.45-31S92.84,9.79,80.53,19.61q-2.82,2.25-5.65,4.9Q72.41,26.83,70,29.44A146.26,146.26,0,0,0,57.45,44.76q-2.63,3.68-5.14,7.63Q50.1,55.85,48,59.5t-4,7.3q-2.14,4.15-4,8.28A145.85,145.85,0,0,0,33.1,93.61q-1,3.42-1.77,6.74c-.58,2.51-1,5-1.39,7.35-2.28,15.58.72,26.6,8.45,31S57.16,140.21,69.46,130.39Zm-32.54-5.6c-1-4.21-1-9.77-.09-16.09q.47-3.19,1.23-6.55t1.76-6.73c1.16-3.93,2.58-8,4.25-12.07q1.66-4.11,3.64-8.28c1.9-4,4-8.08,6.33-12.1s4.74-7.89,7.26-11.57q2.6-3.8,5.32-7.31c2.71-3.5,5.48-6.77,8.29-9.75q2.45-2.6,4.93-4.91t5-4.37c5-4,9.81-6.76,13.95-8,3.81-1.17,6.95-1.08,9.32.28s4,4,4.93,7.91c1,4.21,1,9.77.09,16.09q-.47,3.19-1.23,6.55t-1.76,6.73c-1.16,3.93-2.58,8-4.25,12.07-1.11,2.74-2.32,5.5-3.64,8.28C100.38,79,98.27,83,96,87s-4.74,7.89-7.26,11.57q-2.6,3.81-5.32,7.31c-2.71,3.5-5.48,6.77-8.29,9.75q-2.45,2.6-4.93,4.91t-5,4.37c-5,4-9.81,6.76-13.95,8-3.81,1.17-6.95,1.08-9.32-.28S37.83,128.68,36.93,124.79Z" style="fill:#5adafd"/><path d="M120.07,107.67q-.53-3.58-1.39-7.35-.76-3.31-1.77-6.74A146.3,146.3,0,0,0,110,75.06q-1.85-4.13-4-8.28-1.88-3.66-4-7.3t-4.31-7.11q-2.5-3.94-5.14-7.62A146.26,146.26,0,0,0,80,29.44q-2.45-2.6-4.93-4.92-2.82-2.65-5.65-4.9C57.13,9.8,46.09,6.84,38.36,11.28s-10.72,15.47-8.43,31q.53,3.58,1.39,7.35.76,3.31,1.78,6.73A146.26,146.26,0,0,0,40,74.94q1.86,4.12,4,8.28,1.88,3.66,4,7.3t4.31,7.11q2.51,3.93,5.14,7.62A145.85,145.85,0,0,0,70,120.57q2.45,2.6,4.93,4.92,2.82,2.64,5.65,4.9c12.31,9.81,23.35,12.77,31.08,8.33S122.36,123.25,120.07,107.67ZM98.85,133c-4.13-1.27-9-4-14-8q-2.52-2-5-4.36t-4.93-4.91c-2.81-3-5.58-6.25-8.29-9.75q-2.71-3.5-5.32-7.31c-2.52-3.67-5-7.54-7.27-11.56S49.62,79,47.71,75c-1.32-2.78-2.53-5.54-3.64-8.28C42.4,62.57,41,58.53,39.82,54.6q-1-3.43-1.77-6.73t-1.23-6.55c-.93-6.32-.9-11.88.09-16.09.91-3.89,2.56-6.55,4.93-7.91s5.5-1.45,9.32-.28c4.13,1.27,9,4,14,8q2.52,2,5,4.36t4.93,4.91c2.81,3,5.58,6.25,8.29,9.75q2.71,3.5,5.32,7.31c2.52,3.68,5,7.54,7.26,11.57s4.43,8.07,6.34,12.1q2,4.16,3.64,8.28c1.66,4.1,3.09,8.14,4.25,12.07q1,3.43,1.77,6.73t1.23,6.55c.93,6.32.9,11.88-.09,16.09-.91,3.89-2.56,6.55-4.93,7.91S102.67,134.14,98.85,133Z" style="fill:#5adafd"/><circle cx="75" cy="75" r="13.81" style="fill:#5adafd"/></svg>