<svg id="Layer_1" data-name="Layer 1" xmlns="http://www.w3.org/2000/svg" viewBox="0 0 80 80"><defs><style>.cls-1{fill:#007cc2;}</style></defs><g id="layer1"><path id="path2440" class="cls-1" d="M41.11,2.39a30.34,30.34,0,0,0-8,.93C20.4,6.49,6.19,22.82,21.7,41.65L31,52.85,33.58,56c1.75,2.09,4.62,2.05,6.73.31s2.72-4.61,1-6.73l-1.06-1.28h.05c-.67-.81-.82-.94-1.51-1.78-3.35-4-7.18-8.68-7.18-8.68-6.73-8.17-3.73-18.27,5.41-24,8-5.06,22.82-3.25,27.91,5.05C61.69,9.45,52.35,2.65,41.11,2.39ZM43,22.15a5.28,5.28,0,0,0-3.5,1.29c-2.12,1.75-2.72,4.62-1,6.73l.58.71c4,4.82,9.35,11.3,9.35,11.3,6.73,8.17,3.73,18.23-5.41,24-8,5.06-22.82,3.25-27.91-5,4,11.65,17.18,19.26,31.81,15.6,12.7-3.18,26.9-19.46,11.39-38.28L47.44,25.3,46.2,23.75A4.34,4.34,0,0,0,43,22.15Z"/></g></svg>