<svg id="Layer_1" data-name="Layer 1" xmlns="http://www.w3.org/2000/svg" viewBox="0 0 70 70"><defs><style>.cls-1{fill:#f05339;}.cls-2{fill:#fff;}</style></defs><path class="cls-1" d="M68.93,19.13a19.23,19.23,0,0,0-.43-3.93,12.79,12.79,0,0,0-4-7A12.54,12.54,0,0,0,61,5.88a14.56,14.56,0,0,0-4.1-1.26c-1.4-.26-3-.26-4.37-.39H17.73a26.87,26.87,0,0,0-3.24.26,12.5,12.5,0,0,0-3.12.77l-1,.38A18.36,18.36,0,0,0,7.7,7.29c-.28.26-.57.39-.85.63a11.37,11.37,0,0,0-2.57,3.16,11.58,11.58,0,0,0-1.4,3.82,36.78,36.78,0,0,0-.42,3.91V49.12a18.54,18.54,0,0,0,.42,3.93,12.79,12.79,0,0,0,4,7,12.65,12.65,0,0,0,3.53,2.28,14.91,14.91,0,0,0,4.1,1.27c1.4.26,3,.26,4.37.38H52.58A25.62,25.62,0,0,0,57,63.57a15.17,15.17,0,0,0,4-1.26A16.23,16.23,0,0,0,64.63,60a12.71,12.71,0,0,0,4-7A36.87,36.87,0,0,0,69,49.13v-30Z"/><path class="cls-2" d="M48.47,51.62C42.54,54.7,34.4,55,26.23,51.86A34.06,34.06,0,0,1,10.56,39.8a27.22,27.22,0,0,0,5.8,3.12c8.45,3.48,16.91,3.33,22.85,0a115.14,115.14,0,0,1-21-19.61,21.91,21.91,0,0,1-2.82-3.48A161.29,161.29,0,0,0,35.81,33.74,138,138,0,0,1,21.43,17.52,140.88,140.88,0,0,0,45.19,35l.92.49a15.79,15.79,0,0,0,.64-1.74c2-6.47-.28-13.82-5.21-19.91C53,20.06,59.73,31.73,56.91,41.5a2.57,2.57,0,0,1-.23.78l.09.1c5.65,6.35,4.09,13.06,3.38,11.79-3.09-5.3-8.81-3.67-11.68-2.55Z"/></svg>