<svg id="Layer_1" data-name="Layer 1" xmlns="http://www.w3.org/2000/svg" viewBox="0 0 80 80"><defs><style>.cls-1{fill:#f6bd3a;}.cls-2{fill:#eb8c23;}.cls-3{fill:#e35a2b;}</style></defs><path class="cls-1" d="M34.87,43l10.39-6,10.25,6-10.25,5.9L34.87,43.08ZM3.71,25.13,45.26,1.53,76.16,19.1,65.9,36.92,45.26,25.13,14.1,42.82Z"/><path class="cls-2" d="M34.87,66.54V54.75l10.26-5.9L55.51,43v11.8L45.26,60.64v11.8l-10.39,6Zm0-23.59-10.39-5.9L14.1,42.82V31L45.26,13.33V36.92ZM65.77,31V25.13l10.39-6,.13,11.8-10.39,6Z"/><path class="cls-3" d="M24.48,72.18V37.05l10.26-5.77L34.87,43l10.39,5.77V60.65L34.87,55.13V78.47ZM8.84,39.74,3.71,36.67V25.13L14.1,31V42.82ZM45.26,25.13V13.33l20.51,11.8.13,11.79L45.26,25.13Z"/></svg>