<svg id="Layer_1" data-name="Layer 1" xmlns="http://www.w3.org/2000/svg" viewBox="0 0 100 100"><defs><style>.cls-1{fill:#0092ff;stroke:#0092ff;stroke-miterlimit:10;}</style></defs><path class="cls-1" d="M97.26,89.34c-1.92,2-3.81,4-5.78,6a2.22,2.22,0,0,1-3,0c-.56-.47-1.07-1-1.59-1.53-3.65-3.65-7.29-7.31-11-10.94a2.8,2.8,0,0,1-1-2.71.75.75,0,0,0-.12-.57c-1-1.06-2-2.09-3.23-3.31,0,.59-.05.91-.05,1.23,0,4.36,0,8.72,0,13.08,0,2.23-.83,3.07-3,3.07h-38a7,7,0,0,1-.92,0,1.24,1.24,0,0,1-1.11-1.18,1.22,1.22,0,0,1,.9-1.42,4.46,4.46,0,0,1,1.27-.13H68.76V77.49L66.3,78.54v6.8c0,2.14-.88,3-3,3H11.07v2.5h1c3.56,0,7.12,0,10.68,0a3.58,3.58,0,0,1,1.09.13,1.35,1.35,0,0,1-.23,2.6,3.38,3.38,0,0,1-.55,0H10.89a2.39,2.39,0,0,1-2.66-2.69c0-.82,0-1.64,0-2.58-.92,0-1.74,0-2.56,0a2.46,2.46,0,0,1-2.74-2.73q0-39.29,0-78.57A2.43,2.43,0,0,1,5.66,4.32c1.93,0,3.87,0,5.8,0h51.4c.37,0,.74,0,1.11,0a2.38,2.38,0,0,1,2.32,2.38c0,.46,0,.93,0,1.39V9.59h2.06c2.43,0,3.23.81,3.23,3.27V34.17c1.31.19,1.67,1.24,2,2.31a6.86,6.86,0,0,0,4.75,4.73l.87.31a1.93,1.93,0,0,1,0,3.67l-.82.32c4.23,8.34,3.9,16.47-1,24.46,1.15,1.13,2.29,2.29,3.47,3.41a1,1,0,0,0,.79.21,2.43,2.43,0,0,1,2.28.71c1.48,1.46,3,2.94,4.43,4.42a1.41,1.41,0,0,1,.16,2.06,1.37,1.37,0,0,1-2.1-.1c-1.4-1.38-2.77-2.78-4.09-4.11L78.1,80.8,90,92.71l4.24-4.25c-1-.94-2.06-2-3.12-3a1.18,1.18,0,0,1-.26-1.66,3.29,3.29,0,0,1,1.46-.68c.17,0,.47.15.64.31,1.25,1.23,2.48,2.46,3.7,3.72a5.15,5.15,0,0,1,.57.93ZM39.87,42.71H14.92a3.77,3.77,0,0,1-1-.06A1.37,1.37,0,0,1,14.07,40a7.1,7.1,0,0,1,.92,0q13.41,0,26.81,0a2,2,0,0,0,1.06-.16c1.77-1.23,3.5-2.51,5.28-3.81-1,0-2,0-3,0a1.34,1.34,0,0,1-1.32-1.76,1.45,1.45,0,0,1,1.59-1c2.4,0,4.8,0,7.19,0,1.24,0,2.6-.43,3.67.65.05,0,.18,0,.27,0l7,.29V33.4c0-2.37,0-4.73,0-7.09,0-1.24,1.14-2,2-1.31a2.09,2.09,0,0,1,.69,1.46c.07,2.7,0,5.41,0,8.11,0,.28.12.71.33.82a21.6,21.6,0,0,0,2.11.92V12.4H66.3v1c0,2,0,4.05,0,6.08A1.38,1.38,0,0,1,64.4,21a1.45,1.45,0,0,1-.87-1.57c0-3.74,0-7.49,0-11.24v-1H5.75V85.51H63.5V79.46a1.91,1.91,0,0,0-.21,0l-.45.09a18.92,18.92,0,0,1-9.22-.11c-3.19-1-6.4-.92-9.64-.92q-14.46,0-28.92,0c-.31,0-.62,0-.92,0a1.33,1.33,0,0,1-1.29-1.4,1.3,1.3,0,0,1,1.27-1.33,7,7,0,0,1,.92,0H44.72c-1.24-1.18-2.36-2.29-3.54-3.34a2.39,2.39,0,0,0-1.32-.58c-1.41-.07-2.83,0-4.24,0-1.15,0-1.87-1-1.32-1.92A2.18,2.18,0,0,1,35.71,69a21,21,0,0,1,2.88,0,28.33,28.33,0,0,1-1.43-3c-.28-.84-.75-1-1.55-1C28.73,65,21.85,65,15,65a7.63,7.63,0,0,1-.83,0,1.28,1.28,0,0,1-1.29-1.3A1.29,1.29,0,0,1,14,62.3a4.67,4.67,0,0,1,.92,0h20.9l-.59-3.92H14.93c-.42,0-1,0-1.24-.18a2,2,0,0,1-.76-1.36c.05-.43.63-.85,1.06-1.17.2-.15.59,0,.9,0H35.25l.57-4H15c-.31,0-.62,0-.92,0a1.25,1.25,0,0,1-1.21-1.18,1.26,1.26,0,0,1,1-1.47,3.66,3.66,0,0,1,1-.09c3.37,0,6.75,0,10.13,0,3.65,0,7.31,0,11,0a1.28,1.28,0,0,0,.94-.44C37.89,46.54,38.85,44.66,39.87,42.71Zm22.51-.09a14.76,14.76,0,0,0-16.94,6.74A14.92,14.92,0,0,0,67.67,68.53c5.93-4.79,6.37-12.35,4.7-16.18-1.6.36-2.44,0-2.86-1.46a7.64,7.64,0,0,0-5.63-5.62C62.52,44.88,62.13,44.09,62.38,42.62Zm5.49-3.49a20.08,20.08,0,0,0-25.28,5A20.28,20.28,0,0,0,72.11,71.76c8-7.45,7.72-18.67,3.64-25l-1.14,1.34a1.44,1.44,0,0,0-.16,1.68c2.61,6.36,2,12.44-2.19,17.89A16.67,16.67,0,0,1,55.5,74.32c-7.09-1.16-12-5.35-14-12.24s-.49-13,4.71-17.95S57.67,38,64.5,40.39A2.2,2.2,0,0,0,66.84,40C67.17,39.78,67.48,39.48,67.87,39.13Zm-1.32,4.24a9.16,9.16,0,0,1,4.88,4.87,9.08,9.08,0,0,1,4.9-4.88,9.16,9.16,0,0,1-4.91-4.86A9.35,9.35,0,0,1,66.55,43.37ZM77,77.5l2-1.85-3.17-3.17-2,1.82Z"/><path class="cls-1" d="M82.23,32.58c2,.13,2.51.43,2.55,1.37s-.41,1.24-2.58,1.52c-.13,1,.22,2.55-1.43,2.56s-1.31-1.5-1.44-2.6c-1.08-.14-2.6.28-2.56-1.45s1.47-1.28,2.55-1.4c.17-1.06-.26-2.48,1.47-2.58C81.7,30,82,30.46,82.23,32.58Z"/><path class="cls-1" d="M27.25,33.22H39.49a5.65,5.65,0,0,1,1,.06,1.35,1.35,0,0,1,0,2.65,3.59,3.59,0,0,1-.73,0h-25a4.5,4.5,0,0,1-.64,0,1.36,1.36,0,0,1,0-2.7,7,7,0,0,1,.92,0Z"/><path class="cls-1" d="M34.65,15.93H46.24a5.7,5.7,0,0,1,1,.05,1.21,1.21,0,0,1,1,1.22,1.22,1.22,0,0,1-.95,1.39,4.67,4.67,0,0,1-1.18.09H23.06c-1.5,0-2.16-.43-2.16-1.39s.64-1.37,2.15-1.37Z"/><path class="cls-1" d="M42.73,26.51H54.41a3.82,3.82,0,0,1,.83,0,1.38,1.38,0,0,1,0,2.71,3.4,3.4,0,0,1-.64,0H30.84a3.51,3.51,0,0,1-.65,0A1.3,1.3,0,0,1,29,27.93a1.28,1.28,0,0,1,1.1-1.38,4,4,0,0,1,.92,0Z"/><path class="cls-1" d="M22.49,71.75H14.58c-.81,0-1.48-.2-1.7-1.08A1.3,1.3,0,0,1,14.05,69,12.94,12.94,0,0,1,15.7,69H29.87c.31,0,.61,0,.92,0a1.39,1.39,0,0,1,1.38,1.33,1.36,1.36,0,0,1-1.4,1.39c-1.69,0-3.38,0-5.06,0Z"/><path class="cls-1" d="M19.94,26.51c1.81,0,3.62,0,5.42,0,1.05,0,1.7.57,1.68,1.41s-.64,1.35-1.64,1.35c-3.65,0-7.29,0-10.94,0-1,0-1.6-.52-1.61-1.36s.57-1.39,1.58-1.4C16.26,26.5,18.1,26.51,19.94,26.51Z"/><path class="cls-1" d="M58.25,53.55h8c1.11,0,1.7.48,1.71,1.35s-.6,1.4-1.67,1.41h-16c-1.08,0-1.69-.55-1.67-1.42s.6-1.34,1.72-1.34Z"/><path class="cls-1" d="M58.34,58.69c2.66,0,5.33,0,8,0a1.45,1.45,0,0,1,1.55.9A1.32,1.32,0,0,1,67,61.34a4.26,4.26,0,0,1-1.18.11H50.75a5.93,5.93,0,0,1-.73,0,1.37,1.37,0,0,1-1.4-1.4,1.33,1.33,0,0,1,1.44-1.34c1.75,0,3.49,0,5.24,0Z"/><path class="cls-1" d="M58.28,48.4h6.26c1,0,1.62.48,1.65,1.32s-.59,1.44-1.64,1.44q-6.25,0-12.51,0c-1.06,0-1.68-.57-1.66-1.43S51,48.41,52,48.4Z"/><path class="cls-1" d="M58.28,66.59c-1.28,0-2.57,0-3.86,0-1.08,0-1.72-.54-1.71-1.39s.64-1.36,1.72-1.36c2.58,0,5.15,0,7.73,0,1.08,0,1.72.54,1.71,1.37s-.64,1.37-1.72,1.38C60.86,66.61,59.57,66.59,58.28,66.59Z"/></svg>