<svg id="Layer_1" data-name="Layer 1" xmlns="http://www.w3.org/2000/svg" xmlns:xlink="http://www.w3.org/1999/xlink" viewBox="0 0 56 56"><defs><style>.cls-1{fill:none;}.cls-2{clip-path:url(#clip-path);}.cls-3{fill:#0073a8;fill-rule:evenodd;}</style><clipPath id="clip-path"><rect class="cls-1" x="0.13" y="0.13" width="57.3" height="57.88"/></clipPath></defs><title>logo-wordpress</title><g class="cls-2"><path class="cls-3" d="M52.29,14.53A27.55,27.55,0,0,0,24.07.41C2.62,3.42-8.68,30.59,8.45,47.29c20.71,20.19,59-3.26,43.84-32.76ZM22.07,53.32C11,51.45,1.62,39.91,1.4,28.13,1.11,13.42,11.33,3.71,23.58,1.92c17.14-2.51,32.6,10,30.24,29.23C51.88,46.94,37.17,55.91,22.07,53.32Zm-5-37.8c-.68.83-2.85.17-3.53,1,2.76,8.32,5.19,17,8.58,24.68,3.22-8.35,6.77-16.47,1.51-24.68-.85-.85-3.69.31-3.53-1.53,2.25-.89,12.35-.89,14.61,0,0,1.68-2.84.52-3.53,1.53,2.79,8.12,5,16.82,8.58,24.19.95-6.11,4.17-8.31,4-14.62-.16-7.19-9.17-13.5-.51-16.63-8.44-9.06-31.07-6.29-34.77,5,3.37.72,7.93-1.51,8.58,1ZM39.7,47.29C48.87,43.91,55.27,27.24,48.27,17c.16,11.1-5.84,20.35-8.57,30.25ZM17,48.29A317,317,0,0,0,5.93,18.06C1.09,30.65,7.28,44.21,17,48.29Zm4,1.51c3.34,1.74,10.65,1.22,14.12,0C33,42.94,31.28,35.53,27.61,30.15A198.91,198.91,0,0,1,21.05,49.8Zm0,0"/></g></svg>