<svg id="Layer_1" data-name="Layer 1" xmlns="http://www.w3.org/2000/svg" viewBox="0 0 100 100"><defs><style>.cls-1{fill:#ffb300;stroke:#ffb300;stroke-miterlimit:10;stroke-width:2px;}</style></defs><path class="cls-1" d="M3.08,40.21c.24-1.59.41-3.19.72-4.77A38.3,38.3,0,0,1,19,11.3,38.09,38.09,0,0,1,43.5,3.68,39.14,39.14,0,0,1,80.66,36a42.08,42.08,0,0,1-.14,14.55,29.76,29.76,0,0,0,0,5H92.77c2.61,0,4,1.34,4,3.92,0,2.93,0,5.85,0,8.78a7.33,7.33,0,0,1-1.88,5,2.13,2.13,0,0,0-.49,1.27c0,5.24,0,10.49,0,15.73,0,3.68-2.23,5.92-5.93,5.92h-40c-3.75,0-6-2.21-6-6,0-2.41,0-4.81,0-7.22v-1c-1.66-.13-3.24-.17-4.8-.37C24.13,79.77,14.1,72.78,7.53,60.84A36,36,0,0,1,3.24,46a6,6,0,0,0-.16-.71Zm66.49,6.93c1.62-7.94-1-20-11.65-27.34A27.84,27.84,0,0,0,16,52.15c4.53,12.4,15.9,18.06,24.32,18.29-.07-.69-.18-1.38-.19-2.07q0-4.52,0-9.05a3.48,3.48,0,0,1,3.83-3.78H56.48c0-1.07,0-2,0-2.95a5.55,5.55,0,0,1,5.43-5.44C64.48,47.1,67,47.14,69.57,47.14ZM42.49,78.84c0-1.48,0-2.91,0-4.34,0-.73-.2-1-1-1a45,45,0,0,1-6.25-.76A30.75,30.75,0,1,1,72.8,45.5c0,.51-.07,1-.1,1.41l5.2.82C79.8,37.29,76,22.18,62.65,13A36.13,36.13,0,1,0,42.49,78.84Zm48.92-3c-.93.35-1.74.68-2.58,1A53,53,0,0,1,76.08,79c-.85.06-1.3.22-1.52,1.18a6.25,6.25,0,0,1-5.94,4.7,6.17,6.17,0,0,1-6.29-4.56C62.05,79.22,61.55,79,60.6,79c-5.11-.37-10.18-1-15-3,0,0-.1,0-.23.08V90c0,2.47.83,3.29,3.29,3.29H88.11c.31,0,.61,0,.92,0a2.44,2.44,0,0,0,2.37-2.44C91.43,85.85,91.41,80.92,91.41,75.85ZM52.92,58.52c-.37,0-.61-.05-.85-.05-2.65,0-5.3,0-8,0-.85,0-1.13.28-1.12,1.11,0,2.87,0,5.73,0,8.6a4.06,4.06,0,0,0,1.74,3.63A19,19,0,0,0,49,74a50.17,50.17,0,0,0,12.94,2.13c.23,0,.54-.27.72-.49a17.12,17.12,0,0,1,1.56-2,6.37,6.37,0,0,1,9.9,1.84c.16.28.55.64.81.62a58.07,58.07,0,0,0,11.73-1.72,12.84,12.84,0,0,0,5.68-2.79,4.34,4.34,0,0,0,1.48-3.4c0-2.83,0-5.67,0-8.5,0-1.22,0-1.25-1.21-1.25H84.82c-.29,0-.58,0-.91.05V63c0,2.94-1.56,4.53-4.5,4.53H57.47c-3,0-4.5-1.52-4.54-4.49C52.91,61.54,52.92,60.05,52.92,58.52Zm28.06,0H55.85c0,1.43,0,2.79,0,4.16,0,1.75.16,1.89,1.87,1.89q9.38,0,18.74,0h3.29c.73,0,1.2-.34,1.22-1.07C81,61.87,81,60.23,81,58.53Zm-9.1,19.93A3.48,3.48,0,0,0,68.4,75a3.53,3.53,0,0,0-3.48,3.5,3.5,3.5,0,0,0,3.5,3.46A3.43,3.43,0,0,0,71.88,78.46Zm4.74-23.09.25.24c.19-.26.53-.51.54-.78a31.9,31.9,0,0,0,0-3.66c-.14-1.83-1.2-3.2-2.52-3.21Q68.4,47.88,62,48c-1.31,0-2.41,1.45-2.52,3.23-.08,1.21,0,2.44,0,3.66,0,.23.24.44.37.65.13-.22.36-.43.37-.67,0-1,0-1.93,0-2.9,0-1.84.8-2.92,2.12-2.92q6.14,0,12.26,0c1.28,0,2,1.08,2.06,2.84C76.64,53,76.62,54.2,76.62,55.37Zm-3-4.8H63.15v4.91H73.67Z"/><path class="cls-1" d="M73.67,53.83v1.65H63.15V53.83Z"/><path class="cls-1" d="M40.73,37.19c0-1.76,0-3.53,0-5.3,0-1,.55-1.66,1.4-1.69a1.53,1.53,0,0,1,1.52,1.69c0,3,0,6,0,9.06a1.46,1.46,0,0,0,.88,1.48c1.84,1,3.65,2.07,5.47,3.13,1,.59,1.31,1.38.86,2.18s-1.29.94-2.31.36c-2.27-1.3-4.53-2.62-6.81-3.91a1.82,1.82,0,0,1-1-1.79C40.75,40.67,40.73,38.93,40.73,37.19Z"/><path class="cls-1" d="M20.07,44.21a12.34,12.34,0,0,1-1.36,0,1.48,1.48,0,0,1-1.33-1.48,1.43,1.43,0,0,1,1.39-1.41q1.32-.06,2.64,0a1.42,1.42,0,0,1,1.42,1.38,1.47,1.47,0,0,1-1.39,1.51,12.5,12.5,0,0,1-1.37,0Z"/><path class="cls-1" d="M40.74,20.7c0-.45,0-.91,0-1.36A1.33,1.33,0,0,1,42.06,18a1.27,1.27,0,0,1,1.51,1.14,15.27,15.27,0,0,1,0,3.17A1.27,1.27,0,0,1,42,23.38a1.33,1.33,0,0,1-1.26-1.32c0-.45,0-.91,0-1.36Z"/><path class="cls-1" d="M25.59,24.64a6.68,6.68,0,0,1,1.1.58c.63.57,1.24,1.18,1.81,1.81a1.45,1.45,0,0,1-2,2.07,11.73,11.73,0,0,1-1.84-1.89,2,2,0,0,1-.22-1.58C24.57,25.22,25.18,25,25.59,24.64Z"/><path class="cls-1" d="M64.2,44.2a10.29,10.29,0,0,1-1.36,0,1.43,1.43,0,0,1-1.3-1.49,1.4,1.4,0,0,1,1.38-1.4q1.32-.06,2.64,0a1.38,1.38,0,0,1,1.38,1.39,1.4,1.4,0,0,1-1.29,1.49A11.69,11.69,0,0,1,64.2,44.2Z"/><path class="cls-1" d="M58.92,24.76c.26.2.82.42,1,.81a1.79,1.79,0,0,1-.09,1.49,12.81,12.81,0,0,1-2.09,2.14A1.31,1.31,0,0,1,56,29.15c-.5-.42-.82-1.09-.39-1.61a27.82,27.82,0,0,1,2.58-2.63C58.26,24.8,58.49,24.83,58.92,24.76Z"/><path class="cls-1" d="M29.05,57.35a4.39,4.39,0,0,1-.5,1,26.89,26.89,0,0,1-1.92,1.93,1.37,1.37,0,0,1-2,0,1.42,1.42,0,0,1,0-2,12.1,12.1,0,0,1,1.88-1.84,2,2,0,0,1,1.57-.2C28.49,56.36,28.74,57,29.05,57.35Z"/></svg>