<svg id="Layer_1" data-name="Layer 1" xmlns="http://www.w3.org/2000/svg" viewBox="0 0 80 80"><defs><style>.cls-1{fill:#fdfcfd;}.cls-2{fill:#eb0645;}.cls-3{fill:#eb0646;}</style></defs><path class="cls-1" d="M51.5,16.86c-1.56-.13-2.78-.27-4-.33a212.91,212.91,0,0,0-36.57,1.91,2.31,2.31,0,0,0-1.75,1.24,35.16,35.16,0,0,0-5.76,25C5.56,59.09,13.5,69.34,27.26,74.37S53.76,76.7,64.9,67.1A13.52,13.52,0,0,0,67.8,64c-.76.06-1.25.08-1.73.14-6.44.82-12.91,1.33-19.39,1.61A122.06,122.06,0,0,1,25.14,65c-5.87-.8-9.65-4.08-10.51-8.82a2.37,2.37,0,0,1,.71-2.31Q30.94,38,46.49,22C48.09,20.4,49.68,18.75,51.5,16.86ZM28.43,61.71c.67.08.94.13,1.2.15,13.56,1,27-.07,40.45-1.87a2.15,2.15,0,0,0,1.7-1.28A35.63,35.63,0,0,0,76.72,36C73.64,8.3,42.28-6.07,19.14,9.61a29.66,29.66,0,0,0-5.64,4.82,8.16,8.16,0,0,0,.88,0,197.13,197.13,0,0,1,29.14-1.61c4.59.13,9.22.08,13.68,1.36,4.26,1.21,7.24,3.76,8.09,8.33a2.22,2.22,0,0,1-.67,2.17Q50.39,39.19,36.19,53.75Z"/><path class="cls-2" d="M51.5,16.86c-1.82,1.89-3.41,3.54-5,5.18Q30.92,38,15.34,53.87a2.37,2.37,0,0,0-.71,2.31c.86,4.74,4.64,8,10.51,8.82a122.06,122.06,0,0,0,21.54.72c6.48-.28,13-.79,19.39-1.61.48-.06,1-.08,1.73-.14a13.52,13.52,0,0,1-2.9,3.13c-11.14,9.6-23.85,12.31-37.64,7.27S5.56,59.09,3.43,44.64a35.16,35.16,0,0,1,5.76-25,2.31,2.31,0,0,1,1.75-1.24,212.91,212.91,0,0,1,36.57-1.91C48.72,16.59,49.94,16.73,51.5,16.86Z"/><path class="cls-3" d="M28.43,61.71l7.76-8Q50.4,39.22,64.62,24.68a2.22,2.22,0,0,0,.67-2.17c-.85-4.57-3.83-7.12-8.09-8.33C52.74,12.9,48.11,13,43.52,12.82a197.13,197.13,0,0,0-29.14,1.61,8.16,8.16,0,0,1-.88,0,29.66,29.66,0,0,1,5.64-4.82C42.28-6.07,73.64,8.3,76.72,36a35.63,35.63,0,0,1-4.94,22.67A2.15,2.15,0,0,1,70.08,60c-13.43,1.8-26.89,2.87-40.45,1.87C29.37,61.84,29.1,61.79,28.43,61.71Z"/></svg>