<?xml version="1.0" encoding="utf-8" ?>
<svg baseProfile="full" height="290" version="1.1" width="530" xmlns="http://www.w3.org/2000/svg" xmlns:ev="http://www.w3.org/2001/xml-events" xmlns:xlink="http://www.w3.org/1999/xlink"><defs /><polygon fill="black" points="239.00313725490196,289.0 239.0,288.99686274509804 238.0,288.99686274509804 237.0,288.99686274509804 236.0,288.99686274509804 235.0,288.99686274509804 234.0,288.99686274509804 233.00313725490196,288.0 233.0,287.99686274509804 232.0,287.99686274509804 231.0,287.99686274509804 230.0,287.99686274509804 229.00313725490196,287.0 229.0,286.99686274509804 228.0,286.99686274509804 227.0,286.99686274509804 226.00313725490196,286.0 226.0,285.99686274509804 225.0,285.99686274509804 224.0,285.99686274509804 223.0,285.99686274509804 222.00313725490196,285.0 222.0,284.99686274509804 221.0,284.99686274509804 220.0,284.99686274509804 219.00313725490196,284.0 219.0,283.99686274509804 218.0,283.99686274509804 217.0,283.99686274509804 216.00313725490196,283.0 216.0,282.99686274509804 215.0,282.99686274509804 214.0,282.99686274509804 213.00313725490196,282.0 213.0,281.99686274509804 212.0,281.99686274509804 211.0,281.99686274509804 210.00313725490196,281.0 210.0,280.99686274509804 209.0,280.99686274509804 208.00313725490196,280.0 208.0,279.99686274509804 207.0,279.99686274509804 206.0,279.99686274509804 205.00313725490196,279.0 205.0,278.99686274509804 204.0,278.99686274509804 203.00313725490196,278.0 203.0,277.99686274509804 202.0,277.99686274509804 201.00313725490196,277.0 201.0,276.99686274509804 200.0,276.99686274509804 199.00313725490196,276.0 199.0,275.99686274509804 198.0,275.99686274509804 197.00313725490196,275.0 197.0,274.99686274509804 196.0,274.99686274509804 195.00313725490196,274.0 195.0,273.99686274509804 194.0,273.99686274509804 193.00313725490196,273.0 193.0,272.99686274509804 192.0,272.99686274509804 191.00313725490196,272.0 191.0,271.99686274509804 190.00313725490196,271.0 190.0,270.99686274509804 189.0,270.99686274509804 188.00313725490196,270.0 188.0,269.99686274509804 187.0,269.99686274509804 186.00313725490196,269.0 186.0,268.99686274509804 185.00313725490196,268.0 185.0,267.99686274509804 184.0,267.99686274509804 183.00313725490196,267.0 183.0,266.99686274509804 182.00313725490196,266.0 182.0,265.99686274509804 181.0,265.99686274509804 180.00313725490196,265.0 180.0,264.99686274509804 179.00313725490196,264.0 179.0,263.99686274509804 178.00313725490196,263.0 178.0,262.99686274509804 177.0,262.99686274509804 176.00313725490196,262.0 176.0,261.99686274509804 175.00313725490196,261.0 175.0,260.99686274509804 174.00313725490196,260.0 174.0,259.99686274509804 173.00313725490196,259.0 173.0,258.99686274509804 172.00313725490196,258.0 172.0,257.99686274509804 171.0,257.99686274509804 170.00313725490196,257.0 170.0,256.99686274509804 169.00313725490196,256.0 169.0,255.99686274509804 168.00313725490196,255.0 168.0,254.99686274509804 167.00313725490196,254.0 167.0,253.99686274509804 166.00313725490196,253.0 166.0,252.99686274509804 165.00313725490196,252.0 165.0,251.99686274509804 164.00313725490196,251.0 164.0,250.99686274509804 163.00313725490196,250.0 163.0,249.99686274509804 162.00313725490196,249.0 162.0,248.99686274509804 161.00313725490196,248.0 161.0,247.99686274509804 160.00313725490196,247.0 160.0,246.99686274509804 159.00313725490196,246.0 159.0,245.99686274509804 158.00313725490196,245.0 158.0,244.99686274509804 157.00313725490196,244.0 157.0,243.99686274509804 156.00313725490196,243.0 156.0,242.99686274509804 155.00313725490196,242.0 155.0,241.99686274509804 154.00313725490196,241.0 154.00313725490196,240.0 154.0,239.99686274509804 153.00313725490196,239.0 153.0,238.99686274509804 152.00313725490196,238.0 152.0,237.99686274509804 151.00313725490196,237.0 151.0,236.99686274509804 150.00313725490196,236.0 150.00313725490196,235.0 150.0,234.99686274509804 149.00313725490196,234.0 149.0,233.99686274509804 148.00313725490196,233.0 148.00313725490196,232.0 148.0,231.99686274509804 147.00313725490196,231.0 147.0,230.99686274509804 146.00313725490196,230.0 146.00313725490196,229.0 146.0,228.99686274509804 145.00313725490196,228.0 145.0,227.99686274509804 144.00313725490196,227.0 144.0,226.99686274509804 143.00313725490196,226.0 143.00313725490196,225.0 143.0,224.99686274509804 142.00313725490196,224.0 142.00313725490196,223.0 142.0,222.99686274509804 141.00313725490196,222.0 141.0,221.99686274509804 140.00313725490196,221.0 140.00313725490196,220.0 140.0,219.99686274509804 139.00313725490196,219.0 139.00313725490196,218.0 139.0,217.99686274509804 138.00313725490196,217.0 138.00313725490196,216.0 138.0,215.99686274509804 137.00313725490196,215.0 137.00313725490196,214.0 137.0,213.99686274509804 136.00313725490196,213.0 136.00313725490196,212.0 136.0,211.99686274509804 135.00313725490196,211.0 135.00313725490196,210.0 135.0,209.99686274509804 134.00313725490196,209.0 134.00313725490196,208.0 134.0,207.99686274509804 133.00313725490196,207.0 133.00313725490196,206.0 133.0,205.99686274509804 132.00313725490196,205.0 132.00313725490196,204.0 132.00313725490196,203.0 132.0,202.99686274509804 131.00313725490196,202.0 131.00313725490196,201.0 131.0,200.99686274509804 130.00313725490196,200.0 130.00313725490196,199.0 130.00313725490196,198.0 130.0,197.99686274509804 129.00313725490196,197.0 129.00313725490196,196.0 129.00313725490196,195.0 129.0,194.99686274509804 128.00313725490196,194.0 128.00313725490196,193.0 128.00313725490196,192.0 128.0,191.99686274509804 127.00313725490196,191.0 127.00313725490196,190.0 127.00313725490196,189.0 127.0,188.99686274509804 126.00313725490196,188.0 126.00313725490196,187.0 126.00313725490196,186.0 126.00313725490196,185.0 126.0,184.99686274509804 125.0,184.99686274509804 124.0,184.99686274509804 123.0,184.99686274509804 122.0,184.99686274509804 121.0,184.99686274509804 120.0,184.99686274509804 119.0,184.99686274509804 118.0,184.99686274509804 117.0,184.99686274509804 116.0,184.99686274509804 115.0,184.99686274509804 114.0,184.99686274509804 113.0,184.99686274509804 112.0,184.99686274509804 111.0,184.99686274509804 110.0,184.99686274509804 109.0,184.99686274509804 108.0,184.99686274509804 107.0,184.99686274509804 106.0,184.99686274509804 105.0,184.99686274509804 104.0,184.99686274509804 103.0,184.99686274509804 102.0,184.99686274509804 101.0,184.99686274509804 100.0,184.99686274509804 99.0,184.99686274509804 98.0,184.99686274509804 97.0,184.99686274509804 96.0,184.99686274509804 95.0,184.99686274509804 94.0,184.99686274509804 93.0,184.99686274509804 92.0,184.99686274509804 91.0,184.99686274509804 90.0,184.99686274509804 89.0,184.99686274509804 88.0,184.99686274509804 87.0,184.99686274509804 86.0,184.99686274509804 85.0,184.99686274509804 84.0,184.99686274509804 83.0,184.99686274509804 82.0,184.99686274509804 81.0,184.99686274509804 80.0,184.99686274509804 79.0,184.99686274509804 78.0,184.99686274509804 77.0,184.99686274509804 76.0,184.99686274509804 75.0,184.99686274509804 74.0,184.99686274509804 73.0,184.99686274509804 72.0,184.99686274509804 71.0,184.99686274509804 70.0,184.99686274509804 69.0,184.99686274509804 68.0,184.99686274509804 67.0,184.99686274509804 66.0,184.99686274509804 65.0,184.99686274509804 64.0,184.99686274509804 63.0,184.99686274509804 62.0,184.99686274509804 61.0,184.99686274509804 60.0,184.99686274509804 59.0,184.99686274509804 58.0,184.99686274509804 57.0,184.99686274509804 56.0,184.99686274509804 55.0,184.99686274509804 54.0,184.99686274509804 53.0,184.99686274509804 52.0,184.99686274509804 51.0,184.99686274509804 50.0,184.99686274509804 49.0,184.99686274509804 48.0,184.99686274509804 47.0,184.99686274509804 46.0,184.99686274509804 45.0,184.99686274509804 44.0,184.99686274509804 43.0,184.99686274509804 42.0,184.99686274509804 41.0,184.99686274509804 40.0,184.99686274509804 39.0,184.99686274509804 38.0,184.99686274509804 37.0,184.99686274509804 36.0,184.99686274509804 35.0,184.99686274509804 34.0,184.99686274509804 33.0,184.99686274509804 32.0,184.99686274509804 31.0,184.99686274509804 30.00313725490196,184.0 30.00313725490196,183.0 31.0,182.00313725490196 31.00313725490196,182.0 31.00313725490196,181.0 32.0,180.00313725490196 32.00313725490196,180.0 32.00313725490196,179.0 33.0,178.00313725490196 33.00313725490196,178.0 33.00313725490196,177.0 33.00313725490196,176.0 34.0,175.00313725490196 34.00313725490196,175.0 34.00313725490196,174.0 35.0,173.00313725490196 35.00313725490196,173.0 35.00313725490196,172.0 36.0,171.00313725490196 36.00313725490196,171.0 36.00313725490196,170.0 37.0,169.00313725490196 37.00313725490196,169.0 37.00313725490196,168.0 38.0,167.00313725490196 38.00313725490196,167.0 38.00313725490196,166.0 39.0,165.00313725490196 39.00313725490196,165.0 39.00313725490196,164.0 40.0,163.00313725490196 40.00313725490196,163.0 40.00313725490196,162.0 41.0,161.00313725490196 41.00313725490196,161.0 41.00313725490196,160.0 42.0,159.00313725490196 42.00313725490196,159.0 42.00313725490196,158.0 43.0,157.00313725490196 43.00313725490196,157.0 43.00313725490196,156.0 44.0,155.00313725490196 44.00313725490196,155.0 44.00313725490196,154.0 45.0,153.00313725490196 45.00313725490196,153.0 45.00313725490196,152.0 46.0,151.00313725490196 46.00313725490196,151.0 46.00313725490196,150.0 47.0,149.00313725490196 47.00313725490196,149.0 47.00313725490196,148.0 48.0,147.00313725490196 48.00313725490196,147.0 48.00313725490196,146.0 49.0,145.00313725490196 49.00313725490196,145.0 49.00313725490196,144.0 50.0,143.00313725490196 50.00313725490196,143.0 50.00313725490196,142.0 51.0,141.00313725490196 51.00313725490196,141.0 51.00313725490196,140.0 52.0,139.00313725490196 52.00313725490196,139.0 52.00313725490196,138.0 53.0,137.00313725490196 53.00313725490196,137.0 53.00313725490196,136.0 54.0,135.00313725490196 54.00313725490196,135.0 54.00313725490196,134.0 55.0,133.00313725490196 55.00313725490196,133.0 55.00313725490196,132.0 56.0,131.00313725490196 56.00313725490196,131.0 56.00313725490196,130.0 57.0,129.00313725490196 57.00313725490196,129.0 57.00313725490196,128.0 58.0,127.00313725490196 58.00313725490196,127.0 58.00313725490196,126.0 59.0,125.00313725490196 59.00313725490196,125.0 59.00313725490196,124.0 60.0,123.00313725490196 60.00313725490196,123.0 60.00313725490196,122.0 61.0,121.00313725490196 61.00313725490196,121.0 61.00313725490196,120.0 62.0,119.00313725490196 62.00313725490196,119.0 62.00313725490196,118.0 63.0,117.00313725490196 63.00313725490196,117.0 64.0,116.00313725490196 65.0,116.00313725490196 66.0,116.00313725490196 67.0,116.00313725490196 68.0,116.00313725490196 69.0,116.00313725490196 70.0,116.00313725490196 71.0,116.00313725490196 72.0,116.00313725490196 73.0,116.00313725490196 74.0,116.00313725490196 75.0,116.00313725490196 76.0,116.00313725490196 77.0,116.00313725490196 78.0,116.00313725490196 79.0,116.00313725490196 80.0,116.00313725490196 81.0,116.00313725490196 82.0,116.00313725490196 83.0,116.00313725490196 84.0,116.00313725490196 85.0,116.00313725490196 86.0,116.00313725490196 87.0,116.00313725490196 88.0,116.00313725490196 89.0,116.00313725490196 90.0,116.00313725490196 91.0,116.00313725490196 92.0,116.00313725490196 93.0,116.00313725490196 94.0,116.00313725490196 95.0,116.00313725490196 96.0,116.00313725490196 97.0,116.00313725490196 98.0,116.00313725490196 99.0,116.00313725490196 100.0,116.00313725490196 101.0,116.00313725490196 102.0,116.00313725490196 103.0,116.00313725490196 104.0,116.00313725490196 105.0,116.00313725490196 106.0,116.00313725490196 107.0,116.00313725490196 108.0,116.00313725490196 109.0,116.00313725490196 110.0,116.00313725490196 111.0,116.00313725490196 112.0,116.00313725490196 113.0,116.00313725490196 114.0,116.00313725490196 115.0,116.00313725490196 116.0,116.00313725490196 117.0,116.00313725490196 118.0,116.00313725490196 119.0,116.00313725490196 120.0,116.00313725490196 121.0,116.00313725490196 122.0,116.00313725490196 123.0,116.00313725490196 124.0,116.00313725490196 125.0,116.00313725490196 126.0,116.00313725490196 127.0,116.00313725490196 128.0,116.00313725490196 129.0,116.00313725490196 129.00313725490196,116.0 129.00313725490196,115.0 130.0,114.00313725490196 130.00313725490196,114.0 130.00313725490196,113.0 131.0,112.00313725490196 131.00313725490196,112.0 131.00313725490196,111.0 132.0,110.00313725490196 132.00313725490196,110.0 132.00313725490196,109.0 133.0,108.00313725490196 133.00313725490196,108.0 133.00313725490196,107.0 134.0,106.00313725490196 134.00313725490196,106.0 134.00313725490196,105.0 135.0,104.00313725490196 135.00313725490196,104.0 135.00313725490196,103.0 136.0,102.00313725490196 136.00313725490196,102.0 136.00313725490196,101.0 137.0,100.00313725490196 137.00313725490196,100.0 137.00313725490196,99.0 138.0,98.00313725490196 138.00313725490196,98.0 139.0,97.00313725490196 139.00313725490196,97.0 139.00313725490196,96.0 140.0,95.00313725490196 140.00313725490196,95.0 140.00313725490196,94.0 141.0,93.00313725490196 141.00313725490196,93.0 141.00313725490196,92.0 142.0,91.00313725490196 142.00313725490196,91.0 143.0,90.00313725490196 143.00313725490196,90.0 143.00313725490196,89.0 144.0,88.00313725490196 144.00313725490196,88.0 145.0,87.00313725490196 145.00313725490196,87.0 145.00313725490196,86.0 146.0,85.00313725490196 146.00313725490196,85.0 147.0,84.00313725490196 147.00313725490196,84.0 148.0,83.00313725490196 148.00313725490196,83.0 148.00313725490196,82.0 149.0,81.00313725490196 149.00313725490196,81.0 150.0,80.00313725490196 150.00313725490196,80.0 151.0,79.00313725490196 151.00313725490196,79.0 152.0,78.00313725490196 152.00313725490196,78.0 152.00313725490196,77.0 153.0,76.00313725490196 153.00313725490196,76.0 154.0,75.00313725490196 154.00313725490196,75.0 155.0,74.00313725490196 155.00313725490196,74.0 156.0,73.00313725490196 156.00313725490196,73.0 157.0,72.00313725490196 157.00313725490196,72.0 158.0,71.00313725490196 158.00313725490196,71.0 159.0,70.00313725490196 159.00313725490196,70.0 159.00313725490196,69.0 160.0,68.00313725490196 160.00313725490196,68.0 161.0,67.00313725490196 162.0,67.00313725490196 162.00313725490196,67.0 163.0,66.00313725490196 163.00313725490196,66.0 163.00313725490196,65.0 164.0,64.00313725490196 165.0,64.00313725490196 165.00313725490196,64.0 166.0,63.00313725490196 166.00313725490196,63.0 167.0,62.00313725490196 167.00313725490196,62.0 168.0,61.00313725490196 168.00313725490196,61.0 169.0,60.00313725490196 169.00313725490196,60.0 170.0,59.00313725490196 170.00313725490196,59.0 171.0,58.00313725490196 172.0,58.00313725490196 172.00313725490196,58.0 173.0,57.00313725490196 173.00313725490196,57.0 174.0,56.00313725490196 174.00313725490196,56.0 175.0,55.00313725490196 175.00313725490196,55.0 176.0,54.00313725490196 176.00313725490196,54.0 177.0,53.00313725490196 178.0,53.00313725490196 178.00313725490196,53.0 179.0,52.00313725490196 179.00313725490196,52.0 180.0,51.00313725490196 181.0,51.00313725490196 181.00313725490196,51.0 182.0,50.00313725490196 182.00313725490196,50.0 183.0,49.00313725490196 184.0,49.00313725490196 184.00313725490196,49.0 185.0,48.00313725490196 185.00313725490196,48.0 186.0,47.00313725490196 187.0,47.00313725490196 187.00313725490196,47.0 188.0,46.00313725490196 189.0,46.00313725490196 189.00313725490196,46.0 190.0,45.00313725490196 190.00313725490196,45.0 191.0,44.00313725490196 192.0,44.00313725490196 192.00313725490196,44.0 193.0,43.00313725490196 194.0,43.00313725490196 194.00313725490196,43.0 195.0,42.00313725490196 196.0,42.00313725490196 196.00313725490196,42.0 197.0,41.00313725490196 198.0,41.00313725490196 198.00313725490196,41.0 199.0,40.00313725490196 199.00313725490196,40.0 200.0,39.00313725490196 201.0,39.00313725490196 202.0,39.00313725490196 202.00313725490196,39.0 203.0,38.00313725490196 204.0,38.00313725490196 204.00313725490196,38.0 205.0,37.00313725490196 206.0,37.00313725490196 206.00313725490196,37.0 207.0,36.00313725490196 208.0,36.00313725490196 209.0,36.00313725490196 209.00313725490196,36.0 210.0,35.00313725490196 211.0,35.00313725490196 211.00313725490196,35.0 212.0,34.00313725490196 213.0,34.00313725490196 214.0,34.00313725490196 214.00313725490196,34.0 215.0,33.00313725490196 216.0,33.00313725490196 217.0,33.00313725490196 217.00313725490196,33.0 218.0,32.00313725490196 219.0,32.00313725490196 220.0,32.00313725490196 220.00313725490196,32.0 221.0,31.00313725490196 222.0,31.00313725490196 223.0,31.00313725490196 223.00313725490196,31.0 224.0,30.00313725490196 225.0,30.00313725490196 226.0,30.00313725490196 227.0,30.00313725490196 227.00313725490196,30.0 228.0,29.00313725490196 229.0,29.00313725490196 230.0,29.00313725490196 231.0,29.00313725490196 231.00313725490196,29.0 232.0,28.00313725490196 233.0,28.00313725490196 234.0,28.00313725490196 235.0,28.00313725490196 236.0,28.00313725490196 237.0,28.00313725490196 237.00313725490196,28.0 238.0,27.00313725490196 239.0,27.00313725490196 240.0,27.00313725490196 241.0,27.00313725490196 242.0,27.00313725490196 242.00313725490196,27.0 243.0,26.00313725490196 244.0,26.00313725490196 245.0,26.00313725490196 246.0,26.00313725490196 247.0,26.00313725490196 248.0,26.00313725490196 249.0,26.00313725490196 249.00313725490196,26.0 250.0,25.00313725490196 251.0,25.00313725490196 252.0,25.00313725490196 253.0,25.00313725490196 254.0,25.00313725490196 255.0,25.00313725490196 256.0,25.00313725490196 257.0,25.00313725490196 258.0,25.00313725490196 259.0,25.00313725490196 260.0,25.00313725490196 261.0,25.00313725490196 262.0,25.00313725490196 263.0,25.00313725490196 264.0,25.00313725490196 265.0,25.00313725490196 266.0,25.00313725490196 267.0,25.00313725490196 268.0,25.00313725490196 269.0,25.00313725490196 270.0,25.00313725490196 271.0,25.00313725490196 272.0,25.00313725490196 273.0,25.00313725490196 274.0,25.00313725490196 275.0,25.00313725490196 276.0,25.00313725490196 277.0,25.00313725490196 278.0,25.00313725490196 279.0,25.00313725490196 280.0,25.00313725490196 281.0,25.00313725490196 282.0,25.00313725490196 283.0,25.00313725490196 283.99686274509804,26.0 284.0,26.00313725490196 285.0,26.00313725490196 286.0,26.00313725490196 287.0,26.00313725490196 288.0,26.00313725490196 289.0,26.00313725490196 290.0,26.00313725490196 290.99686274509804,27.0 291.0,27.00313725490196 292.0,27.00313725490196 293.0,27.00313725490196 294.0,27.00313725490196 295.0,27.00313725490196 295.99686274509804,28.0 296.0,28.00313725490196 297.0,28.00313725490196 298.0,28.00313725490196 299.0,28.00313725490196 300.0,28.00313725490196 301.0,28.00313725490196 301.99686274509804,29.0 302.0,29.00313725490196 303.0,29.00313725490196 304.0,29.00313725490196 304.99686274509804,30.0 305.0,30.00313725490196 306.0,30.00313725490196 307.0,30.00313725490196 308.0,30.00313725490196 308.99686274509804,31.0 309.0,31.00313725490196 310.0,31.00313725490196 311.0,31.00313725490196 311.99686274509804,32.0 312.0,32.00313725490196 313.0,32.00313725490196 314.0,32.00313725490196 314.99686274509804,33.0 315.0,33.00313725490196 316.0,33.00313725490196 317.0,33.00313725490196 317.99686274509804,34.0 318.0,34.00313725490196 319.0,34.00313725490196 319.99686274509804,35.0 320.0,35.00313725490196 321.0,35.00313725490196 322.0,35.00313725490196 322.99686274509804,36.0 323.0,36.00313725490196 324.0,36.00313725490196 324.99686274509804,37.0 325.0,37.00313725490196 326.0,37.00313725490196 327.0,37.00313725490196 327.99686274509804,38.0 328.0,38.00313725490196 329.0,38.00313725490196 329.99686274509804,39.0 330.0,39.00313725490196 331.0,39.00313725490196 331.99686274509804,40.0 332.0,40.00313725490196 333.0,40.00313725490196 333.99686274509804,41.0 334.0,41.00313725490196 335.0,41.00313725490196 335.99686274509804,42.0 336.0,42.00313725490196 337.0,42.00313725490196 337.99686274509804,43.0 338.0,43.00313725490196 339.0,43.00313725490196 339.99686274509804,44.0 340.0,44.00313725490196 340.99686274509804,45.0 341.0,45.00313725490196 342.0,45.00313725490196 342.99686274509804,46.0 343.0,46.00313725490196 344.0,46.00313725490196 344.99686274509804,47.0 345.0,47.00313725490196 345.99686274509804,48.0 346.0,48.00313725490196 347.0,48.00313725490196 347.99686274509804,49.0 348.0,49.00313725490196 349.0,49.00313725490196 349.99686274509804,50.0 350.0,50.00313725490196 350.99686274509804,51.0 351.0,51.00313725490196 351.99686274509804,52.0 352.0,52.00313725490196 353.0,52.00313725490196 353.99686274509804,53.0 354.0,53.00313725490196 354.99686274509804,54.0 355.0,54.00313725490196 355.99686274509804,55.0 356.0,55.00313725490196 356.99686274509804,56.0 357.0,56.00313725490196 358.0,56.00313725490196 358.99686274509804,57.0 359.0,57.00313725490196 359.99686274509804,58.0 360.0,58.00313725490196 360.99686274509804,59.0 361.0,59.00313725490196 361.99686274509804,60.0 362.0,60.00313725490196 362.99686274509804,61.0 363.0,61.00313725490196 364.0,61.00313725490196 364.99686274509804,62.0 365.0,62.00313725490196 365.99686274509804,63.0 366.0,63.00313725490196 366.99686274509804,64.0 367.0,64.00313725490196 367.99686274509804,65.0 368.0,65.00313725490196 368.99686274509804,66.0 369.0,66.00313725490196 369.99686274509804,67.0 370.0,67.00313725490196 370.99686274509804,68.0 371.0,68.00313725490196 371.99686274509804,69.0 372.0,69.00313725490196 372.99686274509804,70.0 373.0,70.00313725490196 373.99686274509804,71.0 374.0,71.00313725490196 374.99686274509804,72.0 375.0,72.00313725490196 375.99686274509804,73.0 375.99686274509804,74.0 376.0,74.00313725490196 376.99686274509804,75.0 377.0,75.00313725490196 377.99686274509804,76.0 378.0,76.00313725490196 378.99686274509804,77.0 379.0,77.00313725490196 379.99686274509804,78.0 379.99686274509804,79.0 380.0,79.00313725490196 380.99686274509804,80.0 381.0,80.00313725490196 381.99686274509804,81.0 382.0,81.00313725490196 382.99686274509804,82.0 382.99686274509804,83.0 383.0,83.00313725490196 383.99686274509804,84.0 384.0,84.00313725490196 384.99686274509804,85.0 385.0,85.00313725490196 385.99686274509804,86.0 385.99686274509804,87.0 386.0,87.00313725490196 386.99686274509804,88.0 387.0,88.00313725490196 387.99686274509804,89.0 387.99686274509804,90.0 388.0,90.00313725490196 388.99686274509804,91.0 389.0,91.00313725490196 389.99686274509804,92.0 389.99686274509804,93.0 390.0,93.00313725490196 390.99686274509804,94.0 390.99686274509804,95.0 391.0,95.00313725490196 391.99686274509804,96.0 391.99686274509804,97.0 392.0,97.00313725490196 392.99686274509804,98.0 393.0,98.00313725490196 393.99686274509804,99.0 393.99686274509804,100.0 394.0,100.00313725490196 394.99686274509804,101.0 394.99686274509804,102.0 395.0,102.00313725490196 395.99686274509804,103.0 395.99686274509804,104.0 396.0,104.00313725490196 396.99686274509804,105.0 396.99686274509804,106.0 397.0,106.00313725490196 397.99686274509804,107.0 397.99686274509804,108.0 398.0,108.00313725490196 398.99686274509804,109.0 398.99686274509804,110.0 399.0,110.00313725490196 399.99686274509804,111.0 399.99686274509804,112.0 399.99686274509804,113.0 400.0,113.00313725490196 400.99686274509804,114.0 400.99686274509804,115.0 401.0,115.00313725490196 401.99686274509804,116.0 402.0,116.00313725490196 403.0,116.00313725490196 404.0,116.00313725490196 405.0,116.00313725490196 406.0,116.00313725490196 407.0,116.00313725490196 408.0,116.00313725490196 409.0,116.00313725490196 410.0,116.00313725490196 411.0,116.00313725490196 412.0,116.00313725490196 413.0,116.00313725490196 414.0,116.00313725490196 415.0,116.00313725490196 416.0,116.00313725490196 417.0,116.00313725490196 418.0,116.00313725490196 419.0,116.00313725490196 420.0,116.00313725490196 421.0,116.00313725490196 422.0,116.00313725490196 423.0,116.00313725490196 424.0,116.00313725490196 425.0,116.00313725490196 426.0,116.00313725490196 427.0,116.00313725490196 428.0,116.00313725490196 429.0,116.00313725490196 430.0,116.00313725490196 431.0,116.00313725490196 432.0,116.00313725490196 433.0,116.00313725490196 434.0,116.00313725490196 435.0,116.00313725490196 436.0,116.00313725490196 437.0,116.00313725490196 438.0,116.00313725490196 439.0,116.00313725490196 440.0,116.00313725490196 441.0,116.00313725490196 442.0,116.00313725490196 443.0,116.00313725490196 444.0,116.00313725490196 445.0,116.00313725490196 446.0,116.00313725490196 447.0,116.00313725490196 448.0,116.00313725490196 449.0,116.00313725490196 450.0,116.00313725490196 451.0,116.00313725490196 452.0,116.00313725490196 453.0,116.00313725490196 454.0,116.00313725490196 455.0,116.00313725490196 456.0,116.00313725490196 457.0,116.00313725490196 458.0,116.00313725490196 459.0,116.00313725490196 460.0,116.00313725490196 461.0,116.00313725490196 462.0,116.00313725490196 463.0,116.00313725490196 464.0,116.00313725490196 465.0,116.00313725490196 466.0,116.00313725490196 467.0,116.00313725490196 467.99686274509804,117.0 468.0,117.00313725490196 468.99686274509804,118.0 469.0,118.00313725490196 469.99686274509804,119.0 469.99686274509804,120.0 470.0,120.00313725490196 470.99686274509804,121.0 470.99686274509804,122.0 471.0,122.00313725490196 471.99686274509804,123.0 471.99686274509804,124.0 472.0,124.00313725490196 472.99686274509804,125.0 472.99686274509804,126.0 473.0,126.00313725490196 473.99686274509804,127.0 473.99686274509804,128.0 474.0,128.00313725490196 474.99686274509804,129.0 474.99686274509804,130.0 475.0,130.00313725490196 475.99686274509804,131.0 475.99686274509804,132.0 476.0,132.00313725490196 476.99686274509804,133.0 476.99686274509804,134.0 477.0,134.00313725490196 477.99686274509804,135.0 477.99686274509804,136.0 478.0,136.00313725490196 478.99686274509804,137.0 478.99686274509804,138.0 479.0,138.00313725490196 479.99686274509804,139.0 479.99686274509804,140.0 480.0,140.00313725490196 480.99686274509804,141.0 480.99686274509804,142.0 481.0,142.00313725490196 481.99686274509804,143.0 481.99686274509804,144.0 482.0,144.00313725490196 482.99686274509804,145.0 482.99686274509804,146.0 483.0,146.00313725490196 483.99686274509804,147.0 483.99686274509804,148.0 484.0,148.00313725490196 484.99686274509804,149.0 484.99686274509804,150.0 485.0,150.00313725490196 485.99686274509804,151.0 485.99686274509804,152.0 486.0,152.00313725490196 486.99686274509804,153.0 486.99686274509804,154.0 487.0,154.00313725490196 487.99686274509804,155.0 487.99686274509804,156.0 488.0,156.00313725490196 488.99686274509804,157.0 488.99686274509804,158.0 489.0,158.00313725490196 489.99686274509804,159.0 489.99686274509804,160.0 490.0,160.00313725490196 490.99686274509804,161.0 490.99686274509804,162.0 491.0,162.00313725490196 491.99686274509804,163.0 491.99686274509804,164.0 491.99686274509804,165.0 492.0,165.00313725490196 492.99686274509804,166.0 492.99686274509804,167.0 493.0,167.00313725490196 493.99686274509804,168.0 493.99686274509804,169.0 494.0,169.00313725490196 494.99686274509804,170.0 494.99686274509804,171.0 495.0,171.00313725490196 495.99686274509804,172.0 495.99686274509804,173.0 496.0,173.00313725490196 496.99686274509804,174.0 496.99686274509804,175.0 497.0,175.00313725490196 497.99686274509804,176.0 497.99686274509804,177.0 498.0,177.00313725490196 498.99686274509804,178.0 498.99686274509804,179.0 499.0,179.00313725490196 499.99686274509804,180.0 499.99686274509804,181.0 500.0,181.00313725490196 500.99686274509804,182.0 500.99686274509804,183.0 500.99686274509804,184.0 500.0,184.99686274509804 499.0,184.99686274509804 498.0,184.99686274509804 497.0,184.99686274509804 496.0,184.99686274509804 495.0,184.99686274509804 494.0,184.99686274509804 493.0,184.99686274509804 492.0,184.99686274509804 491.0,184.99686274509804 490.0,184.99686274509804 489.0,184.99686274509804 488.0,184.99686274509804 487.0,184.99686274509804 486.0,184.99686274509804 485.0,184.99686274509804 484.0,184.99686274509804 483.0,184.99686274509804 482.0,184.99686274509804 481.0,184.99686274509804 480.0,184.99686274509804 479.0,184.99686274509804 478.0,184.99686274509804 477.0,184.99686274509804 476.0,184.99686274509804 475.0,184.99686274509804 474.0,184.99686274509804 473.0,184.99686274509804 472.0,184.99686274509804 471.0,184.99686274509804 470.0,184.99686274509804 469.0,184.99686274509804 468.0,184.99686274509804 467.0,184.99686274509804 466.0,184.99686274509804 465.0,184.99686274509804 464.0,184.99686274509804 463.0,184.99686274509804 462.0,184.99686274509804 461.0,184.99686274509804 460.0,184.99686274509804 459.0,184.99686274509804 458.0,184.99686274509804 457.0,184.99686274509804 456.0,184.99686274509804 455.0,184.99686274509804 454.0,184.99686274509804 453.0,184.99686274509804 452.0,184.99686274509804 451.0,184.99686274509804 450.0,184.99686274509804 449.0,184.99686274509804 448.0,184.99686274509804 447.0,184.99686274509804 446.0,184.99686274509804 445.0,184.99686274509804 444.0,184.99686274509804 443.0,184.99686274509804 442.0,184.99686274509804 441.0,184.99686274509804 440.0,184.99686274509804 439.0,184.99686274509804 438.0,184.99686274509804 437.0,184.99686274509804 436.0,184.99686274509804 435.0,184.99686274509804 434.0,184.99686274509804 433.0,184.99686274509804 432.0,184.99686274509804 431.0,184.99686274509804 430.0,184.99686274509804 429.0,184.99686274509804 428.0,184.99686274509804 427.0,184.99686274509804 426.0,184.99686274509804 425.0,184.99686274509804 424.0,184.99686274509804 423.0,184.99686274509804 422.0,184.99686274509804 421.0,184.99686274509804 420.0,184.99686274509804 419.0,184.99686274509804 418.0,184.99686274509804 417.0,184.99686274509804 416.0,184.99686274509804 415.0,184.99686274509804 414.0,184.99686274509804 413.0,184.99686274509804 412.0,184.99686274509804 411.0,184.99686274509804 410.0,184.99686274509804 409.0,184.99686274509804 408.0,184.99686274509804 407.0,184.99686274509804 406.0,184.99686274509804 405.0,184.99686274509804 404.99686274509804,185.0 404.99686274509804,186.0 404.99686274509804,187.0 404.0,187.99686274509804 403.99686274509804,188.0 403.99686274509804,189.0 403.99686274509804,190.0 403.99686274509804,191.0 403.0,191.99686274509804 402.99686274509804,192.0 402.99686274509804,193.0 402.99686274509804,194.0 402.0,194.99686274509804 401.99686274509804,195.0 401.99686274509804,196.0 401.99686274509804,197.0 401.99686274509804,198.0 401.0,198.99686274509804 400.99686274509804,199.0 400.99686274509804,200.0 400.0,200.99686274509804 399.99686274509804,201.0 399.99686274509804,202.0 399.99686274509804,203.0 399.0,203.99686274509804 398.99686274509804,204.0 398.99686274509804,205.0 398.0,205.99686274509804 397.99686274509804,206.0 397.99686274509804,207.0 397.99686274509804,208.0 397.0,208.99686274509804 396.99686274509804,209.0 396.0,209.99686274509804 395.99686274509804,210.0 395.99686274509804,211.0 395.99686274509804,212.0 395.0,212.99686274509804 394.99686274509804,213.0 394.99686274509804,214.0 394.0,214.99686274509804 393.99686274509804,215.0 393.99686274509804,216.0 393.0,216.99686274509804 392.99686274509804,217.0 392.99686274509804,218.0 392.0,218.99686274509804 391.99686274509804,219.0 391.0,219.99686274509804 390.99686274509804,220.0 390.99686274509804,221.0 390.0,221.99686274509804 389.99686274509804,222.0 389.99686274509804,223.0 389.0,223.99686274509804 388.99686274509804,224.0 388.99686274509804,225.0 388.0,225.99686274509804 387.99686274509804,226.0 387.0,226.99686274509804 386.99686274509804,227.0 386.99686274509804,228.0 386.0,228.99686274509804 385.99686274509804,229.0 385.0,229.99686274509804 384.99686274509804,230.0 384.0,230.99686274509804 383.99686274509804,231.0 383.99686274509804,232.0 383.0,232.99686274509804 382.99686274509804,233.0 382.0,233.99686274509804 381.99686274509804,234.0 381.99686274509804,235.0 381.0,235.99686274509804 380.99686274509804,236.0 380.0,236.99686274509804 379.99686274509804,237.0 379.0,237.99686274509804 378.99686274509804,238.0 378.0,238.99686274509804 377.99686274509804,239.0 377.99686274509804,240.0 377.0,240.99686274509804 376.99686274509804,241.0 376.0,241.99686274509804 375.99686274509804,242.0 375.0,242.99686274509804 374.99686274509804,243.0 374.0,243.99686274509804 373.99686274509804,244.0 373.0,244.99686274509804 372.99686274509804,245.0 372.0,245.99686274509804 371.99686274509804,246.0 371.0,246.99686274509804 370.99686274509804,247.0 370.0,247.99686274509804 369.99686274509804,248.0 369.99686274509804,249.0 369.0,249.99686274509804 368.0,249.99686274509804 367.99686274509804,250.0 367.99686274509804,251.0 367.0,251.99686274509804 366.99686274509804,252.0 366.0,252.99686274509804 365.0,252.99686274509804 364.99686274509804,253.0 364.99686274509804,254.0 364.0,254.99686274509804 363.0,254.99686274509804 362.99686274509804,255.0 362.0,255.99686274509804 361.99686274509804,256.0 361.0,256.99686274509804 360.99686274509804,257.0 360.0,257.99686274509804 359.99686274509804,258.0 359.0,258.99686274509804 358.99686274509804,259.0 358.0,259.99686274509804 357.99686274509804,260.0 357.0,260.99686274509804 356.0,260.99686274509804 355.99686274509804,261.0 355.0,261.99686274509804 354.99686274509804,262.0 354.0,262.99686274509804 353.99686274509804,263.0 353.0,263.99686274509804 352.0,263.99686274509804 351.99686274509804,264.0 351.0,264.99686274509804 350.99686274509804,265.0 350.0,265.99686274509804 349.99686274509804,266.0 349.0,266.99686274509804 348.0,266.99686274509804 347.99686274509804,267.0 347.0,267.99686274509804 346.99686274509804,268.0 346.0,268.99686274509804 345.0,268.99686274509804 344.99686274509804,269.0 344.0,269.99686274509804 343.0,269.99686274509804 342.99686274509804,270.0 342.0,270.99686274509804 341.99686274509804,271.0 341.0,271.99686274509804 340.0,271.99686274509804 339.99686274509804,272.0 339.0,272.99686274509804 338.0,272.99686274509804 337.99686274509804,273.0 337.0,273.99686274509804 336.0,273.99686274509804 335.99686274509804,274.0 335.0,274.99686274509804 334.99686274509804,275.0 334.0,275.99686274509804 333.0,275.99686274509804 332.99686274509804,276.0 332.0,276.99686274509804 331.0,276.99686274509804 330.99686274509804,277.0 330.0,277.99686274509804 329.0,277.99686274509804 328.0,277.99686274509804 327.99686274509804,278.0 327.0,278.99686274509804 326.0,278.99686274509804 325.99686274509804,279.0 325.0,279.99686274509804 324.0,279.99686274509804 323.99686274509804,280.0 323.0,280.99686274509804 322.0,280.99686274509804 321.0,280.99686274509804 320.99686274509804,281.0 320.0,281.99686274509804 319.0,281.99686274509804 318.99686274509804,282.0 318.0,282.99686274509804 317.0,282.99686274509804 316.0,282.99686274509804 315.99686274509804,283.0 315.0,283.99686274509804 314.0,283.99686274509804 313.0,283.99686274509804 312.99686274509804,284.0 312.0,284.99686274509804 311.0,284.99686274509804 310.0,284.99686274509804 309.99686274509804,285.0 309.0,285.99686274509804 308.0,285.99686274509804 307.0,285.99686274509804 306.0,285.99686274509804 305.99686274509804,286.0 305.0,286.99686274509804 304.0,286.99686274509804 303.0,286.99686274509804 302.99686274509804,287.0 302.0,287.99686274509804 301.0,287.99686274509804 300.0,287.99686274509804 299.0,287.99686274509804 298.99686274509804,288.0 298.0,288.99686274509804 297.0,288.99686274509804 296.0,288.99686274509804 295.0,288.99686274509804 294.0,288.99686274509804 293.0,288.99686274509804 292.99686274509804,289.0" /><polygon fill="black" points="266.00313725490196,159.0 266.00313725490196,158.0 267.0,157.00313725490196 267.00313725490196,157.0 268.0,156.00313725490196 268.00313725490196,156.0 268.00313725490196,155.0 269.0,154.00313725490196 269.00313725490196,154.0 270.0,153.00313725490196 270.00313725490196,153.0 270.00313725490196,152.0 271.0,151.00313725490196 271.00313725490196,151.0 272.0,150.00313725490196 272.00313725490196,150.0 272.00313725490196,149.0 273.0,148.00313725490196 273.00313725490196,148.0 274.0,147.00313725490196 274.00313725490196,147.0 274.00313725490196,146.0 275.0,145.00313725490196 275.00313725490196,145.0 275.00313725490196,144.0 276.0,143.00313725490196 276.00313725490196,143.0 277.0,142.00313725490196 277.00313725490196,142.0 277.00313725490196,141.0 278.0,140.00313725490196 278.00313725490196,140.0 279.0,139.00313725490196 279.00313725490196,139.0 279.00313725490196,138.0 280.0,137.00313725490196 280.00313725490196,137.0 281.0,136.00313725490196 281.00313725490196,136.0 281.00313725490196,135.0 282.0,134.00313725490196 282.00313725490196,134.0 282.00313725490196,133.0 283.0,132.00313725490196 283.00313725490196,132.0 284.0,131.00313725490196 284.00313725490196,131.0 285.0,130.00313725490196 285.00313725490196,130.0 285.00313725490196,129.0 286.0,128.00313725490196 286.00313725490196,128.0 287.0,127.00313725490196 287.00313725490196,127.0 287.00313725490196,126.0 288.0,125.00313725490196 288.00313725490196,125.0 288.00313725490196,124.0 289.0,123.00313725490196 289.00313725490196,123.0 290.0,122.00313725490196 290.00313725490196,122.0 291.0,121.00313725490196 291.00313725490196,121.0 291.00313725490196,120.0 292.0,119.00313725490196 292.00313725490196,119.0 292.00313725490196,118.0 293.0,117.00313725490196 293.00313725490196,117.0 294.0,116.00313725490196 295.0,116.00313725490196 296.0,116.00313725490196 297.0,116.00313725490196 298.0,116.00313725490196 299.0,116.00313725490196 300.0,116.00313725490196 301.0,116.00313725490196 302.0,116.00313725490196 303.0,116.00313725490196 304.0,116.00313725490196 305.0,116.00313725490196 306.0,116.00313725490196 307.0,116.00313725490196 308.0,116.00313725490196 309.0,116.00313725490196 310.0,116.00313725490196 311.0,116.00313725490196 312.0,116.00313725490196 313.0,116.00313725490196 314.0,116.00313725490196 315.0,116.00313725490196 316.0,116.00313725490196 317.0,116.00313725490196 318.0,116.00313725490196 319.0,116.00313725490196 320.0,116.00313725490196 321.0,116.00313725490196 322.0,116.00313725490196 323.0,116.00313725490196 324.0,116.00313725490196 325.0,116.00313725490196 326.0,116.00313725490196 327.0,116.00313725490196 328.0,116.00313725490196 329.0,116.00313725490196 330.0,116.00313725490196 331.0,116.00313725490196 332.0,116.00313725490196 333.0,116.00313725490196 334.0,116.00313725490196 335.0,116.00313725490196 336.0,116.00313725490196 337.0,116.00313725490196 338.0,116.00313725490196 339.0,116.00313725490196 340.0,116.00313725490196 341.0,116.00313725490196 342.0,116.00313725490196 343.0,116.00313725490196 344.0,116.00313725490196 345.0,116.00313725490196 346.0,116.00313725490196 347.0,116.00313725490196 348.0,116.00313725490196 349.0,116.00313725490196 350.0,116.00313725490196 351.0,116.00313725490196 352.0,116.00313725490196 353.0,116.00313725490196 353.00313725490196,116.0 353.00313725490196,115.0 353.0,114.99686274509804 352.00313725490196,114.0 352.00313725490196,113.0 352.0,112.99686274509804 351.00313725490196,112.0 351.0,111.99686274509804 350.00313725490196,111.0 350.00313725490196,110.0 350.0,109.99686274509804 349.00313725490196,109.0 349.0,108.99686274509804 348.00313725490196,108.0 348.0,107.99686274509804 347.00313725490196,107.0 347.00313725490196,106.0 347.0,105.99686274509804 346.00313725490196,105.0 346.0,104.99686274509804 345.00313725490196,104.0 345.0,103.99686274509804 344.00313725490196,103.0 344.0,102.99686274509804 343.00313725490196,102.0 343.0,101.99686274509804 342.00313725490196,101.0 342.00313725490196,100.0 342.0,99.99686274509804 341.00313725490196,99.0 341.0,98.99686274509804 340.00313725490196,98.0 340.0,97.99686274509804 339.00313725490196,97.0 339.0,96.99686274509804 338.00313725490196,96.0 338.0,95.99686274509804 337.00313725490196,95.0 337.0,94.99686274509804 336.00313725490196,94.0 336.0,93.99686274509804 335.00313725490196,93.0 335.0,92.99686274509804 334.00313725490196,92.0 334.0,91.99686274509804 333.0,91.99686274509804 332.00313725490196,91.0 332.0,90.99686274509804 331.00313725490196,90.0 331.0,89.99686274509804 330.00313725490196,89.0 330.0,88.99686274509804 329.00313725490196,88.0 329.0,87.99686274509804 328.00313725490196,87.0 328.0,86.99686274509804 327.0,86.99686274509804 326.00313725490196,86.0 326.0,85.99686274509804 325.00313725490196,85.0 325.0,84.99686274509804 324.0,84.99686274509804 323.00313725490196,84.0 323.0,83.99686274509804 322.00313725490196,83.0 322.0,82.99686274509804 321.0,82.99686274509804 320.00313725490196,82.0 320.0,81.99686274509804 319.0,81.99686274509804 318.00313725490196,81.0 318.0,80.99686274509804 317.0,80.99686274509804 316.00313725490196,80.0 316.0,79.99686274509804 315.00313725490196,79.0 315.0,78.99686274509804 314.0,78.99686274509804 313.00313725490196,78.0 313.0,77.99686274509804 312.0,77.99686274509804 311.00313725490196,77.0 311.0,76.99686274509804 310.0,76.99686274509804 309.00313725490196,76.0 309.0,75.99686274509804 308.0,75.99686274509804 307.0,75.99686274509804 306.00313725490196,75.0 306.0,74.99686274509804 305.0,74.99686274509804 304.00313725490196,74.0 304.0,73.99686274509804 303.0,73.99686274509804 302.0,73.99686274509804 301.00313725490196,73.0 301.0,72.99686274509804 300.0,72.99686274509804 299.0,72.99686274509804 298.00313725490196,72.0 298.0,71.99686274509804 297.0,71.99686274509804 296.0,71.99686274509804 295.00313725490196,71.0 295.0,70.99686274509804 294.0,70.99686274509804 293.0,70.99686274509804 292.0,70.99686274509804 291.00313725490196,70.0 291.0,69.99686274509804 290.0,69.99686274509804 289.0,69.99686274509804 288.0,69.99686274509804 287.00313725490196,69.0 287.0,68.99686274509804 286.0,68.99686274509804 285.0,68.99686274509804 284.0,68.99686274509804 283.0,68.99686274509804 282.0,68.99686274509804 281.0,68.99686274509804 280.00313725490196,68.0 280.0,67.99686274509804 279.0,67.99686274509804 278.0,67.99686274509804 277.0,67.99686274509804 276.0,67.99686274509804 275.0,67.99686274509804 274.0,67.99686274509804 273.0,67.99686274509804 272.0,67.99686274509804 271.0,67.99686274509804 270.0,67.99686274509804 269.0,67.99686274509804 268.0,67.99686274509804 267.0,67.99686274509804 266.0,67.99686274509804 265.0,67.99686274509804 264.0,67.99686274509804 263.0,67.99686274509804 262.0,67.99686274509804 261.0,67.99686274509804 260.0,67.99686274509804 259.0,67.99686274509804 258.0,67.99686274509804 257.0,67.99686274509804 256.0,67.99686274509804 255.0,67.99686274509804 254.0,67.99686274509804 253.0,67.99686274509804 252.0,67.99686274509804 251.99686274509804,68.0 251.0,68.99686274509804 250.0,68.99686274509804 249.0,68.99686274509804 248.0,68.99686274509804 247.0,68.99686274509804 246.0,68.99686274509804 245.0,68.99686274509804 244.99686274509804,69.0 244.0,69.99686274509804 243.0,69.99686274509804 242.0,69.99686274509804 241.99686274509804,70.0 241.0,70.99686274509804 240.0,70.99686274509804 239.0,70.99686274509804 238.0,70.99686274509804 237.0,70.99686274509804 236.99686274509804,71.0 236.0,71.99686274509804 235.0,71.99686274509804 234.0,71.99686274509804 233.99686274509804,72.0 233.0,72.99686274509804 232.0,72.99686274509804 231.0,72.99686274509804 230.99686274509804,73.0 230.0,73.99686274509804 229.0,73.99686274509804 228.0,73.99686274509804 227.99686274509804,74.0 227.0,74.99686274509804 226.0,74.99686274509804 225.99686274509804,75.0 225.0,75.99686274509804 224.0,75.99686274509804 223.0,75.99686274509804 222.99686274509804,76.0 222.0,76.99686274509804 221.0,76.99686274509804 220.99686274509804,77.0 220.0,77.99686274509804 219.0,77.99686274509804 218.99686274509804,78.0 218.0,78.99686274509804 217.0,78.99686274509804 216.99686274509804,79.0 216.0,79.99686274509804 215.0,79.99686274509804 214.99686274509804,80.0 214.0,80.99686274509804 213.0,80.99686274509804 212.99686274509804,81.0 212.0,81.99686274509804 211.99686274509804,82.0 211.0,82.99686274509804 210.0,82.99686274509804 209.99686274509804,83.0 209.0,83.99686274509804 208.0,83.99686274509804 207.99686274509804,84.0 207.0,84.99686274509804 206.99686274509804,85.0 206.0,85.99686274509804 205.0,85.99686274509804 204.99686274509804,86.0 204.0,86.99686274509804 203.99686274509804,87.0 203.0,87.99686274509804 202.99686274509804,88.0 202.0,88.99686274509804 201.0,88.99686274509804 200.99686274509804,89.0 200.0,89.99686274509804 199.99686274509804,90.0 199.0,90.99686274509804 198.99686274509804,91.0 198.0,91.99686274509804 197.99686274509804,92.0 197.0,92.99686274509804 196.99686274509804,93.0 196.0,93.99686274509804 195.0,93.99686274509804 194.99686274509804,94.0 194.0,94.99686274509804 193.99686274509804,95.0 193.0,95.99686274509804 192.99686274509804,96.0 192.0,96.99686274509804 191.99686274509804,97.0 191.0,97.99686274509804 190.99686274509804,98.0 190.0,98.99686274509804 189.99686274509804,99.0 189.0,99.99686274509804 188.99686274509804,100.0 188.99686274509804,101.0 188.0,101.99686274509804 187.99686274509804,102.0 187.0,102.99686274509804 186.99686274509804,103.0 186.0,103.99686274509804 185.99686274509804,104.0 185.0,104.99686274509804 184.99686274509804,105.0 184.0,105.99686274509804 183.99686274509804,106.0 183.99686274509804,107.0 183.0,107.99686274509804 182.99686274509804,108.0 182.0,108.99686274509804 181.99686274509804,109.0 181.0,109.99686274509804 180.99686274509804,110.0 180.99686274509804,111.0 180.0,111.99686274509804 179.99686274509804,112.0 179.0,112.99686274509804 178.99686274509804,113.0 178.99686274509804,114.0 178.0,114.99686274509804 177.99686274509804,115.0 177.0,115.99686274509804 176.99686274509804,116.0 177.0,116.00313725490196 178.0,116.00313725490196 179.0,116.00313725490196 180.0,116.00313725490196 181.0,116.00313725490196 182.0,116.00313725490196 183.0,116.00313725490196 184.0,116.00313725490196 185.0,116.00313725490196 186.0,116.00313725490196 187.0,116.00313725490196 188.0,116.00313725490196 189.0,116.00313725490196 190.0,116.00313725490196 191.0,116.00313725490196 192.0,116.00313725490196 193.0,116.00313725490196 194.0,116.00313725490196 195.0,116.00313725490196 196.0,116.00313725490196 197.0,116.00313725490196 198.0,116.00313725490196 199.0,116.00313725490196 200.0,116.00313725490196 201.0,116.00313725490196 202.0,116.00313725490196 203.0,116.00313725490196 204.0,116.00313725490196 205.0,116.00313725490196 206.0,116.00313725490196 207.0,116.00313725490196 208.0,116.00313725490196 209.0,116.00313725490196 210.0,116.00313725490196 211.0,116.00313725490196 212.0,116.00313725490196 213.0,116.00313725490196 214.0,116.00313725490196 215.0,116.00313725490196 216.0,116.00313725490196 217.0,116.00313725490196 218.0,116.00313725490196 219.0,116.00313725490196 220.0,116.00313725490196 221.0,116.00313725490196 222.0,116.00313725490196 223.0,116.00313725490196 224.0,116.00313725490196 225.0,116.00313725490196 226.0,116.00313725490196 227.0,116.00313725490196 228.0,116.00313725490196 229.0,116.00313725490196 230.0,116.00313725490196 231.0,116.00313725490196 232.0,116.00313725490196 233.0,116.00313725490196 234.0,116.00313725490196 235.0,116.00313725490196 236.0,116.00313725490196 237.0,116.00313725490196 237.99686274509804,117.0 238.0,117.00313725490196 238.99686274509804,118.0 239.0,118.00313725490196 239.99686274509804,119.0 239.99686274509804,120.0 240.0,120.00313725490196 240.99686274509804,121.0 240.99686274509804,122.0 241.0,122.00313725490196 241.99686274509804,123.0 242.0,123.00313725490196 242.99686274509804,124.0 242.99686274509804,125.0 243.0,125.00313725490196 243.99686274509804,126.0 244.0,126.00313725490196 244.99686274509804,127.0 244.99686274509804,128.0 245.0,128.00313725490196 245.99686274509804,129.0 246.0,129.00313725490196 246.99686274509804,130.0 246.99686274509804,131.0 247.0,131.00313725490196 247.99686274509804,132.0 248.0,132.00313725490196 248.99686274509804,133.0 248.99686274509804,134.0 249.0,134.00313725490196 249.99686274509804,135.0 250.0,135.00313725490196 250.99686274509804,136.0 250.99686274509804,137.0 251.0,137.00313725490196 251.99686274509804,138.0 252.0,138.00313725490196 252.99686274509804,139.0 252.99686274509804,140.0 253.0,140.00313725490196 253.99686274509804,141.0 254.0,141.00313725490196 254.99686274509804,142.0 254.99686274509804,143.0 255.0,143.00313725490196 255.99686274509804,144.0 255.99686274509804,145.0 256.0,145.00313725490196 256.99686274509804,146.0 257.0,146.00313725490196 257.99686274509804,147.0 257.99686274509804,148.0 258.0,148.00313725490196 258.99686274509804,149.0 259.0,149.00313725490196 259.99686274509804,150.0 259.99686274509804,151.0 260.0,151.00313725490196 260.99686274509804,152.0 261.0,152.00313725490196 261.99686274509804,153.0 261.99686274509804,154.0 262.0,154.00313725490196 262.99686274509804,155.0 262.99686274509804,156.0 263.0,156.00313725490196 263.99686274509804,157.0 264.0,157.00313725490196 264.99686274509804,158.0 264.99686274509804,159.0 265.0,159.00313725490196 266.0,159.00313725490196 266.00313725490196,159.0" /><polygon fill="black" points="274.00313725490196,251.0 275.0,250.00313725490196 276.0,250.00313725490196 277.0,250.00313725490196 278.0,250.00313725490196 279.0,250.00313725490196 280.0,250.00313725490196 281.0,250.00313725490196 282.0,250.00313725490196 282.00313725490196,250.0 283.0,249.00313725490196 284.0,249.00313725490196 285.0,249.00313725490196 286.0,249.00313725490196 287.0,249.00313725490196 287.00313725490196,249.0 288.0,248.00313725490196 289.0,248.00313725490196 290.0,248.00313725490196 291.0,248.00313725490196 292.0,248.00313725490196 292.00313725490196,248.0 293.0,247.00313725490196 294.0,247.00313725490196 295.0,247.00313725490196 295.00313725490196,247.0 296.0,246.00313725490196 297.0,246.00313725490196 298.0,246.00313725490196 298.00313725490196,246.0 299.0,245.00313725490196 300.0,245.00313725490196 301.0,245.00313725490196 301.00313725490196,245.0 302.0,244.00313725490196 303.0,244.00313725490196 303.00313725490196,244.0 304.0,243.00313725490196 305.0,243.00313725490196 306.0,243.00313725490196 306.00313725490196,243.0 307.0,242.00313725490196 308.0,242.00313725490196 308.00313725490196,242.0 309.0,241.00313725490196 310.0,241.00313725490196 310.00313725490196,241.0 311.0,240.00313725490196 312.0,240.00313725490196 312.00313725490196,240.0 313.0,239.00313725490196 314.0,239.00313725490196 314.00313725490196,239.0 315.0,238.00313725490196 316.0,238.00313725490196 316.00313725490196,238.0 317.0,237.00313725490196 318.0,237.00313725490196 318.00313725490196,237.0 319.0,236.00313725490196 319.00313725490196,236.0 320.0,235.00313725490196 321.0,235.00313725490196 321.00313725490196,235.0 322.0,234.00313725490196 323.0,234.00313725490196 323.00313725490196,234.0 324.0,233.00313725490196 324.00313725490196,233.0 325.0,232.00313725490196 325.00313725490196,232.0 326.0,231.00313725490196 327.0,231.00313725490196 327.00313725490196,231.0 328.0,230.00313725490196 328.00313725490196,230.0 329.0,229.00313725490196 329.00313725490196,229.0 330.0,228.00313725490196 331.0,228.00313725490196 331.00313725490196,228.0 332.0,227.00313725490196 332.00313725490196,227.0 333.0,226.00313725490196 333.00313725490196,226.0 334.0,225.00313725490196 334.00313725490196,225.0 335.0,224.00313725490196 335.00313725490196,224.0 336.0,223.00313725490196 336.00313725490196,223.0 337.0,222.00313725490196 337.00313725490196,222.0 338.0,221.00313725490196 338.00313725490196,221.0 339.0,220.00313725490196 339.00313725490196,220.0 340.0,219.00313725490196 340.00313725490196,219.0 341.0,218.00313725490196 341.00313725490196,218.0 342.0,217.00313725490196 342.00313725490196,217.0 343.0,216.00313725490196 343.00313725490196,216.0 344.0,215.00313725490196 344.00313725490196,215.0 344.00313725490196,214.0 345.0,213.00313725490196 345.00313725490196,213.0 346.0,212.00313725490196 346.00313725490196,212.0 347.0,211.00313725490196 347.00313725490196,211.0 348.0,210.00313725490196 348.00313725490196,210.0 348.00313725490196,209.0 349.0,208.00313725490196 349.00313725490196,208.0 350.0,207.00313725490196 350.00313725490196,207.0 350.00313725490196,206.0 351.0,205.00313725490196 351.00313725490196,205.0 352.0,204.00313725490196 352.00313725490196,204.0 352.00313725490196,203.0 353.0,202.00313725490196 353.00313725490196,202.0 353.00313725490196,201.0 354.0,200.00313725490196 354.00313725490196,200.0 355.0,199.00313725490196 355.00313725490196,199.0 355.00313725490196,198.0 356.0,197.00313725490196 356.00313725490196,197.0 356.00313725490196,196.0 357.0,195.00313725490196 357.00313725490196,195.0 357.00313725490196,194.0 358.0,193.00313725490196 358.00313725490196,193.0 358.00313725490196,192.0 358.00313725490196,191.0 359.0,190.00313725490196 359.00313725490196,190.0 359.00313725490196,189.0 360.0,188.00313725490196 360.00313725490196,188.0 360.00313725490196,187.0 360.00313725490196,186.0 361.0,185.00313725490196 361.00313725490196,185.0 361.0,184.99686274509804 360.0,184.99686274509804 359.0,184.99686274509804 358.0,184.99686274509804 357.0,184.99686274509804 356.0,184.99686274509804 355.0,184.99686274509804 354.0,184.99686274509804 353.0,184.99686274509804 352.0,184.99686274509804 351.0,184.99686274509804 350.0,184.99686274509804 349.0,184.99686274509804 348.0,184.99686274509804 347.0,184.99686274509804 346.0,184.99686274509804 345.0,184.99686274509804 344.0,184.99686274509804 343.0,184.99686274509804 342.0,184.99686274509804 341.0,184.99686274509804 340.0,184.99686274509804 339.0,184.99686274509804 338.0,184.99686274509804 337.0,184.99686274509804 336.0,184.99686274509804 335.0,184.99686274509804 334.0,184.99686274509804 333.0,184.99686274509804 332.0,184.99686274509804 331.0,184.99686274509804 330.0,184.99686274509804 329.0,184.99686274509804 328.0,184.99686274509804 327.0,184.99686274509804 326.0,184.99686274509804 325.0,184.99686274509804 324.0,184.99686274509804 323.0,184.99686274509804 322.0,184.99686274509804 321.0,184.99686274509804 320.0,184.99686274509804 319.0,184.99686274509804 318.0,184.99686274509804 317.0,184.99686274509804 316.0,184.99686274509804 315.0,184.99686274509804 314.0,184.99686274509804 313.0,184.99686274509804 312.0,184.99686274509804 311.0,184.99686274509804 310.0,184.99686274509804 309.0,184.99686274509804 308.0,184.99686274509804 307.0,184.99686274509804 306.0,184.99686274509804 305.0,184.99686274509804 304.0,184.99686274509804 303.0,184.99686274509804 302.0,184.99686274509804 301.0,184.99686274509804 300.0,184.99686274509804 299.99686274509804,185.0 299.0,185.99686274509804 298.99686274509804,186.0 298.99686274509804,187.0 298.0,187.99686274509804 297.99686274509804,188.0 297.0,188.99686274509804 296.99686274509804,189.0 296.99686274509804,190.0 296.0,190.99686274509804 295.99686274509804,191.0 295.99686274509804,192.0 295.0,192.99686274509804 294.99686274509804,193.0 294.99686274509804,194.0 294.0,194.99686274509804 293.99686274509804,195.0 293.0,195.99686274509804 292.99686274509804,196.0 292.99686274509804,197.0 292.0,197.99686274509804 291.99686274509804,198.0 291.99686274509804,199.0 291.0,199.99686274509804 290.99686274509804,200.0 290.0,200.99686274509804 289.99686274509804,201.0 289.99686274509804,202.0 289.0,202.99686274509804 288.99686274509804,203.0 288.0,203.99686274509804 287.99686274509804,204.0 287.99686274509804,205.0 287.0,205.99686274509804 286.99686274509804,206.0 286.99686274509804,207.0 286.0,207.99686274509804 285.99686274509804,208.0 285.0,208.99686274509804 284.99686274509804,209.0 284.99686274509804,210.0 284.0,210.99686274509804 283.99686274509804,211.0 283.99686274509804,212.0 283.0,212.99686274509804 282.99686274509804,213.0 282.0,213.99686274509804 281.99686274509804,214.0 281.99686274509804,215.0 281.0,215.99686274509804 280.99686274509804,216.0 280.99686274509804,217.0 280.0,217.99686274509804 279.99686274509804,218.0 279.0,218.99686274509804 278.99686274509804,219.0 278.99686274509804,220.0 278.0,220.99686274509804 277.99686274509804,221.0 277.99686274509804,222.0 277.0,222.99686274509804 276.99686274509804,223.0 276.0,223.99686274509804 275.99686274509804,224.0 275.99686274509804,225.0 275.0,225.99686274509804 274.99686274509804,226.0 274.99686274509804,227.0 274.0,227.99686274509804 273.99686274509804,228.0 273.0,228.99686274509804 272.99686274509804,229.0 272.99686274509804,230.0 272.0,230.99686274509804 271.99686274509804,231.0 271.0,231.99686274509804 270.99686274509804,232.0 270.99686274509804,233.0 270.0,233.99686274509804 269.99686274509804,234.0 269.0,234.99686274509804 268.99686274509804,235.0 268.99686274509804,236.0 268.0,236.99686274509804 267.99686274509804,237.0 267.99686274509804,238.0 267.0,238.99686274509804 266.0,238.99686274509804 265.0,238.99686274509804 264.00313725490196,238.0 264.0,237.99686274509804 263.00313725490196,237.0 263.0,236.99686274509804 262.00313725490196,236.0 262.00313725490196,235.0 262.0,234.99686274509804 261.00313725490196,234.0 261.00313725490196,233.0 261.0,232.99686274509804 260.00313725490196,232.0 260.0,231.99686274509804 259.00313725490196,231.0 259.00313725490196,230.0 259.0,229.99686274509804 258.00313725490196,229.0 258.00313725490196,228.0 258.0,227.99686274509804 257.00313725490196,227.0 257.0,226.99686274509804 256.00313725490196,226.0 256.00313725490196,225.0 256.0,224.99686274509804 255.00313725490196,224.0 255.00313725490196,223.0 255.0,222.99686274509804 254.00313725490196,222.0 254.0,221.99686274509804 253.00313725490196,221.0 253.00313725490196,220.0 253.0,219.99686274509804 252.00313725490196,219.0 252.00313725490196,218.0 252.0,217.99686274509804 251.00313725490196,217.0 251.0,216.99686274509804 250.00313725490196,216.0 250.00313725490196,215.0 250.0,214.99686274509804 249.00313725490196,214.0 249.00313725490196,213.0 249.0,212.99686274509804 248.00313725490196,212.0 248.0,211.99686274509804 247.00313725490196,211.0 247.00313725490196,210.0 247.0,209.99686274509804 246.00313725490196,209.0 246.00313725490196,208.0 246.0,207.99686274509804 245.00313725490196,207.0 245.0,206.99686274509804 244.00313725490196,206.0 244.00313725490196,205.0 244.0,204.99686274509804 243.00313725490196,204.0 243.0,203.99686274509804 242.00313725490196,203.0 242.00313725490196,202.0 242.0,201.99686274509804 241.00313725490196,201.0 241.00313725490196,200.0 241.0,199.99686274509804 240.00313725490196,199.0 240.0,198.99686274509804 239.00313725490196,198.0 239.00313725490196,197.0 239.0,196.99686274509804 238.00313725490196,196.0 238.00313725490196,195.0 238.0,194.99686274509804 237.00313725490196,194.0 237.0,193.99686274509804 236.00313725490196,193.0 236.00313725490196,192.0 236.0,191.99686274509804 235.00313725490196,191.0 235.0,190.99686274509804 234.00313725490196,190.0 234.00313725490196,189.0 234.0,188.99686274509804 233.00313725490196,188.0 233.00313725490196,187.0 233.0,186.99686274509804 232.00313725490196,186.0 232.0,185.99686274509804 231.00313725490196,185.0 231.0,184.99686274509804 230.0,184.99686274509804 229.0,184.99686274509804 228.0,184.99686274509804 227.0,184.99686274509804 226.0,184.99686274509804 225.0,184.99686274509804 224.0,184.99686274509804 223.0,184.99686274509804 222.0,184.99686274509804 221.0,184.99686274509804 220.0,184.99686274509804 219.0,184.99686274509804 218.0,184.99686274509804 217.0,184.99686274509804 216.0,184.99686274509804 215.0,184.99686274509804 214.0,184.99686274509804 213.0,184.99686274509804 212.0,184.99686274509804 211.0,184.99686274509804 210.0,184.99686274509804 209.0,184.99686274509804 208.0,184.99686274509804 207.0,184.99686274509804 206.0,184.99686274509804 205.0,184.99686274509804 204.0,184.99686274509804 203.0,184.99686274509804 202.0,184.99686274509804 201.0,184.99686274509804 200.0,184.99686274509804 199.0,184.99686274509804 198.0,184.99686274509804 197.0,184.99686274509804 196.0,184.99686274509804 195.0,184.99686274509804 194.0,184.99686274509804 193.0,184.99686274509804 192.0,184.99686274509804 191.0,184.99686274509804 190.0,184.99686274509804 189.0,184.99686274509804 188.0,184.99686274509804 187.0,184.99686274509804 186.0,184.99686274509804 185.0,184.99686274509804 184.0,184.99686274509804 183.0,184.99686274509804 182.0,184.99686274509804 181.0,184.99686274509804 180.0,184.99686274509804 179.0,184.99686274509804 178.0,184.99686274509804 177.0,184.99686274509804 176.0,184.99686274509804 175.0,184.99686274509804 174.0,184.99686274509804 173.0,184.99686274509804 172.0,184.99686274509804 171.0,184.99686274509804 170.0,184.99686274509804 169.99686274509804,185.0 169.99686274509804,186.0 170.0,186.00313725490196 170.99686274509804,187.0 170.99686274509804,188.0 171.0,188.00313725490196 171.99686274509804,189.0 171.99686274509804,190.0 171.99686274509804,191.0 172.0,191.00313725490196 172.99686274509804,192.0 172.99686274509804,193.0 173.0,193.00313725490196 173.99686274509804,194.0 173.99686274509804,195.0 174.0,195.00313725490196 174.99686274509804,196.0 174.99686274509804,197.0 175.0,197.00313725490196 175.99686274509804,198.0 176.0,198.00313725490196 176.99686274509804,199.0 176.99686274509804,200.0 177.0,200.00313725490196 177.99686274509804,201.0 177.99686274509804,202.0 178.0,202.00313725490196 178.99686274509804,203.0 178.99686274509804,204.0 179.0,204.00313725490196 179.99686274509804,205.0 180.0,205.00313725490196 180.99686274509804,206.0 180.99686274509804,207.0 181.0,207.00313725490196 181.99686274509804,208.0 182.0,208.00313725490196 182.99686274509804,209.0 183.0,209.00313725490196 183.99686274509804,210.0 183.99686274509804,211.0 184.0,211.00313725490196 184.99686274509804,212.0 185.0,212.00313725490196 185.99686274509804,213.0 186.0,213.00313725490196 186.99686274509804,214.0 186.99686274509804,215.0 187.0,215.00313725490196 187.99686274509804,216.0 188.0,216.00313725490196 188.99686274509804,217.0 189.0,217.00313725490196 189.99686274509804,218.0 190.0,218.00313725490196 190.99686274509804,219.0 191.0,219.00313725490196 191.99686274509804,220.0 192.0,220.00313725490196 192.99686274509804,221.0 193.0,221.00313725490196 193.99686274509804,222.0 194.0,222.00313725490196 194.99686274509804,223.0 195.0,223.00313725490196 195.99686274509804,224.0 196.0,224.00313725490196 196.99686274509804,225.0 197.0,225.00313725490196 197.99686274509804,226.0 198.0,226.00313725490196 198.99686274509804,227.0 199.0,227.00313725490196 200.0,227.00313725490196 200.99686274509804,228.0 201.0,228.00313725490196 201.99686274509804,229.0 202.0,229.00313725490196 202.99686274509804,230.0 203.0,230.00313725490196 204.0,230.00313725490196 204.99686274509804,231.0 205.0,231.00313725490196 205.99686274509804,232.0 206.0,232.00313725490196 206.99686274509804,233.0 207.0,233.00313725490196 208.0,233.00313725490196 208.99686274509804,234.0 209.0,234.00313725490196 209.99686274509804,235.0 210.0,235.00313725490196 211.0,235.00313725490196 211.99686274509804,236.0 212.0,236.00313725490196 213.0,236.00313725490196 213.99686274509804,237.0 214.0,237.00313725490196 214.99686274509804,238.0 215.0,238.00313725490196 216.0,238.00313725490196 216.99686274509804,239.0 217.0,239.00313725490196 218.0,239.00313725490196 218.99686274509804,240.0 219.0,240.00313725490196 220.0,240.00313725490196 220.99686274509804,241.0 221.0,241.00313725490196 222.0,241.00313725490196 222.99686274509804,242.0 223.0,242.00313725490196 224.0,242.00313725490196 224.99686274509804,243.0 225.0,243.00313725490196 226.0,243.00313725490196 227.0,243.00313725490196 227.99686274509804,244.0 228.0,244.00313725490196 229.0,244.00313725490196 229.99686274509804,245.0 230.0,245.00313725490196 231.0,245.00313725490196 232.0,245.00313725490196 232.99686274509804,246.0 233.0,246.00313725490196 234.0,246.00313725490196 235.0,246.00313725490196 236.0,246.00313725490196 236.99686274509804,247.0 237.0,247.00313725490196 238.0,247.00313725490196 239.0,247.00313725490196 239.99686274509804,248.0 240.0,248.00313725490196 241.0,248.00313725490196 242.0,248.00313725490196 243.0,248.00313725490196 243.99686274509804,249.0 244.0,249.00313725490196 245.0,249.00313725490196 246.0,249.00313725490196 247.0,249.00313725490196 248.0,249.00313725490196 248.99686274509804,250.0 249.0,250.00313725490196 250.0,250.00313725490196 251.0,250.00313725490196 252.0,250.00313725490196 253.0,250.00313725490196 254.0,250.00313725490196 255.0,250.00313725490196 256.0,250.00313725490196 257.0,250.00313725490196 258.0,250.00313725490196 258.99686274509804,251.0 259.0,251.00313725490196 260.0,251.00313725490196 261.0,251.00313725490196 262.0,251.00313725490196 263.0,251.00313725490196 264.0,251.00313725490196 265.0,251.00313725490196 266.0,251.00313725490196 267.0,251.00313725490196 268.0,251.00313725490196 269.0,251.00313725490196 270.0,251.00313725490196 271.0,251.00313725490196 272.0,251.00313725490196 273.0,251.00313725490196 274.0,251.00313725490196 274.00313725490196,251.0" /><polygon fill="black" points="32.00313725490196,289.0 33.0,288.00313725490196 34.0,288.00313725490196 34.00313725490196,288.0 35.0,287.00313725490196 35.00313725490196,287.0 36.0,286.00313725490196 36.00313725490196,286.0 37.0,285.00313725490196 37.00313725490196,285.0 38.0,284.00313725490196 38.00313725490196,284.0 39.0,283.00313725490196 39.00313725490196,283.0 40.0,282.00313725490196 40.00313725490196,282.0 41.0,281.00313725490196 41.00313725490196,281.0 42.0,280.00313725490196 42.00313725490196,280.0 43.0,279.00313725490196 43.00313725490196,279.0 44.0,278.00313725490196 44.00313725490196,278.0 45.0,277.00313725490196 45.00313725490196,277.0 46.0,276.00313725490196 46.00313725490196,276.0 47.0,275.00313725490196 47.00313725490196,275.0 48.0,274.00313725490196 48.00313725490196,274.0 49.0,273.00313725490196 50.0,273.00313725490196 50.00313725490196,273.0 50.00313725490196,272.0 51.0,271.00313725490196 51.00313725490196,271.0 52.0,270.00313725490196 52.00313725490196,270.0 53.0,269.00313725490196 53.00313725490196,269.0 54.0,268.00313725490196 54.00313725490196,268.0 55.0,267.00313725490196 55.00313725490196,267.0 55.00313725490196,266.0 55.0,265.99686274509804 54.00313725490196,265.0 54.00313725490196,264.0 54.00313725490196,263.0 54.00313725490196,262.0 54.00313725490196,261.0 54.00313725490196,260.0 55.0,259.00313725490196 55.00313725490196,259.0 55.00313725490196,258.0 56.0,257.00313725490196 56.00313725490196,257.0 57.0,256.00313725490196 57.00313725490196,256.0 58.0,255.00313725490196 59.0,255.00313725490196 59.00313725490196,255.0 60.0,254.00313725490196 61.0,254.00313725490196 61.00313725490196,254.0 62.0,253.00313725490196 63.0,253.00313725490196 64.0,253.00313725490196 65.0,253.00313725490196 66.0,253.00313725490196 66.99686274509804,254.0 67.0,254.00313725490196 68.0,254.00313725490196 68.99686274509804,255.0 69.0,255.00313725490196 69.99686274509804,256.0 70.0,256.00313725490196 70.99686274509804,257.0 71.0,257.00313725490196 72.0,257.00313725490196 72.99686274509804,258.0 73.0,258.00313725490196 73.99686274509804,259.0 74.0,259.00313725490196 74.99686274509804,260.0 75.0,260.00313725490196 75.99686274509804,261.0 76.0,261.00313725490196 76.99686274509804,262.0 77.0,262.00313725490196 77.99686274509804,263.0 78.0,263.00313725490196 78.99686274509804,264.0 79.0,264.00313725490196 79.99686274509804,265.0 80.0,265.00313725490196 80.99686274509804,266.0 81.0,266.00313725490196 81.99686274509804,267.0 82.0,267.00313725490196 82.99686274509804,268.0 83.0,268.00313725490196 83.99686274509804,269.0 84.0,269.00313725490196 84.99686274509804,270.0 85.0,270.00313725490196 85.99686274509804,271.0 86.0,271.00313725490196 86.99686274509804,272.0 87.0,272.00313725490196 88.0,272.00313725490196 88.00313725490196,272.0 89.0,271.00313725490196 90.0,271.00313725490196 91.0,271.00313725490196 92.0,271.00313725490196 93.0,271.00313725490196 94.0,271.00313725490196 95.0,271.00313725490196 96.0,271.00313725490196 97.0,271.00313725490196 98.0,271.00313725490196 99.0,271.00313725490196 100.0,271.00313725490196 101.0,271.00313725490196 102.0,271.00313725490196 103.0,271.00313725490196 104.0,271.00313725490196 104.99686274509804,272.0 105.0,272.00313725490196 106.0,272.00313725490196 107.0,272.00313725490196 108.0,272.00313725490196 108.99686274509804,273.0 109.0,273.00313725490196 110.0,273.00313725490196 110.99686274509804,274.0 111.0,274.00313725490196 112.0,274.00313725490196 112.99686274509804,275.0 113.0,275.00313725490196 114.0,275.00313725490196 114.99686274509804,276.0 115.0,276.00313725490196 116.0,276.00313725490196 116.99686274509804,277.0 117.0,277.00313725490196 117.99686274509804,278.0 118.0,278.00313725490196 118.99686274509804,279.0 119.0,279.00313725490196 119.99686274509804,280.0 120.0,280.00313725490196 120.99686274509804,281.0 121.0,281.00313725490196 121.99686274509804,282.0 121.99686274509804,283.0 122.0,283.00313725490196 122.99686274509804,284.0 123.0,284.00313725490196 123.99686274509804,285.0 123.99686274509804,286.0 124.0,286.00313725490196 124.99686274509804,287.0 124.99686274509804,288.0 125.0,288.00313725490196 125.99686274509804,289.0" /><polygon fill="black" points="60.00313725490196,289.0 61.0,288.00313725490196 61.00313725490196,288.0 62.0,287.00313725490196 62.00313725490196,287.0 62.00313725490196,286.0 63.0,285.00313725490196 63.00313725490196,285.0 64.0,284.00313725490196 64.00313725490196,284.0 65.0,283.00313725490196 65.00313725490196,283.0 66.0,282.00313725490196 66.00313725490196,282.0 67.0,281.00313725490196 68.0,281.00313725490196 68.00313725490196,281.0 69.0,280.00313725490196 70.0,280.00313725490196 70.00313725490196,280.0 71.0,279.00313725490196 71.00313725490196,279.0 71.0,278.99686274509804 70.00313725490196,278.0 70.0,277.99686274509804 69.00313725490196,277.0 69.0,276.99686274509804 68.00313725490196,276.0 68.0,275.99686274509804 67.00313725490196,275.0 67.0,274.99686274509804 66.0,274.99686274509804 65.00313725490196,274.0 65.0,273.99686274509804 64.00313725490196,273.0 64.0,272.99686274509804 63.00313725490196,272.0 63.0,271.99686274509804 62.99686274509804,272.0 62.0,272.99686274509804 61.99686274509804,273.0 61.0,273.99686274509804 60.99686274509804,274.0 60.0,274.99686274509804 59.99686274509804,275.0 59.0,275.99686274509804 58.99686274509804,276.0 58.0,276.99686274509804 57.99686274509804,277.0 57.0,277.99686274509804 56.99686274509804,278.0 56.0,278.99686274509804 55.99686274509804,279.0 55.0,279.99686274509804 54.99686274509804,280.0 54.99686274509804,281.0 54.0,281.99686274509804 53.99686274509804,282.0 53.0,282.99686274509804 52.99686274509804,283.0 52.0,283.99686274509804 51.99686274509804,284.0 51.0,284.99686274509804 50.99686274509804,285.0 50.0,285.99686274509804 49.99686274509804,286.0 49.0,286.99686274509804 48.99686274509804,287.0 48.0,287.99686274509804 47.99686274509804,288.0 47.0,288.99686274509804 46.99686274509804,289.0" /><polygon fill="black" points="112.00313725490196,289.0 112.0,288.99686274509804 111.00313725490196,288.0 111.0,287.99686274509804 110.00313725490196,287.0 110.0,286.99686274509804 109.00313725490196,286.0 109.0,285.99686274509804 108.0,285.99686274509804 107.00313725490196,285.0 107.0,284.99686274509804 106.0,284.99686274509804 105.00313725490196,284.0 105.0,283.99686274509804 104.00313725490196,283.0 104.0,282.99686274509804 103.0,282.99686274509804 102.00313725490196,282.0 102.0,281.99686274509804 101.0,281.99686274509804 100.0,281.99686274509804 99.00313725490196,281.0 99.0,280.99686274509804 98.0,280.99686274509804 97.0,280.99686274509804 96.0,280.99686274509804 95.0,280.99686274509804 94.0,280.99686274509804 93.99686274509804,281.0 93.99686274509804,282.0 94.0,282.00313725490196 95.0,282.00313725490196 96.0,282.00313725490196 97.0,282.00313725490196 97.99686274509804,283.0 98.0,283.00313725490196 99.0,283.00313725490196 100.0,283.00313725490196 100.99686274509804,284.0 101.0,284.00313725490196 102.0,284.00313725490196 102.99686274509804,285.0 103.0,285.00313725490196 104.0,285.00313725490196 104.99686274509804,286.0 105.0,286.00313725490196 106.0,286.00313725490196 106.99686274509804,287.0 107.0,287.00313725490196 107.99686274509804,288.0 108.0,288.00313725490196 108.99686274509804,289.0" /></svg>